<?xml version="1.0" encoding="utf-8"?>
<!-- Generator: Adobe Illustrator 16.0.0, SVG Export Plug-In . SVG Version: 6.00 Build 0)  -->
<!DOCTYPE svg PUBLIC "-//W3C//DTD SVG 1.1//EN" "http://www.w3.org/Graphics/SVG/1.1/DTD/svg11.dtd">
<svg version="1.1" id="Layer_1" xmlns="http://www.w3.org/2000/svg" xmlns:xlink="http://www.w3.org/1999/xlink" x="0px" y="0px"
	 width="734.965px" height="148.492px" viewBox="0 0 734.965 148.492" enable-background="new 0 0 734.965 148.492"
	 xml:space="preserve">
<g>
	<g>
		<g>
			<path fill-rule="evenodd" clip-rule="evenodd" fill="#2A934D" d="M165.317,17.029c0,5.991,0,11.125,0,16.26
				c0,24.663-0.002,49.324,0.002,73.987c0.001,6.899,0.097,6.991,6.956,6.989c3.833,0,7.707-0.374,11.486,0.066
				c4.661,0.543,5.729-1.502,5.634-5.637c-0.179-7.828-0.005-15.662-0.011-23.494c-0.017-20.496-0.064-40.992-0.073-61.488
				c-0.002-6.653,0.036-6.633,6.604-6.62c9.133,0.019,18.266,0.005,27.99,0.005c0.132,3.019,0.348,5.626,0.345,8.233
				c-0.03,27.662-0.12,55.323-0.13,82.985c-0.002,6.494,0.7,7.035,7.289,6.68c9.764-0.526,15.262-6.397,15.288-16.667
				c0.062-24.829,0.013-49.658,0.016-74.487c0-6.718,0.013-6.706,6.93-6.744c7.998-0.043,16.002,0.068,23.99-0.25
				c3.629-0.145,4.568,1.161,4.557,4.567c-0.099,28.994,0.165,57.992-0.159,86.983c-0.187,16.688-11.292,29.711-28.88,32.127
				c-4.432,0.609-8.942,0.891-13.418,0.9c-34.494,0.074-68.988-0.031-103.481,0.145c-4.357,0.021-5.703-1.098-5.681-5.564
				c0.187-37.992,0.189-75.985,0.077-113.978c-0.012-3.975,1.17-5.194,5.133-5.084C145.242,17.208,154.717,17.029,165.317,17.029z"
				/>
			<path fill-rule="evenodd" clip-rule="evenodd" fill="#2A934D" d="M496.509,141.113c0-7.055,0.047-14.025-0.01-20.994
				c-0.105-12.698-7.91-20.418-20.678-20.481c-6.777-0.034-13.555-0.006-20.885-0.006c0,12.324-0.256,23.947,0.117,35.55
				c0.168,5.172-1.517,6.633-6.529,6.396c-8.143-0.386-16.322-0.215-24.48-0.023c-3.371,0.078-4.758-0.91-4.753-4.48
				c0.055-38.646,0.007-77.293-0.068-115.94c-0.006-2.889,0.892-4.143,4.026-4.135c25.65,0.068,51.307-0.351,76.951,0.081
				c20.075,0.338,31.982,12.429,33.028,32.453c0.267,5.115,0.467,10.365-0.367,15.377c-1.515,9.107-6.964,15.627-15.273,19.705
				c-1.604,0.787-3.204,1.588-5.886,2.918c2.157,1.295,3.394,2.195,4.755,2.826c8.999,4.169,14.894,10.809,15.334,20.973
				c0.424,9.779,0.091,19.592,0.091,29.781C520.11,141.113,508.563,141.113,496.509,141.113z M454.513,44.457
				c0,9.125-0.152,17.559,0.172,25.976c0.046,1.199,2.378,3.272,3.695,3.307c8.959,0.233,17.953,0.396,26.891-0.148
				c7.375-0.45,12.378-7.122,12.255-15.046c-0.126-8.112-4.553-13.749-11.839-14.001C475.751,44.198,465.794,44.457,454.513,44.457z
				"/>
			<path fill-rule="evenodd" clip-rule="evenodd" fill="#2A934D" d="M298.552,44.432c-0.517-0.97-1.466-1.935-1.48-2.912
				c-0.097-6.818-0.011-13.64,0.04-20.46c0.023-3.089,1.44-4.153,4.671-4.129c21.156,0.155,42.323-0.25,63.466,0.288
				c6.992,0.178,14.404,1.488,20.789,4.229c12.703,5.453,17.734,16.831,17.922,29.905c0.42,29.147,0.179,58.306,0.186,87.46
				c0,0.64-0.246,1.279-0.383,1.945c-0.51,0.237-0.945,0.621-1.381,0.619c-27.15-0.076-54.301-0.059-81.449-0.329
				c-19.904-0.198-28.159-13.135-29.929-29.638c-0.923-8.605-0.195-17.74,1.686-26.215c3.157-14.221,14.372-22.559,28.899-22.857
				c13.821-0.283,27.65-0.135,41.476-0.178c6.415-0.02,7.425-1.378,5.53-7.424c-2.053-6.548-6.853-10.215-13.678-10.234
				c-15.494-0.044-30.987-0.031-46.48-0.005 M351.922,117.049c4.156,0,8.32-0.159,12.466,0.047c3.742,0.186,5.004-1.451,4.931-5.019
				c-0.134-6.479-0.113-12.968,0.046-19.448c0.086-3.477-1.467-4.746-4.767-4.725c-8.311,0.052-16.629-0.219-24.934,0.018
				c-8.738,0.25-13.567,5.576-13.633,14.419c-0.065,8.819,4.736,14.177,13.424,14.663
				C343.599,117.236,347.766,117.043,351.922,117.049z"/>
			<path fill-rule="evenodd" clip-rule="evenodd" fill="#2A934D" d="M653.378,94.394c0,13.659-0.135,27.321,0.076,40.978
				c0.07,4.48-1.303,6.211-5.975,6.18c-24.652-0.17-49.308,0.012-73.961-0.111c-21.009-0.105-33.279-12.367-32.897-33.395
				c0.159-8.719,0.269-17.907,2.998-26.008c4.985-14.797,17.847-19.264,32.249-19.604c12.651-0.3,25.322-0.237,37.973,0.111
				c4.166,0.115,4.836-1.587,4.625-4.956c-0.498-7.91-5.873-13.036-14.121-13.074c-17.491-0.08-34.984-0.157-52.473,0.039
				c-3.908,0.044-5.393-0.951-5.19-5.002c0.3-5.982,0.198-11.992,0.063-17.986c-0.072-3.199,1.112-4.419,4.372-4.409
				c22.987,0.076,45.981-0.323,68.961,0.114c20.406,0.388,32.969,14.764,33.236,37.145c0.159,13.325,0.029,26.652,0.029,39.979
				C653.354,94.394,653.366,94.394,653.378,94.394z M601.39,87.818c0-0.012,0-0.023,0-0.035c-4.658,0-9.344-0.316-13.969,0.072
				c-7.142,0.602-11.654,5.65-12.129,12.892c-0.531,8.085,3.117,14.597,10.258,15.33c10.041,1.031,20.226,0.743,30.348,0.726
				c0.867-0.002,2.443-2.188,2.477-3.392c0.199-7.313,0.213-14.644-0.145-21.946c-0.063-1.268-2.1-3.355-3.378-3.479
				C610.401,87.554,605.883,87.818,601.39,87.818z"/>
			<path fill-rule="evenodd" clip-rule="evenodd" fill="#2A934D" d="M116.079,16.324c0,9.562,0,18.499,0,28.34
				c-2.925,0-5.688,0-8.449,0c-15.999,0-31.997-0.003-47.995,0c-1.333,0-2.677-0.069-3.997,0.075
				c-5.844,0.642-9.808,4.918-9.536,10.203c0.275,5.345,3.958,8.755,10.08,8.852c9.997,0.157,19.997,0.073,29.996,0.106
				c22.282,0.076,36.553,13.949,35.981,36.24c-0.208,8.126-1.683,16.753-4.89,24.149c-5.489,12.659-17.091,17.019-30.255,17.124
				c-21.996,0.176-43.995,0.039-65.992,0.15c-3.729,0.02-5.492-1.078-5.309-5.147c0.277-6.154,0.158-12.329,0.094-18.494
				c-0.037-3.587,1.428-4.858,5.133-4.825c17.163,0.152,34.33,0.135,51.493-0.036c9.075-0.09,14.043-7.765,10.205-15.278
				c-1.986-3.888-5.332-5.248-9.46-5.247c-9.666,0.002-19.339-0.261-28.995,0.048c-18.168,0.581-31.606-10.747-33.674-26.769
				c-1.063-8.236-1.194-17.174,0.879-25.109c4.076-15.595,15.157-24.166,31.611-24.323C67.138,16.152,91.282,16.324,116.079,16.324z
				"/>
			<path fill-rule="evenodd" clip-rule="evenodd" fill="#2A934D" d="M722.454,67.03c0,14.664,0.507,29.351-0.132,43.986
				c-0.757,17.357-12.733,29.034-29.813,30.384c-8.777,0.694-17.656,0.007-26.486,0.154c-3.305,0.055-4.385-1.208-4.299-4.417
				c0.169-6.327,0.145-12.665-0.012-18.993c-0.074-2.998,0.988-4.01,4.025-4.141c3.949-0.171,8.012-0.572,11.768-1.718
				c6.701-2.044,9.269-6.013,9.273-13.009c0.02-25.498,0.117-50.998-0.086-76.494c-0.035-4.51,1.113-6.19,5.794-6.01
				c8.153,0.314,16.337,0.291,24.489-0.042c4.553-0.186,5.686,1.637,5.638,5.828c-0.173,14.822-0.067,29.646-0.067,44.47
				C722.515,67.03,722.484,67.03,722.454,67.03z"/>
		</g>
	</g>
</g>
</svg>
