<?xml version="1.0" encoding="utf-8"?>
<!-- Generator: Adobe Illustrator 24.1.3, SVG Export Plug-In . SVG Version: 6.00 Build 0)  -->
<svg version="1.1" id="Layer_1" xmlns="http://www.w3.org/2000/svg" xmlns:xlink="http://www.w3.org/1999/xlink" x="0px" y="0px"
	 viewBox="0 0 158.39 46.39" style="enable-background:new 0 0 158.39 46.39;" xml:space="preserve">
<style type="text/css">
	.st0{fill-rule:evenodd;clip-rule:evenodd;}
	.st1{fill-rule:evenodd;clip-rule:evenodd;fill:#FFFFFF;}
	.st2{fill-rule:evenodd;clip-rule:evenodd;fill:#C9DA3A;}
</style>
<path class="st0" d="M-0.42,0.11h135.71c12.74,0,23.16,10.36,23.16,23.01v0c0,12.65-10.42,23.01-23.16,23.01H-0.42V0.11z"/>
<path class="st1" d="M112.2,21.01h4.28v6.44h-4.28V21.01z M109.17,21.22v6.13c0,0.94,0.35,1.89,1.15,1.89h7.93
	c0.78,0,1.25-0.88,1.25-1.77v-6.61c0-1.17-0.62-1.65-1.67-1.65h-6.89C109.74,19.21,109.17,19.85,109.17,21.22z"/>
<polygon class="st1" points="34.76,29.35 37.78,29.35 37.78,22.99 43.52,22.99 43.52,29.35 46.55,29.35 46.55,15.08 43.52,15.08 
	43.52,21.33 37.78,21.33 37.78,15.08 34.76,15.08 "/>
<path class="st1" d="M77.21,20.9h4.17v3.28h-4.17V20.9z M74.21,20.86v6.84c0,1.21,0.72,1.65,1.77,1.65h8.56v-1.77h-7.31v-1.65h7.2
	v-5.07c0-0.92-0.54-1.53-1.36-1.53h-7.72C74.62,19.33,74.21,20.01,74.21,20.86z"/>
<path class="st2" d="M62.52,32.89h3.03V20.98h4.17l0.1,6.61h-3.97v1.77c1.16,0,5.49,0.17,6.26-0.23c1.03-0.54,0.63-2.31,0.63-4.37
	c0-1.18-0.01-2.36,0-3.54c0.01-1.06-0.26-1.88-1.46-1.88h-8.77V32.89z"/>
<path class="st1" d="M120.65,29.24h3.03V21.1h4.28v8.14h3.03v-7.78c0-1.74-0.56-2.24-2.09-2.24h-5.22v-0.47h-3.03V29.24z"/>
<path class="st1" d="M97.48,20.98v4.25h7.31v2.24h-7.31v1.77h9.08c0.74,0,1.25-0.77,1.25-1.65v-4.13h-7.31V21.1h7.31v-1.89h-8.24
	C98.36,19.21,97.48,19.62,97.48,20.98"/>
<path class="st1" d="M51.45,32.89h3.03c1.06-2.27,3.05-5.99,4.27-8.38l2.61-5.18h-3.03l-3.65,7.2l-3.65-7.2h-3.13l5.14,10.09
	c0.06,0.32-0.59,1.4-0.75,1.71C52.09,31.52,51.54,32.48,51.45,32.89"/>
<path class="st1" d="M136.72,20.98v6.49c0,1.36,0.58,1.89,1.77,1.89h6.68c1.17,0,1.85-0.6,1.88-1.89h-7.31V21.1h7.31
	c0-0.97-0.33-1.77-1.15-1.77h-8.04C137.18,19.33,136.72,20.17,136.72,20.98"/>
<path class="st1" d="M85.79,29.35h3.13V21.1c1.73,0,4.08-0.41,4.17,0.94h3.03c0-1.17-0.39-1.88-1.08-2.31
	c-0.78-0.49-1.73-0.4-2.88-0.4c-2.24,0-4.13-0.12-6.37-0.12V29.35z"/>
<rect x="132.34" y="19.21" class="st1" width="3.03" height="10.03"/>
<path class="st2" d="M68.78,15.55c0,2.6,3.76,2.77,3.76-0.12c0-0.92-0.77-2-1.57-2h-0.13c-0.64,0-1.11,0.03-1.6,0.64
	C68.97,14.41,68.78,14.97,68.78,15.55"/>
<path class="st2" d="M62.41,15.32c0,3.24,3.65,2.69,3.65,0.24c0-0.59-0.1-1.12-0.49-1.57c-0.27-0.31-0.67-0.5-1.09-0.56h-0.53
	C63.15,13.54,62.41,14.14,62.41,15.32"/>
<rect x="132.34" y="14.61" class="st1" width="3.03" height="3.18"/>
<path class="st1" d="M147.39,17.55h0.34c0.16,0,0.27-0.02,0.33-0.07c0.06-0.05,0.09-0.11,0.09-0.19c0-0.05-0.01-0.1-0.04-0.14
	c-0.03-0.04-0.07-0.07-0.12-0.09c-0.05-0.02-0.15-0.03-0.28-0.03h-0.32V17.55z M147.1,18.53v-1.73h0.6c0.21,0,0.35,0.02,0.45,0.05
	c0.09,0.03,0.16,0.09,0.22,0.17c0.05,0.08,0.08,0.16,0.08,0.25c0,0.13-0.05,0.24-0.14,0.33c-0.09,0.09-0.21,0.15-0.36,0.16
	c0.06,0.03,0.11,0.06,0.15,0.09c0.07,0.07,0.16,0.18,0.26,0.34l0.21,0.34h-0.34l-0.16-0.27c-0.12-0.22-0.22-0.35-0.3-0.4
	c-0.05-0.04-0.13-0.06-0.23-0.06h-0.17v0.74H147.1z M147.82,16.29c-0.23,0-0.45,0.06-0.67,0.17c-0.22,0.12-0.38,0.28-0.51,0.5
	c-0.12,0.22-0.18,0.44-0.18,0.67c0,0.23,0.06,0.45,0.18,0.67c0.12,0.21,0.29,0.38,0.5,0.5c0.22,0.12,0.44,0.18,0.67,0.18
	c0.23,0,0.46-0.06,0.67-0.18c0.21-0.12,0.38-0.28,0.5-0.5c0.12-0.21,0.18-0.44,0.18-0.67c0-0.23-0.06-0.46-0.18-0.67
	c-0.12-0.22-0.29-0.38-0.51-0.5C148.26,16.35,148.04,16.29,147.82,16.29z M147.82,16.02c0.27,0,0.54,0.07,0.8,0.21
	c0.26,0.14,0.46,0.34,0.61,0.6c0.14,0.26,0.22,0.53,0.22,0.81c0,0.28-0.07,0.55-0.21,0.8c-0.14,0.26-0.34,0.46-0.6,0.6
	c-0.26,0.14-0.53,0.21-0.81,0.21c-0.28,0-0.55-0.07-0.81-0.21c-0.26-0.14-0.46-0.34-0.6-0.6c-0.14-0.26-0.21-0.52-0.21-0.8
	c0-0.28,0.07-0.55,0.22-0.81c0.15-0.26,0.35-0.46,0.61-0.6C147.28,16.09,147.54,16.02,147.82,16.02z"/>
</svg>
