<?xml version="1.0" encoding="utf-8"?>
<!-- Generator: Adobe Illustrator 16.0.0, SVG Export Plug-In . SVG Version: 6.00 Build 0)  -->
<!DOCTYPE svg PUBLIC "-//W3C//DTD SVG 1.1//EN" "http://www.w3.org/Graphics/SVG/1.1/DTD/svg11.dtd">
<svg version="1.1" id="Layer_1" xmlns="http://www.w3.org/2000/svg" xmlns:xlink="http://www.w3.org/1999/xlink" x="0px" y="0px"
	 width="750px" height="500px" viewBox="0 0 750 500" enable-background="new 0 0 750 500" xml:space="preserve">
<g id="BACKGROUND" display="none">
</g>
<g id="OBJECTS">
	<rect opacity="0.2" fill="#F2F2F2" enable-background="new    " width="750" height="500"/>
	<g opacity="0.2" enable-background="new    ">
		<g>
			<defs>
				<rect id="SVGID_1_" width="750" height="500"/>
			</defs>
			<clipPath id="SVGID_2_">
				<use xlink:href="#SVGID_1_"  overflow="visible"/>
			</clipPath>
			<path clip-path="url(#SVGID_2_)" fill="#FF24C2" d="M17.164,505.542c-6.505,0-11.798-5.293-11.798-11.798
				c0-6.506,5.293-11.799,11.798-11.799s11.798,5.293,11.798,11.799C28.961,500.249,23.668,505.542,17.164,505.542z"/>
		</g>
		<g display="none">
			<defs>
				<rect id="SVGID_3_" width="750" height="500"/>
			</defs>
			<clipPath id="SVGID_4_" display="inline">
				<use xlink:href="#SVGID_3_"  overflow="visible"/>
			</clipPath>
			<path display="inline" clip-path="url(#SVGID_4_)" fill="#FF24C2" d="M718.05,474.254c-6.505,0-11.798-5.292-11.798-11.798
				s5.293-11.798,11.798-11.798s11.798,5.292,11.798,11.798S724.555,474.254,718.05,474.254z"/>
		</g>
		<g display="none">
			<defs>
				<rect id="SVGID_5_" width="750" height="500"/>
			</defs>
			<clipPath id="SVGID_6_" display="inline">
				<use xlink:href="#SVGID_5_"  overflow="visible"/>
			</clipPath>
			<g display="inline" clip-path="url(#SVGID_6_)">
				
					<rect x="-17.649" y="12.063" transform="matrix(-0.7071 -0.7071 0.7071 -0.7071 65.3425 90.1921)" fill="#2339FF" width="137.999" height="39"/>
				
					<rect x="-17.649" y="12.064" transform="matrix(-0.7071 0.7071 -0.7071 -0.7071 109.9808 17.5732)" fill="#2339FF" width="137.999" height="39"/>
			</g>
		</g>
		<g display="none">
			<defs>
				<rect id="SVGID_7_" width="750" height="500"/>
			</defs>
			<clipPath id="SVGID_8_" display="inline">
				<use xlink:href="#SVGID_7_"  overflow="visible"/>
			</clipPath>
			<g display="inline" clip-path="url(#SVGID_8_)">
				
					<rect x="576.332" y="105.312" transform="matrix(-0.7071 -0.7071 0.7071 -0.7071 919.5217 595.2988)" fill="#FF24C2" width="13.438" height="3.797"/>
				
					<rect x="576.31" y="105.316" transform="matrix(-0.7071 0.7071 -0.7071 -0.7071 1071.1051 -229.238)" fill="#FF24C2" width="13.439" height="3.797"/>
			</g>
		</g>
		<g>
			<defs>
				<rect id="SVGID_9_" width="750" height="500"/>
			</defs>
			<clipPath id="SVGID_10_">
				<use xlink:href="#SVGID_9_"  overflow="visible"/>
			</clipPath>
			<g clip-path="url(#SVGID_10_)">
				
					<rect x="745.743" y="415.46" transform="matrix(-0.7071 -0.7071 0.7071 -0.7071 989.4164 1244.5474)" fill="#FF24C2" width="13.439" height="3.798"/>
				
					<rect x="745.75" y="415.513" transform="matrix(-0.7071 0.7071 -0.7071 -0.7071 1579.6995 180.4913)" fill="#FF24C2" width="13.438" height="3.798"/>
			</g>
		</g>
		<g>
			<defs>
				<rect id="SVGID_11_" width="750" height="500"/>
			</defs>
			<clipPath id="SVGID_12_">
				<use xlink:href="#SVGID_11_"  overflow="visible"/>
			</clipPath>
			<g clip-path="url(#SVGID_12_)">
				
					<rect x="512.043" y="415.459" transform="matrix(-0.7071 -0.7071 0.7071 -0.7071 590.4666 1079.2931)" fill="#FF24C2" width="13.438" height="3.797"/>
				
					<rect x="512.004" y="415.47" transform="matrix(-0.7071 0.7071 -0.7071 -0.7071 1180.6405 345.699)" fill="#FF24C2" width="13.439" height="3.797"/>
			</g>
		</g>
		<g>
			<defs>
				<rect id="SVGID_13_" width="750" height="500"/>
			</defs>
			<clipPath id="SVGID_14_">
				<use xlink:href="#SVGID_13_"  overflow="visible"/>
			</clipPath>
			<g clip-path="url(#SVGID_14_)">
				
					<rect x="637.659" y="272.969" transform="matrix(-0.707 -0.7072 0.7072 -0.707 901.2487 921.5287)" fill="#3D3D3D" width="7.737" height="2.186"/>
				
					<rect x="637.689" y="272.965" transform="matrix(-0.7071 0.7071 -0.7071 -0.7071 1288.9954 14.1959)" fill="#3D3D3D" width="7.738" height="2.186"/>
			</g>
		</g>
		<g>
			<defs>
				<rect id="SVGID_15_" width="750" height="500"/>
			</defs>
			<clipPath id="SVGID_16_">
				<use xlink:href="#SVGID_15_"  overflow="visible"/>
			</clipPath>
			<g clip-path="url(#SVGID_16_)">
				
					<rect x="415.424" y="407.466" transform="matrix(-0.707 -0.7072 0.7072 -0.707 426.8291 993.9388)" fill="#3D3D3D" width="7.736" height="2.186"/>
				
					<rect x="415.449" y="407.471" transform="matrix(-0.7072 0.707 -0.707 -0.7072 1004.7182 401.0115)" fill="#3D3D3D" width="7.737" height="2.186"/>
			</g>
		</g>
		<g>
			<defs>
				<rect id="SVGID_17_" width="750" height="500"/>
			</defs>
			<clipPath id="SVGID_18_">
				<use xlink:href="#SVGID_17_"  overflow="visible"/>
			</clipPath>
			<g clip-path="url(#SVGID_18_)">
				
					<rect x="696.489" y="404.955" transform="matrix(-0.7071 -0.7071 0.7071 -0.7071 908.4674 1188.3951)" fill="#3D3D3D" width="7.738" height="2.186"/>
				
					<rect x="696.483" y="404.964" transform="matrix(-0.7071 0.7071 -0.7071 -0.7071 1482.7019 197.958)" fill="#3D3D3D" width="7.738" height="2.186"/>
			</g>
		</g>
		<g>
			<defs>
				<rect id="SVGID_19_" width="750" height="500"/>
			</defs>
			<clipPath id="SVGID_20_">
				<use xlink:href="#SVGID_19_"  overflow="visible"/>
			</clipPath>
			<g clip-path="url(#SVGID_20_)">
				
					<rect x="276.552" y="448.471" transform="matrix(-0.7071 -0.7071 0.7071 -0.7071 160.7962 965.7371)" fill="#3D3D3D" width="7.738" height="2.186"/>
				
					<rect x="276.523" y="448.47" transform="matrix(-0.7071 0.7071 -0.7071 -0.7071 796.5544 569.1625)" fill="#3D3D3D" width="7.738" height="2.186"/>
			</g>
		</g>
		<g>
			<defs>
				<rect id="SVGID_21_" width="750" height="500"/>
			</defs>
			<clipPath id="SVGID_22_">
				<use xlink:href="#SVGID_21_"  overflow="visible"/>
			</clipPath>
			<g clip-path="url(#SVGID_22_)">
				
					<rect x="367.62" y="44.959" transform="matrix(-0.7071 -0.7071 0.7071 -0.7071 601.6189 341.288)" fill="#3D3D3D" width="7.737" height="2.187"/>
				
					<rect x="367.609" y="44.951" transform="matrix(-0.7071 0.7071 -0.7071 -0.7071 666.7013 -184.0848)" fill="#3D3D3D" width="7.738" height="2.187"/>
			</g>
		</g>
		<g>
			<defs>
				<rect id="SVGID_23_" width="750" height="500"/>
			</defs>
			<clipPath id="SVGID_24_">
				<use xlink:href="#SVGID_23_"  overflow="visible"/>
			</clipPath>
			<g clip-path="url(#SVGID_24_)">
				
					<rect x="25.997" y="391.933" transform="matrix(-0.7071 -0.7071 0.7071 -0.7071 -226.9267 692.0576)" fill="#3D3D3D" width="7.738" height="2.187"/>
				
					<rect x="25.968" y="391.935" transform="matrix(-0.7071 0.7071 -0.7071 -0.7071 328.8477 649.8444)" fill="#3D3D3D" width="7.738" height="2.187"/>
			</g>
		</g>
		<g>
			<defs>
				<rect id="SVGID_25_" width="750" height="500"/>
			</defs>
			<clipPath id="SVGID_26_">
				<use xlink:href="#SVGID_25_"  overflow="visible"/>
			</clipPath>
			<g clip-path="url(#SVGID_26_)">
				
					<rect x="659.464" y="20.977" transform="matrix(-0.7071 -0.7071 0.7071 -0.7071 1116.7745 506.7253)" fill="#3D3D3D" width="7.738" height="2.187"/>
				
					<rect x="659.466" y="20.945" transform="matrix(-0.7071 0.7071 -0.7071 -0.7071 1147.9869 -431.4061)" fill="#3D3D3D" width="7.738" height="2.186"/>
			</g>
		</g>
		<g>
			<defs>
				<rect id="SVGID_27_" width="750" height="500"/>
			</defs>
			<clipPath id="SVGID_28_">
				<use xlink:href="#SVGID_27_"  overflow="visible"/>
			</clipPath>
			<g clip-path="url(#SVGID_28_)">
				
					<rect x="103.996" y="296.928" transform="matrix(-0.7071 -0.7071 0.7071 -0.7071 -26.5967 585.0272)" fill="#3D3D3D" width="7.738" height="2.188"/>
				
					<rect x="103.973" y="296.936" transform="matrix(-0.707 0.7072 -0.7072 -0.707 394.8484 432.4864)" fill="#3D3D3D" width="7.739" height="2.187"/>
			</g>
		</g>
		<g>
			<defs>
				<rect id="SVGID_29_" width="750" height="500"/>
			</defs>
			<clipPath id="SVGID_30_">
				<use xlink:href="#SVGID_29_"  overflow="visible"/>
			</clipPath>
			<g clip-path="url(#SVGID_30_)">
				
					<rect x="57.983" y="109.922" transform="matrix(-0.7071 -0.7071 0.7071 -0.7071 27.0918 233.2528)" fill="#3D3D3D" width="7.737" height="2.187"/>
				
					<rect x="57.981" y="109.925" transform="matrix(-0.7071 0.7071 -0.7071 -0.7071 184.0861 145.7857)" fill="#3D3D3D" width="7.737" height="2.187"/>
			</g>
		</g>
		<g>
			<defs>
				<rect id="SVGID_31_" width="750" height="500"/>
			</defs>
			<clipPath id="SVGID_32_">
				<use xlink:href="#SVGID_31_"  overflow="visible"/>
			</clipPath>
			<g opacity="0.55" clip-path="url(#SVGID_32_)">
				
					<rect x="332.964" y="498.328" transform="matrix(-0.7071 -0.7071 0.7071 -0.7071 226.1609 1094.1321)" fill="#3D3D3D" width="13.438" height="3.798"/>
				
					<rect x="332.975" y="498.32" transform="matrix(-0.7071 0.7071 -0.7071 -0.7071 933.6025 613.7267)" fill="#3D3D3D" width="13.438" height="3.798"/>
			</g>
		</g>
		<g>
			<defs>
				<rect id="SVGID_33_" width="750" height="500"/>
			</defs>
			<clipPath id="SVGID_34_">
				<use xlink:href="#SVGID_33_"  overflow="visible"/>
			</clipPath>
			<g clip-path="url(#SVGID_34_)">
				
					<rect x="188.973" y="14.889" transform="matrix(-0.7071 -0.7071 0.7071 -0.7071 322.1964 167.0333)" fill="#FF24C2" width="13.438" height="3.798"/>
				
					<rect x="188.973" y="14.892" transform="matrix(-0.7071 0.7071 -0.7071 -0.7071 345.9388 -109.7115)" fill="#FF24C2" width="13.438" height="3.798"/>
			</g>
		</g>
		<g>
			<defs>
				<rect id="SVGID_35_" width="750" height="500"/>
			</defs>
			<clipPath id="SVGID_36_">
				<use xlink:href="#SVGID_35_"  overflow="visible"/>
			</clipPath>
			<g clip-path="url(#SVGID_36_)">
				
					<rect x="71.277" y="415.471" transform="matrix(-0.7071 -0.7071 0.7071 -0.7071 -161.9756 767.6467)" fill="#FF24C2" width="13.439" height="3.798"/>
				
					<rect x="71.256" y="415.475" transform="matrix(-0.7071 0.7071 -0.7071 -0.7071 428.2469 657.3549)" fill="#FF24C2" width="13.439" height="3.798"/>
			</g>
		</g>
		<g>
			<defs>
				<rect id="SVGID_37_" width="750" height="500"/>
			</defs>
			<clipPath id="SVGID_38_">
				<use xlink:href="#SVGID_37_"  overflow="visible"/>
			</clipPath>
			<g clip-path="url(#SVGID_38_)">
				
					<rect x="43.322" y="252.981" transform="matrix(-0.7071 -0.7071 0.7071 -0.7071 -94.8028 470.4912)" fill="#FF24C2" width="13.438" height="3.798"/>
				
					<rect x="43.318" y="252.982" transform="matrix(-0.7071 0.7071 -0.7071 -0.7071 265.6458 399.7276)" fill="#FF24C2" width="13.438" height="3.798"/>
			</g>
		</g>
		<g display="none">
			<defs>
				<rect id="SVGID_39_" width="750" height="500"/>
			</defs>
			<clipPath id="SVGID_40_" display="inline">
				<use xlink:href="#SVGID_39_"  overflow="visible"/>
			</clipPath>
			<g display="inline" clip-path="url(#SVGID_40_)">
				
					<rect x="568.992" y="468.493" transform="matrix(-0.7071 -0.7071 0.7071 -0.7071 744.0557 1284.1824)" fill="#2339FF" width="137.998" height="38.999"/>
				
					<rect x="568.984" y="468.501" transform="matrix(-0.7071 0.7071 -0.7071 -0.7071 1434.1744 381.9442)" fill="#2339FF" width="137.998" height="39"/>
			</g>
		</g>
		<g>
			<defs>
				<rect id="SVGID_41_" width="750" height="500"/>
			</defs>
			<clipPath id="SVGID_42_">
				<use xlink:href="#SVGID_41_"  overflow="visible"/>
			</clipPath>
			<g clip-path="url(#SVGID_42_)">
				
					<image overflow="visible" opacity="0.15" enable-background="new    " width="758" height="763" xlink:href="62F37A48.png"  transform="matrix(0.2391 0 0 0.2375 640.5703 305.9961)">
				</image>
				<g>
					<path fill="#F2F2F2" d="M801.61,467.036H650.571V315.997H801.61V467.036z M660.571,457.036H791.61V325.997H660.571V457.036z"/>
				</g>
			</g>
		</g>
		<g>
			<defs>
				<rect id="SVGID_43_" width="750" height="500"/>
			</defs>
			<clipPath id="SVGID_44_">
				<use xlink:href="#SVGID_43_"  overflow="visible"/>
			</clipPath>
			<g clip-path="url(#SVGID_44_)">
				
					<image overflow="visible" opacity="0.15" enable-background="new    " width="758" height="758" xlink:href="62F37A49.png"  transform="matrix(0.2391 0 0 0.2391 681.5703 -116.4834)">
				</image>
				<g>
					<path fill="#F2F2F2" d="M842.61,44.555H691.571v-151.039H842.61V44.555z M701.571,34.555H832.61V-96.484H701.571V34.555z"/>
				</g>
			</g>
		</g>
		<g>
			<defs>
				<rect id="SVGID_45_" width="750" height="500"/>
			</defs>
			<clipPath id="SVGID_46_">
				<use xlink:href="#SVGID_45_"  overflow="visible"/>
			</clipPath>
			<circle clip-path="url(#SVGID_46_)" fill="#3D3D3D" cx="283.86" cy="71.131" r="1.798"/>
		</g>
		<g>
			<defs>
				<rect id="SVGID_47_" width="750" height="500"/>
			</defs>
			<clipPath id="SVGID_48_">
				<use xlink:href="#SVGID_47_"  overflow="visible"/>
			</clipPath>
			<circle clip-path="url(#SVGID_48_)" fill="#3D3D3D" cx="570.158" cy="479.007" r="1.798"/>
		</g>
		<g>
			<defs>
				<rect id="SVGID_49_" width="750" height="500"/>
			</defs>
			<clipPath id="SVGID_50_">
				<use xlink:href="#SVGID_49_"  overflow="visible"/>
			</clipPath>
			<rect x="713.98" y="-84.478" clip-path="url(#SVGID_50_)" fill="#2339FF" width="108.359" height="108.36"/>
		</g>
		<g>
			<defs>
				<rect id="SVGID_51_" width="750" height="500"/>
			</defs>
			<clipPath id="SVGID_52_">
				<use xlink:href="#SVGID_51_"  overflow="visible"/>
			</clipPath>
			<path clip-path="url(#SVGID_52_)" fill="#FF24C2" d="M327.399,26.018c-6.504,0-11.797-5.292-11.797-11.798
				c0-6.506,5.293-11.798,11.797-11.798c6.505,0,11.798,5.292,11.798,11.798C339.197,20.726,333.904,26.018,327.399,26.018z"/>
		</g>
		<g>
			<defs>
				<rect id="SVGID_53_" width="750" height="500"/>
			</defs>
			<clipPath id="SVGID_54_">
				<use xlink:href="#SVGID_53_"  overflow="visible"/>
			</clipPath>
			<circle clip-path="url(#SVGID_54_)" fill="#3D3D3D" cx="144.491" cy="24.009" r="1.798"/>
		</g>
		<g>
			<defs>
				<rect id="SVGID_55_" width="750" height="500"/>
			</defs>
			<clipPath id="SVGID_56_">
				<use xlink:href="#SVGID_55_"  overflow="visible"/>
			</clipPath>
			<g clip-path="url(#SVGID_56_)">
				<g>
					<circle fill="none" stroke="#3D3D3D" stroke-width="0.25" stroke-miterlimit="10" cx="216.193" cy="60.25" r="2.465"/>
					<circle fill="none" stroke="#3D3D3D" stroke-width="0.25" stroke-miterlimit="10" cx="216.193" cy="48.479" r="2.465"/>
					<circle fill="none" stroke="#3D3D3D" stroke-width="0.25" stroke-miterlimit="10" cx="216.193" cy="36.708" r="2.465"/>
				</g>
				<g>
					<circle fill="none" stroke="#3D3D3D" stroke-width="0.25" stroke-miterlimit="10" cx="227.964" cy="60.25" r="2.465"/>
					<circle fill="none" stroke="#3D3D3D" stroke-width="0.25" stroke-miterlimit="10" cx="227.964" cy="48.479" r="2.465"/>
					<circle fill="none" stroke="#3D3D3D" stroke-width="0.25" stroke-miterlimit="10" cx="227.964" cy="36.708" r="2.465"/>
				</g>
				<g>
					<circle fill="none" stroke="#3D3D3D" stroke-width="0.25" stroke-miterlimit="10" cx="239.735" cy="60.25" r="2.465"/>
					<circle fill="none" stroke="#3D3D3D" stroke-width="0.25" stroke-miterlimit="10" cx="239.735" cy="48.479" r="2.465"/>
					<circle fill="none" stroke="#3D3D3D" stroke-width="0.25" stroke-miterlimit="10" cx="239.735" cy="36.708" r="2.465"/>
				</g>
			</g>
		</g>
		<g>
			<defs>
				<rect id="SVGID_57_" width="750" height="500"/>
			</defs>
			<clipPath id="SVGID_58_">
				<use xlink:href="#SVGID_57_"  overflow="visible"/>
			</clipPath>
			<g clip-path="url(#SVGID_58_)">
				<g>
					<circle fill="none" stroke="#3D3D3D" stroke-width="0.25" stroke-miterlimit="10" cx="368.301" cy="479.007" r="2.465"/>
					<circle fill="none" stroke="#3D3D3D" stroke-width="0.25" stroke-miterlimit="10" cx="368.301" cy="467.236" r="2.465"/>
					<circle fill="none" stroke="#3D3D3D" stroke-width="0.25" stroke-miterlimit="10" cx="368.301" cy="455.465" r="2.465"/>
				</g>
				<g>
					<circle fill="none" stroke="#3D3D3D" stroke-width="0.25" stroke-miterlimit="10" cx="380.072" cy="479.007" r="2.465"/>
					<circle fill="none" stroke="#3D3D3D" stroke-width="0.25" stroke-miterlimit="10" cx="380.072" cy="467.236" r="2.465"/>
					<circle fill="none" stroke="#3D3D3D" stroke-width="0.25" stroke-miterlimit="10" cx="380.072" cy="455.465" r="2.465"/>
				</g>
				<g>
					<circle fill="none" stroke="#3D3D3D" stroke-width="0.25" stroke-miterlimit="10" cx="391.843" cy="479.007" r="2.465"/>
					<circle fill="none" stroke="#3D3D3D" stroke-width="0.25" stroke-miterlimit="10" cx="391.843" cy="467.236" r="2.465"/>
					<circle fill="none" stroke="#3D3D3D" stroke-width="0.25" stroke-miterlimit="10" cx="391.843" cy="455.465" r="2.465"/>
				</g>
			</g>
		</g>
		<g>
			<defs>
				<rect id="SVGID_59_" width="750" height="500"/>
			</defs>
			<clipPath id="SVGID_60_">
				<use xlink:href="#SVGID_59_"  overflow="visible"/>
			</clipPath>
			<g clip-path="url(#SVGID_60_)">
				<g>
					<circle fill="none" stroke="#3D3D3D" stroke-width="0.25" stroke-miterlimit="10" cx="26.497" cy="500.235" r="2.465"/>
					<circle fill="none" stroke="#3D3D3D" stroke-width="0.25" stroke-miterlimit="10" cx="26.497" cy="488.463" r="2.465"/>
					<circle fill="none" stroke="#3D3D3D" stroke-width="0.25" stroke-miterlimit="10" cx="26.497" cy="476.693" r="2.465"/>
				</g>
				<g>
					<circle fill="none" stroke="#3D3D3D" stroke-width="0.25" stroke-miterlimit="10" cx="38.268" cy="500.235" r="2.465"/>
					<circle fill="none" stroke="#3D3D3D" stroke-width="0.25" stroke-miterlimit="10" cx="38.268" cy="488.463" r="2.465"/>
					<circle fill="none" stroke="#3D3D3D" stroke-width="0.25" stroke-miterlimit="10" cx="38.268" cy="476.693" r="2.465"/>
				</g>
				<g>
					<circle fill="none" stroke="#3D3D3D" stroke-width="0.25" stroke-miterlimit="10" cx="50.039" cy="500.235" r="2.465"/>
					<circle fill="none" stroke="#3D3D3D" stroke-width="0.25" stroke-miterlimit="10" cx="50.039" cy="488.463" r="2.465"/>
					<circle fill="none" stroke="#3D3D3D" stroke-width="0.25" stroke-miterlimit="10" cx="50.039" cy="476.693" r="2.465"/>
				</g>
			</g>
		</g>
		<g>
			<defs>
				<rect id="SVGID_61_" width="750" height="500"/>
			</defs>
			<clipPath id="SVGID_62_">
				<use xlink:href="#SVGID_61_"  overflow="visible"/>
			</clipPath>
			<g clip-path="url(#SVGID_62_)">
				<g>
					<circle fill="none" stroke="#3D3D3D" stroke-width="0.25" stroke-miterlimit="10" cx="-1.411" cy="151.049" r="2.465"/>
					<circle fill="none" stroke="#3D3D3D" stroke-width="0.25" stroke-miterlimit="10" cx="-1.411" cy="139.278" r="2.465"/>
					<circle fill="none" stroke="#3D3D3D" stroke-width="0.25" stroke-miterlimit="10" cx="-1.411" cy="127.507" r="2.465"/>
				</g>
				<g>
					<circle fill="none" stroke="#3D3D3D" stroke-width="0.25" stroke-miterlimit="10" cx="10.36" cy="151.049" r="2.465"/>
					<circle fill="none" stroke="#3D3D3D" stroke-width="0.25" stroke-miterlimit="10" cx="10.36" cy="139.278" r="2.465"/>
					<circle fill="none" stroke="#3D3D3D" stroke-width="0.25" stroke-miterlimit="10" cx="10.36" cy="127.507" r="2.465"/>
				</g>
				<g>
					<circle fill="none" stroke="#3D3D3D" stroke-width="0.25" stroke-miterlimit="10" cx="22.131" cy="151.049" r="2.465"/>
					<circle fill="none" stroke="#3D3D3D" stroke-width="0.25" stroke-miterlimit="10" cx="22.131" cy="139.278" r="2.465"/>
					<circle fill="none" stroke="#3D3D3D" stroke-width="0.25" stroke-miterlimit="10" cx="22.131" cy="127.507" r="2.465"/>
				</g>
			</g>
		</g>
		<g>
			<defs>
				<rect id="SVGID_63_" width="750" height="500"/>
			</defs>
			<clipPath id="SVGID_64_">
				<use xlink:href="#SVGID_63_"  overflow="visible"/>
			</clipPath>
			<rect x="264.219" y="-96.86" clip-path="url(#SVGID_64_)" fill="#2339FF" width="108.36" height="108.36"/>
		</g>
		<g>
			<defs>
				<rect id="SVGID_65_" width="750" height="500"/>
			</defs>
			<clipPath id="SVGID_66_">
				<use xlink:href="#SVGID_65_"  overflow="visible"/>
			</clipPath>
			<circle clip-path="url(#SVGID_66_)" fill="#3D3D3D" cx="108.824" cy="207.722" r="1.798"/>
		</g>
		<g>
			<defs>
				<rect id="SVGID_67_" width="750" height="500"/>
			</defs>
			<clipPath id="SVGID_68_">
				<use xlink:href="#SVGID_67_"  overflow="visible"/>
			</clipPath>
			<path clip-path="url(#SVGID_68_)" fill="#D8823A" d="M700.877,121.906c-6.505,0-11.798-5.292-11.798-11.798
				c0-6.506,5.293-11.798,11.798-11.798s11.798,5.292,11.798,11.798C712.675,116.613,707.382,121.906,700.877,121.906z"/>
		</g>
		<g>
			<defs>
				<rect id="SVGID_69_" width="750" height="500"/>
			</defs>
			<clipPath id="SVGID_70_">
				<use xlink:href="#SVGID_69_"  overflow="visible"/>
			</clipPath>
			<path clip-path="url(#SVGID_70_)" fill="#FF24C2" d="M750,8.219c-6.505,0-11.798-5.292-11.798-11.798S743.495-15.377,750-15.377
				s11.798,5.292,11.798,11.798C761.797,2.927,756.504,8.219,750,8.219z"/>
		</g>
		<g>
			<defs>
				<rect id="SVGID_71_" width="750" height="500"/>
			</defs>
			<clipPath id="SVGID_72_">
				<use xlink:href="#SVGID_71_"  overflow="visible"/>
			</clipPath>
			<path clip-path="url(#SVGID_72_)" fill="#54AFE2" d="M92.222,160.383c-6.505,0-11.798-5.292-11.798-11.798
				s5.293-11.798,11.798-11.798c6.505,0,11.798,5.292,11.798,11.798C104.02,155.09,98.727,160.383,92.222,160.383z"/>
		</g>
		<g>
			<defs>
				<rect id="SVGID_73_" width="750" height="500"/>
			</defs>
			<clipPath id="SVGID_74_">
				<use xlink:href="#SVGID_73_"  overflow="visible"/>
			</clipPath>
			<path clip-path="url(#SVGID_74_)" fill="#FF24C2" d="M430.9,509.568c-6.506,0-11.799-5.292-11.799-11.799
				c0-6.506,5.293-11.798,11.799-11.798c6.505,0,11.798,5.292,11.798,11.798C442.698,504.276,437.405,509.568,430.9,509.568z"/>
		</g>
		<g>
			<defs>
				<rect id="SVGID_75_" width="750" height="500"/>
			</defs>
			<clipPath id="SVGID_76_">
				<use xlink:href="#SVGID_75_"  overflow="visible"/>
			</clipPath>
			<path clip-path="url(#SVGID_76_)" fill="#FF24C2" d="M79.899,11.798c-6.505,0-11.798-5.292-11.798-11.798
				s5.293-11.798,11.798-11.798S91.697-6.505,91.697,0C91.697,6.506,86.404,11.798,79.899,11.798z"/>
		</g>
		<g>
			<defs>
				<rect id="SVGID_77_" width="750" height="500"/>
			</defs>
			<clipPath id="SVGID_78_">
				<use xlink:href="#SVGID_77_"  overflow="visible"/>
			</clipPath>
			<circle clip-path="url(#SVGID_78_)" fill="#3D3D3D" cx="700.877" cy="110.108" r="1.798"/>
		</g>
		<g>
			<defs>
				<rect id="SVGID_79_" width="750" height="500"/>
			</defs>
			<clipPath id="SVGID_80_">
				<use xlink:href="#SVGID_79_"  overflow="visible"/>
			</clipPath>
			<circle clip-path="url(#SVGID_80_)" fill="#3D3D3D" cx="726.09" cy="391.516" r="1.798"/>
		</g>
		<g>
			<defs>
				<rect id="SVGID_81_" width="750" height="500"/>
			</defs>
			<clipPath id="SVGID_82_">
				<use xlink:href="#SVGID_81_"  overflow="visible"/>
			</clipPath>
			<circle clip-path="url(#SVGID_82_)" fill="#3D3D3D" cx="461.514" cy="419.165" r="1.798"/>
		</g>
		<g>
			<defs>
				<rect id="SVGID_83_" width="750" height="500"/>
			</defs>
			<clipPath id="SVGID_84_">
				<use xlink:href="#SVGID_83_"  overflow="visible"/>
			</clipPath>
			<circle clip-path="url(#SVGID_84_)" fill="#3D3D3D" cx="45.405" cy="439.805" r="1.798"/>
		</g>
		<g display="none">
			<defs>
				<rect id="SVGID_85_" width="750" height="500"/>
			</defs>
			<clipPath id="SVGID_86_" display="inline">
				<use xlink:href="#SVGID_85_"  overflow="visible"/>
			</clipPath>
			<rect x="-41.91" y="254.882" display="inline" clip-path="url(#SVGID_86_)" fill="#669FDD" width="108.36" height="108.36"/>
		</g>
		<g display="none">
			<defs>
				<rect id="SVGID_87_" width="750" height="500"/>
			</defs>
			<clipPath id="SVGID_88_" display="inline">
				<use xlink:href="#SVGID_87_"  overflow="visible"/>
			</clipPath>
			<rect x="722.48" y="146.522" display="inline" clip-path="url(#SVGID_88_)" fill="#29A7FC" width="108.359" height="108.36"/>
		</g>
		<g>
			<defs>
				<rect id="SVGID_89_" width="750" height="500"/>
			</defs>
			<clipPath id="SVGID_90_">
				<use xlink:href="#SVGID_89_"  overflow="visible"/>
			</clipPath>
			<rect x="184.026" y="484.64" clip-path="url(#SVGID_90_)" fill="#2339FF" width="108.36" height="108.36"/>
		</g>
		<g display="none">
			<defs>
				<rect id="SVGID_91_" width="750" height="500"/>
			</defs>
			<clipPath id="SVGID_92_" display="inline">
				<use xlink:href="#SVGID_91_"  overflow="visible"/>
			</clipPath>
			<g display="inline" clip-path="url(#SVGID_92_)">
				
					<image overflow="visible" opacity="0.15" enable-background="new    " width="758" height="758" xlink:href="62F37A4A.png"  transform="matrix(0.2391 0 0 0.2391 -113.4297 177.4805)">
				</image>
				<g>
					<path fill="#F2F2F2" d="M47.61,338.52h-151.039V187.48H47.61V338.52z M-93.429,328.52H37.61V197.48H-93.429V328.52z"/>
				</g>
			</g>
		</g>
		<g>
			<defs>
				<rect id="SVGID_93_" width="750" height="500"/>
			</defs>
			<clipPath id="SVGID_94_">
				<use xlink:href="#SVGID_93_"  overflow="visible"/>
			</clipPath>
			<g clip-path="url(#SVGID_94_)">
				
					<line fill="none" stroke="#3D3D3D" stroke-width="0.25" stroke-miterlimit="10" x1="135.693" y1="63.914" x2="135.693" y2="132.759"/>
				
					<line fill="none" stroke="#3D3D3D" stroke-width="0.25" stroke-miterlimit="10" x1="142.693" y1="56.197" x2="142.693" y2="125.042"/>
				
					<line fill="none" stroke="#3D3D3D" stroke-width="0.25" stroke-miterlimit="10" x1="149.693" y1="48.479" x2="149.693" y2="117.325"/>
			</g>
		</g>
		<g>
			<defs>
				<rect id="SVGID_95_" width="750" height="500"/>
			</defs>
			<clipPath id="SVGID_96_">
				<use xlink:href="#SVGID_95_"  overflow="visible"/>
			</clipPath>
			<g clip-path="url(#SVGID_96_)">
				
					<line fill="none" stroke="#3D3D3D" stroke-width="0.25" stroke-miterlimit="10" x1="418.86" y1="-23.728" x2="418.86" y2="45.118"/>
				
					<line fill="none" stroke="#3D3D3D" stroke-width="0.25" stroke-miterlimit="10" x1="425.86" y1="-31.444" x2="425.86" y2="37.401"/>
				
					<line fill="none" stroke="#3D3D3D" stroke-width="0.25" stroke-miterlimit="10" x1="432.86" y1="-39.162" x2="432.86" y2="29.684"/>
			</g>
		</g>
		<g>
			<defs>
				<rect id="SVGID_97_" width="750" height="500"/>
			</defs>
			<clipPath id="SVGID_98_">
				<use xlink:href="#SVGID_97_"  overflow="visible"/>
			</clipPath>
			<g clip-path="url(#SVGID_98_)">
				
					<line fill="none" stroke="#3D3D3D" stroke-width="0.25" stroke-miterlimit="10" x1="696.027" y1="277.159" x2="696.027" y2="346.004"/>
				
					<line fill="none" stroke="#3D3D3D" stroke-width="0.25" stroke-miterlimit="10" x1="703.027" y1="269.441" x2="703.027" y2="338.288"/>
				
					<line fill="none" stroke="#3D3D3D" stroke-width="0.25" stroke-miterlimit="10" x1="710.027" y1="261.725" x2="710.027" y2="330.571"/>
			</g>
		</g>
		<g>
			<defs>
				<rect id="SVGID_99_" width="750" height="500"/>
			</defs>
			<clipPath id="SVGID_100_">
				<use xlink:href="#SVGID_99_"  overflow="visible"/>
			</clipPath>
			<g clip-path="url(#SVGID_100_)">
				<line fill="none" stroke="#3D3D3D" stroke-width="0.25" stroke-miterlimit="10" x1="743" y1="39.443" x2="743" y2="108.289"/>
				<line fill="none" stroke="#3D3D3D" stroke-width="0.25" stroke-miterlimit="10" x1="750" y1="31.726" x2="750" y2="100.572"/>
				<line fill="none" stroke="#3D3D3D" stroke-width="0.25" stroke-miterlimit="10" x1="757" y1="24.009" x2="757" y2="92.854"/>
			</g>
		</g>
		<g>
			<defs>
				<rect id="SVGID_101_" width="750" height="500"/>
			</defs>
			<clipPath id="SVGID_102_">
				<use xlink:href="#SVGID_101_"  overflow="visible"/>
			</clipPath>
			<g clip-path="url(#SVGID_102_)">
				
					<line fill="none" stroke="#3D3D3D" stroke-width="0.25" stroke-miterlimit="10" x1="504.73" y1="467.236" x2="504.73" y2="536.082"/>
				
					<line fill="none" stroke="#3D3D3D" stroke-width="0.25" stroke-miterlimit="10" x1="511.73" y1="459.519" x2="511.73" y2="528.365"/>
				
					<line fill="none" stroke="#3D3D3D" stroke-width="0.25" stroke-miterlimit="10" x1="518.73" y1="451.802" x2="518.73" y2="520.646"/>
			</g>
		</g>
		<g>
			<defs>
				<rect id="SVGID_103_" width="750" height="500"/>
			</defs>
			<clipPath id="SVGID_104_">
				<use xlink:href="#SVGID_103_"  overflow="visible"/>
			</clipPath>
			<path clip-path="url(#SVGID_104_)" fill="#DDA783" d="M0.164,267.043c-6.505,0-11.798-5.293-11.798-11.798
				c0-6.506,5.293-11.799,11.798-11.799s11.798,5.292,11.798,11.799C11.961,261.75,6.668,267.043,0.164,267.043z"/>
		</g>
		<g>
			<defs>
				<rect id="SVGID_105_" width="750" height="500"/>
			</defs>
			<clipPath id="SVGID_106_">
				<use xlink:href="#SVGID_105_"  overflow="visible"/>
			</clipPath>
			<g clip-path="url(#SVGID_106_)">
				
					<line fill="none" stroke="#3D3D3D" stroke-width="0.25" stroke-miterlimit="10" x1="639.553" y1="119.816" x2="639.553" y2="188.662"/>
				
					<line fill="none" stroke="#3D3D3D" stroke-width="0.25" stroke-miterlimit="10" x1="646.553" y1="112.1" x2="646.553" y2="180.945"/>
				
					<line fill="none" stroke="#3D3D3D" stroke-width="0.25" stroke-miterlimit="10" x1="653.553" y1="104.382" x2="653.553" y2="173.228"/>
			</g>
		</g>
		<g>
			<defs>
				<rect id="SVGID_107_" width="750" height="500"/>
			</defs>
			<clipPath id="SVGID_108_">
				<use xlink:href="#SVGID_107_"  overflow="visible"/>
			</clipPath>
			<g clip-path="url(#SVGID_108_)">
				
					<line fill="none" stroke="#3D3D3D" stroke-width="0.25" stroke-miterlimit="10" x1="316.444" y1="400.176" x2="316.444" y2="469.022"/>
				
					<line fill="none" stroke="#3D3D3D" stroke-width="0.25" stroke-miterlimit="10" x1="323.444" y1="392.459" x2="323.444" y2="461.305"/>
				
					<line fill="none" stroke="#3D3D3D" stroke-width="0.25" stroke-miterlimit="10" x1="330.444" y1="384.743" x2="330.444" y2="453.587"/>
			</g>
		</g>
		<g>
			<defs>
				<rect id="SVGID_109_" width="750" height="500"/>
			</defs>
			<clipPath id="SVGID_110_">
				<use xlink:href="#SVGID_109_"  overflow="visible"/>
			</clipPath>
			<g clip-path="url(#SVGID_110_)">
				
					<line fill="none" stroke="#3D3D3D" stroke-width="0.25" stroke-miterlimit="10" x1="-3.64" y1="413.099" x2="-3.64" y2="481.945"/>
				
					<line fill="none" stroke="#3D3D3D" stroke-width="0.25" stroke-miterlimit="10" x1="3.36" y1="405.382" x2="3.36" y2="474.228"/>
				
					<line fill="none" stroke="#3D3D3D" stroke-width="0.25" stroke-miterlimit="10" x1="10.36" y1="397.665" x2="10.36" y2="466.51"/>
			</g>
		</g>
		<g>
			<defs>
				<rect id="SVGID_111_" width="750" height="500"/>
			</defs>
			<clipPath id="SVGID_112_">
				<use xlink:href="#SVGID_111_"  overflow="visible"/>
			</clipPath>
			<g clip-path="url(#SVGID_112_)">
				
					<image overflow="visible" opacity="0.15" enable-background="new    " width="775" height="775" xlink:href="62F37A4B.png"  transform="matrix(0.2378 0 0 0.2378 474.2852 -87.0742)">
				</image>
				<g>
					<g>
						
							<rect x="531.866" y="-79" transform="matrix(0.7071 -0.7071 0.7071 0.7071 164.4209 396.9452)" fill="none" stroke="#2339FF" stroke-width="0.5" stroke-miterlimit="10" width="58.999" height="157.998"/>
						
							<rect x="492.355" y="-19.503" transform="matrix(-0.7071 -0.7071 0.7071 -0.7071 958.2948 396.9333)" fill="#F2F2F2" width="137.999" height="39"/>
						
							<rect x="482.367" y="-29.501" transform="matrix(0.7071 -0.7071 0.7071 0.7071 164.4213 396.9451)" fill="none" stroke="#2339FF" stroke-width="0.5" stroke-miterlimit="10" width="157.998" height="58.999"/>
						
							<rect x="492.355" y="-19.497" transform="matrix(-0.7071 0.7071 -0.7071 -0.7071 958.2949 -396.9329)" fill="#F2F2F2" width="137.999" height="39"/>
					</g>
				</g>
			</g>
		</g>
		<g>
			<defs>
				<rect id="SVGID_113_" width="750" height="500"/>
			</defs>
			<clipPath id="SVGID_114_">
				<use xlink:href="#SVGID_113_"  overflow="visible"/>
			</clipPath>
			<g clip-path="url(#SVGID_114_)">
				
					<image overflow="visible" opacity="0.15" enable-background="new    " width="775" height="771" xlink:href="62F37A4C.png"  transform="matrix(0.2378 0 0 0.2391 75.0967 397.5654)">
				</image>
				<g>
					<g>
						
							<rect x="132.674" y="405.649" transform="matrix(0.7071 -0.7071 0.7071 0.7071 -295.1983 256.6241)" fill="none" stroke="#2339FF" stroke-width="0.5" stroke-miterlimit="10" width="58.999" height="157.999"/>
						
							<rect x="93.176" y="465.136" transform="matrix(-0.7071 -0.7071 0.7071 -0.7071 -65.839 942.001)" fill="#F2F2F2" width="137.999" height="39"/>
						
							<rect x="83.176" y="455.144" transform="matrix(0.7071 -0.7071 0.7071 0.7071 -295.196 256.6262)" fill="none" stroke="#2339FF" stroke-width="0.5" stroke-miterlimit="10" width="157.999" height="59"/>
						
							<rect x="93.168" y="465.139" transform="matrix(-0.7071 0.7071 -0.7071 -0.7071 619.5286 712.6602)" fill="#F2F2F2" width="137.999" height="39"/>
					</g>
				</g>
			</g>
		</g>
		<g>
			<defs>
				<rect id="SVGID_115_" width="750" height="500"/>
			</defs>
			<clipPath id="SVGID_116_">
				<use xlink:href="#SVGID_115_"  overflow="visible"/>
			</clipPath>
			<g clip-path="url(#SVGID_116_)">
				
					<image overflow="visible" opacity="0.15" enable-background="new    " width="363" height="363" xlink:href="62F37A4D.png"  transform="matrix(0.2374 0 0 0.2374 79.6934 94.7598)">
				</image>
				<g>
					<circle fill="#F2F2F2" cx="117.693" cy="132.759" r="28"/>
				</g>
			</g>
		</g>
		<g>
			<defs>
				<rect id="SVGID_117_" width="750" height="500"/>
			</defs>
			<clipPath id="SVGID_118_">
				<use xlink:href="#SVGID_117_"  overflow="visible"/>
			</clipPath>
			<g clip-path="url(#SVGID_118_)">
				
					<image overflow="visible" opacity="0.15" enable-background="new    " width="363" height="363" xlink:href="62F37A4E.png"  transform="matrix(0.2374 0 0 0.2374 676.0703 222.6328)">
				</image>
				<g>
					<circle fill="#F2F2F2" cx="714.071" cy="260.632" r="28"/>
				</g>
			</g>
		</g>
		<g>
			<defs>
				<rect id="SVGID_119_" width="750" height="500"/>
			</defs>
			<clipPath id="SVGID_120_">
				<use xlink:href="#SVGID_119_"  overflow="visible"/>
			</clipPath>
			<g clip-path="url(#SVGID_120_)">
				
					<image overflow="visible" opacity="0.15" enable-background="new    " width="367" height="367" xlink:href="62F37A47.png"  transform="matrix(0.2348 0 0 0.2348 361.2368 462)">
				</image>
				<g>
					<circle fill="#F2F2F2" cx="399.238" cy="500" r="28"/>
				</g>
			</g>
		</g>
		<g>
			<defs>
				<rect id="SVGID_121_" width="750" height="500"/>
			</defs>
			<clipPath id="SVGID_122_">
				<use xlink:href="#SVGID_121_"  overflow="visible"/>
			</clipPath>
			<g clip-path="url(#SVGID_122_)">
				<g>
					<circle fill="none" stroke="#3D3D3D" stroke-width="0.25" stroke-miterlimit="10" cx="703.972" cy="233.519" r="2.465"/>
					<circle fill="none" stroke="#3D3D3D" stroke-width="0.25" stroke-miterlimit="10" cx="703.972" cy="221.748" r="2.465"/>
					<circle fill="none" stroke="#3D3D3D" stroke-width="0.25" stroke-miterlimit="10" cx="703.972" cy="209.977" r="2.465"/>
				</g>
				<g>
					<circle fill="none" stroke="#3D3D3D" stroke-width="0.25" stroke-miterlimit="10" cx="715.744" cy="233.519" r="2.465"/>
					<circle fill="none" stroke="#3D3D3D" stroke-width="0.25" stroke-miterlimit="10" cx="715.744" cy="221.748" r="2.465"/>
					<circle fill="none" stroke="#3D3D3D" stroke-width="0.25" stroke-miterlimit="10" cx="715.744" cy="209.977" r="2.465"/>
				</g>
				<g>
					<circle fill="none" stroke="#3D3D3D" stroke-width="0.25" stroke-miterlimit="10" cx="727.514" cy="233.519" r="2.465"/>
					<circle fill="none" stroke="#3D3D3D" stroke-width="0.25" stroke-miterlimit="10" cx="727.514" cy="221.748" r="2.465"/>
					<circle fill="none" stroke="#3D3D3D" stroke-width="0.25" stroke-miterlimit="10" cx="727.514" cy="209.977" r="2.465"/>
				</g>
			</g>
		</g>
		<g>
			<defs>
				<rect id="SVGID_123_" width="750" height="500"/>
			</defs>
			<clipPath id="SVGID_124_">
				<use xlink:href="#SVGID_123_"  overflow="visible"/>
			</clipPath>
			<g clip-path="url(#SVGID_124_)">
				<g>
					<circle fill="none" stroke="#3D3D3D" stroke-width="0.25" stroke-miterlimit="10" cx="679.799" cy="61.886" r="2.465"/>
					<circle fill="none" stroke="#3D3D3D" stroke-width="0.25" stroke-miterlimit="10" cx="679.799" cy="50.115" r="2.465"/>
					<circle fill="none" stroke="#3D3D3D" stroke-width="0.25" stroke-miterlimit="10" cx="679.799" cy="38.344" r="2.465"/>
				</g>
				<g>
					<circle fill="none" stroke="#3D3D3D" stroke-width="0.25" stroke-miterlimit="10" cx="691.571" cy="61.886" r="2.465"/>
					<circle fill="none" stroke="#3D3D3D" stroke-width="0.25" stroke-miterlimit="10" cx="691.571" cy="50.115" r="2.465"/>
					<circle fill="none" stroke="#3D3D3D" stroke-width="0.25" stroke-miterlimit="10" cx="691.571" cy="38.344" r="2.465"/>
				</g>
				<g>
					<circle fill="none" stroke="#3D3D3D" stroke-width="0.25" stroke-miterlimit="10" cx="703.342" cy="61.886" r="2.465"/>
					<circle fill="none" stroke="#3D3D3D" stroke-width="0.25" stroke-miterlimit="10" cx="703.342" cy="50.115" r="2.465"/>
					<circle fill="none" stroke="#3D3D3D" stroke-width="0.25" stroke-miterlimit="10" cx="703.342" cy="38.344" r="2.465"/>
				</g>
			</g>
		</g>
		<g>
			<defs>
				<rect id="SVGID_125_" width="750" height="500"/>
			</defs>
			<clipPath id="SVGID_126_">
				<use xlink:href="#SVGID_125_"  overflow="visible"/>
			</clipPath>
			<g clip-path="url(#SVGID_126_)">
				<g>
					<circle fill="none" stroke="#3D3D3D" stroke-width="0.25" stroke-miterlimit="10" cx="466.686" cy="114.808" r="2.465"/>
					<circle fill="none" stroke="#3D3D3D" stroke-width="0.25" stroke-miterlimit="10" cx="466.686" cy="103.036" r="2.465"/>
					<circle fill="none" stroke="#3D3D3D" stroke-width="0.25" stroke-miterlimit="10" cx="466.686" cy="91.265" r="2.465"/>
				</g>
				<g>
					<circle fill="none" stroke="#3D3D3D" stroke-width="0.25" stroke-miterlimit="10" cx="478.457" cy="114.808" r="2.465"/>
					<circle fill="none" stroke="#3D3D3D" stroke-width="0.25" stroke-miterlimit="10" cx="478.457" cy="103.036" r="2.465"/>
					<circle fill="none" stroke="#3D3D3D" stroke-width="0.25" stroke-miterlimit="10" cx="478.457" cy="91.265" r="2.465"/>
				</g>
				<g>
					<circle fill="none" stroke="#3D3D3D" stroke-width="0.25" stroke-miterlimit="10" cx="490.229" cy="114.808" r="2.465"/>
					<circle fill="none" stroke="#3D3D3D" stroke-width="0.25" stroke-miterlimit="10" cx="490.229" cy="103.036" r="2.465"/>
					<circle fill="none" stroke="#3D3D3D" stroke-width="0.25" stroke-miterlimit="10" cx="490.229" cy="91.265" r="2.465"/>
				</g>
			</g>
		</g>
		<g>
			<defs>
				<rect id="SVGID_127_" width="750" height="500"/>
			</defs>
			<clipPath id="SVGID_128_">
				<use xlink:href="#SVGID_127_"  overflow="visible"/>
			</clipPath>
			<g clip-path="url(#SVGID_128_)">
				<g>
					<circle fill="none" stroke="#3D3D3D" stroke-width="0.25" stroke-miterlimit="10" cx="632.318" cy="394.825" r="2.465"/>
					<circle fill="none" stroke="#3D3D3D" stroke-width="0.25" stroke-miterlimit="10" cx="632.318" cy="383.053" r="2.465"/>
					<circle fill="none" stroke="#3D3D3D" stroke-width="0.25" stroke-miterlimit="10" cx="632.318" cy="371.282" r="2.465"/>
				</g>
				<g>
					<circle fill="none" stroke="#3D3D3D" stroke-width="0.25" stroke-miterlimit="10" cx="644.088" cy="394.825" r="2.465"/>
					<circle fill="none" stroke="#3D3D3D" stroke-width="0.25" stroke-miterlimit="10" cx="644.088" cy="383.053" r="2.465"/>
					<circle fill="none" stroke="#3D3D3D" stroke-width="0.25" stroke-miterlimit="10" cx="644.088" cy="371.282" r="2.465"/>
				</g>
				<g>
					<circle fill="none" stroke="#3D3D3D" stroke-width="0.25" stroke-miterlimit="10" cx="655.86" cy="394.825" r="2.465"/>
					<circle fill="none" stroke="#3D3D3D" stroke-width="0.25" stroke-miterlimit="10" cx="655.86" cy="383.053" r="2.465"/>
					<circle fill="none" stroke="#3D3D3D" stroke-width="0.25" stroke-miterlimit="10" cx="655.86" cy="371.282" r="2.465"/>
				</g>
			</g>
		</g>
		<g>
			<defs>
				<rect id="SVGID_129_" width="750" height="500"/>
			</defs>
			<clipPath id="SVGID_130_">
				<use xlink:href="#SVGID_129_"  overflow="visible"/>
			</clipPath>
			<g clip-path="url(#SVGID_130_)">
				<g>
					<circle fill="none" stroke="#3D3D3D" stroke-width="0.25" stroke-miterlimit="10" cx="738.229" cy="485.999" r="2.465"/>
					<circle fill="none" stroke="#3D3D3D" stroke-width="0.25" stroke-miterlimit="10" cx="738.229" cy="474.228" r="2.465"/>
					<circle fill="none" stroke="#3D3D3D" stroke-width="0.25" stroke-miterlimit="10" cx="738.229" cy="462.457" r="2.465"/>
				</g>
				<g>
					<circle fill="none" stroke="#3D3D3D" stroke-width="0.25" stroke-miterlimit="10" cx="750" cy="485.999" r="2.465"/>
					<circle fill="none" stroke="#3D3D3D" stroke-width="0.25" stroke-miterlimit="10" cx="750" cy="474.228" r="2.465"/>
					<circle fill="none" stroke="#3D3D3D" stroke-width="0.25" stroke-miterlimit="10" cx="750" cy="462.457" r="2.465"/>
				</g>
				<g>
					<circle fill="none" stroke="#3D3D3D" stroke-width="0.25" stroke-miterlimit="10" cx="761.771" cy="485.999" r="2.465"/>
					<circle fill="none" stroke="#3D3D3D" stroke-width="0.25" stroke-miterlimit="10" cx="761.771" cy="474.228" r="2.465"/>
					<circle fill="none" stroke="#3D3D3D" stroke-width="0.25" stroke-miterlimit="10" cx="761.771" cy="462.457" r="2.465"/>
				</g>
			</g>
		</g>
		<g>
			<defs>
				<rect id="SVGID_131_" width="750" height="500"/>
			</defs>
			<clipPath id="SVGID_132_">
				<use xlink:href="#SVGID_131_"  overflow="visible"/>
			</clipPath>
			<g clip-path="url(#SVGID_132_)">
				<g>
					<circle fill="none" stroke="#3D3D3D" stroke-width="0.25" stroke-miterlimit="10" cx="64.929" cy="375.013" r="2.465"/>
					<circle fill="none" stroke="#3D3D3D" stroke-width="0.25" stroke-miterlimit="10" cx="64.929" cy="363.242" r="2.464"/>
					<circle fill="none" stroke="#3D3D3D" stroke-width="0.25" stroke-miterlimit="10" cx="64.929" cy="351.471" r="2.465"/>
				</g>
				<g>
					<circle fill="none" stroke="#3D3D3D" stroke-width="0.25" stroke-miterlimit="10" cx="76.7" cy="375.013" r="2.465"/>
					<circle fill="none" stroke="#3D3D3D" stroke-width="0.25" stroke-miterlimit="10" cx="76.7" cy="363.242" r="2.464"/>
					<circle fill="none" stroke="#3D3D3D" stroke-width="0.25" stroke-miterlimit="10" cx="76.7" cy="351.471" r="2.465"/>
				</g>
				<g>
					<circle fill="none" stroke="#3D3D3D" stroke-width="0.25" stroke-miterlimit="10" cx="88.472" cy="375.013" r="2.465"/>
					<circle fill="none" stroke="#3D3D3D" stroke-width="0.25" stroke-miterlimit="10" cx="88.472" cy="363.242" r="2.464"/>
					<circle fill="none" stroke="#3D3D3D" stroke-width="0.25" stroke-miterlimit="10" cx="88.472" cy="351.471" r="2.465"/>
				</g>
			</g>
		</g>
		<g>
			<defs>
				<rect id="SVGID_133_" width="750" height="500"/>
			</defs>
			<clipPath id="SVGID_134_">
				<use xlink:href="#SVGID_133_"  overflow="visible"/>
			</clipPath>
			<g clip-path="url(#SVGID_134_)">
				
					<rect x="23.333" y="13.332" transform="matrix(-0.7071 -0.7071 0.7071 -0.7071 36.2374 43.8592)" fill="#F2F2F2" width="7.737" height="2.187"/>
				
					<rect x="23.333" y="13.332" transform="matrix(-0.7071 0.7071 -0.7071 -0.7071 56.6352 5.3891)" fill="#F2F2F2" width="7.738" height="2.186"/>
			</g>
		</g>
		<g>
			<defs>
				<rect id="SVGID_135_" width="750" height="500"/>
			</defs>
			<clipPath id="SVGID_136_">
				<use xlink:href="#SVGID_135_"  overflow="visible"/>
			</clipPath>
			<g clip-path="url(#SVGID_136_)">
				
					<rect x="610.981" y="463.918" transform="matrix(-0.7071 -0.7071 0.7071 -0.7071 720.8016 1228.5873)" fill="#F2F2F2" width="7.738" height="2.186"/>
				
					<rect x="610.975" y="463.925" transform="matrix(-0.7071 0.7071 -0.7071 -0.7071 1378.4216 359.0762)" fill="#F2F2F2" width="7.738" height="2.186"/>
			</g>
		</g>
		<g>
			<defs>
				<rect id="SVGID_137_" width="750" height="500"/>
			</defs>
			<clipPath id="SVGID_138_">
				<use xlink:href="#SVGID_137_"  overflow="visible"/>
			</clipPath>
			<g clip-path="url(#SVGID_138_)">
				
					<rect x="63.254" y="312.467" transform="matrix(-0.7071 -0.7071 0.7071 -0.7071 -107.1342 582.7446)" fill="#F2F2F2" width="7.738" height="2.187"/>
				
					<rect x="63.231" y="312.472" transform="matrix(-0.7071 0.7071 -0.7071 -0.7071 336.2712 487.8438)" fill="#F2F2F2" width="7.738" height="2.187"/>
			</g>
		</g>
		<g>
			<defs>
				<rect id="SVGID_139_" width="750" height="500"/>
			</defs>
			<clipPath id="SVGID_140_">
				<use xlink:href="#SVGID_139_"  overflow="visible"/>
			</clipPath>
			<g clip-path="url(#SVGID_140_)">
				
					<rect x="720.478" y="169.43" transform="matrix(-0.7071 -0.7071 0.7071 -0.7071 1115.959 803.2917)" fill="#F2F2F2" width="7.737" height="2.187"/>
				
					<rect x="720.43" y="169.428" transform="matrix(-0.7071 0.7071 -0.7071 -0.7071 1357.0334 -221.0577)" fill="#F2F2F2" width="7.738" height="2.188"/>
			</g>
		</g>
	</g>
</g>
</svg>
