<?xml version="1.0" encoding="utf-8"?>
<!-- Generator: Adobe Illustrator 16.0.0, SVG Export Plug-In . SVG Version: 6.00 Build 0)  -->
<!DOCTYPE svg PUBLIC "-//W3C//DTD SVG 1.1//EN" "http://www.w3.org/Graphics/SVG/1.1/DTD/svg11.dtd">
<svg version="1.1" id="Layer_1" xmlns="http://www.w3.org/2000/svg" xmlns:xlink="http://www.w3.org/1999/xlink" x="0px" y="0px"
	 width="242.99px" height="242.99px" viewBox="390.504 401.504 242.99 242.99"
	 enable-background="new 390.504 401.504 242.99 242.99" xml:space="preserve">
<path fill="#1977F3" d="M633.494,522.999c0-67.095-54.4-121.495-121.495-121.495s-121.495,54.4-121.495,121.495
	c0,60.637,44.422,110.902,102.513,120.025v-84.897h-30.856v-35.128h30.856v-26.773c0-30.446,18.145-47.275,45.891-47.275
	c13.293,0,27.201,2.375,27.201,2.375v29.899h-15.326c-15.087,0-19.803,9.363-19.803,18.982v22.792h33.693l-5.382,35.128H530.98
	v84.897C589.072,633.918,633.494,583.652,633.494,522.999z"/>
<path fill="#FEFEFE" d="M559.292,558.127l5.382-35.128H530.98v-22.792c0-9.602,4.699-18.982,19.803-18.982h15.326v-29.899
	c0,0-13.908-2.375-27.201-2.375c-27.747,0-45.891,16.812-45.891,47.275v26.773h-30.856v35.128h30.856v84.897
	c6.185,0.974,12.524,1.47,18.982,1.47s12.797-0.513,18.981-1.47v-84.897H559.292z"/>
</svg>
