<?xml version="1.0" encoding="utf-8"?>
<!-- Generator: Adobe Illustrator 16.0.0, SVG Export Plug-In . SVG Version: 6.00 Build 0)  -->
<!DOCTYPE svg PUBLIC "-//W3C//DTD SVG 1.1//EN" "http://www.w3.org/Graphics/SVG/1.1/DTD/svg11.dtd">
<svg version="1.1" id="Layer_1" xmlns="http://www.w3.org/2000/svg" xmlns:xlink="http://www.w3.org/1999/xlink" x="0px" y="0px"
	 width="207.092px" height="200px" viewBox="41.5 0 207.092 200" enable-background="new 41.5 0 207.092 200" xml:space="preserve">
<circle display="none" fill="#D42428" cx="150" cy="100" r="100"/>
<path display="none" fill="#CC202D" d="M220.707,29.278c39.053,39.056,39.057,102.375,0,141.431
	c-39.053,39.053-102.375,39.055-141.43,0L220.707,29.278z"/>
<path display="none" fill="#BA202E" d="M248.477,117.301l-67.301-67.299l-5.428,5.429l-5.429-5.429l-5.95,5.95l3.996,3.996
	l-1.304,1.305l-10.363-10.363l-0.442,0.445L142.291,37.37l-5.95,5.95l1.628,1.628l-2.391,2.391l-10.066-10.066l-4.173,4.173
	l9.814,23.633l-4.42,18.145l12.083,12.085l-30.561,2.138l-0.462,53.032l49.179,49.238
	C203.051,196.444,240.676,161.979,248.477,117.301z"/>
<path display="none" fill="#FFFFFF" d="M185.768,123.187h-6.451l0.031-3.745c0-1.666,1.366-3.025,3.038-3.025h0.413
	c1.673,0,3.045,1.359,3.045,3.025L185.768,123.187z M161.579,115.16c-1.631,0-2.97,1.101-2.97,2.445v18.215
	c0,1.346,1.339,2.439,2.97,2.439c1.644,0,2.983-1.094,2.983-2.439v-18.216C164.563,116.261,163.223,115.16,161.579,115.16z
	 M200.854,104.975v34.646c0,8.313-7.206,15.111-16.019,15.111h-65.862c-8.814,0-16.019-6.801-16.019-15.111v-34.646
	c0-8.313,7.205-15.115,16.019-15.115h65.863C193.647,89.859,200.854,96.664,200.854,104.975z M123.365,143.385l-0.003-36.498
	l8.164,0.003v-5.41l-21.764-0.033v5.315l6.795,0.021v36.601h6.809V143.385z M147.84,112.324h-6.807v19.488
	c0,2.82,0.169,4.23-0.009,4.727c-0.556,1.511-3.044,3.115-4.013,0.164c-0.164-0.518-0.019-2.078-0.021-4.758l-0.032-19.623h-6.77
	l0.025,19.313c0.003,2.96-0.068,5.168,0.022,6.173c0.166,1.771,0.104,3.838,1.751,5.015c3.06,2.21,8.931-0.328,10.399-3.481
	l-0.013,4.023l5.465,0.008v-31.049H147.84z M169.617,134.641l-0.014-16.221c-0.006-6.184-4.629-9.887-10.911-4.885l0.028-12.061
	l-6.801,0.012l-0.033,41.625l5.592-0.083l0.508-2.595C165.135,146.997,169.629,142.503,169.617,134.641z M190.924,132.492
	l-5.106,0.027c0,0.203-0.009,0.436-0.013,0.691v2.848c0,1.524-1.258,2.766-2.789,2.766h-1c-1.533,0-2.791-1.241-2.791-2.766v-0.315
	v-3.136v-4.043h11.688v-4.398c0-3.213-0.083-6.427-0.349-8.265c-0.836-5.815-8.996-6.737-13.121-3.761
	c-1.294,0.93-2.281,2.174-2.859,3.848c-0.579,1.672-0.866,3.953-0.866,6.855v9.672C173.722,148.594,193.25,146.32,190.924,132.492z
	 M164.74,79.979c0.35,0.856,0.895,1.546,1.638,2.07c0.728,0.512,1.666,0.772,2.785,0.772c0.98,0,1.851-0.266,2.605-0.813
	c0.756-0.545,1.394-1.356,1.912-2.443l-0.13,2.672h7.588v-32.27h-5.975v25.115c0,1.358-1.122,2.471-2.491,2.471
	c-1.36,0-2.485-1.113-2.485-2.471V49.968h-6.232v21.764c0,2.773,0.049,4.622,0.132,5.56C164.177,78.224,164.39,79.116,164.74,79.979
	z M141.747,61.754c0-3.098,0.259-5.516,0.771-7.259c0.515-1.739,1.446-3.136,2.789-4.188c1.342-1.06,3.061-1.588,5.145-1.588
	c1.754,0,3.258,0.346,4.518,1.02c1.258,0.679,2.234,1.559,2.908,2.646c0.691,1.091,1.155,2.214,1.406,3.361
	c0.256,1.163,0.379,2.92,0.379,5.284v8.162c0,2.994-0.119,5.195-0.352,6.594c-0.229,1.402-0.725,2.702-1.492,3.919
	c-0.758,1.207-1.737,2.108-2.925,2.683c-1.196,0.583-2.565,0.867-4.116,0.867c-1.728,0-3.187-0.238-4.385-0.739
	c-1.203-0.496-2.135-1.245-2.796-2.237c-0.673-0.995-1.142-2.206-1.424-3.618c-0.288-1.413-0.423-3.534-0.423-6.363v-8.544H141.747z
	 M147.687,74.575c0,1.825,1.362,3.317,3.018,3.317c1.657,0,3.01-1.491,3.01-3.317v-17.18c0-1.825-1.353-3.317-3.01-3.317
	c-1.656,0-3.018,1.49-3.018,3.317V74.575z M126.687,83.248h7.161l0.006-24.75l8.459-21.202h-7.83l-4.498,15.751l-4.562-15.792
	h-7.747l8.999,21.257L126.687,83.248z"/>
<g>
	<circle fill="#152F8C" cx="145.046" cy="100" r="100"/>
	<path fill-rule="evenodd" clip-rule="evenodd" fill="#498ECC" d="M66.883,129.826c8.453-1.301,8.771-1.445,12.113,5.883
		c2.684,5.885,6.305,8.613,13.025,7.801c5.394-0.654,10.93-0.133,16.708-0.133c-0.74-3.494-1.441-6.545-2.012-9.619
		c-0.269-1.449-1.89-3.729,0.546-4.133c2.563-0.426,5.599-1.422,7.984,0.859c0.424,0.406,0.485,1.217,0.656,1.857
		c2.94,11.035,2.938,11.035,14.789,11.035c10.034,0,10.258-0.002,10.171-9.996c-0.035-4.02,1.831-4.139,4.835-4.096
		c2.8,0.037,4.536,0.131,4.541,3.885c0.015,10.207,0.22,10.207,10.464,10.207c0.166,0,0.333,0,0.5,0
		c11.24,0,11.362,0.029,13.904-10.85c1.25-5.344,5.299-3.045,8.063-2.986c3.628,0.078,1.436,2.914,1.113,4.49
		c-1.912,9.355-1.961,9.346,7.618,9.346c1.998,0,4.047-0.289,5.985,0.051c7.311,1.287,12.289-1.395,14.397-8.516
		c1.96-6.617,6.774-5.971,11.825-5.275c-6.82,24.951-35.527,54.633-76.238,55.725C106.404,186.473,75.435,157.934,66.883,129.826z
		 M149.934,173.537c-0.115,0.102-0.345,0.254-0.326,0.295c0.107,0.238,0.273,0.453,0.42,0.674
		c10.805-3.297,14.24-12.771,19.125-21.986c-5.527,0-10.189,0.178-14.83-0.061c-3.19-0.166-4.404,0.736-4.272,4.119
		C150.269,162.221,149.998,167.883,149.934,173.537z M141.172,173.537c-0.066-5.957-0.165-11.912-0.177-17.869
		c-0.004-1.848-0.187-3.213-2.593-3.168c-5.236,0.096-10.475,0.029-16.178,0.029c2.52,7.014,6.088,12.686,10.967,17.467
		c2.183,2.137,4.325,4.672,7.901,4.514c0.128-0.088,0.375-0.201,0.362-0.258C141.402,174.004,141.273,173.773,141.172,173.537z
		 M91.007,152.525c9.209,8.998,18.403,15.449,29.86,18.59c-2.896-5.854-6.12-11.381-8.43-17.35
		c-0.421-1.088-1.428-1.246-2.482-1.244C104.02,152.531,98.085,152.525,91.007,152.525z M168.938,172.041
		c12.295-3.949,21.812-10.119,30.809-19.52c-6.92,0-12.516,0.023-18.11-0.016c-1.425-0.01-2.71,0.174-3.249,1.666
		C176.205,160.209,172.819,165.633,168.938,172.041z"/>
	<path fill-rule="evenodd" clip-rule="evenodd" fill="#498ECC" d="M66.433,72.093c5.551-15.143,14.591-27.609,27.171-37.479
		c43.247-33.931,107.189-17.745,129.124,32.641c0.464,1.065,0.908,2.144,1.28,3.243c0.248,0.733,0.644,1.499-0.419,2.092
		c-2.313,1.291-9.071-0.407-9.861-2.937c-2.896-9.272-8.967-12.858-18.422-11.043c-0.964,0.185-1.994,0.025-2.993,0.025
		c-9.957,0-9.943-0.003-7.897,9.874c0.296,1.425,1.833,3.752-0.804,3.917c-2.664,0.167-6.005,1.837-8.1-1.545
		c-0.251-0.404-0.272-0.952-0.394-1.435c-2.712-10.81-2.711-10.81-13.995-10.81c-0.333,0-0.666,0-1,0
		c-9.804,0-9.989,0.001-9.896,9.791c0.036,3.69-1.315,4.388-4.618,4.337c-3.128-0.048-4.771-0.361-4.739-4.22
		c0.084-9.906-0.12-9.908-10.271-9.908c-11.554,0-11.625-0.02-14.774,11.086c-1.448,5.104-5.456,2.84-8.23,2.688
		c-2.83-0.154-1.169-2.755-0.86-4.294c1.908-9.485,1.934-9.48-7.879-9.48c-2.332,0-4.731,0.359-6.982-0.067
		c-6.76-1.282-10.284,1.956-12.936,7.775C75.596,73.673,75.308,73.542,66.433,72.093z M149.934,28.476
		c0.064,5.817,0.108,11.635,0.208,17.452c0.026,1.558-0.515,3.551,2.169,3.546c5.373-0.011,10.748-0.003,16.543-0.003
		c-2.334-6.245-5.298-11.215-9.167-15.572c-2.606-2.935-5.224-6.109-9.659-6.392c-0.129,0.085-0.379,0.195-0.367,0.252
		C149.709,28.006,149.835,28.238,149.934,28.476z M141.078,27.506c-10.836,3.179-14.16,12.79-19.371,21.986
		c5.83,0,10.76-0.141,15.676,0.055c2.847,0.113,3.715-0.884,3.653-3.684c-0.13-5.792,0.071-11.591,0.136-17.387
		c0.115-0.101,0.344-0.253,0.326-0.294C141.391,27.942,141.225,27.729,141.078,27.506z M91.083,49.49
		c6.908,0,12.704,0.007,18.499-0.007c0.979-0.002,2.186,0.183,2.64-0.93c2.463-6.042,5.772-11.678,8.571-17.719
		C109.472,34.281,100.02,40.33,91.083,49.49z M199.248,48.951c-8.53-9.005-18.145-15.029-30.639-19.239
		c1.932,3.012,2.834,4.822,4.104,6.32c3.449,4.071,2.709,11.584,8.347,13.134c5.245,1.441,11.208,0.271,16.855,0.242
		C198.062,49.409,198.208,49.313,199.248,48.951z"/>
	<path fill-rule="evenodd" clip-rule="evenodd" fill="#FFFFFF" d="M180.045,82.57c2.676,0.01,5.354,0.021,8.03,0.031
		c0.277,0.292,0.555,0.584,0.832,0.876c1.074,6.54,2.149,13.08,3.224,19.619c0.221,0.023,0.441,0.047,0.662,0.07
		c1.395-5.543,3.039-11.039,4.097-16.645c0.749-3.97,3.88-3.423,6.333-4.033c3.072-0.764,2.838,1.966,3.306,3.744
		c1.408,5.343,2.753,10.704,4.974,16.005c0.795-4.625,2.026-9.227,2.256-13.878c0.21-4.253,1.909-5.513,5.82-4.975
		c1.61,0.222,3.277,0.037,5.274,0.037c-2.422,11.123-4.776,21.769-7.039,32.435c-0.715,3.367-2.888,3.898-5.883,3.799
		c-2.666-0.086-4.568-0.07-5.231-3.596c-1.09-5.793-2.978-11.434-4.888-18.461c-1.808,6.67-3.53,11.922-4.592,17.305
		c-0.806,4.088-3.078,4.68-6.69,4.814c-3.732,0.141-4.226-1.68-4.816-4.658c-1.968-9.908-4.279-19.748-6.459-29.614
		C180.243,84.686,180.039,83.599,180.045,82.57z"/>
	<path fill-rule="evenodd" clip-rule="evenodd" fill="#FFFFFF" d="M111.851,85.453c-2.212,10.045-4.546,20.066-6.555,30.152
		c-0.537,2.699-1.137,4.193-4.288,4.066c-3.121-0.127-6.008,0.096-6.945-3.881c-1.33-5.646-2.84-11.252-4.644-18.326
		c-1.96,7.111-3.854,12.861-5.047,18.754c-0.65,3.213-2.285,3.443-4.861,3.424c-2.786-0.02-5.335,0.107-6.095-3.484
		c-2.129-10.061-4.317-20.111-6.593-30.14c-0.434-1.912-0.198-2.501,1.936-2.662c7.13-0.537,7.373-0.466,8.691,6.75
		c0.679,3.715,1.293,7.442,2.159,12.452c2.865-5.055,2.718-9.822,4.495-13.867c0.789-1.795-1.087-5.102,3.014-5.391
		c4.393-0.309,7.081,0.59,7.777,5.602c0.657,4.724,2.205,9.324,3.721,15.427c1.368-7.938,2.48-14.398,3.594-20.859
		c0.273-0.286,0.546-0.572,0.819-0.858c2.677-0.014,5.354-0.029,8.031-0.043C111.065,83.602,110.866,84.689,111.851,85.453z"/>
	<path fill-rule="evenodd" clip-rule="evenodd" fill="#FFFFFF" d="M145.572,97.65c-1.919,7.037-3.882,12.873-5.024,18.867
		c-0.883,4.633-4.063,2.701-6.477,3.049c-2.35,0.34-3.764-0.074-4.35-3.119c-1.881-9.771-4.143-19.477-6.555-29.135
		c-1.309-5.24,3.096-3.955,5.233-4.71c2.091-0.739,4.457-0.728,4.796,2.974c0.54,5.884,1.734,11.707,3.396,17.479
		c1.423-5.57,3.162-11.086,4.147-16.733c0.573-3.282,2.439-2.958,4.594-2.897c2.197,0.063,4.452-0.721,5.071,2.948
		c0.934,5.54,2.682,10.944,4.478,17.942c1.183-7.047,1.976-12.712,3.116-18.305c1.111-5.444,5.442-1.945,8.188-2.419
		c3.319-0.572,1.898,2.422,1.605,3.795c-2.072,9.735-4.507,19.396-6.424,29.157c-0.528,2.691-1.669,3.51-3.881,2.986
		c-2.314-0.549-5.731,2.154-6.76-2.598C149.403,110.814,147.519,104.818,145.572,97.65z"/>
	<path fill-rule="evenodd" clip-rule="evenodd" fill="#384B9E" d="M111.851,85.453c-0.985-0.764-0.786-1.852-0.79-2.883
		C113.219,83.012,111.78,84.439,111.851,85.453z"/>
	<path fill-rule="evenodd" clip-rule="evenodd" fill="#384B9E" d="M180.045,82.57c-0.006,1.029,0.198,2.116-0.791,2.875
		C179.324,84.433,177.887,83.006,180.045,82.57z"/>
	<path fill-rule="evenodd" clip-rule="evenodd" fill="#384B9E" d="M103.03,82.613c-0.273,0.286-0.546,0.572-0.819,0.858
		C102.135,82.852,102.364,82.524,103.03,82.613z"/>
	<path fill-rule="evenodd" clip-rule="evenodd" fill="#384B9E" d="M188.907,83.477c-0.277-0.292-0.555-0.584-0.832-0.876
		C188.756,82.51,188.989,82.843,188.907,83.477z"/>
	<path fill-rule="evenodd" clip-rule="evenodd" fill="#4086C6" d="M141.092,174.51c-0.053-0.332-0.026-0.656,0.08-0.973
		c0.101,0.236,0.23,0.467,0.282,0.715C141.466,174.309,141.22,174.422,141.092,174.51z"/>
	<path fill-rule="evenodd" clip-rule="evenodd" fill="#4086C6" d="M149.934,173.537c0.105,0.316,0.137,0.639,0.094,0.969
		c-0.146-0.221-0.313-0.436-0.42-0.674C149.589,173.791,149.818,173.639,149.934,173.537z"/>
	<path fill-rule="evenodd" clip-rule="evenodd" fill="#4086C6" d="M141.172,28.476c-0.105-0.316-0.137-0.639-0.094-0.969
		c0.146,0.222,0.313,0.436,0.42,0.675C141.517,28.222,141.287,28.375,141.172,28.476z"/>
	<path fill-rule="evenodd" clip-rule="evenodd" fill="#4086C6" d="M150.027,27.506c0.043,0.33,0.012,0.653-0.094,0.969
		c-0.099-0.238-0.225-0.47-0.273-0.717C149.648,27.701,149.898,27.592,150.027,27.506z"/>
</g>
</svg>
