<?xml version="1.0" encoding="utf-8"?>
<!-- Generator: Adobe Illustrator 16.0.0, SVG Export Plug-In . SVG Version: 6.00 Build 0)  -->
<!DOCTYPE svg PUBLIC "-//W3C//DTD SVG 1.1//EN" "http://www.w3.org/Graphics/SVG/1.1/DTD/svg11.dtd">
<svg version="1.1" xmlns="http://www.w3.org/2000/svg" xmlns:xlink="http://www.w3.org/1999/xlink" x="0px" y="0px"
	 width="242.99px" height="242.99px" viewBox="390.504 401.504 242.99 242.99"
	 enable-background="new 390.504 401.504 242.99 242.99" xml:space="preserve">
<g id="Layer_1" display="none">
	<path display="inline" fill="#1977F3" d="M633.494,522.999c0-67.095-54.4-121.495-121.495-121.495s-121.495,54.4-121.495,121.495
		c0,60.637,44.422,110.902,102.513,120.025v-84.897h-30.856v-35.128h30.856v-26.773c0-30.446,18.145-47.275,45.891-47.275
		c13.293,0,27.201,2.375,27.201,2.375v29.899h-15.326c-15.087,0-19.803,9.363-19.803,18.982v22.792h33.693l-5.382,35.128H530.98
		v84.897C589.072,633.918,633.494,583.652,633.494,522.999z"/>
	<path display="inline" fill="#FEFEFE" d="M559.292,558.127l5.382-35.128H530.98v-22.792c0-9.602,4.699-18.982,19.803-18.982h15.326
		v-29.899c0,0-13.908-2.375-27.201-2.375c-27.747,0-45.891,16.812-45.891,47.275v26.773h-30.856v35.128h30.856v84.897
		c6.185,0.974,12.524,1.47,18.982,1.47s12.797-0.513,18.981-1.47v-84.897H559.292z"/>
</g>
<g id="Layer_2">
	<g>
		<path fill-rule="evenodd" clip-rule="evenodd" fill="#FFFFFF" d="M395.22,642.945c-0.164,0-0.328,0-0.492,0
			c2.526-7.547,5.047-15.099,7.58-22.644c4.292-12.789,8.585-25.577,12.904-38.355c0.231-0.688,0.209-1.213-0.168-1.838
			c-3.269-5.415-6.014-11.09-8.284-16.993c-6.949-18.058-9.271-36.695-6.936-55.906c2.649-21.79,10.892-41.252,24.615-58.34
			c13.29-16.548,29.912-28.639,49.84-35.97c24.678-9.078,49.677-9.667,74.799-1.933c16.805,5.173,31.573,13.94,44.413,25.954
			c8.66,8.102,15.895,17.325,21.723,27.649c6.881,12.187,11.377,25.21,13.503,39.032c1.795,11.671,1.801,23.361,0.036,35.045
			c-2.039,13.501-6.325,26.254-12.911,38.211c-8.132,14.762-18.958,27.199-32.495,37.252c-14.875,11.048-31.462,18.109-49.731,21.19
			c-11.564,1.951-23.16,2.104-34.784,0.517c-13.827-1.888-26.875-6.148-39.154-12.767c-0.694-0.374-1.28-0.484-2.062-0.234
			c-18.129,5.826-36.272,11.609-54.401,17.438C400.539,641.111,397.812,641.833,395.22,642.945z M425.068,611.823
			c-1.701-1.648-3.61-2.981-5.959-3.474c-1.699-0.354-3.356-0.157-4.724,1.085c-3.669,3.336-5.925,7.416-5.564,12.441
			c0.34,4.728,4.399,7.915,8.926,7.683c3.893-0.2,7.366-1.719,10.412-4.216c2.724-2.232,3.581-4.688,2.383-7.4
			c-0.398-0.902-1.049-1.653-1.608-2.461c-0.646-0.936-1.696-1.569-2.027-2.733c0.145-0.074,0.281-0.174,0.434-0.224
			c11.074-3.548,22.153-7.082,33.218-10.654c0.812-0.264,1.37-0.077,2.037,0.343c21.236,13.384,44.27,18.192,68.965,13.664
			c28.06-5.146,49.755-20.143,64.798-44.278c13.2-21.182,17.323-44.371,12.43-68.836c-5.762-28.809-21.728-50.66-47.146-65.25
			c-21.253-12.199-44.188-15.428-68.071-10.088c-25.601,5.723-45.651,19.882-59.897,41.858
			c-13.379,20.638-17.86,43.339-14.047,67.622c2.288,14.574,7.897,27.834,16.375,39.89c0.393,0.56,0.611,1.022,0.352,1.78
			c-2.963,8.627-5.821,17.29-8.831,25.902C426.669,606.915,426.213,609.486,425.068,611.823z"/>
		<path fill-rule="evenodd" clip-rule="evenodd" fill="#FFFFFF" d="M425.068,611.823c-0.046,0.234-0.063,0.479-0.145,0.699
			c-0.244,0.663,0.003,0.792,0.606,0.607c0.455-0.143,0.918-0.256,1.377-0.382c0.33,1.164,1.38,1.798,2.026,2.733
			c0.559,0.808,1.21,1.559,1.608,2.461c1.198,2.712,0.341,5.168-2.383,7.4c-3.046,2.497-6.519,4.016-10.412,4.216
			c-4.527,0.232-8.586-2.955-8.926-7.683c-0.361-5.025,1.895-9.105,5.564-12.441c1.368-1.242,3.025-1.438,4.724-1.085
			C421.458,608.842,423.367,610.175,425.068,611.823z"/>
		<path fill-rule="evenodd" clip-rule="evenodd" fill="#FFFFFF" d="M487.822,514.843c5.549,9.543,12.229,18.132,20.996,24.976
			c4.275,3.338,8.841,6.2,13.705,8.596c1.629,0.803,3.244,1.633,4.867,2.449c-0.094,0.492-0.476,0.74-0.836,1.015
			c-1.009,0.77-2.052,1.503-3.01,2.333c-4.5,3.901-4.289,5.77-2.015,9.495c2.878,4.717,6.943,8.27,11.941,10.648
			c6.383,3.041,13.01,3.467,19.734,1.333c6.246-1.98,10.939-5.709,12.846-12.261c1.666-5.727,0.377-10.797-3.73-15.074
			c-3.44-3.581-7.926-4.8-12.701-5.052c-4.129-0.22-8.024,0.958-11.836,2.409c-0.693,0.264-1.371,0.552-2.134,0.489
			c1.18-1.718,2.78-3.074,4.046-4.721c0.824-1.071,1.705-2.101,2.539-3.165c1.635-2.085,3.075-2.537,5.606-1.538
			c3.897,1.536,7.521,3.638,11.217,5.587c3.986,2.101,7.943,4.259,11.913,6.393c0.289,0.155,0.572,0.324,0.869,0.462
			c2.015,0.94,2.851,2.454,2.717,4.728c-0.247,4.193-1.246,8.188-2.971,11.977c-1.144,2.511-3.203,4.336-5.383,5.978
			c-4.004,3.018-8.372,5.298-13.3,6.381c-5.85,1.286-11.564,1.051-17.286-0.985c-8.848-3.149-17.642-6.397-25.895-10.922
			c-8.526-4.671-15.899-10.845-22.643-17.796c-7.225-7.446-13.424-15.684-18.922-24.475c-2.124-3.395-4.382-6.708-6.098-10.337
			c-0.798-1.688-1.651-3.363-2.108-5.192c0.333,0.114,0.523,0.373,0.694,0.663c1.87,3.17,4.254,5.924,6.986,8.364
			c2.926,2.612,6.132,4.793,10.004,5.797c2.133,0.552,3.961-0.057,5.546-1.515C485.312,519.921,486.527,517.355,487.822,514.843z"/>
		<path fill-rule="evenodd" clip-rule="evenodd" fill="#FFFFFF" d="M487.822,514.843c-1.295,2.513-2.511,5.078-4.641,7.038
			c-1.585,1.458-3.413,2.066-5.546,1.515c-3.872-1.004-7.078-3.185-10.004-5.797c-2.731-2.439-5.116-5.193-6.986-8.364
			c-0.171-0.29-0.36-0.549-0.694-0.663c-1.646-3.604-2.448-7.43-2.956-11.33c-0.243-1.868-0.361-3.745-0.152-5.628
			c0.445-0.247,0.606-0.662,0.616-1.131c0.048-2.508,0.887-4.833,1.771-7.118c1.555-4.023,3.973-7.417,7.72-9.721
			c3.358-2.064,6.957-3.367,10.949-2.815c5.473,0.758,9.611,3.684,12.656,8.236c0.313,0.468,0.544,1.028,1.163,1.208
			c0.627,1.367,1.183,2.761,1.537,4.229c-0.118,0.695-0.067,1.377,0.055,2.073c0.764,4.352,0.838,8.696-0.184,13.026
			c-0.3,1.271-0.707,2.526-0.688,3.855c-1.539,1.697-2.905,3.544-4.736,4.983c-1.178,0.926-1.404,2.273-1.045,3.734
			C486.893,513.138,487.524,513.913,487.822,514.843z"/>
		<path fill-rule="evenodd" clip-rule="evenodd" fill="#FFFFFF" d="M535.649,546.199c0.763,0.063,1.44-0.226,2.134-0.489
			c3.812-1.451,7.707-2.629,11.836-2.409c4.775,0.252,9.261,1.471,12.701,5.052c4.107,4.277,5.396,9.348,3.73,15.074
			c-1.906,6.552-6.6,10.28-12.846,12.261c-6.725,2.134-13.352,1.708-19.734-1.333c-4.998-2.379-9.063-5.932-11.941-10.648
			c-2.274-3.726-2.485-5.594,2.015-9.495c0.958-0.83,2.001-1.563,3.01-2.333c0.36-0.274,0.742-0.522,0.836-1.015
			c2.204,0.753,3.954,0.12,5.42-1.648C533.689,548.154,534.698,547.201,535.649,546.199z"/>
		<path fill-rule="evenodd" clip-rule="evenodd" fill="#FFFFFF" d="M491.718,480.274c-0.619-0.18-0.85-0.741-1.163-1.208
			c-3.045-4.552-7.183-7.478-12.656-8.236c-3.992-0.552-7.591,0.751-10.949,2.815c-3.748,2.303-6.165,5.698-7.72,9.721
			c-0.883,2.284-1.722,4.609-1.771,7.118c-0.01,0.47-0.17,0.885-0.616,1.131c0.423-8.792,3.71-16.287,10.073-22.418
			c1.479-1.427,2.941-2.829,4.857-3.682c2.317-1.033,4.711-0.844,7.125-0.619c1.1,0.102,2.209,0.253,3.305,0.197
			c2.243-0.116,3.724,0.946,4.805,2.784c0.921,1.566,1.406,3.309,2.046,4.987c0.863,2.265,1.684,4.545,2.518,6.82
			C491.644,479.873,491.671,480.077,491.718,480.274z"/>
		<path fill-rule="evenodd" clip-rule="evenodd" fill="#FFFFFF" d="M492.437,503.457c-0.018-1.329,0.389-2.584,0.688-3.855
			c1.022-4.331,0.948-8.674,0.184-13.026c-0.122-0.695-0.173-1.377-0.055-2.073c1.226,3.203,2.47,6.399,3.668,9.613
			c0.339,0.909,0.289,1.878-0.095,2.766C495.769,499.336,494.482,501.653,492.437,503.457z"/>
	</g>
</g>
</svg>
