<?xml version="1.0" encoding="utf-8"?>
<!-- Generator: Adobe Illustrator 16.0.0, SVG Export Plug-In . SVG Version: 6.00 Build 0)  -->
<!DOCTYPE svg PUBLIC "-//W3C//DTD SVG 1.1//EN" "http://www.w3.org/Graphics/SVG/1.1/DTD/svg11.dtd">
<svg version="1.1" id="Layer_1" xmlns="http://www.w3.org/2000/svg" xmlns:xlink="http://www.w3.org/1999/xlink" x="0px" y="0px"
	 width="450px" height="450px" viewBox="0 0 450 450" enable-background="new 0 0 450 450" xml:space="preserve">
<g>
	<path fill-rule="evenodd" clip-rule="evenodd" fill="#F26B23" d="M87.175,151.648c-2.192-4.07-3.589-5.992-4.32-8.136
		c-5.229-15.32-13.452-24.636-32.058-21.973c-10.459,1.5-18.146-7.601-18.319-18.498c-0.357-23.218-0.346-46.448-0.021-69.661
		c0.173-11.855,7.893-19.363,19.938-19.396c64.615-0.152,129.23-0.146,193.85,0.016c11.813,0.027,19.294,6.577,19.641,18.509
		c0.682,23.532,0.746,47.113,0.037,70.646c-0.4,13.203-8.277,18.958-23.424,18.996c-43.08,0.103-86.16,0.379-129.229-0.216
		c-9.593-0.136-14.865,2.723-17.854,11.596C93.53,139.133,90.542,144.368,87.175,151.648z M148.682,42.784
		c27.229,0,54.459,0.07,81.689-0.081c3.941-0.021,10.031,2.041,10.308-4.618c0.265-6.545-5.619-5.397-9.777-5.403
		c-54.459-0.06-108.918-0.043-163.383-0.027c-4.336,0-10.096-0.623-9.88,5.473c0.222,6.393,6.345,4.574,10.361,4.591
		C94.894,42.844,121.788,42.784,148.682,42.784z M149.586,82.86c14.118,0,28.242,0,42.354,0c13.447,0,26.894,0.011,40.341-0.011
		c3.708-0.006,8.212,0.357,8.45-4.775c0.281-6.171-4.818-5.132-8.727-5.3c-0.671-0.033-1.343-0.005-2.014-0.005
		c-53.788,0-107.571,0-161.353,0.005c-2.355,0-4.71,0.043-7.059,0.184c-2.382,0.146-3.573,1.878-4.012,3.881
		c-0.59,2.702,1.007,4.78,3.373,5.419c2.523,0.682,5.3,0.574,7.969,0.579C95.804,82.876,122.698,82.86,149.586,82.86z
		 M148.758,52.696c-26.948,0-53.896-0.016-80.844,0.017c-4.277,0-10.221-1.002-10.275,5.034c-0.054,6.198,5.966,4.991,10.178,4.997
		c46.826,0.038,93.642,0.022,140.462,0.022c8.759,0,17.512-0.022,26.271-0.006c3.443,0.006,6.226-1.142,6.253-4.948
		c0.027-3.784-2.718-5.067-6.155-5.094c-2.36-0.016-4.721-0.021-7.069-0.021C201.301,52.696,175.024,52.696,148.758,52.696z
		 M199.06,102.847c11.39,0,22.791,0.038,34.181-0.027c3.882-0.016,7.85-0.574,7.492-5.76c-0.325-4.791-4.396-4.314-7.66-4.32
		c-22.785-0.059-45.576-0.043-68.361,0c-3.329,0.006-7.33-0.33-7.481,4.482c-0.163,5.083,3.708,5.641,7.649,5.641
		C176.269,102.868,187.665,102.863,199.06,102.847z"/>
	<path fill-rule="evenodd" clip-rule="evenodd" fill="#44B563" d="M325.691,309.943c0.281-2.295,0.249-2.647,0.379-2.934
		c6.236-14.525,8.218-26.483-4.288-41.251c-16.868-19.922-13.988-49.625,1.364-71.403c14.552-20.647,41.673-31.555,65.611-25.654
		c27.272,6.734,44.817,23.603,50.074,51.633c8.077,43.07-27.663,80.925-70.895,75.339c-4.899-0.634-9.252-0.006-13.663,1.943
		C345.18,301.639,336.02,305.504,325.691,309.943z M344.616,240.711c3.893-0.553,7.324-3.069,7.319-8.818
		c0-5.668-3.318-8.981-8.64-8.981c-5.338-0.011-8.986,3.703-8.976,8.927C334.336,236.922,337.313,240.624,344.616,240.711z
		 M377.741,240.603c3.503-0.779,6.811-3.47,6.528-9.171c-0.281-5.668-3.8-8.834-9.1-8.504c-5.202,0.319-8.824,3.995-8.478,9.371
		C367.018,237.463,370.151,240.905,377.741,240.603z M416.658,232.504c-0.108-6.145-3.237-9.512-8.58-9.598
		c-5.376-0.082-9.024,3.638-9.084,8.818c-0.06,5.051,2.843,8.927,8.732,8.916C413.405,240.63,416.193,237.495,416.658,232.504z"/>
	<path fill-rule="evenodd" clip-rule="evenodd" fill="#F3E807" d="M126.774,254.429c24.626-25.497,49.251-50.995,73.877-76.492
		c4.46,3.524,5.9,8.91,8.115,13.723c9.111,19.83,18.081,39.714,26.911,59.662c11.812,26.688,23.439,53.452,35.154,80.179
		c-35.041,2.051-70.083,4.098-105.118,6.144c-5.63-12.467-10.843-25.14-16.993-37.342
		C141.082,285.155,136.188,268.709,126.774,254.429z M239.585,306.008c-3.281-7.509-6.821-15.477-10.242-23.494
		c-8.684-20.377-17.269-40.796-26.006-61.146c-1.24-2.896-2.155-7.259-6.778-5.592c-4.547,1.646-4.146,5.495-2.625,9.284
		c0.623,1.554,1.196,3.135,1.857,4.678c7.779,18.205,15.515,36.427,23.381,54.594c3.6,8.315,7.39,16.544,11.211,24.762
		c1.039,2.23,2.733,4.065,5.565,2.944C238.308,311.107,239.671,309.267,239.585,306.008z M191.665,247.521
		c-3.963,1.76-4.207,5.127-2.609,8.868c4.98,11.709,10.053,23.375,15.223,35.003c1.354,3.042,3.031,6.788,7.27,5.045
		c4.179-1.716,2.967-5.689,1.716-8.71c-4.753-11.434-9.755-22.77-14.757-34.1C197.284,250.866,195.682,248.257,191.665,247.521z"/>
	<path fill-rule="evenodd" clip-rule="evenodd" fill="#ECC01D" d="M126.774,254.429c9.414,14.28,14.308,30.727,21.946,45.873
		c6.149,12.202,11.363,24.875,16.993,37.342c-3.346,3.605-9.636,2.707-11.953,7.855c-15.055,4.276-28.778,11.622-42.707,18.492
		c-14.665,8.435-14.892-6.096-20.122-12.657c-6.496-18.053-13.344-35.945-23.938-52.109c0.033-0.336,0.082-0.671,0.087-1.002
		c0.162-5.57-7.633-10.35-3.681-15.211c3.226-3.963,9.711-5.376,14.881-7.633C94.413,268.319,110.604,261.4,126.774,254.429z
		 M102.246,321.403c8.564-3.952,18.579-8.45,28.448-13.241c2.247-1.088,2.972-3.605,2.046-6.111
		c-1.056-2.858-3.687-3.124-5.847-2.236c-9.869,4.044-19.667,8.283-29.379,12.689c-2.063,0.932-4.157,2.793-3.443,5.521
		C94.916,321.252,97.796,321.393,102.246,321.403z M108.894,339.431c10.329-3.075,20.197-8.765,30.391-13.664
		c2.252-1.088,2.566-3.952,1.191-6.214c-1.435-2.371-4.152-2.609-6.253-1.706c-9.793,4.206-19.494,8.629-29.119,13.209
		c-2.068,0.985-3.898,2.993-2.788,5.717C103.361,339.344,105.786,339.604,108.894,339.431z M94.401,303.29
		c8.396-4.006,18.688-8.78,28.827-13.858c1.895-0.941,2.176-3.373,1.104-5.381c-1.575-2.956-4.288-3.184-6.94-2.035
		c-9.539,4.125-19.034,8.336-28.437,12.743c-2.117,0.985-3.941,2.956-2.788,5.711C87.24,303.035,89.729,303.215,94.401,303.29z"/>
	<path fill-rule="evenodd" clip-rule="evenodd" fill="#ECC01D" d="M270.831,331.5c-11.715-26.727-23.343-53.49-35.154-80.179
		c-8.83-19.948-17.8-39.832-26.911-59.662c-2.214-4.813-3.654-10.199-8.115-13.723c-1.126-7.465-0.141-14.118,7.043-18.4
		c7.351-4.379,15.201-1.018,19.808,9.127c17.166,37.759,34.148,75.599,51.189,113.412c5.359,11.888,10.768,23.759,16.046,35.685
		c4.774,10.789,3.421,17.713-4.233,21.887C280.651,345.022,275.692,338.305,270.831,331.5z"/>
	<path fill-rule="evenodd" clip-rule="evenodd" fill="#353A40" d="M160.841,389.564c3.227,13.214,10.903,24.588,15.369,37.271
		c3.838,10.93-2.934,19.401-13.875,17.907c-3.227-0.438-6.155-1.635-7.536-4.438c-10.08-20.469-20.463-40.817-27.489-62.629
		c6.967-4.66,14.854-7.356,22.498-10.561C153.489,374.602,157.16,382.083,160.841,389.564z"/>
	<path fill-rule="evenodd" clip-rule="evenodd" fill="#3962AC" d="M369.41,112.271c-13.756-0.813-24.751-12.933-23.717-26.147
		c1.056-13.539,13.377-24.328,26.64-23.337c13.145,0.975,23.841,12.83,23.224,25.73C394.896,102.17,382.9,113.067,369.41,112.271z"
		/>
	<path fill-rule="evenodd" clip-rule="evenodd" fill="#F0E40B" d="M66.993,299.225c10.594,16.164,17.442,34.057,23.938,52.109
		c-22.222,7.579-38.241,0.488-43.14-19.093C44.387,318.637,51.094,307.106,66.993,299.225z"/>
	<path fill-rule="evenodd" clip-rule="evenodd" fill="#F9CC5B" d="M149.808,367.115c-7.644,3.204-15.531,5.9-22.498,10.561
		c-14.356,6.063-12.294-7.389-16.257-13.68c13.929-6.875,27.652-14.221,42.707-18.497c2.642,5.24,5.294,10.48,7.942,15.715
		C157.739,363.18,153.776,365.145,149.808,367.115z"/>
	<path fill-rule="evenodd" clip-rule="evenodd" fill="#3962AC" d="M56.784,232.617c-0.314,8.18-7.092,14.449-15.212,14.064
		c-8.207-0.385-14.097-7.016-13.767-15.482c0.32-8.115,7.346-14.681,15.228-14.232C51.062,217.417,57.103,224.297,56.784,232.617z"
		/>
	<path fill-rule="evenodd" clip-rule="evenodd" fill="#E6582D" d="M149.808,367.115c3.968-1.971,7.931-3.936,11.894-5.901
		c8.537-2.739,15.076,0.114,17.653,8.407c2.425,7.822-2.75,12.473-9.538,15.477c-3.048,1.349-5.982,2.962-8.976,4.461
		C157.16,382.083,153.489,374.602,149.808,367.115z"/>
	<path fill-rule="evenodd" clip-rule="evenodd" fill="#3F5768" d="M16.908,10.022c-0.098,4.487-2.534,7.162-6.702,7.492
		c-4.493,0.362-6.896-2.718-7.124-6.821C2.876,6.904,5.08,4.306,9.118,4.029C13.427,3.731,16.167,5.691,16.908,10.022z"/>
	<path fill-rule="evenodd" clip-rule="evenodd" fill="#3F5768" d="M437.316,8.409c4.228,0.449,7.092,2.414,7.254,6.875
		c0.141,3.87-1.862,6.447-5.83,6.918c-4.45,0.52-7.276-1.862-7.79-6.047C430.414,11.787,433.37,9.519,437.316,8.409z"/>
	<path fill-rule="evenodd" clip-rule="evenodd" fill="#3F5768" d="M124.825,202.438c3.871,1.083,6.588,3.292,6.361,7.579
		c-0.233,4.39-3.064,6.507-7.287,6.23c-4.212-0.276-6.815-2.744-6.388-7.113C117.912,205.02,120.662,202.849,124.825,202.438z"/>
	<path fill-rule="evenodd" clip-rule="evenodd" fill="#3F5768" d="M427.777,325.621c-4.449-0.206-7.026-2.886-6.886-7.011
		c0.152-4.108,3.021-6.907,7.347-6.589c3.643,0.276,6.226,2.539,6.307,6.572C434.637,323.082,432.238,325.361,427.777,325.621z"/>
	<path fill-rule="evenodd" clip-rule="evenodd" fill="#3F5768" d="M9.79,171.776c-4.239-0.59-7.032-2.999-6.827-7.249
		c0.206-4.157,2.929-6.767,7.368-6.577c4.055,0.173,5.999,2.739,6.069,6.604C16.486,168.929,14.277,171.44,9.79,171.776z"/>
	<path fill-rule="evenodd" clip-rule="evenodd" fill="#3F5768" d="M450,144.73c-0.796,4.027-2.782,6.886-7.292,6.858
		c-4.055-0.027-6.149-2.393-6.334-6.317c-0.2-4.32,1.781-7.335,6.28-7.433C446.979,137.742,449.231,140.6,450,144.73z"/>
	<path fill-rule="evenodd" clip-rule="evenodd" fill="#3F5768" d="M58.954,386.365c4.336,0.654,7.243,2.587,7.541,6.831
		c0.309,4.342-2.1,6.854-6.42,7.06c-4.239,0.2-7.037-1.911-7.281-6.269C52.55,389.635,55.63,387.713,58.954,386.365z"/>
	<path fill-rule="evenodd" clip-rule="evenodd" fill="#3F5768" d="M335.419,393.641c-0.406,4.282-2.777,6.658-7.054,6.643
		c-4.266-0.017-6.907-2.334-6.826-6.719c0.081-4.276,2.929-6.95,6.886-6.956C332.437,386.598,334.856,389.488,335.419,393.641z"/>
	<path fill-rule="evenodd" clip-rule="evenodd" fill="#3F5768" d="M290.769,169.551c-0.39,4.304-2.75,6.659-7.129,6.615
		c-3.806-0.043-6.442-1.781-6.681-5.89c-0.254-4.417,2.09-7.184,6.345-7.39C287.488,162.692,290.038,165.28,290.769,169.551z"/>
	<path fill-rule="evenodd" clip-rule="evenodd" fill="#3F5768" d="M335.511,35.049c-0.963,4.52-3.118,7.476-7.454,7.184
		c-4.185-0.276-6.729-3.069-6.394-7.384c0.282-3.768,2.794-6.133,6.6-6.204C332.68,28.558,334.548,31.616,335.511,35.049z"/>
	<path fill-rule="evenodd" clip-rule="evenodd" fill="#FFF4EE" d="M148.682,42.784c-26.894,0-53.788,0.06-80.682-0.064
		c-4.017-0.017-10.139,1.802-10.361-4.591c-0.216-6.096,5.543-5.473,9.88-5.473c54.464-0.016,108.924-0.033,163.383,0.027
		c4.158,0.006,10.042-1.142,9.777,5.403c-0.276,6.659-6.366,4.596-10.308,4.618C203.142,42.854,175.912,42.784,148.682,42.784z"/>
	<path fill-rule="evenodd" clip-rule="evenodd" fill="#FFF7F3" d="M149.586,82.86c-26.889,0-53.783,0.016-80.677-0.022
		c-2.669-0.005-5.446,0.103-7.969-0.579c-2.366-0.639-3.962-2.717-3.373-5.419c0.438-2.003,1.629-3.735,4.012-3.881
		c2.349-0.141,4.704-0.184,7.059-0.184c53.782-0.005,107.565-0.005,161.353-0.005c0.671,0,1.343-0.027,2.014,0.005
		c3.908,0.167,9.008-0.872,8.727,5.3c-0.238,5.132-4.742,4.769-8.45,4.775c-13.447,0.021-26.894,0.011-40.341,0.011
		C177.828,82.86,163.705,82.86,149.586,82.86z"/>
	<path fill-rule="evenodd" clip-rule="evenodd" fill="#FFFBF9" d="M148.758,52.696c26.266,0,52.543,0,78.82,0
		c2.349,0,4.709,0.005,7.069,0.021c3.438,0.027,6.183,1.311,6.155,5.094c-0.027,3.806-2.81,4.954-6.253,4.948
		c-8.759-0.016-17.512,0.006-26.271,0.006c-46.821,0-93.636,0.016-140.462-0.022c-4.212-0.005-10.231,1.202-10.178-4.997
		c0.054-6.036,5.998-5.034,10.275-5.034C94.862,52.68,121.81,52.696,148.758,52.696z"/>
	<path fill-rule="evenodd" clip-rule="evenodd" fill="#FFF4EE" d="M199.06,102.852c-11.395,0.011-22.791,0.016-34.18,0.011
		c-3.941,0-7.812-0.558-7.649-5.641c0.152-4.813,4.152-4.477,7.481-4.482c22.785-0.043,45.576-0.059,68.361,0
		c3.265,0.006,7.335-0.471,7.66,4.32c0.357,5.186-3.61,5.744-7.492,5.76C221.85,102.885,210.45,102.847,199.06,102.852z"/>
	<path fill-rule="evenodd" clip-rule="evenodd" fill="#213230" d="M344.616,240.711c-7.303-0.087-10.28-3.789-10.296-8.873
		c-0.011-5.224,3.638-8.938,8.976-8.927c5.321,0,8.64,3.313,8.64,8.981C351.94,237.642,348.509,240.158,344.616,240.711z"/>
	<path fill-rule="evenodd" clip-rule="evenodd" fill="#213230" d="M377.741,240.603c-7.59,0.303-10.724-3.14-11.049-8.304
		c-0.347-5.376,3.275-9.052,8.478-9.371c5.3-0.33,8.818,2.836,9.1,8.504C384.552,237.133,381.244,239.823,377.741,240.603z"/>
	<path fill-rule="evenodd" clip-rule="evenodd" fill="#213230" d="M416.658,232.504c-0.465,4.991-3.253,8.126-8.932,8.137
		c-5.89,0.011-8.792-3.865-8.732-8.916c0.06-5.181,3.708-8.9,9.084-8.818C413.421,222.992,416.55,226.359,416.658,232.504z"/>
	<path fill-rule="evenodd" clip-rule="evenodd" fill="#EDC31A" d="M239.585,306.008c0.086,3.259-1.277,5.1-3.638,6.03
		c-2.832,1.121-4.526-0.714-5.565-2.944c-3.821-8.218-7.611-16.446-11.211-24.762c-7.866-18.167-15.602-36.389-23.381-54.594
		c-0.661-1.543-1.234-3.124-1.857-4.678c-1.521-3.79-1.922-7.639,2.625-9.284c4.623-1.667,5.538,2.696,6.778,5.592
		c8.737,20.35,17.323,40.769,26.006,61.146C232.764,290.531,236.304,298.499,239.585,306.008z"/>
	<path fill-rule="evenodd" clip-rule="evenodd" fill="#EDC31A" d="M191.665,247.521c4.017,0.736,5.619,3.346,6.842,6.106
		c5.002,11.33,10.004,22.666,14.757,34.1c1.25,3.021,2.463,6.994-1.716,8.71c-4.239,1.743-5.917-2.003-7.27-5.045
		c-5.17-11.628-10.242-23.294-15.223-35.003C187.458,252.647,187.702,249.28,191.665,247.521z"/>
	<path fill-rule="evenodd" clip-rule="evenodd" fill="#F3E807" d="M102.246,321.403c-4.45-0.011-7.33-0.151-8.174-3.378
		c-0.714-2.729,1.38-4.59,3.443-5.521c9.712-4.406,19.51-8.646,29.379-12.689c2.16-0.888,4.791-0.622,5.847,2.236
		c0.925,2.506,0.2,5.023-2.046,6.111C120.825,312.953,110.81,317.451,102.246,321.403z"/>
	<path fill-rule="evenodd" clip-rule="evenodd" fill="#F3E807" d="M108.894,339.431c-3.107,0.173-5.533-0.087-6.578-2.658
		c-1.11-2.724,0.72-4.731,2.788-5.717c9.625-4.58,19.326-9.003,29.119-13.209c2.101-0.903,4.818-0.665,6.253,1.706
		c1.375,2.262,1.061,5.126-1.191,6.214C129.091,330.666,119.222,336.355,108.894,339.431z"/>
	<path fill-rule="evenodd" clip-rule="evenodd" fill="#F3E807" d="M94.401,303.29c-4.672-0.075-7.162-0.255-8.233-2.82
		c-1.153-2.755,0.671-4.726,2.788-5.711c9.403-4.407,18.898-8.618,28.437-12.743c2.652-1.148,5.365-0.921,6.94,2.035
		c1.072,2.008,0.791,4.439-1.104,5.381C113.089,294.51,102.798,299.284,94.401,303.29z"/>
</g>
</svg>
