<?xml version="1.0" encoding="utf-8"?>
<!-- Generator: Adobe Illustrator 16.0.0, SVG Export Plug-In . SVG Version: 6.00 Build 0)  -->
<!DOCTYPE svg PUBLIC "-//W3C//DTD SVG 1.1//EN" "http://www.w3.org/Graphics/SVG/1.1/DTD/svg11.dtd">
<svg version="1.1" id="Layer_1" xmlns="http://www.w3.org/2000/svg" xmlns:xlink="http://www.w3.org/1999/xlink" x="0px" y="0px"
	 width="566.93px" height="566.93px" viewBox="0 0 566.93 566.93" enable-background="new 0 0 566.93 566.93" xml:space="preserve">
<rect display="none" fill-rule="evenodd" clip-rule="evenodd" fill="#316FB7" width="566.93" height="566.93"/>
<g>
	<path fill-rule="evenodd" clip-rule="evenodd" fill="#FFFFFF" d="M449.449,233.235c-0.529,37.748-9.1,68.984-26.209,97.595
		c-3.822,6.399-3.234,9.477,1.854,14.515c42.656,42.233,85.098,84.688,127.361,127.317c17.523,17.679,17.846,38.996,1.607,55.284
		c-16.152,16.203-37.875,15.921-55.254-1.343c-41.992-41.711-83.904-83.509-125.463-125.649c-6.392-6.484-10.562-7.303-18.85-2.555
		c-114.797,65.769-260.534-5.979-278.188-136.61C62.751,161.477,131.724,67.837,231.432,51.195
		c99.762-16.654,196.045,50.875,214.586,150.848C448.178,213.691,450.342,225.537,449.449,233.235z M411.73,236.896
		c-0.852-85.074-67.411-150.959-151.861-150.319c-81.656,0.612-148.467,68.694-147.782,150.582
		c0.703,83.987,68.96,149.318,155.132,148.479C345.071,384.877,412.516,315.457,411.73,236.896z"/>
	<path fill-rule="evenodd" clip-rule="evenodd" fill="#FFFFFF" d="M2.738,273.825c0-71.083-0.013-142.168,0.008-213.254
		c0.006-17.578,3.21-20.775,20.835-20.789c41.713-0.037,83.431,0.166,125.144-0.141c9.856-0.075,16.933,1.557,16.708,13.422
		c-0.222,11.233-7.323,12.567-16.415,12.516c-36.179-0.211-72.363,0.182-108.542-0.273c-8.928-0.115-12.31,1.417-12.277,11.58
		c0.396,131.526,0.405,263.053-0.024,394.581c-0.033,10.229,3.273,11.456,12.144,11.431c104.287-0.286,208.575-0.36,312.858,0.088
		c10.417,0.043,12.771-3.103,12.148-12.666c-0.797-12.298-0.179-24.678-0.233-37.023c-0.041-9.288,4.834-12.603,13.715-12.498
		c8.5,0.104,12.336,3.349,12.193,12.201c-0.34,19.997-0.174,40.009-0.063,60.013c0.063,10.615-5.119,15.537-15.609,15.534
		c-118.759-0.027-237.52,0.021-356.278-0.076c-12.472-0.011-16.271-4.59-16.284-18.834C2.704,417.697,2.738,345.762,2.738,273.825z"
		/>
	<path fill-rule="evenodd" clip-rule="evenodd" fill="#FFFFFF" d="M375.518,235.285c-1.098,28.5-9.353,52.032-25.773,72.669
		c-5.713,7.186-11.559,9.278-19.319,2.741c-7.624-6.418-6.64-12.025-0.843-19.403c21.47-27.321,26.271-57.648,12.399-89.635
		c-13.85-31.943-39.305-49.454-73.748-52.824c-22.464-2.199-42.889,4.878-60.421,18.907c-8.094,6.475-14.172,8.018-21.212-1.106
		c-7.351-9.534-1.426-14.745,5.464-19.718c37.608-27.142,78.005-32.646,119.842-11.984
		C353.801,155.625,373.473,191.374,375.518,235.285z"/>
</g>
</svg>
