<?xml version="1.0" encoding="utf-8"?>
<!-- Generator: Adobe Illustrator 16.0.0, SVG Export Plug-In . SVG Version: 6.00 Build 0)  -->
<!DOCTYPE svg PUBLIC "-//W3C//DTD SVG 1.1//EN" "http://www.w3.org/Graphics/SVG/1.1/DTD/svg11.dtd">
<svg version="1.1" id="Layer_1" xmlns="http://www.w3.org/2000/svg" xmlns:xlink="http://www.w3.org/1999/xlink" x="0px" y="0px"
	 width="450px" height="450px" viewBox="0 0 450 450" enable-background="new 0 0 450 450" xml:space="preserve">
<g>
	<path fill-rule="evenodd" clip-rule="evenodd" fill="#E5ECF7" d="M158.336,105.847c8.769-10.111,13.392-22.604,19.497-34.228
		c4.507-8.583,9.503-16.672,16.669-23.322c12.67-11.761,26.944-13.461,42.124-5.029c8.555,4.75,15.592,11.337,22.059,18.464
		c12.045,13.278,25.186,25.617,35.344,40.538c-4.549,1.35-7.422,4.096-3.967,8.513c9.549,12.203,9.824,24.061,0.01,36.136
		c-1.979,2.437-2.096,5.139,0.617,7.094c2.232,1.613,4.676,1.096,6.541-0.888c3.539-3.77,6.141-8.083,8.01-12.978
		c3.328-8.722,0.797-17.283-0.094-25.907c6.207,1.156,8.533,7.794,14.039,9.943c0.211,2.997,0.795,6.02,0.564,8.981
		c-0.695,9.042-4.588,16.768-10.436,23.596c-2.139,2.5-3.539,5.407-0.332,7.87c2.889,2.217,5.725,1.031,7.918-1.611
		c1.543-1.86,2.996-3.792,4.48-5.699c5.553-7.117,6.404-16.137,9.752-24.144c19.441,10.156,39.08,19.957,58.258,30.591
		c13.961,7.74,25.752,18.184,31.322,33.783c7.883,22.077-2.176,45.726-25.064,60.039c-14.441,9.032-30.629,12.156-47.215,13.898
		c-1.809-2.028-1.346-4.53-1.414-6.909c-0.773-27.346-15.969-42.314-43.156-42.456c-9.066-0.046-18.141-0.17-27.201,0.039
		c-5.83,0.134-9.43-3.767-13.273-6.946c-3.512-2.907,1.174-5.129,1.609-7.809c1.018-6.267,0.004-12.396-6.066-14.64
		c-8.094-2.988-6.834-8.005-5.506-14.112c2.846-13.094,11.006-23.3,17.744-34.359c12.488-20.495,12.463-41.468-0.715-61.429
		c-13.514-20.472-33.73-28.404-57.413-24.152c-23.007,4.131-38.178,18.529-44.331,41.441c-5.086,18.934,0.131,35.792,11.459,51.094
		c6.953,9.391,11.438,19.827,13.942,31.151c0.949,4.289,0.909,7.537-4.734,9.56c-7.319,2.623-10.243,9.722-6.742,16.299
		c3.406,6.396,0.251,8.245-3.75,11.197c-3.576,2.641-7.271,3.79-11.743,3.668c-9.365-0.251-18.738-0.061-28.108-0.055
		c-16.475,0.008-28.001,7.862-35.534,22.228c-1.106,2.105-0.928,5.838-5.068,4.982c-9.975-9.471-22.688-14.536-34.382-21.211
		c-7.585-4.331-15.281-8.417-22.038-14.019c-6.597-5.465-11.839-11.878-15.045-19.967c-8.584-21.657,1.875-40.504,24.887-44.129
		c6.83-1.075,13.784-1.737,20.693-1.842c15.294-0.231,29.713-4.002,43.757-9.677c3.713,6.753,5.364,14.572,10.637,20.521
		c2.711,3.058,5.285,8.127,10.019,4.837c5.294-3.681,0.437-7.235-1.841-10.446c-4.551-6.415-8.913-12.868-7.547-21.361
		c3.524-2.181,7.049-4.364,10.572-6.549c1.466,8.255,2.365,16.689,7.878,23.607c2.5,3.136,5.242,7.013,9.474,3.767
		c3.986-3.057,0.564-6.37-1.419-9.314c-7.139-10.598-7.153-20.472-0.194-30.973C155.515,111.061,157.966,109.05,158.336,105.847z"/>
	<path fill-rule="evenodd" clip-rule="evenodd" fill="#E5ECF7" d="M236.324,346.925c-8.777-1.576-14.093,1.651-17.966,10.097
		c-4.246,9.26-10.802,17.273-19.585,23.12c-14.344,9.547-28.633,8.788-44.142-2.579c-8.708-6.382-14.914-14.688-18.9-24.684
		c12.369-0.192,24.735-0.46,37.105-0.565c10.578-0.092,21.159-0.009,31.736,0.018c3.342,0.011,6.245-0.734,6.21-4.79
		c-0.039-4.164-3.15-4.572-6.384-4.559c-2.419,0.009-4.836-0.004-7.256-0.004c-19.811-0.002-39.62-0.002-60.373-0.002
		c36.823-38.738,12.83-84.339-24.957-91.451c4.884-10.635,12.716-16.967,24.289-17.607c9.946-0.553,19.945-0.051,29.912-0.354
		c4.519-0.137,5.958,1.87,7.313,5.956c4.635,14.003,13.915,24.516,26.217,32.49c6.52,4.227,11.979,3.218,16.307-3.19
		c2.813-4.161,5.406-8.469,8.637-13.561c2.956,4.721,5.282,8.563,7.727,12.331c5.258,8.093,9.844,9.066,18.08,3.81
		c8.016-5.116,17.02-11.089,19.199-19.855c5.066-20.336,19.334-19.02,34.451-17.849c1.504,0.116,3.021,0.04,4.533,0.093
		c19.574,0.715,30.811,11.936,30.951,31.369c0.168,22.97-0.191,45.945,0.186,68.91c0.107,6.551-2.178,8.048-8.299,7.998
		c-27.803-0.24-55.611-0.017-83.418-0.013C243.303,342.054,238.682,341.729,236.324,346.925z"/>
	<path fill-rule="evenodd" clip-rule="evenodd" fill="#79C04D" d="M236.324,346.925c2.357-5.195,6.979-4.871,11.574-4.871
		c27.807-0.004,55.615-0.228,83.418,0.013c6.121,0.05,8.406-1.447,8.299-7.998c-0.377-22.965-0.018-45.94-0.186-68.91
		c-0.141-19.434-11.377-30.654-30.951-31.369c-1.512-0.053-3.029,0.023-4.533-0.093c-15.117-1.171-29.385-2.487-34.451,17.849
		c-2.18,8.767-11.184,14.739-19.199,19.855c-8.236,5.257-12.822,4.283-18.08-3.81c-2.445-3.768-4.771-7.61-7.727-12.331
		c-3.231,5.092-5.825,9.399-8.637,13.561c-4.329,6.408-9.787,7.417-16.307,3.19c-12.302-7.975-21.582-18.487-26.217-32.49
		c-1.354-4.086-2.793-6.093-7.313-5.956c-9.967,0.303-19.966-0.199-29.912,0.354c-11.573,0.641-19.405,6.973-24.289,17.607
		c37.787,7.112,61.779,52.713,24.957,91.451c20.752,0,40.562,0,60.373,0.002c2.419,0,4.837,0.013,7.256,0.004
		c3.234-0.014,6.345,0.395,6.384,4.559c0.035,4.056-2.868,4.801-6.21,4.79c-10.577-0.026-21.158-0.109-31.736-0.018
		c-12.37,0.105-24.736,0.373-37.105,0.565c-20.217-0.217-40.434-0.518-60.651-0.616c-22.051-0.107-44.098-0.017-66.148-0.045
		c-3.85-0.004-8.748,0.83-8.926-4.881c-0.194-6.364,5.117-5.598,9.227-5.612c20.771-0.072,41.542-0.032,62.318-0.032
		c0.481-3.226-1.921-4.047-3.213-5.425c-27.067-28.853-13.338-74.498,25.247-83.879c1.689-0.412,3.238-1.394,4.851-2.109
		c4.14,0.855,3.962-2.877,5.068-4.982c7.533-14.365,19.059-22.219,35.534-22.228c9.37-0.006,18.744-0.196,28.108,0.055
		c4.472,0.122,8.167-1.027,11.743-3.668c4.001-2.952,7.156-4.8,3.75-11.197c-3.501-6.577-0.577-13.676,6.742-16.299
		c5.643-2.023,5.683-5.271,4.734-9.56c-2.504-11.325-6.99-21.761-13.942-31.151c-11.329-15.303-16.545-32.16-11.459-51.094
		c6.153-22.913,21.324-37.311,44.331-41.441c23.682-4.252,43.899,3.68,57.413,24.152c13.178,19.961,13.203,40.934,0.715,61.429
		c-6.738,11.059-14.898,21.265-17.744,34.359c-1.328,6.106-2.588,11.124,5.506,14.112c6.07,2.244,7.084,8.373,6.066,14.64
		c-0.436,2.68-5.121,4.901-1.609,7.809c3.844,3.179,7.443,7.081,13.273,6.946c9.061-0.209,18.135-0.085,27.201-0.039
		c27.188,0.142,42.383,15.11,43.156,42.456c0.068,2.379-0.395,4.881,1.414,6.909c-3.145,6.937-1.184,14.244-1.371,21.359
		c-0.355,13.572,0.193,27.171-0.236,40.739c-0.195,6.145,1.289,8.609,7.898,8.259c10.236-0.54,20.52-0.258,30.781-0.091
		c4.221,0.07,10.15-1.348,10.137,5.504c-0.01,6.518-5.723,4.909-9.613,4.915c-46.482,0.086-92.963-0.004-139.445,0.15
		C241.879,352.342,238.318,351.447,236.324,346.925z M222.442,190.393c4.833,0,9.667-0.057,14.498,0.022
		c2.773,0.042,4.523-0.641,4.809-3.889c1.625-18.441,10.754-33.45,21.109-48.25c10.697-15.294,9.209-36.359-2.119-51.792
		c-11.018-15.011-30.502-22.336-48.007-18.056c-32.779,8.018-46.912,43.78-28.182,72.01c7.192,10.838,14.479,21.436,17.497,34.414
		C205.646,190.319,205.843,190.275,222.442,190.393z M103.158,342.066c23.159,0.31,41.268-17.515,41.644-40.989
		c0.343-21.332-17.958-39.76-39.702-39.982c-23.116-0.237-41.813,17.425-41.916,39.599
		C63.075,323.972,80.261,341.758,103.158,342.066z M215.436,247.429c1.088-3.177-1.141-4.237-2.623-5.563
		c-4.782-4.271-9.758-8.917-11.517-14.899c-3.317-11.278-7.714-6.751-14.172-2.903c-7.759,4.626-7.169,9.586-3.743,16.238
		c4.39,8.524,10.434,15.504,18.278,20.917c1.501,1.036,3.523,3.473,5.334,0.648C210.083,257.045,212.798,251.985,215.436,247.429z
		 M265.205,230.783c-1.68-5.193-8.174-6.778-12.418-10.69c-2.756-2.54-4.502-1.732-5.756,1.802
		c-2.775,7.804-7.744,14.173-13.766,19.772c-1.982,1.843-4.223,3.571-2.154,6.801c2.588,4.05,4.992,8.208,7.545,12.276
		c0.965,1.541,1.863,2.572,4.281,1.707C250.973,259.583,265.631,239.998,265.205,230.783z M222.547,206.951
		c9.058,0,18.115-0.008,27.171,0.004c2.633,0.002,5.09-0.57,5.135-3.714c0.051-3.4-2.672-3.443-5.164-3.443
		c-17.813-0.004-35.625-0.01-53.437,0.01c-2.471,0.004-5.235,0.136-5.191,3.489c0.042,3.204,2.713,3.601,5.22,3.615
		C205.036,206.957,213.792,206.929,222.547,206.951z M221.425,216.606c-3.395,0.897-10.83-2.315-12.221,1.191
		c-2.113,5.332,4.021,9.88,7.5,14.266c1.115,1.404,2.464,2.652,3.831,3.818c0.83,0.709,1.542,1.605,3.077,1.218
		c3.339-0.843,15.392-15.725,13.841-18.155c-3.137-4.914-8.621-1.368-12.968-2.319C223.911,216.499,223.285,216.606,221.425,216.606
		z"/>
	<path fill-rule="evenodd" clip-rule="evenodd" fill="#446CB3" d="M127.573,132.985c-1.366,8.493,2.996,14.946,7.547,21.361
		c2.278,3.211,7.135,6.766,1.841,10.446c-4.734,3.291-7.308-1.779-10.019-4.837c-5.272-5.948-6.924-13.767-10.637-20.521
		c-0.014-10.48-0.628-21.101,4.232-30.843c2.123-4.252,4.7-8.371,7.647-12.091c2.246-2.834,4.913-7.099,9.469-3.175
		c4.165,3.583,0.5,6.808-1.563,9.229c-5.884,6.906-8.544,14.952-9.783,23.678C125.968,128.623,125.545,131.033,127.573,132.985z"/>
	<path fill-rule="evenodd" clip-rule="evenodd" fill="#F27046" d="M331.133,133.176c-3.348,8.007-4.199,17.027-9.752,24.144
		c-1.484,1.907-2.938,3.838-4.48,5.699c-2.193,2.642-5.029,3.828-7.918,1.611c-3.207-2.463-1.807-5.37,0.332-7.87
		c5.848-6.829,9.74-14.554,10.436-23.596c0.23-2.962-0.354-5.985-0.564-8.981c0.498-8.285-3.34-14.876-8.207-21.079
		c-2.289-2.917-6.658-5.824-2.002-9.738c4.973-4.177,7.631,0.815,10.084,3.797C327.627,107.579,329.916,120.224,331.133,133.176z"/>
	<path fill-rule="evenodd" clip-rule="evenodd" fill="#F27046" d="M158.336,105.847c-0.37,3.203-2.821,5.214-4.452,7.677
		c-6.959,10.5-6.945,20.375,0.194,30.973c1.983,2.944,5.405,6.257,1.419,9.314c-4.232,3.246-6.975-0.631-9.474-3.767
		c-5.513-6.918-6.412-15.352-7.878-23.607c2.249-6.458,3.395-13.29,7.842-18.944C149.809,102.635,153.492,100.974,158.336,105.847z"
		/>
	<path fill-rule="evenodd" clip-rule="evenodd" fill="#446CB3" d="M305.146,114.239c0.891,8.624,3.422,17.186,0.094,25.907
		c-1.869,4.896-4.471,9.208-8.01,12.978c-1.865,1.984-4.309,2.501-6.541,0.888c-2.713-1.956-2.596-4.658-0.617-7.094
		c9.814-12.075,9.539-23.933-0.01-36.136c-3.455-4.417-0.582-7.163,3.967-8.513C297.736,106.262,301.439,110.249,305.146,114.239z"
		/>
	<path fill-rule="evenodd" clip-rule="evenodd" fill="#E5ECF7" d="M80.687,103.625c-4.321,4.348-8.468,8.582-12.745,12.682
		c-0.256,0.246-2.223-0.544-2.246-0.919c-0.337-5.652-3.335-8.423-8.794-9.574c-1.255-0.266-0.524-4.798,0.149-4.603
		c8.432,2.461,6.578-10.39,13.373-8.957c3.371,0.708,0.684,6.196,3.252,7.654C76.043,101.249,79.9,99.917,80.687,103.625z"/>
	<path fill-rule="evenodd" clip-rule="evenodd" fill="#E5ECF7" d="M42.028,263.291c-4.545,4.334-8.917,8.501-13.289,12.666
		c-0.951-1.075-2.78-2.215-2.71-3.216c0.344-4.676-1.63-6.234-6.118-6.204c-1.867,0.015-2.952-2.262-2.69-4.047
		c0.188-1.297,1.421-2.949,3.145-2.689c4.845,0.729,6.146-1.741,6.381-6.006c0.098-1.77,1.583-3.26,3.81-2.947
		c1.771,0.247,2.76,1.672,2.625,3.152c-0.432,4.798,2.059,6.176,6.297,6.389C40.951,260.461,41.941,261.959,42.028,263.291z"/>
	<path fill-rule="evenodd" clip-rule="evenodd" fill="#446CB3" d="M387.033,371.639c0.734-0.891,1.414-2.473,2.152-2.497
		c4.998-0.171,7.242-2.843,8.033-7.521c0.264-1.542,2.691-2.843,3.445-1.862c3.393,4.386,5.738,9.614,11.523,11.785
		c0.576,0.215-0.406,3.574-1.688,3.589c-5.41,0.057-7.623,2.523-8.324,7.813c-0.277,2.102-4.109,2.751-4.811,0.286
		c-1.363-4.816-3.752-7.886-8.594-9.166C388.131,373.895,387.762,372.696,387.033,371.639z"/>
	<path fill-rule="evenodd" clip-rule="evenodd" fill="#446CB3" d="M433.633,352.224c-2.391-0.002-4.779,0.004-7.166-0.004
		c-3.607-0.006-6.902-0.904-6.795-5.22c0.104-4.204,3.529-5.135,7.006-5.238c4.771-0.143,9.555-0.154,14.33-0.022
		c3.879,0.105,7.553,1.333,7.242,5.973c-0.287,4.252-3.996,4.559-7.449,4.518C438.412,352.205,436.021,352.228,433.633,352.224z"/>
	<path fill-rule="evenodd" clip-rule="evenodd" fill="#446CB3" d="M370.547,91.122c0.803,0.444,2.117,0.763,2.193,1.276
		c0.865,5.524,4.877,7.395,9.283,9.884c2.816,1.586,0.787,5.06-2.75,5.171c-3.717,0.116-5.527,1.305-5.363,5.267
		c0.076,1.954-1.318,3.364-3.422,3.435c-2.166,0.075-4.078-1.803-3.424-3.235c3.83-8.353-13.91-3.305-7.281-11.314
		c2.363-2.856,7.674-3.676,8.584-8.805C368.479,92.181,369.686,91.757,370.547,91.122z"/>
	<path fill-rule="evenodd" clip-rule="evenodd" fill="#E5ECF7" d="M222.442,190.393c-16.599-0.118-16.796-0.073-20.396-15.54
		c-3.018-12.978-10.305-23.576-17.497-34.414c-18.729-28.23-4.597-63.993,28.182-72.01c17.505-4.281,36.99,3.045,48.007,18.056
		c11.328,15.433,12.816,36.498,2.119,51.792c-10.355,14.8-19.484,29.809-21.109,48.25c-0.285,3.248-2.035,3.932-4.809,3.889
		C232.109,190.336,227.274,190.393,222.442,190.393z"/>
	<path fill-rule="evenodd" clip-rule="evenodd" fill="#E5ECF7" d="M103.158,342.066c-22.897-0.309-40.083-18.095-39.974-41.373
		c0.103-22.174,18.8-39.836,41.916-39.599c21.743,0.223,40.044,18.65,39.702,39.982
		C144.426,324.552,126.317,342.376,103.158,342.066z M128.92,287.16c-0.152-1.41-1.013-2.975-2.835-3.692
		c-2.45-0.966-4.696-0.497-6.611,1.422c-4.257,4.267-8.505,8.545-12.837,12.732c-3.447,3.333-6.57,8.223-10.662,9.304
		c-3.618,0.96-5.602-5.303-8.742-7.935c-2.677-2.243-5.67-2.976-8.029-0.358c-1.946,2.156-1.503,5.073,0.74,7.331
		c3.609,3.638,7.31,7.187,10.786,10.943c3.989,4.31,7.479,3.873,11.418-0.217c7.737-8.03,15.724-15.816,23.602-23.71
		C127.241,291.489,128.814,290.034,128.92,287.16z"/>
	<path fill-rule="evenodd" clip-rule="evenodd" fill="#E5ECF7" d="M215.436,247.429c-2.637,4.557-5.352,9.616-8.443,14.438
		c-1.812,2.824-3.833,0.388-5.334-0.648c-7.844-5.413-13.888-12.393-18.278-20.917c-3.426-6.652-4.016-11.612,3.743-16.238
		c6.458-3.848,10.855-8.375,14.172,2.903c1.758,5.982,6.735,10.629,11.517,14.899C214.294,243.191,216.524,244.252,215.436,247.429z
		"/>
	<path fill-rule="evenodd" clip-rule="evenodd" fill="#E5ECF7" d="M265.205,230.783c0.426,9.215-14.232,28.8-22.268,31.668
		c-2.418,0.865-3.316-0.166-4.281-1.707c-2.553-4.068-4.957-8.227-7.545-12.276c-2.068-3.229,0.172-4.958,2.154-6.801
		c6.021-5.599,10.99-11.968,13.766-19.772c1.254-3.534,3-4.341,5.756-1.802C257.031,224.005,263.525,225.59,265.205,230.783z"/>
	<path fill-rule="evenodd" clip-rule="evenodd" fill="#E5ECF7" d="M222.547,206.941c-8.755-0.012-17.511,0.016-26.266-0.028
		c-2.507-0.014-5.178-0.412-5.22-3.615c-0.043-3.354,2.721-3.485,5.191-3.489c17.812-0.021,35.625-0.014,53.437-0.01
		c2.492,0,5.215,0.042,5.164,3.443c-0.045,3.145-2.502,3.716-5.135,3.714C240.662,206.943,231.605,206.951,222.547,206.941z"/>
	<path fill-rule="evenodd" clip-rule="evenodd" fill="#E5ECF7" d="M221.425,216.606c1.859,0,2.485-0.107,3.06,0.018
		c4.347,0.952,9.832-2.595,12.968,2.319c1.551,2.43-10.502,17.313-13.841,18.155c-1.535,0.388-2.247-0.509-3.077-1.218
		c-1.367-1.166-2.716-2.414-3.831-3.818c-3.479-4.386-9.613-8.934-7.5-14.266C210.596,214.291,218.03,217.503,221.425,216.606z"/>
	<path fill-rule="evenodd" clip-rule="evenodd" fill="#446CB3" d="M128.92,287.16c-0.106,2.874-1.68,4.329-3.169,5.82
		c-7.877,7.894-15.865,15.68-23.602,23.71c-3.939,4.09-7.429,4.526-11.418,0.217c-3.477-3.757-7.177-7.306-10.786-10.943
		c-2.244-2.258-2.686-5.175-0.74-7.331c2.358-2.617,5.352-1.885,8.029,0.358c3.14,2.632,5.124,8.895,8.742,7.935
		c4.092-1.081,7.215-5.971,10.662-9.304c4.332-4.188,8.58-8.466,12.837-12.732c1.915-1.919,4.161-2.388,6.611-1.422
		C127.907,284.186,128.768,285.75,128.92,287.16z"/>
</g>
</svg>
