<?xml version="1.0" encoding="utf-8"?>
<!-- Generator: Adobe Illustrator 16.0.0, SVG Export Plug-In . SVG Version: 6.00 Build 0)  -->
<!DOCTYPE svg PUBLIC "-//W3C//DTD SVG 1.1//EN" "http://www.w3.org/Graphics/SVG/1.1/DTD/svg11.dtd">
<svg version="1.1" id="Layer_1" xmlns="http://www.w3.org/2000/svg" xmlns:xlink="http://www.w3.org/1999/xlink" x="0px" y="0px"
	 width="566.93px" height="566.93px" viewBox="0 0 566.93 566.93" enable-background="new 0 0 566.93 566.93" xml:space="preserve">
<rect display="none" fill-rule="evenodd" clip-rule="evenodd" fill="#316FB7" width="566.93" height="566.93"/>
<g display="none">
	<path display="inline" fill-rule="evenodd" clip-rule="evenodd" fill="#FFFFFF" d="M449.449,233.235
		c-0.529,37.748-9.1,68.984-26.209,97.595c-3.822,6.399-3.234,9.477,1.854,14.515c42.656,42.233,85.098,84.688,127.361,127.317
		c17.523,17.679,17.846,38.996,1.607,55.284c-16.152,16.203-37.875,15.921-55.254-1.343
		c-41.992-41.711-83.904-83.509-125.463-125.649c-6.392-6.484-10.562-7.303-18.85-2.555
		c-114.797,65.769-260.534-5.979-278.188-136.61C62.751,161.477,131.724,67.837,231.432,51.195
		c99.762-16.654,196.045,50.875,214.586,150.848C448.178,213.691,450.342,225.537,449.449,233.235z M411.73,236.896
		c-0.852-85.074-67.411-150.959-151.861-150.319c-81.656,0.612-148.467,68.694-147.782,150.582
		c0.703,83.987,68.96,149.318,155.132,148.479C345.071,384.877,412.516,315.457,411.73,236.896z"/>
	<path display="inline" fill-rule="evenodd" clip-rule="evenodd" fill="#FFFFFF" d="M2.738,273.825
		c0-71.083-0.013-142.168,0.008-213.254c0.006-17.578,3.21-20.775,20.835-20.789c41.713-0.037,83.431,0.166,125.144-0.141
		c9.856-0.075,16.933,1.557,16.708,13.422c-0.222,11.233-7.323,12.567-16.415,12.516c-36.179-0.211-72.363,0.182-108.542-0.273
		c-8.928-0.115-12.31,1.417-12.277,11.58c0.396,131.526,0.405,263.053-0.024,394.581c-0.033,10.229,3.273,11.456,12.144,11.431
		c104.287-0.286,208.575-0.36,312.858,0.088c10.417,0.043,12.771-3.103,12.148-12.666c-0.797-12.298-0.179-24.678-0.233-37.023
		c-0.041-9.288,4.834-12.603,13.715-12.498c8.5,0.104,12.336,3.349,12.193,12.201c-0.34,19.997-0.174,40.009-0.063,60.013
		c0.063,10.615-5.119,15.537-15.609,15.534c-118.759-0.027-237.52,0.021-356.278-0.076c-12.472-0.011-16.271-4.59-16.284-18.834
		C2.704,417.697,2.738,345.762,2.738,273.825z"/>
	<path display="inline" fill-rule="evenodd" clip-rule="evenodd" fill="#FFFFFF" d="M375.518,235.285
		c-1.098,28.5-9.353,52.032-25.773,72.669c-5.713,7.186-11.559,9.278-19.319,2.741c-7.624-6.418-6.64-12.025-0.843-19.403
		c21.47-27.321,26.271-57.648,12.399-89.635c-13.85-31.943-39.305-49.454-73.748-52.824c-22.464-2.199-42.889,4.878-60.421,18.907
		c-8.094,6.475-14.172,8.018-21.212-1.106c-7.351-9.534-1.426-14.745,5.464-19.718c37.608-27.142,78.005-32.646,119.842-11.984
		C353.801,155.625,373.473,191.374,375.518,235.285z"/>
</g>
<g>
	<path fill-rule="evenodd" clip-rule="evenodd" fill="#FFFFFF" d="M88.783,369.623c-0.227-10.896,8.18-20.762,18.731-28.65
		c9.889-7.398,9.343-12.972,0.166-20.437c-7.655-6.225-14.555-13.52-21.048-20.991c-5.283-6.074-9.263-6.368-14.165,0.083
		c-7.565,9.953-14.88,9.176-23.267,0.136c-12.309-13.277-25.459-25.774-38.287-38.567c-4.576-4.563-8.494-9.689-2.993-15.569
		c6.055-6.473,11.561-2.569,16.509,2.432c10.315,10.421,21.058,20.457,30.875,31.327c5.198,5.755,7.914,3.452,12.082-0.746
		c31.905-32.139,63.838-64.26,96.135-96.002c5.661-5.565,4.18-8.444-0.598-13.165c-28.844-28.494-57.407-57.271-86.107-85.911
		c-3.719-3.714-7.701-7.219-5.976-13.277c2.172-7.631,10.152-8.678,17.383-1.707c16.454,15.864,32.793,31.861,48.838,48.139
		c18.134,18.397,37.888,35.221,54.271,55.305c2.739,3.358,5.776,3.143,9.145,3.143c56.937,0.016,113.873,0.03,170.811-0.046
		c2.767,0,5.261,0.326,7.876-2.656c31.283-35.682,66.519-67.516,99.52-101.536c4.868-5.015,10.239-11.332,17.277-4.414
		c6.89,6.767,1.255,12.387-3.873,17.431c-28.601,28.125-57.039,56.413-85.879,84.294c-5.096,4.933-5.786,7.472-0.34,12.825
		c32.313,31.731,64.337,63.761,96.105,96.039c5.395,5.485,8.362,4.802,13.185-0.348c10.018-10.696,20.678-20.794,31.037-31.171
		c4.363-4.37,9.142-7.271,14.498-2.03c5.689,5.569,1.881,9.613-2.571,13.938c-13.922,13.524-27.849,27.07-41.15,41.188
		c-8.097,8.595-15.296,9.006-22.444-0.166c-5.373-6.883-9.813-6.504-14.778,0.193c-1.778,2.4-4.235,4.294-6.36,6.435
		c-7.593,7.655-19.616,14.353-21.555,23.244c-2.096,9.604,12.462,15.15,18.8,23.305c13.568,17.463,8.062,43.538-12.347,52.264
		c-7.906,3.379-9.49,7.123-9.083,15.03c0.917,17.723-9.789,31.419-27.48,35.526c-5.639,1.307-8.081,2.453-9.559,8.908
		c-5.474,23.907-26.913,34.586-49.699,24.976c-5.768-2.431-6.839-0.6-9.562,3.58c-15.052,23.111-39.454,25.902-58.599,5.74
		c-8.444-8.892-12.889-9.509-21.68-0.229c-19.654,20.744-42.826,17.856-59.385-6.275c-2.764-4.031-4.138-4.531-8.811-2.58
		c-23.067,9.614-44.796-1.7-50.103-26.174c-1.126-5.198-2.69-6.521-7.721-7.652c-19.454-4.379-29.147-16.928-28.811-37.092
		c0.106-6.369-0.92-9.499-7.592-12.225C96.355,399.835,88.643,388.84,88.783,369.623z M245.125,190.966
		c-22.858,0-42.248,0.115-61.631-0.081c-4.7-0.045-8.054,1.551-11.322,4.847c-23.976,24.187-47.997,48.332-72.282,72.211
		c-4.627,4.548-5.538,7.271-0.205,12.098c9.573,8.668,18.537,18.036,27.408,27.438c3.874,4.104,7.542,5.753,13.49,4.905
		c20.963-2.991,36.725,7.375,40.858,27.989c1.514,7.558,4.92,9.455,11.16,10.956c14.362,3.454,23.577,12.809,25.824,27.275
		c1.056,6.784,3.494,9.305,9.8,10.724c15.289,3.451,25.086,12.803,27.501,28.728c0.872,5.748,3.159,8.314,9.458,9.553
		c15.504,3.061,26.166,13.548,27.142,28.908c0.791,12.436,7.335,19.307,14.928,26.721c10.347,10.107,20.076,11.384,28.097,3.675
		c7.831-7.528,6.345-16.604-4.64-27.738c-6.664-6.749-13.383-13.441-20.138-20.104c-5.023-4.958-11.164-10.44-4.613-17.407
		c7.563-8.049,12.967-0.461,18.083,4.585c13.194,13.021,26.191,26.242,39.466,39.183c9.914,9.663,19.658,10.574,27.066,3.003
		c7.258-7.419,6.074-17.252-3.635-27.113c-13.602-13.828-27.379-27.482-41.097-41.2c-4.496-4.501-8.868-9.476-2.993-15.415
		c6.1-6.169,11.514-2.508,16.53,2.564c13.635,13.794,27.354,27.509,41.161,41.129c10.19,10.055,19.169,11.023,26.884,3.213
		c7.962-8.057,7.187-16.624-2.973-27.004c-13.873-14.172-27.983-28.105-41.987-42.148c-4.557-4.569-8.339-9.365-2.287-15.394
		c5.986-5.963,10.873-2.328,15.506,2.156c11.457,11.096,22.807,22.305,34.366,33.296c9.915,9.419,18.338,10.28,26.004,3.07
		c8.158-7.675,7.715-16.572-1.935-27.054c-25.405-27.583-50.745-55.236-76.545-82.448c-27.8-29.319-68.72-29.595-97.6-1.19
		c-10.756,10.577-20.879,21.893-32.334,31.644c-22.308,18.989-56.876,10.057-66.006-17.018c-5.794-17.19-2.519-33.143,10.804-46.325
		C209.225,226.582,225.986,209.943,245.125,190.966z M330.462,194.858c0-0.184,0-0.363,0-0.546c-17.658,0-35.323,0.156-52.974-0.09
		c-5.485-0.076-9.731,1.159-13.746,5.244c-20.215,20.588-40.846,40.764-61.05,61.363c-10.738,10.946-10.958,24.633-1.287,34.41
		c10.714,10.834,21.395,10.891,33.614-0.596c10.66-10.032,20.7-20.714,31.144-30.979c33.75-33.167,82.462-33.969,117.256-1.805
		c8.215,7.597,15.865,15.805,23.859,23.648c10.115,9.929,20.314,19.774,30.484,29.657c12.535-8.581,20.791-21.553,32.094-31.344
		c5.604-4.858,3.827-7.721-0.578-11.941c-11.812-11.321-23.161-23.125-34.814-34.619c-14.392-14.199-26.653-33.786-43.989-40.854
		C373.135,189.342,350.676,194.858,330.462,194.858z M135.688,420.125c0.302,7.076,3.722,11.981,10.17,15.066
		c6.824,3.267,12.8,1.423,17.757-3.297c10.589-10.089,20.897-20.479,31.144-30.922c7.967-8.12,8.292-17.372,1.066-24.974
		c-7.999-8.417-16.426-6.519-23.822,0.362c-10.701,9.956-20.762,20.609-31.038,31.021
		C137.528,410.867,135.323,414.965,135.688,420.125z M238.249,425.06c-0.761-6.847-3.817-12.728-9.997-15.539
		c-6.709-3.054-13.499-1.73-18.967,3.706c-10.353,10.291-20.766,20.525-30.928,31.004c-7.304,7.531-8.465,15.782-1.017,23.973
		c6.719,7.389,16.553,7.217,25.015-0.792c10.285-9.731,20.048-20.005,30.222-29.86C236.216,434.028,237.877,429.906,238.249,425.06z
		 M124.902,390.318c10.148-0.227,39.074-29.345,39.097-39.356c0.028-12.073-13.108-21.37-23.198-15.224
		c-12.804,7.806-23.774,18.491-31.426,31.426C103.445,377.182,113.135,390.584,124.902,390.318z M259.988,446.466
		c-11.06-0.29-30.903,18.218-30.521,28.482c0.367,9.8,5.623,16.162,15.933,16.866c10.424,0.711,30.24-17.752,29.662-28.228
		C274.533,454.067,269.517,447.504,259.988,446.466z"/>
	<path fill-rule="evenodd" clip-rule="evenodd" fill="#FFFFFF" d="M79.179,232.329c-0.236,10.217-7.972,17.966-18.042,18.066
		c-10.456,0.111-18.731-8.368-18.543-18.993c0.195-10.889,8.196-18.135,19.434-17.601C72.57,214.301,79.419,221.708,79.179,232.329z
		"/>
	<path fill-rule="evenodd" clip-rule="evenodd" fill="#FFFFFF" d="M526.729,232.691c-0.406,9.93-8.598,17.755-18.546,17.714
		c-10.508-0.042-18.282-8.392-18.019-19.36c0.26-10.946,8.171-17.888,19.651-17.239
		C520.162,214.388,527.154,222.196,526.729,232.691z"/>
</g>
</svg>
