<?xml version="1.0" encoding="utf-8"?>
<!-- Generator: Adobe Illustrator 16.0.0, SVG Export Plug-In . SVG Version: 6.00 Build 0)  -->
<!DOCTYPE svg PUBLIC "-//W3C//DTD SVG 1.1//EN" "http://www.w3.org/Graphics/SVG/1.1/DTD/svg11.dtd">
<svg version="1.1" id="Layer_1" xmlns="http://www.w3.org/2000/svg" xmlns:xlink="http://www.w3.org/1999/xlink" x="0px" y="0px"
	 width="450px" height="450px" viewBox="0 0 450 450" enable-background="new 0 0 450 450" xml:space="preserve">
<g>
	<path fill-rule="evenodd" clip-rule="evenodd" fill="#FFFFFF" d="M32.128,197.201c-0.006-50.594-0.029-101.186,0.006-151.778
		c0.02-28.816,15.208-43.927,44.164-43.937c79.03-0.025,158.06-0.021,237.091-0.002c28.965,0.008,44.16,15.1,44.168,43.92
		c0.026,101.517,0.03,203.032,0.005,304.548c-0.007,29.506-15.013,44.423-44.661,44.435c-79.031,0.027-158.059,0.023-237.089,0
		c-28.287-0.008-43.646-15.271-43.666-43.426C32.107,299.707,32.134,248.454,32.128,197.201z M48.007,197.943
		c0,50.898-0.056,101.798,0.029,152.694c0.031,19.284,8.708,27.864,27.839,27.87c79.323,0.02,158.646,0.02,237.968,0
		c19.139-0.004,27.807-8.569,27.818-27.888c0.058-101.798,0.056-203.594,0-305.391c-0.01-19.27-8.705-27.856-27.842-27.862
		c-78.662-0.02-157.322-0.012-235.984-0.006c-21.813,0.002-29.808,7.968-29.82,29.868C47.985,97.467,48.005,147.706,48.007,197.943z
		"/>
	<path fill-rule="evenodd" clip-rule="evenodd" fill="#71B1E1" d="M389.311,250.547c0.007-50.586,0.021-101.172-0.002-151.756
		c-0.006-15.809-3.541-21.088-18.857-25.756c-6.935-2.112-4.779-7.003-4.671-11.162c0.147-5.554,4.403-4.721,8.05-4.143
		c18.197,2.889,31.006,18.076,31.271,37.951c0.32,23.799,0.091,47.607,0.091,71.413c0,78.357,0.031,156.715-0.022,235.073
		c-0.016,21.911-9.81,38.53-26.231,45.07c-5.298,2.112-10.786,2.768-16.495,2.764c-78.689-0.069-157.376-0.008-236.065-0.069
		c-23.202-0.02-41.519-14.979-45.883-37.366c-0.777-3.977-2.631-9.197,4.12-9.977c5.155-0.593,9.898-1.398,11.496,6.691
		c3.465,17.575,13.449,24.783,31.612,24.787c77.365,0.02,154.733,0.008,232.096,0.002c19.859-0.002,29.421-9.517,29.456-29.782
		C389.366,353.041,389.307,301.792,389.311,250.547z"/>
	<path fill-rule="evenodd" clip-rule="evenodd" fill="#71B1E1" d="M48.007,197.943c-0.002-50.237-0.021-100.477,0.01-150.714
		c0.012-21.9,8.007-29.866,29.82-29.868c78.662-0.006,157.322-0.014,235.984,0.006c19.137,0.006,27.832,8.592,27.842,27.862
		c0.056,101.796,0.058,203.593,0,305.391c-0.012,19.318-8.68,27.884-27.818,27.888c-79.322,0.02-158.646,0.02-237.968,0
		c-19.131-0.006-27.809-8.586-27.839-27.87C47.951,299.741,48.007,248.842,48.007,197.943z M194.868,148.311
		c29.413,0,58.828,0.029,88.243-0.037c3.395-0.008,8.524,1.172,8.414-4.042c-0.108-5.186-5.285-3.783-8.632-3.787
		c-59.159-0.074-118.316-0.078-177.474-0.012c-3.007,0.004-7.538-1.403-7.79,3.544c-0.302,5.901,4.759,4.285,8.007,4.296
		C135.379,148.378,165.124,148.336,194.868,148.311z M194.388,172.129c-29.405,0-58.811-0.052-88.218,0.078
		c-3.211,0.016-8.356-1.802-8.482,3.825c-0.128,5.802,5.087,3.973,8.275,3.979c58.81,0.103,117.625,0.103,176.437,0.021
		c3.606-0.004,9.317,1.578,9.083-4.353c-0.197-4.977-5.511-3.484-8.875-3.496C253.202,172.096,223.795,172.133,194.388,172.129z
		 M193.858,275.33c29.752,0,59.503,0.023,89.253-0.033c3.424-0.008,8.513,1.098,8.451-4.036c-0.064-5.215-5.223-3.808-8.583-3.812
		c-59.171-0.068-118.342-0.078-177.515-0.016c-3.008,0.004-7.541-1.425-7.835,3.506c-0.349,5.902,4.709,4.329,7.969,4.339
		C135.019,275.381,164.44,275.338,193.858,275.33z M193.862,299.133c-29.415,0-58.828-0.042-88.241,0.061
		c-3.251,0.01-8.31-1.595-7.992,4.31c0.268,4.939,4.796,3.529,7.806,3.533c59.157,0.06,118.314,0.05,177.474-0.014
		c3.392-0.004,8.52,1.265,8.612-3.849c0.097-5.223-5.062-3.975-8.426-3.984C253.352,299.113,223.607,299.145,193.862,299.133z
		 M126.601,116.578c8.23,0,16.499-0.477,24.681,0.146c6.846,0.521,8.333-2.25,7.961-8.385c-0.459-7.544-0.537-15.169,0.023-22.7
		c0.492-6.651-1.174-9.387-8.453-8.897c-9.833,0.661-19.745,0.056-29.62,0.169c-8.164,0.093-19.109-2.678-23.766,1.48
		c-5.482,4.893-1.507,16.071-1.721,24.506c-0.347,13.71-0.114,13.712,13.116,13.693C114.747,116.582,120.675,116.59,126.601,116.578
		z M256.106,203.893c-8.123,1.037-22.38-4.649-27.86,2.103c-5.205,6.415-1.457,20.096-1.64,30.584
		c-0.011,0.658,0.077,1.325,0.004,1.975c-0.441,3.877,1.345,5.091,5.112,5.063c17.777-0.128,35.56-0.124,53.34,0.025
		c3.833,0.032,5.209-1.285,5.091-5.11c-0.337-11.143,3.335-24.708-1.791-32.673c-4.137-6.428-18.964-1.277-29.021-1.965
		C259.016,203.873,258.685,203.893,256.106,203.893z M236.105,76.898c-16.19,0-32.381-0.023-48.57,0.02
		c-2.872,0.007-6.492-0.624-6.639,3.796c-0.147,4.486,3.434,4.072,6.364,4.076c32.38,0.037,64.759,0.042,97.141,0.035
		c3.281-0.002,7.581,0.304,7.221-4.341c-0.351-4.496-4.771-3.569-7.938-3.579C267.825,76.854,251.966,76.881,236.105,76.898z
		 M236.359,116.58c15.861,0,31.726,0.018,47.587-0.014c3.223-0.006,7.567,0.618,7.674-3.903c0.11-4.713-4.296-3.99-7.486-3.992
		c-32.054-0.035-64.108-0.049-96.161-0.008c-3.147,0.004-7.366-0.862-7.052,4.337c0.262,4.345,4.025,3.55,6.862,3.56
		C203.976,116.613,220.169,116.586,236.359,116.58z M153.187,211.836c15.857,0,31.713,0.023,47.571-0.02
		c3.192-0.007,7.563,0.69,7.537-3.982c-0.029-4.649-4.403-3.93-7.591-3.932c-32.042-0.023-64.087-0.018-96.132,0.039
		c-2.802,0.004-6.635-0.907-6.947,3.438c-0.368,5.137,3.816,4.399,7.001,4.409C120.813,211.84,137,211.811,153.187,211.836z
		 M153.187,243.584c15.863,0,31.727,0.023,47.592-0.02c3.197-0.008,7.569,0.677,7.513-4.005c-0.054-4.64-4.428-3.907-7.618-3.907
		c-32.06-0.029-64.116-0.031-96.174,0.012c-2.831,0.004-6.618-0.817-6.908,3.51c-0.349,5.166,3.829,4.365,7.011,4.375
		C120.797,243.594,136.992,243.57,153.187,243.584z"/>
	<path fill-rule="evenodd" clip-rule="evenodd" fill="#FFFFFF" d="M194.868,148.324c-29.744,0.012-59.489,0.054-89.231-0.05
		c-3.248-0.012-8.31,1.604-8.007-4.296c0.252-4.947,4.783-3.541,7.79-3.544c59.158-0.066,118.315-0.062,177.474,0.012
		c3.347,0.004,8.523-1.399,8.632,3.787c0.11,5.215-5.02,4.035-8.414,4.042C253.696,148.34,224.281,148.311,194.868,148.324z"/>
	<path fill-rule="evenodd" clip-rule="evenodd" fill="#FFFFFF" d="M194.388,172.133c29.407,0,58.814-0.037,88.22,0.051
		c3.364,0.011,8.678-1.481,8.875,3.496c0.234,5.93-5.477,4.349-9.083,4.353c-58.812,0.082-117.626,0.082-176.437-0.021
		c-3.188-0.006-8.403,1.824-8.275-3.979c0.126-5.627,5.271-3.81,8.482-3.825C135.577,172.077,164.982,172.129,194.388,172.133z"/>
	<path fill-rule="evenodd" clip-rule="evenodd" fill="#FFFFFF" d="M193.858,275.334c-29.418,0.004-58.839,0.047-88.26-0.056
		c-3.26-0.01-8.317,1.563-7.969-4.339c0.294-4.931,4.827-3.502,7.835-3.506c59.173-0.063,118.344-0.053,177.515,0.016
		c3.36,0.004,8.519-1.403,8.583,3.812c0.062,5.134-5.027,4.028-8.451,4.036C253.361,275.354,223.611,275.33,193.858,275.334z"/>
	<path fill-rule="evenodd" clip-rule="evenodd" fill="#FFFFFF" d="M193.862,299.139c29.745,0.006,59.489-0.025,89.233,0.051
		c3.364,0.01,8.522-1.238,8.426,3.984c-0.093,5.113-5.221,3.845-8.612,3.849c-59.159,0.063-118.316,0.073-177.474,0.014
		c-3.009-0.004-7.538,1.406-7.806-3.533c-0.318-5.904,4.74-4.3,7.992-4.31C135.035,299.091,164.448,299.133,193.862,299.139z"/>
	<path fill-rule="evenodd" clip-rule="evenodd" fill="#FFFFFF" d="M126.601,116.582c-5.926,0.008-11.854,0-17.78,0.008
		c-13.23,0.02-13.462,0.018-13.116-13.693c0.213-8.436-3.761-19.613,1.721-24.506c4.657-4.159,15.602-1.388,23.766-1.48
		c9.875-0.113,19.788,0.492,29.62-0.169c7.279-0.49,8.945,2.246,8.453,8.897c-0.56,7.531-0.482,15.156-0.023,22.7
		c0.372,6.135-1.115,8.906-7.961,8.385C143.1,116.102,134.831,116.578,126.601,116.582z M127.372,108.629c2.3,0,4.601,0,6.903,0
		c18.852,0,18.712,0.014,17.017-18.809c-0.339-3.775-1.386-5.108-5.176-5.058c-12.487,0.163-24.979,0.082-37.469,0.039
		c-2.851-0.009-4.6,0.301-5.203,4.006c-2.779,17.038-0.688,19.826,16.042,19.852C122.113,108.662,124.743,108.658,127.372,108.629z"
		/>
	<path fill-rule="evenodd" clip-rule="evenodd" fill="#FFFFFF" d="M256.106,203.893c2.578,0,2.909-0.02,3.234,0.002
		c10.058,0.688,24.885-4.463,29.021,1.965c5.126,7.965,1.454,21.53,1.791,32.673c0.118,3.825-1.258,5.143-5.091,5.11
		c-17.78-0.149-35.563-0.153-53.34-0.025c-3.768,0.027-5.554-1.187-5.112-5.063c0.073-0.649-0.015-1.316-0.004-1.975
		c0.183-10.488-3.565-24.169,1.64-30.584C233.727,199.244,247.983,204.93,256.106,203.893z M257.811,235.639
		c2.629,0,5.259-0.006,7.887,0.002c17.2,0.039,16.964,0.045,16.604-17.297c-0.106-5.17-1.48-6.829-6.676-6.616
		c-9.513,0.39-19.125,0.837-28.566-0.085c-10.17-0.992-13.061,2.206-12.936,12.563c0.117,9.476,2.328,13.088,11.874,11.528
		C249.838,235.105,253.866,235.631,257.811,235.639z"/>
	<path fill-rule="evenodd" clip-rule="evenodd" fill="#FFFFFF" d="M236.105,76.889c15.86-0.008,31.72-0.035,47.579,0.016
		c3.167,0.01,7.587-0.917,7.938,3.579c0.36,4.645-3.939,4.339-7.221,4.341c-32.382,0.008-64.761,0.002-97.141-0.035
		c-2.93-0.004-6.511,0.411-6.364-4.076c0.147-4.42,3.767-3.789,6.639-3.796C203.724,76.875,219.915,76.898,236.105,76.889z"/>
	<path fill-rule="evenodd" clip-rule="evenodd" fill="#FFFFFF" d="M236.359,116.582c-16.19,0.004-32.383,0.031-48.576-0.021
		c-2.837-0.009-6.6,0.785-6.862-3.56c-0.314-5.199,3.905-4.333,7.052-4.337c32.052-0.041,64.107-0.027,96.161,0.008
		c3.19,0.002,7.597-0.721,7.486,3.992c-0.106,4.521-4.451,3.897-7.674,3.903C268.085,116.598,252.221,116.58,236.359,116.582z"/>
	<path fill-rule="evenodd" clip-rule="evenodd" fill="#FFFFFF" d="M153.187,211.824c-16.187-0.014-32.374,0.016-48.561-0.037
		c-3.186-0.01-7.37,0.729-7.001-4.409c0.312-4.345,4.145-3.434,6.947-3.438c32.044-0.056,64.089-0.062,96.132-0.039
		c3.188,0.002,7.562-0.717,7.591,3.932c0.027,4.672-4.345,3.975-7.537,3.982C184.9,211.859,169.044,211.836,153.187,211.824z"/>
	<path fill-rule="evenodd" clip-rule="evenodd" fill="#FFFFFF" d="M153.187,243.578c-16.195-0.008-32.39,0.016-48.584-0.029
		c-3.182-0.01-7.36,0.791-7.011-4.375c0.291-4.327,4.077-3.506,6.908-3.51c32.058-0.043,64.115-0.041,96.174-0.012
		c3.19,0,7.564-0.732,7.618,3.907c0.056,4.682-4.316,3.997-7.513,4.005C184.914,243.607,169.05,243.584,153.187,243.578z"/>
	<path fill-rule="evenodd" clip-rule="evenodd" fill="#FDBC1C" d="M127.372,108.645c-2.629,0.014-5.259,0.018-7.887,0.014
		c-16.73-0.025-18.821-2.814-16.042-19.852c0.603-3.705,2.353-4.015,5.203-4.006c12.49,0.043,24.981,0.124,37.469-0.039
		c3.791-0.05,4.837,1.283,5.176,5.058c1.696,18.822,1.835,18.809-17.017,18.809C131.973,108.629,129.672,108.629,127.372,108.645z"
		/>
	<path fill-rule="evenodd" clip-rule="evenodd" fill="#FDBC1C" d="M257.811,235.635c-3.944-0.004-7.973-0.529-11.813,0.099
		c-9.546,1.561-11.757-2.052-11.874-11.528c-0.125-10.358,2.766-13.556,12.936-12.563c9.441,0.922,19.054,0.475,28.566,0.085
		c5.195-0.213,6.569,1.446,6.676,6.616c0.36,17.342,0.597,17.336-16.604,17.297C263.069,235.633,260.439,235.639,257.811,235.635z"
		/>
</g>
</svg>
