<?xml version="1.0" encoding="utf-8"?>
<!-- Generator: Adobe Illustrator 16.0.0, SVG Export Plug-In . SVG Version: 6.00 Build 0)  -->
<!DOCTYPE svg PUBLIC "-//W3C//DTD SVG 1.1//EN" "http://www.w3.org/Graphics/SVG/1.1/DTD/svg11.dtd">
<svg version="1.1" id="Layer_1" xmlns="http://www.w3.org/2000/svg" xmlns:xlink="http://www.w3.org/1999/xlink" x="0px" y="0px"
	 width="566.93px" height="566.93px" viewBox="0 0 566.93 566.93" enable-background="new 0 0 566.93 566.93" xml:space="preserve">
<rect display="none" fill-rule="evenodd" clip-rule="evenodd" fill="#316FB7" width="566.93" height="566.93"/>
<g display="none">
	<path display="inline" fill-rule="evenodd" clip-rule="evenodd" fill="#FFFFFF" d="M449.449,233.235
		c-0.529,37.748-9.1,68.984-26.209,97.595c-3.822,6.399-3.234,9.477,1.854,14.515c42.656,42.233,85.098,84.688,127.361,127.317
		c17.523,17.679,17.846,38.996,1.607,55.284c-16.152,16.203-37.875,15.921-55.254-1.343
		c-41.992-41.711-83.904-83.509-125.463-125.649c-6.392-6.484-10.562-7.303-18.85-2.555
		c-114.797,65.769-260.534-5.979-278.188-136.61C62.751,161.477,131.724,67.837,231.432,51.195
		c99.762-16.654,196.045,50.875,214.586,150.848C448.178,213.691,450.342,225.537,449.449,233.235z M411.73,236.896
		c-0.852-85.074-67.411-150.959-151.861-150.319c-81.656,0.612-148.467,68.694-147.782,150.582
		c0.703,83.987,68.96,149.318,155.132,148.479C345.071,384.877,412.516,315.457,411.73,236.896z"/>
	<path display="inline" fill-rule="evenodd" clip-rule="evenodd" fill="#FFFFFF" d="M2.738,273.825
		c0-71.083-0.013-142.168,0.008-213.254c0.006-17.578,3.21-20.775,20.835-20.789c41.713-0.037,83.431,0.166,125.144-0.141
		c9.856-0.075,16.933,1.557,16.708,13.422c-0.222,11.233-7.323,12.567-16.415,12.516c-36.179-0.211-72.363,0.182-108.542-0.273
		c-8.928-0.115-12.31,1.417-12.277,11.58c0.396,131.526,0.405,263.053-0.024,394.581c-0.033,10.229,3.273,11.456,12.144,11.431
		c104.287-0.286,208.575-0.36,312.858,0.088c10.417,0.043,12.771-3.103,12.148-12.666c-0.797-12.298-0.179-24.678-0.233-37.023
		c-0.041-9.288,4.834-12.603,13.715-12.498c8.5,0.104,12.336,3.349,12.193,12.201c-0.34,19.997-0.174,40.009-0.063,60.013
		c0.063,10.615-5.119,15.537-15.609,15.534c-118.759-0.027-237.52,0.021-356.278-0.076c-12.472-0.011-16.271-4.59-16.284-18.834
		C2.704,417.697,2.738,345.762,2.738,273.825z"/>
	<path display="inline" fill-rule="evenodd" clip-rule="evenodd" fill="#FFFFFF" d="M375.518,235.285
		c-1.098,28.5-9.353,52.032-25.773,72.669c-5.713,7.186-11.559,9.278-19.319,2.741c-7.624-6.418-6.64-12.025-0.843-19.403
		c21.47-27.321,26.271-57.648,12.399-89.635c-13.85-31.943-39.305-49.454-73.748-52.824c-22.464-2.199-42.889,4.878-60.421,18.907
		c-8.094,6.475-14.172,8.018-21.212-1.106c-7.351-9.534-1.426-14.745,5.464-19.718c37.608-27.142,78.005-32.646,119.842-11.984
		C353.801,155.625,373.473,191.374,375.518,235.285z"/>
</g>
<g display="none">
	<path display="inline" fill-rule="evenodd" clip-rule="evenodd" fill="#FFFFFF" d="M88.783,369.623
		c-0.227-10.896,8.18-20.762,18.731-28.65c9.889-7.398,9.343-12.972,0.166-20.437c-7.655-6.225-14.555-13.52-21.048-20.991
		c-5.283-6.074-9.263-6.368-14.165,0.083c-7.565,9.953-14.88,9.176-23.267,0.136c-12.309-13.277-25.459-25.774-38.287-38.567
		c-4.576-4.563-8.494-9.689-2.993-15.569c6.055-6.473,11.561-2.569,16.509,2.432c10.315,10.421,21.058,20.457,30.875,31.327
		c5.198,5.755,7.914,3.452,12.082-0.746c31.905-32.139,63.838-64.26,96.135-96.002c5.661-5.565,4.18-8.444-0.598-13.165
		c-28.844-28.494-57.407-57.271-86.107-85.911c-3.719-3.714-7.701-7.219-5.976-13.277c2.172-7.631,10.152-8.678,17.383-1.707
		c16.454,15.864,32.793,31.861,48.838,48.139c18.134,18.397,37.888,35.221,54.271,55.305c2.739,3.358,5.776,3.143,9.145,3.143
		c56.937,0.016,113.873,0.03,170.811-0.046c2.767,0,5.261,0.326,7.876-2.656c31.283-35.682,66.519-67.516,99.52-101.536
		c4.868-5.015,10.239-11.332,17.277-4.414c6.89,6.767,1.255,12.387-3.873,17.431c-28.601,28.125-57.039,56.413-85.879,84.294
		c-5.096,4.933-5.786,7.472-0.34,12.825c32.313,31.731,64.337,63.761,96.105,96.039c5.395,5.485,8.362,4.802,13.185-0.348
		c10.018-10.696,20.678-20.794,31.037-31.171c4.363-4.37,9.142-7.271,14.498-2.03c5.689,5.569,1.881,9.613-2.571,13.938
		c-13.922,13.524-27.849,27.07-41.15,41.188c-8.097,8.595-15.296,9.006-22.444-0.166c-5.373-6.883-9.813-6.504-14.778,0.193
		c-1.778,2.4-4.235,4.294-6.36,6.435c-7.593,7.655-19.616,14.353-21.555,23.244c-2.096,9.604,12.462,15.15,18.8,23.305
		c13.568,17.463,8.062,43.538-12.347,52.264c-7.906,3.379-9.49,7.123-9.083,15.03c0.917,17.723-9.789,31.419-27.48,35.526
		c-5.639,1.307-8.081,2.453-9.559,8.908c-5.474,23.907-26.913,34.586-49.699,24.976c-5.768-2.431-6.839-0.6-9.562,3.58
		c-15.052,23.111-39.454,25.902-58.599,5.74c-8.444-8.892-12.889-9.509-21.68-0.229c-19.654,20.744-42.826,17.856-59.385-6.275
		c-2.764-4.031-4.138-4.531-8.811-2.58c-23.067,9.614-44.796-1.7-50.103-26.174c-1.126-5.198-2.69-6.521-7.721-7.652
		c-19.454-4.379-29.147-16.928-28.811-37.092c0.106-6.369-0.92-9.499-7.592-12.225C96.355,399.835,88.643,388.84,88.783,369.623z
		 M245.125,190.966c-22.858,0-42.248,0.115-61.631-0.081c-4.7-0.045-8.054,1.551-11.322,4.847
		c-23.976,24.187-47.997,48.332-72.282,72.211c-4.627,4.548-5.538,7.271-0.205,12.098c9.573,8.668,18.537,18.036,27.408,27.438
		c3.874,4.104,7.542,5.753,13.49,4.905c20.963-2.991,36.725,7.375,40.858,27.989c1.514,7.558,4.92,9.455,11.16,10.956
		c14.362,3.454,23.577,12.809,25.824,27.275c1.056,6.784,3.494,9.305,9.8,10.724c15.289,3.451,25.086,12.803,27.501,28.728
		c0.872,5.748,3.159,8.314,9.458,9.553c15.504,3.061,26.166,13.548,27.142,28.908c0.791,12.436,7.335,19.307,14.928,26.721
		c10.347,10.107,20.076,11.384,28.097,3.675c7.831-7.528,6.345-16.604-4.64-27.738c-6.664-6.749-13.383-13.441-20.138-20.104
		c-5.023-4.958-11.164-10.44-4.613-17.407c7.563-8.049,12.967-0.461,18.083,4.585c13.194,13.021,26.191,26.242,39.466,39.183
		c9.914,9.663,19.658,10.574,27.066,3.003c7.258-7.419,6.074-17.252-3.635-27.113c-13.602-13.828-27.379-27.482-41.097-41.2
		c-4.496-4.501-8.868-9.476-2.993-15.415c6.1-6.169,11.514-2.508,16.53,2.564c13.635,13.794,27.354,27.509,41.161,41.129
		c10.19,10.055,19.169,11.023,26.884,3.213c7.962-8.057,7.187-16.624-2.973-27.004c-13.873-14.172-27.983-28.105-41.987-42.148
		c-4.557-4.569-8.339-9.365-2.287-15.394c5.986-5.963,10.873-2.328,15.506,2.156c11.457,11.096,22.807,22.305,34.366,33.296
		c9.915,9.419,18.338,10.28,26.004,3.07c8.158-7.675,7.715-16.572-1.935-27.054c-25.405-27.583-50.745-55.236-76.545-82.448
		c-27.8-29.319-68.72-29.595-97.6-1.19c-10.756,10.577-20.879,21.893-32.334,31.644c-22.308,18.989-56.876,10.057-66.006-17.018
		c-5.794-17.19-2.519-33.143,10.804-46.325C209.225,226.582,225.986,209.943,245.125,190.966z M330.462,194.858
		c0-0.184,0-0.363,0-0.546c-17.658,0-35.323,0.156-52.974-0.09c-5.485-0.076-9.731,1.159-13.746,5.244
		c-20.215,20.588-40.846,40.764-61.05,61.363c-10.738,10.946-10.958,24.633-1.287,34.41c10.714,10.834,21.395,10.891,33.614-0.596
		c10.66-10.032,20.7-20.714,31.144-30.979c33.75-33.167,82.462-33.969,117.256-1.805c8.215,7.597,15.865,15.805,23.859,23.648
		c10.115,9.929,20.314,19.774,30.484,29.657c12.535-8.581,20.791-21.553,32.094-31.344c5.604-4.858,3.827-7.721-0.578-11.941
		c-11.812-11.321-23.161-23.125-34.814-34.619c-14.392-14.199-26.653-33.786-43.989-40.854
		C373.135,189.342,350.676,194.858,330.462,194.858z M135.688,420.125c0.302,7.076,3.722,11.981,10.17,15.066
		c6.824,3.267,12.8,1.423,17.757-3.297c10.589-10.089,20.897-20.479,31.144-30.922c7.967-8.12,8.292-17.372,1.066-24.974
		c-7.999-8.417-16.426-6.519-23.822,0.362c-10.701,9.956-20.762,20.609-31.038,31.021
		C137.528,410.867,135.323,414.965,135.688,420.125z M238.249,425.06c-0.761-6.847-3.817-12.728-9.997-15.539
		c-6.709-3.054-13.499-1.73-18.967,3.706c-10.353,10.291-20.766,20.525-30.928,31.004c-7.304,7.531-8.465,15.782-1.017,23.973
		c6.719,7.389,16.553,7.217,25.015-0.792c10.285-9.731,20.048-20.005,30.222-29.86C236.216,434.028,237.877,429.906,238.249,425.06z
		 M124.902,390.318c10.148-0.227,39.074-29.345,39.097-39.356c0.028-12.073-13.108-21.37-23.198-15.224
		c-12.804,7.806-23.774,18.491-31.426,31.426C103.445,377.182,113.135,390.584,124.902,390.318z M259.988,446.466
		c-11.06-0.29-30.903,18.218-30.521,28.482c0.367,9.8,5.623,16.162,15.933,16.866c10.424,0.711,30.24-17.752,29.662-28.228
		C274.533,454.067,269.517,447.504,259.988,446.466z"/>
	<path display="inline" fill-rule="evenodd" clip-rule="evenodd" fill="#FFFFFF" d="M79.179,232.329
		c-0.236,10.217-7.972,17.966-18.042,18.066c-10.456,0.111-18.731-8.368-18.543-18.993c0.195-10.889,8.196-18.135,19.434-17.601
		C72.57,214.301,79.419,221.708,79.179,232.329z"/>
	<path display="inline" fill-rule="evenodd" clip-rule="evenodd" fill="#FFFFFF" d="M526.729,232.691
		c-0.406,9.93-8.598,17.755-18.546,17.714c-10.508-0.042-18.282-8.392-18.019-19.36c0.26-10.946,8.171-17.888,19.651-17.239
		C520.162,214.388,527.154,222.196,526.729,232.691z"/>
</g>
<g display="none">
	<path display="inline" fill-rule="evenodd" clip-rule="evenodd" fill="#FFFFFF" d="M338.289,4.671
		c19.325,4.958,33.003,16.998,42.629,34.066c4.936,8.752,11.905,14.364,22.149,15.933c4.41,0.672,8.604,2.681,12.911,4.025
		c27.276,8.513,42.523,29.549,39.69,57.646c-1.687,16.723,2.293,29.842,13.271,42.894c21.261,25.286,20.946,47.421-0.169,73.326
		c-9.983,12.243-14.215,23.977-12.144,40.4c4.277,33.929-10.172,54.493-42.995,62.911c-15.771,4.042-26.86,11.422-35.871,25.109
		c-18.523,28.152-42.084,35.153-73.637,22.332c-13.17-5.352-24.528-5.259-37.725,0.081c-31.188,12.625-55.235,5.284-73.736-22.79
		c-8.786-13.328-19.538-20.621-34.867-24.517c-31.916-8.116-46.334-27.028-44.487-60.026c1.003-17.886-4.264-31.396-15.356-44.768
		c-18.811-22.689-19.331-45.5-0.096-68.186c12.889-15.193,17.333-30.159,13.397-49.627c-4.042-20.011,11.324-42.548,32.523-51.623
		c2.636-1.127,5.379-2.279,8.181-2.698c18.763-2.793,32.268-12.284,41.317-29.28c7.518-14.117,21.604-20.232,36.033-25.207
		c6.602,0,13.212,0,19.814,0c21.331,10.745,42.849,15.48,65.063,2.299c2.006-1.192,4.5-1.554,6.768-2.299
		C326.735,4.671,332.507,4.671,338.289,4.671z M174.409,195.461c-1.633,64.762,54.931,116.295,116.564,114.232
		c59.647-1.995,109.82-52.05,109.599-112.639c-0.238-64.341-50.915-114.969-114.216-114.106
		C223.842,83.8,173.951,133.948,174.409,195.461z"/>
	<path display="inline" fill-rule="evenodd" clip-rule="evenodd" fill="#FFFFFF" d="M229.309,561.971
		c-11.11-20.477-26.346-38.135-39.201-57.412c-3.783-5.669-8.311-2.299-12.107-1.411c-19.443,4.545-38.762,9.635-59.948,14.994
		c17.208-46.407,33.672-90.841,50.805-137.073c29.162,39.252,66.654,48.799,111.518,32.551c2.324,5.197-1.324,9.387-2.827,13.732
		c-14.992,43.357-30.216,86.64-45.309,129.962c-0.5,1.432-0.32,3.101-0.455,4.657C230.959,561.971,230.135,561.971,229.309,561.971z
		"/>
	<path display="inline" fill-rule="evenodd" clip-rule="evenodd" fill="#FFFFFF" d="M320.954,4.671
		c-2.268,0.745-4.761,1.107-6.768,2.299c-22.214,13.182-43.732,8.446-65.063-2.299C273.065,4.671,297.011,4.671,320.954,4.671z"/>
	<path display="inline" fill-rule="evenodd" clip-rule="evenodd" fill="#FFFFFF" d="M357.043,561.721
		c-16.697-48.157-32.528-93.806-48.335-139.462c-0.121-0.354,0.056-0.814,0.188-2.287c46.978,8.242,81.389-10.236,105.34-54.08
		c19.098,52.039,37.172,101.298,55.867,152.25c-20.148-5.04-38.813-9.308-57.225-14.488c-8.462-2.38-13.861-1.731-19.185,6.484
		C382.591,527.259,370.123,543.489,357.043,561.721z"/>
	<path display="inline" fill-rule="evenodd" clip-rule="evenodd" fill="#FFFFFF" d="M306.202,211.832
		c-13.192,0-26.38-0.194-39.558,0.135c-3.24,0.084-8.083-2.563-9.604,2.344c-1.148,3.709,1.895,6.922,4.22,9.786
		c11.638,14.328,35.951,18.782,52.713,7.161c9.941-6.895,14.244-5.217,21.073,3.26c11.453,14.21,12.045,13.729-3.629,23.085
		c-42.724,25.491-98.507,5.711-110.693-39.254c-8.631-31.851,1.523-62.407,26.579-79.978c23.886-16.756,58.849-16.671,83.53,0.2
		c20.455,13.977,31.956,45.15,25.978,69.048c-1.436,5.737-5.264,4.12-8.583,4.155C334.221,211.914,320.209,211.832,306.202,211.832z
		 M317.811,182.712c-4.403-17.408-14.49-26.472-29.018-25.96c-14.187,0.503-30.929,10.174-31.131,25.96
		C277.416,182.712,297.163,182.712,317.811,182.712z"/>
</g>
<path display="none" fill-rule="evenodd" clip-rule="evenodd" fill="#FFFFFF" d="M29.449,390.115
	c1.788,36.326,16.679,66.612,49.655,81.985c37.059,17.302,74.822,3.132,103.978-17.972c42.855-31.028,76.792-32.673,113.443,7.421
	c30.553,33.428,100.655,26.251,154.271-13.994c26.712-20.048,54.981-22.343,83.053-7.179c22.203,11.979,34.02,33.395,32.176,59.32
	c-2.006,28.048-17.579,47.353-43.272,58.822c-24.478,10.932-50.949,8.381-65.698-10.61c-23.304-30.01-58.712-27.527-87.678-38.9
	c-24.049-9.449-55.702-10.264-76.614,24.128c-20.952,34.463-59.086,44.708-92.096,17.288
	c-30.241-25.114-64.451-35.168-99.953-44.396c-58.3-15.133-93.156-51.135-98.21-111.287
	c-4.643-55.319,31.922-100.087,93.918-120.979c12.888-4.349,30.709-5.358,37.544-14.46c39.592-52.699,72.654-44.897,129.162-13.665
	c66.226,36.599,149.73,35.995,225.073,13.019c39.423-12.022,53.476-50.68,50.104-91.923c-3.436-42.042-26.751-69.569-66.938-81.081
	c-32.562-9.329-61.942-15.943-87.369,22.105c-26.284,39.323-64.199,39.556-101.965,8.128
	c-60.101-50.009-107.188-48.258-164.419,2.045c-31.777,27.921-65.366,27.081-95.089-2.737C-5.752,86.829-5.868,53.395,21.276,25.358
	c28.507-29.434,63.255-30.64,95.466-3.954c50.229,41.615,112.118,44.054,163.146,3.003c32.105-25.827,68.153-32.714,95.239-2.325
	c22.425,25.149,45.197,31.423,75.553,34.963c72.653,8.478,120.076,62.086,116.008,125.863
	c-4.188,65.564-55.275,109.404-129.642,109.542c-73.723,0.14-147.049-4.57-209.023,50.3c-23.474,20.777-54.13,8.232-74.409-13.777
	c-18.349-19.906-28.466-46.448-65.506-27.41C50.1,321.09,32.372,349.616,29.449,390.115z M280.102,496.984
	c-2.817-24.361-13.943-40.512-40.599-41.06c-25.905-0.519-41.58,12.397-42.067,38.149c-0.521,27.144,13.52,45.973,42.193,45.3
	C264.866,538.796,276.787,520.893,280.102,496.984z M71.973,28.691C45.74,28.668,30.529,43.167,29.776,67.894
	c-0.836,27.247,14.262,45.208,43.107,44.546c26.21-0.595,38.729-18.625,39.099-42.726C112.37,44.53,98.184,29.856,71.973,28.691z
	 M201.714,326.656c25.526-2.61,39.631-17.508,40.328-42.182c0.712-25.039-12.372-41.238-38.796-41.999
	c-28.976-0.829-44.955,15.34-43.459,43.308C161.069,309.752,175.958,325.031,201.714,326.656z M500.145,540.629
	c20.442-3.363,37.044-15.377,38.586-40.746c1.506-24.951-10.167-41.881-36.709-43.76c-28.802-2.018-45.986,13.14-45.591,41.21
	C456.757,520.893,470.46,537.588,500.145,540.629z M330.811,28.898c-25.808,0.685-41.097,14.517-41.01,39.673
	c0.099,26.854,14.319,45.283,43.47,43.753c25.809-1.351,37.704-18.475,37.472-43.328C370.513,43.3,357.109,29.342,330.811,28.898z"
	/>
<g display="none">
	<path display="inline" fill-rule="evenodd" clip-rule="evenodd" fill="#FFFFFF" d="M403.948,213.509
		c2.362,3.097,4.721,6.193,7.083,9.288c0.816,1.877,1.828,3.622,3.398,4.973c2.224,3.859,4.448,7.722,6.672,11.58
		c0.379,0.744,0.762,1.485,1.141,2.226c1.701,3.848,3.4,7.692,5.102,11.536c0.552,1.611,1.103,3.226,1.654,4.836
		c1.306,4.233,2.615,8.461,3.926,12.69c0.058,1.625-0.077,3.302,1.113,4.653c0.767,5.067,1.53,10.133,2.294,15.2
		c0.118,1.944,0.238,3.891,0.355,5.833c0.286,5.447,0.58,10.896,0.868,16.343c-0.891,2.265-0.919,4.627-0.773,7.012
		c-1.242,7.001-2.488,13.999-3.729,21c-1.355,2.556-2.04,5.31-2.38,8.17c-4.716,11.83-9.985,23.379-16.915,34.091
		c-10.253,14.604-22.576,27.112-37.02,37.481c-10.582,7.021-21.979,12.398-33.681,17.164c-2.833,0.324-5.519,1.146-8.078,2.406
		c-7.333,1.363-14.664,2.734-21.997,4.101c-1.895,0.181-3.793,0.361-5.69,0.536c-5.767,0.016-11.532,0.029-17.298,0.039
		c-1.885-0.214-3.769-0.434-5.654-0.649c-4.993-0.809-9.985-1.617-14.979-2.426c-1.514-0.352-3.028-0.699-4.542-1.051
		c-3.702-1.077-7.406-2.149-11.11-3.223c-0.926-1.166-2.326-1.007-3.56-1.31c-4.286-1.87-8.57-3.735-12.853-5.605
		c-1.323-1.391-3.038-2.042-4.798-2.615c-3.851-2.391-7.705-4.787-11.556-7.177c-0.827-0.568-1.653-1.138-2.478-1.701
		c-3.018-2.365-6.033-4.732-9.049-7.093c-0.545-1.103-1.354-1.897-2.545-2.241c-3.454-3.449-6.91-6.894-10.363-10.343
		c-0.393-1.172-1.121-2.049-2.23-2.593c-2.607-3.333-5.216-6.67-7.824-10.007c-0.778-1.117-1.556-2.236-2.333-3.356
		c-2.262-3.731-4.524-7.466-6.786-11.197c-0.234-0.877-0.222-1.882-1.242-2.329c-1.729-3.849-3.462-7.695-5.194-11.542
		c-0.463-1.657-0.745-3.394-2.021-4.692c-1.199-3.887-2.397-7.775-3.596-11.662c-0.463-2.006-0.923-4.013-1.383-6.019
		c-0.787-4.605-1.572-9.209-2.358-13.815c-0.281-1.952-0.56-3.908-0.839-5.861c-0.05-5.833-0.097-11.666-0.146-17.498
		c0.049-1.953,0.098-3.901,0.146-5.854c1.135-7.001,2.272-14.002,3.41-21.003c0.732-2.73,1.465-5.462,2.199-8.196
		c3.446-9.979,7.443-19.715,12.464-29.003c4.16-6.221,8.32-12.442,12.48-18.661c6.456-7.277,13.244-14.217,20.485-20.701
		c6.14-4.21,12.283-8.421,18.425-12.629c9.186-5.059,18.816-9.086,28.668-12.591c2.697-0.739,5.394-1.479,8.091-2.217
		c6.921-1.128,13.841-2.258,20.762-3.386c1.924-0.058,3.85-0.116,5.774-0.172c5.373,0.079,10.747,0.15,16.118,0.229
		c1.855,0.853,3.816,0.939,5.806,0.84c4.994,0.826,9.986,1.653,14.98,2.481c1.425,0.855,2.931,1.39,4.621,1.222
		c3.785,1.208,7.57,2.417,11.354,3.625c0.899,1.229,2.305,1.211,3.589,1.492c4.638,2.171,9.275,4.344,13.915,6.516
		c1.153,0.709,2.305,1.421,3.459,2.129c3.41,2.15,6.823,4.3,10.237,6.448c1.118,0.841,2.239,1.683,3.357,2.524
		c2.708,2.188,5.418,4.379,8.13,6.565c1.606,1.499,3.215,2.996,4.824,4.495c2.295,2.37,4.588,4.739,6.884,7.109
		C401.424,211.463,402.522,212.639,403.948,213.509z M376.488,212.301c-2.643-2.891-5.68-5.256-9.124-7.09
		c-1.232-1.583-2.911-2.511-4.712-3.244c-3.522-2.647-7.241-4.933-11.441-6.329c-0.925-1.128-2.219-1.518-3.557-1.816
		c-4.029-2.121-8.178-3.912-12.669-4.774c-1.396-0.954-2.909-1.486-4.62-1.324c-4.361-1.945-9.038-2.481-13.693-3.114
		c-1.968-0.182-3.936-0.363-5.904-0.542c-5.332-1.431-10.742-1.051-16.149-0.712c-2.336-0.252-4.664-0.429-6.903,0.549
		c-7.132,0.196-14.098,1.284-20.796,3.866c-3.371,0.062-6.334,1.553-9.387,2.736c-34.736,13.413-58.708,37.577-71.294,73.112
		c-1.366,2.556-2.368,5.221-2.413,8.173c-2.768,6.789-3.438,13.992-4.11,21.194c-0.098,2.28-0.197,4.559-0.297,6.839
		c-0.444,5.539-0.479,11.068,0.34,16.577c0.267,1.871,0.536,3.737,0.802,5.606c0.137,4.894,1.319,9.576,2.793,14.201
		c0.426,1.527,0.154,3.29,1.467,4.523c0.948,5.325,2.968,10.236,5.579,14.926c0.228,0.975,0.198,2.082,1.289,2.622
		c1.542,4.53,3.93,8.58,6.861,12.316c0.142,0.729,0.224,1.499,1.132,1.705c1.984,4.022,4.744,7.46,7.844,10.647
		c1.051,1.747,2.183,3.427,3.999,4.479c1.89,2.75,4.215,5.055,6.935,6.96c1.123,1.71,2.655,2.933,4.453,3.85
		c2.625,2.809,5.637,5.092,9.063,6.806c1.352,1.551,3.028,2.597,4.955,3.252c3.526,2.617,7.26,4.825,11.499,6.052
		c1.292,1.286,2.839,2.013,4.649,2.157c3.532,2.118,7.438,3.188,11.372,4.189c1.979,0.518,3.958,1.036,5.937,1.549
		c4.511,1.386,9.059,2.546,13.829,2.393c1.798,0.622,3.622,1.032,5.539,0.732c5.451,0.781,10.903,0.744,16.36,0.094
		c2.383,0.32,4.682-0.111,6.951-0.799c7.567-0.332,14.847-2.021,21.905-4.754c3.286-0.556,6.39-1.617,9.241-3.388
		c30.708-12.548,52.199-34.552,65.296-65.173c1.602-3.431,3.084-6.904,3.719-10.681c2.649-7.156,4.222-14.538,4.67-22.165
		c0.185-2.348,0.372-4.703,0.56-7.051c0.881-5.456,0.973-10.899-0.25-16.322c-0.135-1.943-0.273-3.892-0.411-5.836
		c-0.361-5.211-1.12-10.346-3.035-15.24c0-1.259,0.021-2.52-0.892-3.542c-0.771-4.57-2.512-8.806-4.402-12.989
		c-0.792-2.021-1.275-4.196-2.837-5.836c-1.218-3.815-3.135-7.246-5.587-10.381c-0.336-1.435-1.067-2.61-2.226-3.513
		c-2.094-4.186-4.953-7.799-8.176-11.137c-0.519-1.248-1.301-2.259-2.525-2.873c-2.192-3.157-4.83-5.872-7.925-8.13
		C379.303,214.142,378.066,213.031,376.488,212.301z"/>
	<path display="inline" fill-rule="evenodd" clip-rule="evenodd" fill="#FFFFFF" d="M244.435,45.529
		c9.339-14.465,20.23-27.374,35.302-36.095c3.033-1.268,6.065-2.535,9.098-3.803c6.097-1.077,12.166-2.408,18.414-2.206
		c1.823,1.042,3.819,1.008,5.814,0.976c4.231,1.565,8.461,3.131,12.69,4.697c1.159,0.711,2.315,1.42,3.472,2.128
		c2.873,2.104,5.742,4.208,8.615,6.311c1.311,1.176,2.623,2.352,3.933,3.531c2.374,2.627,4.745,5.256,7.118,7.884
		c0.961,1.225,1.921,2.449,2.88,3.674c2.361,3.5,4.72,6.999,7.079,10.497c0.661,1.177,1.322,2.354,1.983,3.529
		c1.862,3.825,3.723,7.649,5.586,11.471c0.433,1.301,0.703,2.688,1.92,3.548c1.594,4.969,4.034,9.529,6.614,14.018
		c0.391,0.809,0.781,1.621,1.172,2.429c1.283,3.65,2.851,7.157,4.999,10.379c0.27,1.805,0.997,3.384,2.297,4.669
		c1.601,4.897,3.993,9.413,6.551,13.846c0.256,0.953,0.217,2.057,1.298,2.589c1.129,3.721,2.881,7.14,4.931,10.412
		c2.072,4.582,4.146,9.162,6.946,15.36c2.472-9.469,4.462-17.093,6.452-24.714c2.062-7.778,4.119-15.554,6.18-23.332
		c1.271-2.578,2.131-5.266,2.211-8.173c3.35-7.855,3.968-16.591,7.643-24.342c0.6-0.561,1.2-1.122,1.798-1.683
		c5.07-2.844,9.468-1.759,13.36,2.329c0.263,0.562,0.531,1.122,0.796,1.683c1.841,7.647-2.851,14.134-3.692,21.306
		c-0.671,2.493-1.34,4.987-2.008,7.483c-2.209,8.259-4.424,16.519-6.634,24.778c-1.2,2.582-2.078,5.246-2.114,8.135
		c-2.879,7.997-5.039,16.199-6.763,24.523c-1.3,2.571-2.011,5.308-2.227,8.181c-0.84,2.73-1.76,5.438-2.513,8.191
		c-2.702,9.892-4.918,11.457-14.866,10.363c-1.716-1.323-3.809-1.51-5.816-1.956c-4.221-1.204-8.445-2.405-12.67-3.61
		c-1.429-0.846-2.903-1.515-4.618-1.323c-4.063-1.752-8.244-3.089-12.626-3.721c-1.765-1.205-3.787-1.612-5.846-1.908
		c-4.223-1.201-8.447-2.404-12.672-3.605c-1.366-1.033-2.911-1.424-4.591-1.349c-4.038-1.815-8.263-3.003-12.608-3.771
		c-1.825-1.061-3.782-1.687-5.888-1.827c-4.132-1.543-8.27-3.064-12.679-3.615c-1.305-1.171-2.904-1.354-4.551-1.38
		c-3.143-1.28-6.256-2.607-8.199-5.668c-0.38-1.559-0.758-3.115-1.137-4.675c1.104-5.138,4.159-8.308,9.269-9.401
		c1.543,0.344,3.086,0.688,4.63,1.032c4.514,1.588,9.001,3.262,13.778,3.904c0.923,1.158,2.219,1.038,3.479,1.042
		c3.901,1.783,7.971,2.981,12.198,3.651c1.934,1.197,4.072,1.737,6.303,1.967c4.136,1.541,8.273,3.072,12.683,3.637
		c8.981,3.561,18.344,5.736,28.977,8.925c-4.69-9.33-8.701-17.316-12.717-25.302c-1.294-4.198-3.301-8.05-5.566-11.774
		c-0.414-1.852-1.09-3.575-2.418-4.973c-1.108-3.598-2.735-6.942-4.811-10.065c-0.283-1.798-0.991-3.384-2.275-4.682
		c-1.351-4.171-3.232-8.082-5.604-11.752c-0.318-1.863-1.044-3.529-2.355-4.904c-1.083-3.646-2.794-6.991-4.822-10.18
		c-0.604-2.369-1.541-4.566-3.205-6.389c-1.282-3.341-3.212-6.276-5.481-9.002c-0.522-1.372-1.208-2.62-2.505-3.407
		c-1.991-3.712-4.742-6.769-7.971-9.405c-0.908-1.554-2.163-2.719-3.8-3.447c-3.258-3.32-7.032-5.739-11.59-6.783
		c-1.355-1.121-2.919-1.445-4.62-1.225c-7.805-2.175-14.763,0.364-21.381,4.173c-10.432,6.006-18.293,14.817-24.533,24.941
		c-8.305,13.479-16.005,27.341-23.965,41.038c-2.586,4.576-5.172,9.15-7.757,13.724c-2.963,3.897-4.71,8.979-10.042,10.571
		c-1.328-0.071-2.654-0.146-3.984-0.219c-3.361-1.651-6.009-3.944-6.867-7.847c-0.103-2.873,0.857-5.487,1.929-8.073
		c8.266-14.153,16.532-28.302,24.796-42.454C239.239,54.52,241.837,50.024,244.435,45.529z"/>
	<path display="inline" fill-rule="evenodd" clip-rule="evenodd" fill="#FFFFFF" d="M45.4,476.175
		c-2.575-3.032-5.147-6.06-7.721-9.09c-0.337-0.544-0.677-1.084-1.015-1.629c-1.739-4.227-3.479-8.459-5.216-12.692
		c0.18-1.687-0.286-3.22-1.073-4.68c0.004-5.838,0.005-11.67,0.009-17.506c0.866-2.253,1.373-4.573,1.189-7.009
		c3.017-9.563,6.434-18.962,11.101-27.853c3.694-5.857,7.386-11.715,11.08-17.574c12.045-17.882,24.088-35.764,36.134-53.646
		c2.814-3.717,5.68-7.403,7.537-11.754c0.454-0.104,1.015-0.234,0.617-0.828c-0.106-0.161-0.821,0.09-1.254,0.152
		c-2.153,0.502-4.455,0.467-6.375,1.808c-7.829,1.444-15.471,3.61-23.059,5.994c-2.784,0.399-5.563,0.821-8.09,2.187
		c-7.824,1.453-15.467,3.622-23.059,5.991c-2.783,0.406-5.559,0.837-8.09,2.189c-4.544,0.615-9.105,2.604-13.609-0.164
		c-1.167-1.67-2.335-3.333-3.503-5.003c-0.097-7.904,1.86-10.414,9.547-12.47c2.55-0.685,5.044-1.573,7.563-2.367
		c2.851-0.079,5.525-0.86,8.071-2.128c7.838-1.446,15.527-3.481,23.076-6.056c2.85-0.097,5.529-0.862,8.074-2.136
		c7.84-1.435,15.521-3.491,23.075-6.041c2.838-0.147,5.532-0.86,8.076-2.15c7.3-1.73,14.599-3.455,21.897-5.181
		c1.553,0.438,3.106,0.881,4.658,1.319c2.857,2.086,4.08,5.136,4.872,8.44c0.525,2,1.051,4.002,1.576,6.001
		c0.99,4.229,1.979,8.454,2.969,12.684c0.475,2.01,0.951,4.02,1.427,6.029c1.04,4.215,2.083,8.438,3.124,12.651
		c0.453,2.01,0.907,4.015,1.358,6.022c1.114,4.607,2.227,9.212,3.338,13.822c0.389,1.564,0.781,3.129,1.169,4.697
		c1.125,4.661,2.249,9.324,3.374,13.987c-0.246,1.726,0.576,3.18,1.176,4.686c0.672,4.779,1.77,9.451,3.372,13.995
		c-0.224,1.72,0.332,3.237,1.166,4.682c-0.588,8.469-3.179,11.036-11.581,11.468c-1.177-0.626-2.353-1.248-3.531-1.873
		c-2.995-2.482-3.108-6.375-4.593-9.599c0.101-1.686-0.062-3.298-1.174-4.671c-0.472-4.829-1.652-9.485-3.334-14.02
		c-0.034-1.644,0.083-3.323-1.167-4.652c-0.448-4.865-1.701-9.534-3.323-14.111c-0.142-1.611,0.065-3.309-1.158-4.642
		c-0.427-4.863-1.819-9.498-3.271-14.115c-1.43-6.422-2.86-12.844-4.631-20.813c-14.708,22.28-28.492,43.161-42.274,64.037
		c-2.755,3.914-5.558,7.791-8.257,11.738c-6.193,9.061-11.778,18.434-14.47,29.268c-1.45,2.532-1.936,5.315-2.086,8.187
		c-1.092,5.532-1.427,11.032,0.703,16.422c0.124,2.271,0.839,4.301,2.426,5.964c1.595,4.104,4.379,7.16,8.083,9.406
		c0.769,1.323,1.967,2.029,3.382,2.434c3.832,2.897,8.099,4.796,12.8,5.692c1.238,1.296,2.958,1.066,4.485,1.439
		c4.514,1.527,9.168,2.187,13.906,2.344c1.918,0.816,3.916,0.659,5.913,0.477c5.761,0.021,11.524,0.039,17.287,0.059
		c1.927,0.015,3.853,0.034,5.778,0.052c5.767,0.014,11.533,0.029,17.3,0.043c1.915,0.493,3.837,0.519,5.765,0.074
		c5.771,0.462,11.543,0.664,17.316,0.065c1.838,0.181,3.674,0.357,5.511,0.533c3.393,0.95,5.417,3.469,7.118,6.358
		c0.011,1.941,0.023,3.887,0.034,5.828c-1.501,2.414-3.209,4.626-5.738,6.032c-2.328,0.243-4.654,0.484-6.981,0.726
		c-5.347-0.659-10.702-0.741-16.059-0.159c-2.319-0.655-4.654-0.582-6.997-0.178c-5.365-0.04-10.729-0.079-16.093-0.114
		c-1.939-0.023-3.878-0.053-5.815-0.078c-5.756-0.028-11.51-0.056-17.266-0.081c-1.931-0.063-3.861-0.123-5.792-0.188
		c-4.945-0.675-9.89-1.345-14.834-2.02c-1.391-0.233-2.781-0.472-4.172-0.707c-4.782-1.582-9.564-3.164-14.345-4.742
		c-1.189-0.593-2.379-1.182-3.57-1.774c-3.424-2.114-6.847-4.227-10.271-6.338C47.788,478.273,46.593,477.224,45.4,476.175z"/>
	<path display="inline" fill-rule="evenodd" clip-rule="evenodd" fill="#FFFFFF" d="M381.186,510.997
		c-2.276-2.762-5.041-4.948-7.974-6.937c-1.509-1.351-3.02-2.693-4.53-4.038c-2.777-2.521-5.56-5.044-8.342-7.564
		c-0.478-1.176-0.957-2.35-1.435-3.527c-0.237-3.873,1.089-6.984,3.703-9.946c21.797-24.728,43.465-49.574,65.189-74.373
		c5.113-5.832,7.433-6.312,14.524-3.247c0.9,1.246,1.799,2.489,2.696,3.735c1.578,4.59-0.088,8.172-3.104,11.623
		c-16.881,19.295-33.662,38.683-50.48,58.037c-0.611,0.637-1.222,1.274-1.837,1.91c0.645,0.108,1.286,0.216,1.926,0.32
		c0.757-0.021,1.519-0.046,2.274-0.067c1.937-0.012,3.873-0.021,5.81-0.033c5.751,0.216,11.507,0.47,17.238-0.373
		c2.318,0.603,4.628,0.593,6.931-0.086c5.792,0.496,11.568,0.296,17.338-0.299c1.921,0.491,3.844,0.436,5.768-0.01
		c5.766-0.053,11.528-0.107,17.296-0.159c1.928,0.004,3.854,0.004,5.784,0.006c5.761-0.051,11.519-0.105,17.279-0.154
		c2.384,0.284,4.705,0.035,6.939-0.878c8.072-0.434,15.826-2.153,23.068-5.908c9.468-3.598,16.628-9.532,19.519-19.78
		c2.368-5.706,2.139-11.575,1.063-17.496c0.311-2.109-0.68-3.939-1.231-5.861c-0.827-4.528-2.422-8.781-4.591-12.813
		c-0.311-1.358-0.696-2.68-1.874-3.576c-1.499-4.358-3.88-8.211-6.719-11.792c-0.438-1.407-1.134-2.626-2.391-3.446
		c-1.979-3.753-4.306-7.263-7.1-10.449c-0.734-1.959-1.82-3.68-3.417-5.044c-1.782-3.636-4.155-6.869-6.723-9.97
		c-0.546-1.491-1.232-2.889-2.598-3.814c-1.813-3.624-4.127-6.898-6.746-9.96c-0.122-0.712-0.222-1.442-1.117-1.6
		c-2.291-3.521-4.582-7.038-6.871-10.558c-0.204-1.902-0.403-3.805-0.601-5.707c1.229-4.315,4.214-6.734,8.35-7.904
		c1.534,0.277,3.065,0.557,4.598,0.838c3.628,1.995,5.042,6.016,7.844,8.767c0.354,1.445,1.139,2.595,2.326,3.466
		c1.566,3.248,3.598,6.17,5.972,8.857c0.737,1.906,1.79,3.585,3.357,4.904c1.549,3.355,3.744,6.264,6.065,9.095
		c1.083,1.571,2.172,3.142,3.26,4.714c2.109,3.186,4.219,6.372,6.333,9.558c0.807,1.137,1.618,2.275,2.425,3.412
		c2.196,3.44,4.388,6.882,6.584,10.322c0.997,1.661,1.997,3.325,2.994,4.984c1.608,3.407,3.22,6.808,4.832,10.213
		c0.213,1.771,0.856,3.362,1.931,4.773c1.198,4.252,2.396,8.502,3.594,12.758c0.253,1.99,0.506,3.979,0.759,5.973
		c0.61,5.809-0.179,11.577-0.536,17.36c-0.769,2.725-1.532,5.453-2.297,8.18c-5.857,13.558-16.288,22.428-29.012,28.941
		c-3.038,1.162-6.075,2.332-9.113,3.502c-7.318,1.566-14.635,3.131-21.955,4.699c-1.917,0.123-3.84,0.243-5.759,0.368
		c-5.76,0.05-11.518,0.103-17.278,0.151c-1.934,0.01-3.871,0.016-5.804,0.025c-5.756-0.235-11.507-0.391-17.248,0.295
		c-2.308-0.472-4.61-0.534-6.901,0.109c-5.405-0.467-10.798-0.349-16.181,0.328c-2.317-0.569-4.633-0.441-6.946,0.047
		c-8.04,0-16.085,0-25.565,0c5.571,4.633,9.82,8.176,14.069,11.715c1.138,1.675,2.674,2.868,4.442,3.785
		c2.278,2.708,4.937,4.966,7.896,6.87c1.338,1.808,2.965,3.281,4.936,4.354c3.008,2.61,6.022,5.22,9.031,7.832
		c1.19,1.015,2.381,2.031,3.572,3.046c2.296,2.729,5.017,4.955,7.973,6.898c0.612,1.248,1.637,2.031,2.873,2.562
		c2.506,3.123,6.48,4.927,7.906,9.023c-0.02,1.951-0.041,3.904-0.06,5.855c-5.423,7.655-9.999,8.24-16.995,2.216
		c-1.587-1.37-3.284-2.61-4.928-3.912c-0.788-0.677-1.577-1.349-2.369-2.025c-2.275-2.732-4.985-4.955-7.929-6.897
		c-1.3-1.814-2.937-3.235-4.871-4.317c-3.013-2.599-6.026-5.199-9.037-7.804c-1.196-1.027-2.39-2.056-3.584-3.086
		c-2.304-2.736-5.048-4.958-8.001-6.93c-0.614-1.254-1.63-2.037-2.882-2.556c-3.12-2.713-6.239-5.425-9.359-8.142
		C383.836,513.259,382.512,512.126,381.186,510.997z"/>
	<path display="inline" fill-rule="evenodd" clip-rule="evenodd" fill="#FFFFFF" d="M96.789,312.066
		c0.433-0.063,1.147-0.313,1.254-0.152c0.397,0.594-0.164,0.724-0.617,0.828C97.201,312.528,96.989,312.302,96.789,312.066z"/>
	<path display="inline" fill-rule="evenodd" clip-rule="evenodd" fill="#FFFFFF" d="M391.433,474.76
		c0.029,0.74,0.062,1.486,0.089,2.23c-0.64-0.104-1.281-0.212-1.926-0.32C390.211,476.034,390.821,475.396,391.433,474.76z"/>
	<path display="inline" fill-rule="evenodd" clip-rule="evenodd" fill="#FFFFFF" d="M344.738,242.597
		c0.014,2.341,0.028,4.686,0.04,7.026c-0.646,7.912-0.646,7.912-8.632,8.374c-1.929-0.008-3.859-0.017-5.789-0.027
		c-6.305,0-12.609,0-19.854,0c4.066,4.871,5.78,9.78,8.16,14.326c0.248,1.354-0.385,3.041,1.388,3.832
		c6.125,0.04,12.252,0.083,18.378,0.123c1.924,0.08,3.847,0.158,5.772,0.237c0.179,4.269,0.359,8.541,0.537,12.809
		c-0.147,3.384,0.04,7.063-5.153,6.034c-4.971-0.058-9.958,0.122-14.905-0.259c-3.809-0.294-5.496,0.877-6.74,4.754
		c-4.658,14.53-14.477,24.201-28.615,29.515c-1.922,0.724-4.233,0.571-6.04,2.621c3.471,3.276,6.936,6.548,10.404,9.82
		c1.385,1.363,2.771,2.73,4.156,4.097c2.652,2.596,5.303,5.192,7.954,7.788c0.908,1.542,2.114,2.78,3.688,3.628
		c2.347,2.997,5.01,5.664,8.03,7.961c0.868,1.519,2.031,2.73,3.583,3.537c1.9,2.127,3.799,4.253,6.517,7.294
		c-2.247,1.853-4.653,3.518-6.681,5.564c-6.54,6.604-6.485,6.662-13.25,0.888c-0.93-1.539-2.128-2.802-3.716-3.659
		c-2.338-2.987-4.999-5.636-8.009-7.928c-0.871-1.533-2.047-2.746-3.608-3.567c-2.361-3.028-5.047-5.721-8.092-8.04
		c-0.842-1.495-1.972-2.689-3.506-3.47c-2.385-3.086-5.141-5.787-8.225-8.149c-0.795-1.448-1.911-2.567-3.361-3.343
		c-2.689-3.276-5.664-6.258-9.019-8.836c-0.68-0.671-1.359-1.344-2.04-2.017c-6.655-0.695-5.915-5.79-6.027-10.375
		c0.57-2.344,0.573-4.688-0.031-7.026c0.161-2.085,1.611-2.535,3.309-2.664c1.936,0.011,3.869,0.022,5.802,0.033
		c6.167,0.122,12.373,0.98,18.438-0.953c10.695-1.459,18.258-7.918,20.129-17.213c-2.103,0-4.195,0-6.29,0
		c-5.761,0.011-11.522,0.018-17.281,0.029c-1.932-0.011-3.861-0.019-5.791-0.029c-5.761-0.072-11.523-0.145-17.284-0.219
		c-0.132-0.77-0.267-1.542-0.401-2.316c0.083-4.214,0.393-8.439,0.172-12.639c-0.165-3.147,0.981-3.884,3.859-3.762
		c4.157,0.177,8.331-0.071,12.5-0.143c1.93,0.011,3.859,0.021,5.79,0.029c8.295,0,16.588,0,25.339,0
		c-2.257-6.509-5.729-11.442-11.782-14.248c-1.596-1.245-3.336-2.118-5.41-2.099c-5.232-2.223-10.699-2.265-16.22-1.783
		c-1.931-0.012-3.861-0.026-5.794-0.037c-1.295-0.068-2.637-0.395-3.877-0.158c-3.998,0.755-5.243-1.28-5.176-4.852
		c0.537-1.945,0.54-3.882-0.052-5.818c0.059-0.187,0.187-0.381,0.163-0.552c-0.947-6.229,1.726-8.76,7.793-7.84
		c1.929,0.007,3.858,0.019,5.788,0.028c5.76-0.009,11.521-0.021,17.284-0.028c1.93,0.007,3.858,0.019,5.786,0.028
		c5.762-0.009,11.523-0.021,17.284-0.028c1.932,0.007,3.861,0.019,5.791,0.028c5.76-0.009,11.521-0.021,17.283-0.028
		c1.93,0.007,3.86,0.019,5.789,0.028c2.064,0.058,4.166,0.389,6.184,0.112C344.145,238.626,344.673,240.267,344.738,242.597z"/>
</g>
<g>
	<path fill-rule="evenodd" clip-rule="evenodd" fill="#FFFFFF" d="M159.792,13.603c138.124-39.79,265.523,58.017,271.842,201.355
		c2.146,48.804-14.974,92.977-41.622,133.506c-14.381,14.37-28.763,28.731-43.144,43.096
		c-74.706,47.861-152.04,57.553-232.273,14.705C30.356,361.273-7.718,262.318,9.75,168.48
		C32.216,47.76,159.792,13.603,159.792,13.603z M32.946,218.585C32.736,320.7,115.979,404.486,217.572,404.42
		c101.515-0.066,185.682-84.412,185.245-185.616c-0.453-101.872-84.15-184.692-186.202-184.255
		C115.415,34.989,33.157,117.411,32.946,218.585z"/>
	<path fill-rule="evenodd" clip-rule="evenodd" fill="#FFFFFF" d="M462.405,537.211c-30.837-36.616-61.675-73.233-92.512-109.864
		c18.625-18.619,37.239-37.239,55.854-55.854c36.625,30.838,73.244,61.678,109.858,92.512c3.874,4.623,7.741,9.241,11.62,13.851
		c-23.693,23.669-47.387,47.349-71.07,71.025C471.574,544.994,466.987,541.102,462.405,537.211z"/>
	<path fill-rule="evenodd" clip-rule="evenodd" fill="#70A9DB" d="M476.155,548.881c23.684-23.677,47.377-47.356,71.07-71.025
		c19.168,10.137,21.094,21.505,4.095,36.412c-13.812,12.123-26.842,25.293-39.054,39.032
		C497.354,570.077,485.938,568.787,476.155,548.881z"/>
	<path fill-rule="evenodd" clip-rule="evenodd" fill="#FFFFFF" d="M346.869,391.56c14.381-14.364,28.763-28.726,43.144-43.096
		c6.563,6.349,13.136,12.699,19.704,19.043c-12.688,16.517-27.296,31.113-43.802,43.808
		C359.568,404.727,353.216,398.14,346.869,391.56z"/>
	<path fill-rule="evenodd" clip-rule="evenodd" fill="#70A9DB" d="M365.915,411.314c16.506-12.694,31.114-27.291,43.802-43.808
		c6.06-1.541,11.564-0.875,16.03,3.992c-18.614,18.608-37.229,37.229-55.854,55.848C365.019,422.89,364.338,417.382,365.915,411.314
		z"/>
	<path fill-rule="evenodd" clip-rule="evenodd" fill="#70A9DB" d="M32.946,218.585c0.21-101.174,82.469-183.596,183.668-184.036
		c102.052-0.437,185.749,82.383,186.202,184.255c0.438,101.205-83.73,185.55-185.245,185.616
		C115.979,404.486,32.736,320.7,32.946,218.585z M381.253,219.803c0.371-90.127-72.912-164.238-163.04-164.877
		C129.276,54.3,53.763,129.333,53.331,218.751c-0.432,89.629,73.715,163.9,163.809,164.103
		C308.02,383.05,380.877,310.66,381.253,219.803z"/>
	<path fill-rule="evenodd" clip-rule="evenodd" fill="#FFFFFF" d="M283.861,198.502c0-21.622,0.487-43.263-0.188-64.867
		c-0.376-12.254,1.472-19.619,16.534-18.982c12.677,0.537,21.104,1.082,20.745,17.718c-0.958,44.023-0.936,88.096-0.028,132.128
		c0.337,16.489-7.957,17.153-20.706,17.709c-15.084,0.653-16.91-6.612-16.534-18.841
		C284.337,241.767,283.861,220.126,283.861,198.502z"/>
	<path fill-rule="evenodd" clip-rule="evenodd" fill="#FFFFFF" d="M207.501,216.018c0,15.947-0.575,31.927,0.177,47.844
		c0.614,12.878-3.165,18.872-17.286,18.514c-12.406-0.313-19.356-2.719-19.046-17.156c0.681-31.889,0.609-63.808,0-95.696
		c-0.271-14.091,6.286-17.261,18.935-17.527c14.038-0.307,18.072,5.561,17.402,18.567
		C206.903,185.676,207.501,200.862,207.501,216.018z"/>
	<path fill-rule="evenodd" clip-rule="evenodd" fill="#FFFFFF" d="M219.188,309.963c-35.226,0-70.462,0.124-105.692-0.122
		c-5.744-0.036-14.779,2.484-14.409-7.428c0.365-9.586,9.313-6.809,15.05-6.82c68.863-0.188,137.725-0.213,206.587,0.041
		c5.572,0.02,14.763-3.27,15.316,6.233c0.692,12.08-9.977,7.799-15.964,7.88C286.451,310.209,252.819,309.968,219.188,309.963z"/>
	<path fill-rule="evenodd" clip-rule="evenodd" fill="#FFFFFF" d="M264.494,240.691c0,7.21-0.586,14.478,0.122,21.616
		c1.395,14.16-3.563,19.929-18.691,19.873c-14.852-0.053-19.954-5.29-19.046-19.693c0.907-14.359,0.93-28.867-0.011-43.226
		c-0.985-15.147,3.68-21.129,20.086-20.994c16.401,0.139,18.553,7.888,17.629,20.806
		C264.074,226.243,264.494,233.481,264.494,240.691z"/>
	<path fill-rule="evenodd" clip-rule="evenodd" fill="#FFFFFF" d="M151.459,242.971c0-12.464,1.372-23.041-17.53-23.442
		c-20.097-0.417-19.71,10.511-18.913,24.17c0.327,5.575-0.011,11.183,0.066,16.774c0.26,20.058,11.155,19.267,30.754,19.267
		C145.837,279.74,151.459,282.186,151.459,242.971z"/>
</g>
</svg>
