<?xml version="1.0" encoding="utf-8"?>
<!-- Generator: Adobe Illustrator 16.0.0, SVG Export Plug-In . SVG Version: 6.00 Build 0)  -->
<!DOCTYPE svg PUBLIC "-//W3C//DTD SVG 1.1//EN" "http://www.w3.org/Graphics/SVG/1.1/DTD/svg11.dtd">
<svg version="1.1" id="Layer_1" xmlns="http://www.w3.org/2000/svg" xmlns:xlink="http://www.w3.org/1999/xlink" x="0px" y="0px"
	 width="450px" height="450px" viewBox="0 0 450 450" enable-background="new 0 0 450 450" xml:space="preserve">
<g>
	<path fill-rule="evenodd" clip-rule="evenodd" fill="#0C6572" d="M-178.145,225.746c-1.994,4.127-5.342,5.322-9.786,5.221
		c-9.777-0.227-19.563-0.039-29.345-0.102c-1.532-0.01-2.196,0.303-2.085,1.986c0.146,2.205,0.095,4.428,0.01,6.639
		c-0.05,1.287,0.348,1.766,1.69,1.725c2.924-0.088,5.854,0.02,8.78-0.047c1.217-0.027,1.638,0.391,1.585,1.602
		c-0.048,1.088-0.006,1.904-1.541,1.877c-4.067-0.072-8.138,0.016-12.206,0.039c-1.572,0.004-3.145,0.008-4.716,0.012
		c-0.708-0.043-1.417-0.088-2.125-0.131c-0.007-0.715,0.027-1.432-0.029-2.143c-0.072-0.912,0.264-1.244,1.205-1.256
		c1.259-0.018,2.906,0.596,3.68-0.322c0.808-0.961,0.208-2.605,0.261-3.947c0.033-0.854-0.035-1.713-0.059-2.568
		c-0.002-0.717-0.006-1.434-0.009-2.15c0.003-2.145,0.007-4.287,0.009-6.43c0.21-4.399-0.521-5.172-4.875-5.148
		c-0.642,0.004-1.283,0.042-1.925,0.064c-2.143,0.002-4.285,0.006-6.429,0.009c-0.717-0.003-1.434-0.007-2.15-0.009
		c-2.143,0.002-4.286,0.006-6.429,0.009c-0.717-0.003-1.434-0.007-2.151-0.009c-2.143,0.002-4.285,0.006-6.429,0.009
		c-0.717-0.003-1.434-0.007-2.15-0.009c-8.645-0.021-17.289-0.064-25.933-0.044c-2.058,0.005-3.205,1.151-3.21,3.211
		c-0.021,8.643,0.023,17.288,0.044,25.932c0.002,0.574,0.004,1.148,0.006,1.723c-0.025,1.426-0.07,2.85-0.072,4.275
		c-0.008,5.824,0.488,6.277,6.431,5.941c0.717,0.002,1.434,0.006,2.15,0.008c2.143-0.002,4.285-0.006,6.429-0.008
		c0.717,0.002,1.434,0.006,2.15,0.008c2.143-0.002,4.286-0.006,6.429-0.008c0.717,0.002,1.434,0.006,2.151,0.008
		c2.143-0.002,4.285-0.006,6.429-0.008c0.717,0.002,1.434,0.006,2.15,0.008c2.143-0.002,4.285-0.006,6.429-0.008
		c0.717,0.002,1.434,0.006,2.15,0.008c2.144-0.002,4.286-0.006,6.429-0.008c0.717,0.002,1.434,0.006,2.151,0.008
		c2.278,0.02,4.558,0.086,6.835,0.045c2.343-0.041,3.392-1.08,3.435-3.41c0.053-2.85,0.083-5.701-0.017-8.549
		c-0.048-1.365,0.365-1.975,1.749-1.805c1.167-0.063,1.819,0.23,1.758,1.66c-0.121,2.779,0.007,5.568-0.046,8.352
		c-0.078,4.086-3.134,7.184-7.229,7.191c-18.061,0.031-36.122,0.008-54.184,0.008c-3.631,0-5.599-2.318-7.213-5.141
		c0-12.584,0-25.166,0-37.75c1.987-4.113,5.312-5.324,9.758-5.219c9.754,0.23,19.518,0.038,29.277,0.103
		c1.611,0.011,2.351-0.333,2.177-2.102c-0.153-1.553,0.046-3.137-0.056-4.697c-0.086-1.339,0.32-2.028,1.74-1.88
		c1.334-0.138,1.861,0.371,1.753,1.788c-0.135,1.775,0.038,3.574-0.063,5.354c-0.072,1.244,0.378,1.541,1.565,1.526
		c5.072-0.059,10.146,0.005,15.219-0.032c1.978-0.014,3.62,0.698,5.035,2.001c1.954,1.8,2.451,4.125,2.212,6.649
		c-0.12,1.279,0.242,1.695,1.616,1.686c10.788-0.059,21.578-0.02,32.367-0.035c2.639-0.002,3.77-1.039,3.775-3.542
		c0.025-11.36,0.022-22.721,0.002-34.082c-0.005-2.452-1.077-3.532-3.542-3.535c-18.22-0.021-36.44-0.023-54.66-0.008
		c-2.457,0.001-3.521,1.085-3.556,3.527c-0.038,2.644-0.01,5.288-0.01,7.932c0,3.793-0.001,3.881,3.798,3.935
		c1.464,0.021,1.386,0.757,1.36,1.734c-0.024,0.911,0.245,1.863-1.303,1.771c-1.849-0.11-3.711,0.012-5.567,0.033
		c-4.002-0.021-8.003-0.082-12.004-0.04c-1.247,0.013-1.773-0.276-1.772-1.657c0.002-1.391,0.401-1.876,1.82-1.829
		c2.855,0.095,5.719-0.035,8.575,0.055c1.348,0.042,1.715-0.444,1.686-1.729c-0.074-3.215-0.048-6.434-0.018-9.649
		c0.041-4.46,3.094-7.511,7.585-7.516c17.798-0.018,35.595,0.022,53.392-0.03c3.823-0.012,5.964,2.177,7.655,5.173
		C-178.145,200.581-178.145,213.164-178.145,225.746z"/>
	<path fill-rule="evenodd" clip-rule="evenodd" fill="#FAFBFB" d="M-245.064,205.221c1.856-0.021,3.719-0.144,5.567-0.033
		c1.548,0.093,1.278-0.859,1.303-1.771c0.025-0.978,0.104-1.713-1.36-1.734c-3.799-0.054-3.798-0.142-3.798-3.935
		c0-2.644-0.028-5.288,0.01-7.932c0.034-2.442,1.099-3.526,3.556-3.527c18.22-0.016,36.44-0.013,54.66,0.008
		c2.465,0.003,3.537,1.083,3.542,3.535c0.021,11.361,0.023,22.722-0.002,34.082c-0.006,2.503-1.137,3.541-3.775,3.542
		c-10.789,0.016-21.579-0.023-32.367,0.035c-1.374,0.01-1.736-0.406-1.616-1.686c0.239-2.524-0.258-4.849-2.212-6.649
		c-1.415-1.303-3.058-2.015-5.035-2.001c-5.072,0.037-10.146-0.026-15.219,0.032c-1.188,0.015-1.638-0.282-1.565-1.526
		c0.102-1.78-0.071-3.579,0.063-5.354c0.108-1.417-0.419-1.926-1.753-1.788C-245.066,207.42-245.065,206.321-245.064,205.221z
		 M-184.002,191.003c-0.644-0.771-1.17-1.529-1.825-2.15c-0.655-0.622-1.005,0.218-1.354,0.515
		c-6.424,5.461-12.817,10.957-19.227,16.435c-4.505,3.85-7.611,3.849-12.098,0.013c-6.3-5.386-12.6-10.77-18.888-16.17
		c-0.829-0.712-1.411-1.458-2.471-0.081c-0.89,1.156-0.942,1.699,0.226,2.67c4.78,3.971,9.416,8.118,14.221,12.06
		c1.411,1.158,1.238,1.79,0.031,2.857c-1.549,1.37-2.896,2.97-4.437,4.351c-1.039,0.932-0.586,1.488,0.178,2.207
		c0.701,0.66,1.212,1.375,2.206,0.271c1.482-1.643,3.17-3.101,4.652-4.743c0.98-1.087,1.602-1.317,2.899-0.226
		c4.758,4.002,10.049,4.033,14.771,0.058c1.384-1.165,2.01-0.808,3.056,0.259c4.752,4.848,9.581,9.62,14.366,14.435
		c0.833,0.838,1.397,1.642,2.683,0.319c1.182-1.214,0.721-1.778-0.201-2.688c-4.882-4.82-9.691-9.714-14.6-14.507
		c-1.034-1.01-0.983-1.497,0.108-2.407c4.826-4.029,9.574-8.152,14.348-12.244C-184.933,191.871-184.53,191.484-184.002,191.003z"/>
	<path fill-rule="evenodd" clip-rule="evenodd" fill="#BABEC2" d="M-231.118,170.837c7.355,0,14.71,0.036,22.064-0.032
		c1.379-0.012,1.794,0.333,1.796,1.751c0.002,1.436-0.455,1.748-1.813,1.744c-14.853-0.045-29.705-0.047-44.557,0.002
		c-1.387,0.005-1.784-0.346-1.792-1.755c-0.007-1.439,0.449-1.751,1.809-1.74C-246.113,170.871-238.616,170.838-231.118,170.837z"/>
	<path fill-rule="evenodd" clip-rule="evenodd" fill="#6EB96F" d="M-261.372,182.851c2.635-0.001,5.271,0.051,7.903-0.024
		c1.24-0.035,1.601,0.437,1.561,1.618c-0.038,1.102-0.034,1.883-1.549,1.86c-5.268-0.08-10.539-0.077-15.807,0.001
		c-1.493,0.022-1.537-0.729-1.564-1.851c-0.028-1.165,0.295-1.664,1.553-1.626C-266.643,182.908-264.006,182.853-261.372,182.851z"
		/>
	<path fill-rule="evenodd" clip-rule="evenodd" fill="#BABEC2" d="M-258.861,172.549c0.446,1.735-0.569,1.662-1.744,1.766
		c-1.584,0.139-1.578-0.653-1.668-1.854c-0.118-1.58,0.643-1.61,1.857-1.666C-258.921,170.726-258.449,171.249-258.861,172.549z"/>
	<path fill-rule="evenodd" clip-rule="evenodd" fill="#BABEC2" d="M-267.2,170.875c1.692-0.439,1.451,0.708,1.576,1.812
		c0.189,1.666-0.765,1.497-1.89,1.622c-1.683,0.186-1.504-0.77-1.614-1.891C-269.289,170.779-268.442,170.668-267.2,170.875z"/>
	<path fill-rule="evenodd" clip-rule="evenodd" fill="#6EB96F" d="M-275.949,186.254c-1.259,0.228-1.763-0.223-1.754-1.577
		c0.01-1.319,0.31-1.862,1.761-1.872c1.475-0.01,1.737,0.569,1.747,1.872C-274.186,186.025-274.685,186.487-275.949,186.254z"/>
	<path fill-rule="evenodd" clip-rule="evenodd" fill="#2B5081" d="M-262.289,203.416c0.368,1.724-0.663,1.694-1.836,1.767
		c-1.474,0.09-1.487-0.703-1.568-1.815c-0.114-1.583,0.723-1.65,1.928-1.672C-262.388,201.671-261.972,202.248-262.289,203.416z"/>
	<path fill-rule="evenodd" clip-rule="evenodd" fill="#6EB96F" d="M-282.808,186.254c-1.261,0.229-1.771-0.221-1.763-1.577
		c0.007-1.313,0.291-1.877,1.756-1.879c1.46-0.001,1.755,0.55,1.758,1.87C-281.054,186.012-281.535,186.491-282.808,186.254z"/>
	<path fill-rule="evenodd" clip-rule="evenodd" fill="#F27046" d="M-229.606,277.223c-7.427,0.002-14.854-0.029-22.279,0.031
		c-1.342,0.012-1.837-0.268-1.817-1.729c0.02-1.387,0.372-1.771,1.78-1.768c14.852,0.053,29.705,0.049,44.558,0.006
		c1.329-0.004,1.847,0.246,1.818,1.721c-0.026,1.385-0.372,1.783-1.781,1.77C-214.753,277.184-222.179,277.221-229.606,277.223z"/>
	<path fill-rule="evenodd" clip-rule="evenodd" fill="#A6D0EE" d="M-221.048,247.994c-1.384-0.17-1.797,0.439-1.749,1.805
		c0.1,2.848,0.069,5.699,0.017,8.549c-0.043,2.33-1.092,3.369-3.435,3.41c-2.277,0.041-4.557-0.025-6.835-0.045
		c0.834-1.736,2.078-3.055,3.883-3.801c0.17,0.123,0.383,0.213,0.503,0.375c0.835,1.117,1.493,1.004,2.52,0.043
		c1.175-1.1,0.692-1.684-0.177-2.529c-1.574-1.529-3.068-3.141-4.596-4.719c0.132-1.109,1.088-1.623,1.712-2.379
		c1.122-1.359,2.816-2.225,3.447-4.006c1.571-0.004,3.144-0.008,4.716-0.012C-221.044,245.789-221.046,246.891-221.048,247.994z"/>
	<path fill-rule="evenodd" clip-rule="evenodd" fill="#6EB96F" d="M-204.75,261.781c2.636,0,5.274,0.053,7.908-0.023
		c1.247-0.035,1.6,0.445,1.564,1.621c-0.033,1.105-0.037,1.887-1.551,1.865c-5.271-0.082-10.547-0.086-15.818-0.006
		c-1.503,0.023-1.538-0.721-1.561-1.844c-0.022-1.154,0.279-1.676,1.548-1.637C-210.025,261.836-207.386,261.781-204.75,261.781z"/>
	<path fill-rule="evenodd" clip-rule="evenodd" fill="#2B5081" d="M-203.934,244.59c-1.365,0.275-1.678-0.371-1.706-1.633
		c-0.032-1.402,0.442-1.818,1.821-1.811c1.312,0.006,1.685,0.436,1.692,1.717C-202.118,244.238-202.505,244.889-203.934,244.59z"/>
	<path fill-rule="evenodd" clip-rule="evenodd" fill="#F27046" d="M-193.307,273.816c1.783-0.463,1.309,0.879,1.461,1.885
		c0.268,1.77-0.888,1.416-1.933,1.557c-1.767,0.238-1.428-0.887-1.559-1.938C-195.551,273.58-194.493,273.715-193.307,273.816z"/>
	<path fill-rule="evenodd" clip-rule="evenodd" fill="#6EB96F" d="M-190.408,265.197c-1.467,0.281-1.411-0.693-1.497-1.779
		c-0.127-1.594,0.756-1.602,1.941-1.672c1.719-0.102,1.466,0.977,1.543,2.049C-188.304,265.395-189.336,265.246-190.408,265.197z"/>
	<path fill-rule="evenodd" clip-rule="evenodd" fill="#6EB96F" d="M-183.247,265.186c-1.219,0.203-1.829-0.141-1.794-1.543
		c0.031-1.262,0.214-1.918,1.723-1.906c1.422,0.012,1.794,0.484,1.782,1.838C-181.548,264.873-181.939,265.441-183.247,265.186z"/>
	<path fill-rule="evenodd" clip-rule="evenodd" fill="#F27046" d="M-200.29,277.154c-1.511,0.352-1.957-0.172-1.93-1.607
		c0.026-1.314,0.261-1.855,1.729-1.809c1.309,0.043,1.918,0.256,1.792,1.732C-198.798,276.65-198.649,277.787-200.29,277.154z"/>
	<path fill-rule="evenodd" clip-rule="evenodd" fill="#A6D0EE" d="M-284.463,249.766c-0.021-8.645-0.065-17.289-0.044-25.932
		c0.005-2.06,1.153-3.206,3.21-3.211c8.644-0.021,17.289,0.023,25.933,0.044c-0.098,0.265-0.122,0.603-0.303,0.785
		c-3.71,3.744-7.433,7.476-11.175,11.189c-0.229,0.229-0.641,0.273-0.968,0.402c-3.436-2.896-6.851-5.816-10.324-8.667
		c-0.816-0.67-1.446-2.227-2.973-0.432c-1.422,1.671-0.168,2.14,0.738,2.931c3.331,2.906,6.669,5.807,10.004,8.707
		c-0.054,0.205-0.043,0.471-0.171,0.607c-4.333,4.664-8.771,9.223-13.522,13.467C-284.151,249.74-284.327,249.732-284.463,249.766z"
		/>
	<path fill-rule="evenodd" clip-rule="evenodd" fill="#A6D0EE" d="M-278.098,261.705c-5.942,0.336-6.438-0.117-6.431-5.941
		c0.001-1.426,0.047-2.85,0.072-4.275c1.676-0.012,2.402-1.42,3.355-2.398c4.015-4.121,8.361-7.92,12.067-12.344
		c0.779,0.617,1.516,1.299,2.346,1.836c1.429,0.924,1.398,1.645,0.149,2.855c-4.864,4.713-9.604,9.553-14.406,14.33
		c-0.802,0.797-1.491,1.352-0.256,2.531c1.148,1.096,1.723,0.875,2.702-0.121c4.794-4.885,9.697-9.662,14.47-14.566
		c1.234-1.27,2.115-1.5,3.12,0.078c-0.556,0.643-1.075,1.322-1.674,1.924c-4.672,4.693-9.363,9.369-14.04,14.059
		C-277.216,260.268-277.961,260.771-278.098,261.705z"/>
	<path fill-rule="evenodd" clip-rule="evenodd" fill="#A6D0EE" d="M-236.054,220.675c2.144-0.003,4.286-0.007,6.429-0.009
		c-0.124,0.942-0.875,1.442-1.469,2.04c-3.876,3.893-7.77,7.77-11.646,11.665c-0.641,0.643-1.473,1.191-1.393,2.285
		c-1.016,0.941-2.032,1.885-3.048,2.828c-0.151,0.141-0.303,0.283-0.453,0.426l0.003-0.002c-0.146,0.135-0.294,0.271-0.44,0.408
		l-0.012,0.012c-0.143,0.129-0.285,0.256-0.427,0.385l-0.043,0.031c-0.118,0.105-0.236,0.213-0.354,0.318
		c-2.363,1.996-4.924,2.543-7.76,1.049c0.556-0.643,1.074-1.318,1.672-1.918c5.817-5.836,11.65-11.656,17.471-17.491
		C-236.933,222.109-236.191,221.607-236.054,220.675z"/>
	<path fill-rule="evenodd" clip-rule="evenodd" fill="#A6D0EE" d="M-244.633,220.675c2.143-0.003,4.286-0.007,6.429-0.009
		c-0.124,0.943-0.877,1.445-1.472,2.043c-5.199,5.214-10.417,10.41-15.607,15.63c-0.95,0.957-2.068,1.775-2.707,3.018
		c-1.292-0.721-2.343-1.732-3.365-2.777c0.102-0.953,0.852-1.459,1.447-2.057c4.593-4.607,9.2-9.201,13.792-13.809
		C-245.52,222.117-244.772,221.613-244.633,220.675z"/>
	<path fill-rule="evenodd" clip-rule="evenodd" fill="#9FC9EB" d="M-244.133,236.656c-0.08-1.094,0.752-1.643,1.393-2.285
		c3.877-3.895,7.771-7.771,11.646-11.665c0.594-0.598,1.345-1.098,1.469-2.04c0.642-0.022,1.283-0.061,1.925-0.064
		c4.354-0.024,5.085,0.749,4.875,5.148c-0.689,0.076-1.129,0.549-1.581,1.002c-4.663,4.662-9.326,9.326-13.989,13.988
		c-0.504,0.504-1.032,0.988-1.101,1.762c-0.323-0.273-0.627-0.574-0.972-0.818c-1.702-1.209-1.819-2.164-0.063-3.686
		c4.261-3.691,8.278-7.662,12.449-11.459c0.986-0.896,1.152-1.444,0.174-2.545c-1.049-1.181-1.604-0.802-2.52,0.053
		C-234.967,228.279-239.56,232.457-244.133,236.656z"/>
	<path fill-rule="evenodd" clip-rule="evenodd" fill="#A6D0EE" d="M-260.94,261.705c-2.143,0.002-4.286,0.006-6.429,0.008
		c0.124-0.943,0.876-1.443,1.471-2.041c3.729-3.746,7.476-7.477,11.205-11.223c0.596-0.598,1.343-1.102,1.479-2.039
		c2.773-0.455,5.36-1.361,7.371-3.41c0.947-0.963,1.518-0.703,2.072,0.311c-0.108,1.025-0.917,1.566-1.558,2.209
		c-4.709,4.725-9.433,9.436-14.143,14.16C-260.062,260.273-260.803,260.775-260.94,261.705z"/>
	<path fill-rule="evenodd" clip-rule="evenodd" fill="#A6D0EE" d="M-269.519,261.705c-2.144,0.002-4.286,0.006-6.429,0.008
		c0.069-0.609,0.451-1.031,0.86-1.439c4.753-4.75,9.505-9.5,14.252-14.254c0.516-0.518,1.068-0.949,1.81-1.074
		c1.221,0.461,2.442,0.924,3.664,1.387c-0.086,0.949-0.818,1.461-1.41,2.055c-3.756,3.77-7.524,7.523-11.278,11.293
		C-268.642,260.273-269.383,260.775-269.519,261.705z"/>
	<path fill-rule="evenodd" clip-rule="evenodd" fill="#A6D0EE" d="M-239.497,242.502c0.068-0.773,0.597-1.258,1.101-1.762
		c4.663-4.662,9.326-9.326,13.989-13.988c0.452-0.453,0.892-0.926,1.581-1.002c-0.002,2.143-0.006,4.285-0.009,6.43
		c-0.937,0.137-1.438,0.885-2.035,1.479c-3.34,3.322-6.663,6.66-10,9.986c-0.599,0.596-1.121,1.322-2.07,1.414
		C-237.917,244.332-238.77,243.479-239.497,242.502z"/>
	<path fill-rule="evenodd" clip-rule="evenodd" fill="#A6D0EE" d="M-252.36,261.705c-2.144,0.002-4.286,0.006-6.429,0.008
		c0.076-0.689,0.549-1.127,1.001-1.58c4.664-4.664,9.327-9.326,13.989-13.99c0.503-0.502,0.988-1.031,1.761-1.1
		c0.979,0.727,1.83,1.58,2.558,2.557c-0.092,0.949-0.819,1.471-1.416,2.07c-3.324,3.338-6.663,6.66-9.984,10
		C-251.474,260.268-252.222,260.77-252.36,261.705z"/>
	<path fill-rule="evenodd" clip-rule="evenodd" fill="#A6D0EE" d="M-253.213,220.675c2.144-0.003,4.286-0.007,6.429-0.009
		c-0.065,0.522-0.348,0.923-0.709,1.285c-4.694,4.693-9.389,9.386-14.079,14.083c-0.465,0.465-0.973,0.838-1.646,0.922
		c-1.111-0.67-2.055-1.535-2.922-2.49c3.479-4.152,7.584-7.693,11.304-11.61C-254.211,222.198-253.375,221.684-253.213,220.675z"/>
	<path fill-rule="evenodd" clip-rule="evenodd" fill="#A6D0EE" d="M-243.781,261.705c-2.144,0.002-4.286,0.006-6.429,0.008
		c0.098-0.266,0.122-0.602,0.304-0.785c3.714-3.748,7.44-7.482,11.188-11.197c0.229-0.229,0.644-0.27,0.971-0.398
		c0.978,0.727,1.83,1.58,2.558,2.557c-0.155,1.182-1.171,1.727-1.856,2.516C-239.221,256.902-242.076,258.773-243.781,261.705z"/>
	<path fill-rule="evenodd" clip-rule="evenodd" fill="#A6D0EE" d="M-222.826,234.33c0.023,0.855,0.092,1.715,0.059,2.568
		c-0.053,1.342,0.547,2.986-0.261,3.947c-0.773,0.918-2.421,0.305-3.68,0.322c-0.941,0.012-1.277,0.344-1.205,1.256
		c0.057,0.711,0.022,1.428,0.029,2.143c-1.049,2.133-2.65,3.715-4.767,4.781c-0.978-0.727-1.83-1.578-2.558-2.557
		c0.07-0.777,0.604-1.264,1.109-1.77c3.229-3.227,6.456-6.455,9.684-9.682C-223.96,234.885-223.52,234.406-222.826,234.33z"/>
	<path fill-rule="evenodd" clip-rule="evenodd" fill="#9FC9EB" d="M-257.991,241.357c0.639-1.242,1.757-2.061,2.707-3.018
		c5.19-5.221,10.408-10.416,15.607-15.63c0.595-0.598,1.348-1.1,1.472-2.043c0.717,0.002,1.434,0.006,2.15,0.009
		c-0.137,0.932-0.879,1.434-1.471,2.027c-5.82,5.834-11.653,11.655-17.471,17.491c-0.598,0.6-1.116,1.275-1.672,1.918
		C-257.225,242.066-257.647,241.779-257.991,241.357z"/>
	<path fill-rule="evenodd" clip-rule="evenodd" fill="#A6D0EE" d="M-235.202,261.705c-2.143,0.002-4.285,0.006-6.429,0.008
		c2.256-3.17,4.913-5.934,8.173-8.09c0.978,0.727,1.83,1.578,2.557,2.557c-0.104,1.01-0.946,1.502-1.52,2.189
		C-233.349,259.48-234.765,260.186-235.202,261.705z"/>
	<path fill-rule="evenodd" clip-rule="evenodd" fill="#9FC9EB" d="M-242.038,245.043c-0.772,0.068-1.258,0.598-1.761,1.1
		c-4.662,4.664-9.325,9.326-13.989,13.99c-0.452,0.453-0.925,0.891-1.001,1.58c-0.718-0.002-1.435-0.006-2.151-0.008
		c0.137-0.93,0.878-1.432,1.47-2.025c4.71-4.725,9.434-9.436,14.143-14.16c0.641-0.643,1.449-1.184,1.558-2.209
		C-243.192,243.889-242.615,244.465-242.038,245.043z"/>
	<path fill-rule="evenodd" clip-rule="evenodd" fill="#9FC9EB" d="M-259.026,244.945c-0.741,0.125-1.294,0.557-1.81,1.074
		c-4.747,4.754-9.499,9.504-14.252,14.254c-0.409,0.408-0.791,0.83-0.86,1.439c-0.717-0.002-1.434-0.006-2.15-0.008
		c0.137-0.934,0.882-1.438,1.475-2.033c4.677-4.689,9.368-9.365,14.04-14.059c0.599-0.602,1.118-1.281,1.674-1.924
		C-260.282,244.107-259.654,244.525-259.026,244.945z"/>
	<path fill-rule="evenodd" clip-rule="evenodd" fill="#9FC9EB" d="M-263.219,236.957c0.674-0.084,1.182-0.457,1.646-0.922
		c4.69-4.697,9.385-9.391,14.079-14.083c0.361-0.362,0.644-0.763,0.709-1.285c0.718,0.002,1.435,0.006,2.151,0.009
		c-0.139,0.938-0.887,1.441-1.483,2.039c-4.592,4.608-9.199,9.202-13.792,13.809c-0.596,0.598-1.346,1.104-1.447,2.057
		C-261.977,238.039-262.598,237.498-263.219,236.957z"/>
	<path fill-rule="evenodd" clip-rule="evenodd" fill="#9FC9EB" d="M-269.519,261.705c0.136-0.93,0.877-1.432,1.469-2.025
		c3.754-3.77,7.522-7.523,11.278-11.293c0.592-0.594,1.324-1.105,1.41-2.055c0.716,0.027,1.433,0.053,2.148,0.078
		c-0.137,0.938-0.884,1.441-1.479,2.039c-3.729,3.746-7.476,7.477-11.205,11.223c-0.595,0.598-1.347,1.098-1.471,2.041
		C-268.085,261.711-268.802,261.707-269.519,261.705z"/>
	<path fill-rule="evenodd" clip-rule="evenodd" fill="#9FC9EB" d="M-269.035,236.746c-3.706,4.424-8.052,8.223-12.067,12.344
		c-0.953,0.979-1.68,2.387-3.355,2.398c-0.002-0.574-0.004-1.148-0.006-1.723c0.137-0.033,0.313-0.025,0.405-0.109
		c4.751-4.244,9.189-8.803,13.522-13.467c0.128-0.137,0.117-0.402,0.171-0.607C-269.921,235.971-269.478,236.357-269.035,236.746z"
		/>
	<path fill-rule="evenodd" clip-rule="evenodd" fill="#9FC9EB" d="M-222.826,234.33c-0.694,0.076-1.135,0.555-1.589,1.01
		c-3.228,3.227-6.455,6.455-9.684,9.682c-0.505,0.506-1.039,0.992-1.109,1.77c-0.577-0.576-1.155-1.154-1.732-1.732
		c0.949-0.092,1.472-0.818,2.07-1.414c3.337-3.326,6.66-6.664,10-9.986c0.597-0.594,1.099-1.342,2.035-1.479
		C-222.832,232.896-222.828,233.613-222.826,234.33z"/>
	<path fill-rule="evenodd" clip-rule="evenodd" fill="#9FC9EB" d="M-237.748,249.332c-0.327,0.129-0.741,0.17-0.971,0.398
		c-3.747,3.715-7.474,7.449-11.188,11.197c-0.182,0.184-0.206,0.52-0.304,0.785c-0.717-0.002-1.434-0.006-2.15-0.008
		c0.138-0.936,0.886-1.438,1.479-2.035c3.321-3.34,6.66-6.662,9.984-10c0.597-0.6,1.324-1.121,1.416-2.07
		C-238.903,248.178-238.325,248.756-237.748,249.332z"/>
	<path fill-rule="evenodd" clip-rule="evenodd" fill="#9FC9EB" d="M-253.213,220.675c-0.161,1.009-0.998,1.522-1.624,2.182
		c-3.72,3.917-7.825,7.458-11.304,11.61c-0.556-0.475-1.112-0.949-1.668-1.424c0.327-0.129,0.738-0.174,0.968-0.402
		c3.742-3.713,7.465-7.445,11.175-11.189c0.181-0.183,0.205-0.521,0.303-0.785C-254.647,220.668-253.93,220.672-253.213,220.675z"/>
	<path fill-rule="evenodd" clip-rule="evenodd" fill="#9FC9EB" d="M-233.458,253.623c-3.26,2.156-5.917,4.92-8.173,8.09
		c-0.717-0.002-1.434-0.006-2.15-0.008c1.705-2.932,4.56-4.803,6.734-7.301c0.686-0.789,1.701-1.334,1.856-2.516
		C-234.613,252.467-234.035,253.045-233.458,253.623z"/>
	<path fill-rule="evenodd" clip-rule="evenodd" fill="#9FC9EB" d="M-232.65,249.348c2.116-1.066,3.718-2.648,4.767-4.781
		c0.708,0.043,1.417,0.088,2.125,0.131c-0.631,1.781-2.325,2.646-3.447,4.006c-0.624,0.756-1.58,1.27-1.712,2.379
		C-231.495,250.504-232.073,249.926-232.65,249.348z"/>
	<path fill-rule="evenodd" clip-rule="evenodd" fill="#9FC9EB" d="M-235.202,261.705c0.437-1.52,1.853-2.225,2.781-3.336
		c0.573-0.688,1.415-1.18,1.52-2.189c0.577,0.576,1.155,1.154,1.733,1.732c-1.805,0.746-3.049,2.064-3.883,3.801
		C-233.768,261.711-234.485,261.707-235.202,261.705z"/>
	<path fill-rule="evenodd" clip-rule="evenodd" fill="#0C6572" d="M-184.002,191.003c-0.527,0.48-0.931,0.867-1.354,1.231
		c-4.773,4.092-9.521,8.215-14.348,12.244c-1.092,0.91-1.143,1.397-0.108,2.407c4.908,4.793,9.718,9.687,14.6,14.507
		c0.922,0.91,1.383,1.475,0.201,2.688c-1.285,1.322-1.85,0.519-2.683-0.319c-4.785-4.814-9.614-9.587-14.366-14.435
		c-1.046-1.066-1.672-1.424-3.056-0.259c-4.723,3.976-10.014,3.944-14.771-0.058c-1.298-1.092-1.919-0.861-2.899,0.226
		c-1.482,1.643-3.17,3.101-4.652,4.743c-0.994,1.104-1.505,0.389-2.206-0.271c-0.764-0.719-1.217-1.275-0.178-2.207
		c1.541-1.381,2.888-2.98,4.437-4.351c1.207-1.067,1.38-1.699-0.031-2.857c-4.805-3.941-9.44-8.089-14.221-12.06
		c-1.168-0.971-1.115-1.514-0.226-2.67c1.06-1.377,1.642-0.631,2.471,0.081c6.288,5.4,12.588,10.784,18.888,16.17
		c4.486,3.836,7.593,3.837,12.098-0.013c6.409-5.478,12.803-10.974,19.227-16.435c0.35-0.297,0.699-1.137,1.354-0.515
		C-185.172,189.474-184.646,190.233-184.002,191.003z"/>
	<path fill-rule="evenodd" clip-rule="evenodd" fill="#0C6572" d="M-229.167,257.912c-0.578-0.578-1.156-1.156-1.733-1.732
		c-0.727-0.979-1.579-1.83-2.557-2.557c-0.577-0.578-1.155-1.156-1.732-1.734c-0.728-0.977-1.58-1.83-2.558-2.557
		c-0.577-0.576-1.155-1.154-1.732-1.732c-0.728-0.977-1.579-1.83-2.558-2.557c-0.577-0.578-1.154-1.154-1.732-1.732
		c-0.555-1.014-1.125-1.273-2.072-0.311c-2.011,2.049-4.598,2.955-7.371,3.41c-0.716-0.025-1.433-0.051-2.148-0.078
		c-1.222-0.463-2.443-0.926-3.664-1.387c-0.628-0.42-1.256-0.838-1.884-1.256c-1.005-1.578-1.886-1.348-3.12-0.078
		c-4.772,4.904-9.676,9.682-14.47,14.566c-0.979,0.996-1.554,1.217-2.702,0.121c-1.234-1.18-0.546-1.734,0.256-2.531
		c4.801-4.777,9.542-9.617,14.406-14.33c1.249-1.211,1.279-1.932-0.149-2.855c-0.83-0.537-1.566-1.219-2.346-1.836
		c-0.443-0.389-0.887-0.775-1.33-1.164c-3.335-2.9-6.673-5.801-10.004-8.707c-0.906-0.791-2.16-1.26-0.738-2.931
		c1.527-1.795,2.157-0.238,2.973,0.432c3.474,2.851,6.889,5.771,10.324,8.667c0.556,0.475,1.112,0.949,1.668,1.424
		c0.867,0.955,1.811,1.82,2.922,2.49c0.621,0.541,1.242,1.082,1.863,1.623c1.022,1.045,2.073,2.057,3.365,2.777
		c0.344,0.422,0.766,0.709,1.323,0.754c2.836,1.494,5.396,0.947,7.76-1.049c0.118-0.105,0.236-0.213,0.354-0.318l0.043-0.031
		c0.142-0.129,0.284-0.256,0.427-0.385l0.012-0.012c0.146-0.137,0.294-0.273,0.44-0.408l-0.003,0.002
		c0.15-0.143,0.302-0.285,0.453-0.426c1.016-0.943,2.032-1.887,3.048-2.828c4.573-4.199,9.166-8.377,13.705-12.61
		c0.916-0.854,1.471-1.233,2.52-0.053c0.979,1.102,0.813,1.649-0.174,2.545c-4.171,3.797-8.188,7.768-12.449,11.459
		c-1.756,1.521-1.639,2.477,0.063,3.686c0.345,0.244,0.648,0.545,0.972,0.818c0.727,0.977,1.579,1.83,2.557,2.557
		c0.577,0.578,1.155,1.156,1.732,1.732c0.728,0.979,1.58,1.83,2.558,2.557c0.577,0.578,1.155,1.156,1.732,1.734
		c1.527,1.578,3.021,3.189,4.596,4.719c0.869,0.846,1.352,1.43,0.177,2.529c-1.026,0.961-1.685,1.074-2.52-0.043
		C-228.785,258.125-228.998,258.035-229.167,257.912z"/>
	<path fill-rule="evenodd" clip-rule="evenodd" fill="#9FC9EB" d="M-247.631,239.908c-0.146,0.135-0.294,0.271-0.44,0.408
		C-247.925,240.18-247.778,240.043-247.631,239.908z"/>
	<path fill-rule="evenodd" clip-rule="evenodd" fill="#9FC9EB" d="M-248.083,240.328c-0.143,0.129-0.285,0.256-0.427,0.385
		C-248.369,240.584-248.226,240.457-248.083,240.328z"/>
	<path fill-rule="evenodd" clip-rule="evenodd" fill="#9FC9EB" d="M-248.553,240.744c-0.118,0.105-0.236,0.213-0.354,0.318
		C-248.79,240.957-248.671,240.85-248.553,240.744z"/>
	<path fill-rule="evenodd" clip-rule="evenodd" fill="#9FC9EB" d="M-247.181,239.484c-0.151,0.141-0.303,0.283-0.453,0.426
		C-247.484,239.768-247.333,239.625-247.181,239.484z"/>
</g>
<g>
	<path fill-rule="evenodd" clip-rule="evenodd" fill="#0C6572" d="M450,232.314c-8.125,16.807-21.761,21.68-39.863,21.262
		c-39.826-0.919-79.684-0.159-119.529-0.414c-6.241-0.039-8.946,1.233-8.493,8.095c0.593,8.979,0.386,18.032,0.04,27.038
		c-0.203,5.242,1.416,7.191,6.886,7.028c11.909-0.362,23.847,0.079,35.765-0.19c4.956-0.116,6.671,1.586,6.456,6.52
		c-0.195,4.431-0.024,7.756-6.277,7.645c-16.567-0.29-33.147,0.064-49.719,0.159c-6.404,0.017-12.809,0.032-19.209,0.052
		c-2.884-0.179-5.771-0.357-8.655-0.533c-0.028-2.911,0.111-5.835-0.12-8.727c-0.294-3.716,1.074-5.068,4.909-5.12
		c5.127-0.071,11.838,2.427,14.988-1.313c3.29-3.91,0.847-10.608,1.062-16.078c0.136-3.477-0.143-6.974-0.238-10.462
		c-0.008-2.92-0.023-5.84-0.036-8.759c0.013-8.731,0.028-17.459,0.036-26.187c0.855-17.92-2.124-21.07-19.857-20.971
		c-2.613,0.016-5.227,0.171-7.84,0.263c-8.728,0.008-17.455,0.023-26.186,0.036c-2.92-0.012-5.839-0.028-8.759-0.036
		c-8.728,0.008-17.458,0.023-26.186,0.036c-2.919-0.012-5.839-0.028-8.763-0.036c-8.727,0.008-17.455,0.023-26.186,0.036
		c-2.919-0.012-5.839-0.028-8.759-0.036c-35.212-0.084-70.423-0.263-105.633-0.179c-8.381,0.02-13.055,4.69-13.077,13.079
		c-0.085,35.208,0.095,70.419,0.179,105.631c0.008,2.339,0.016,4.678,0.026,7.017c-0.102,5.804-0.286,11.607-0.292,17.411
		c-0.032,23.724,1.989,25.573,26.194,24.2c2.92,0.013,5.84,0.028,8.759,0.036c8.728-0.008,17.455-0.023,26.186-0.036
		c2.92,0.013,5.839,0.028,8.759,0.036c8.727-0.008,17.458-0.023,26.186-0.036c2.919,0.013,5.839,0.028,8.763,0.036
		c8.727-0.008,17.455-0.023,26.186-0.036c2.919,0.013,5.839,0.028,8.759,0.036c8.728-0.008,17.455-0.023,26.186-0.036
		c2.92,0.013,5.839,0.028,8.759,0.036c8.731-0.008,17.458-0.023,26.186-0.036c2.919,0.013,5.839,0.028,8.763,0.036
		c9.28,0.08,18.564,0.347,27.841,0.179c9.543-0.167,13.814-4.399,13.989-13.891c0.215-11.603,0.339-23.222-0.067-34.817
		c-0.194-5.565,1.488-8.047,7.124-7.351c4.754-0.259,7.411,0.935,7.16,6.762c-0.493,11.321,0.028,22.682-0.187,34.019
		c-0.318,16.644-12.765,29.261-29.448,29.293c-73.565,0.127-147.135,0.031-220.705,0.031c-14.792,0-22.805-9.443-29.38-20.939
		c0-51.258,0-102.508,0-153.766c8.093-16.754,21.637-21.687,39.747-21.257c39.73,0.938,79.5,0.155,119.255,0.417
		c6.563,0.044,9.575-1.356,8.866-8.56c-0.625-6.325,0.187-12.777-0.227-19.133c-0.35-5.454,1.305-8.262,7.088-7.658
		c5.434-0.561,7.582,1.512,7.14,7.284c-0.549,7.232,0.155,14.559-0.258,21.81c-0.294,5.068,1.539,6.277,6.376,6.218
		c20.661-0.239,41.33,0.02,61.99-0.131c8.056-0.056,14.746,2.844,20.51,8.151c7.96,7.331,9.984,16.802,9.01,27.08
		c-0.489,5.211,0.986,6.906,6.584,6.87c43.942-0.242,87.894-0.083,131.841-0.144c10.748-0.012,15.354-4.232,15.378-14.431
		c0.104-46.274,0.091-92.548,0.008-138.826c-0.02-9.988-4.388-14.388-14.428-14.399c-74.214-0.084-148.432-0.096-222.646-0.032
		c-10.008,0.004-14.344,4.419-14.483,14.368c-0.155,10.768-0.04,21.54-0.04,32.308c0,15.45-0.004,15.808,15.47,16.026
		c5.962,0.088,5.644,3.083,5.541,7.065c-0.1,3.711,0.998,7.589-5.307,7.211c-7.53-0.449-15.116,0.048-22.678,0.136
		c-16.301-0.088-32.598-0.334-48.895-0.163c-5.08,0.052-7.224-1.126-7.22-6.75c0.008-5.665,1.635-7.641,7.415-7.451
		c11.631,0.386,23.294-0.143,34.929,0.223c5.489,0.171,6.985-1.81,6.866-7.044c-0.302-13.095-0.195-26.206-0.072-39.305
		c0.167-18.166,12.602-30.593,30.896-30.613c72.496-0.071,144.987,0.092,217.479-0.123c15.573-0.048,24.292,8.867,31.184,21.07
		C450,129.806,450,181.061,450,232.314z"/>
	<path fill-rule="evenodd" clip-rule="evenodd" fill="#FAFBFB" d="M177.418,148.709c7.562-0.088,15.148-0.585,22.678-0.136
		c6.305,0.378,5.207-3.5,5.307-7.211c0.103-3.982,0.421-6.977-5.541-7.065c-15.474-0.219-15.47-0.576-15.47-16.026
		c0-10.768-0.116-21.54,0.04-32.308c0.139-9.949,4.475-14.364,14.483-14.368c74.214-0.063,148.432-0.052,222.646,0.032
		c10.04,0.012,14.408,4.411,14.428,14.399c0.083,46.278,0.096,92.552-0.008,138.826c-0.024,10.199-4.63,14.419-15.378,14.431
		c-43.947,0.061-87.898-0.099-131.841,0.144c-5.598,0.036-7.073-1.659-6.584-6.87c0.975-10.278-1.05-19.749-9.01-27.08
		c-5.764-5.307-12.454-8.207-20.51-8.151c-20.66,0.151-41.329-0.107-61.99,0.131c-4.837,0.06-6.671-1.149-6.376-6.218
		c0.414-7.251-0.291-14.578,0.258-21.81c0.442-5.772-1.707-7.844-7.14-7.284C177.41,157.667,177.414,153.188,177.418,148.709z
		 M426.14,90.796c-2.622-3.139-4.766-6.229-7.436-8.759c-2.669-2.534-4.093,0.887-5.517,2.096
		c-26.166,22.244-52.209,44.631-78.315,66.943c-18.35,15.68-31.003,15.676-49.277,0.051c-25.661-21.938-51.321-43.867-76.935-65.864
		c-3.377-2.9-5.748-5.939-10.064-0.33c-3.624,4.709-3.839,6.921,0.919,10.875c19.471,16.174,38.354,33.068,57.925,49.122
		c5.747,4.718,5.043,7.292,0.127,11.639c-6.309,5.581-11.794,12.097-18.071,17.721c-4.232,3.795-2.387,6.063,0.724,8.99
		c2.856,2.688,4.937,5.601,8.986,1.105c6.038-6.69,12.912-12.629,18.95-19.32c3.993-4.427,6.523-5.366,11.81-0.919
		c19.381,16.301,40.933,16.429,60.169,0.235c5.637-4.746,8.187-3.29,12.446,1.054c19.356,19.746,39.026,39.186,58.518,58.796
		c3.394,3.413,5.692,6.687,10.928,1.301c4.813-4.944,2.936-7.243-0.819-10.951c-19.886-19.634-39.477-39.567-59.469-59.09
		c-4.213-4.113-4.006-6.098,0.441-9.806c19.658-16.412,38.999-33.207,58.442-49.874C422.349,94.328,423.991,92.753,426.14,90.796z"
		/>
	<path fill-rule="evenodd" clip-rule="evenodd" fill="#BABEC2" d="M234.226,8.654c29.961,0,59.918,0.145,89.875-0.129
		c5.616-0.05,7.307,1.356,7.314,7.132c0.008,5.847-1.854,7.121-7.383,7.103c-60.498-0.185-120.997-0.193-181.492,0.008
		c-5.648,0.02-7.267-1.408-7.299-7.148c-0.028-5.863,1.83-7.132,7.367-7.087C173.146,8.789,203.684,8.656,234.226,8.654z"/>
	<path fill-rule="evenodd" clip-rule="evenodd" fill="#6EB96F" d="M110.993,57.589c10.732-0.004,21.468,0.207,32.192-0.1
		c5.052-0.143,6.52,1.778,6.356,6.592c-0.155,4.486-0.139,7.669-6.309,7.577c-21.457-0.326-42.929-0.314-64.385,0.004
		c-6.082,0.092-6.261-2.971-6.372-7.538c-0.115-4.746,1.201-6.778,6.325-6.623C89.521,57.819,100.261,57.597,110.993,57.589z"/>
	<path fill-rule="evenodd" clip-rule="evenodd" fill="#BABEC2" d="M121.22,15.627c1.818,7.066-2.319,6.771-7.104,7.192
		c-6.452,0.567-6.428-2.659-6.794-7.554c-0.481-6.436,2.617-6.557,7.565-6.784C120.973,8.2,122.898,10.329,121.22,15.627z"/>
	<path fill-rule="evenodd" clip-rule="evenodd" fill="#BABEC2" d="M87.253,8.805c6.894-1.79,5.911,2.886,6.42,7.379
		c0.771,6.786-3.115,6.098-7.697,6.605c-6.854,0.756-6.125-3.135-6.575-7.701C78.745,8.417,82.193,7.964,87.253,8.805z"/>
	<path fill-rule="evenodd" clip-rule="evenodd" fill="#6EB96F" d="M51.616,71.452c-5.127,0.927-7.18-0.907-7.144-6.424
		c0.04-5.374,1.261-7.586,7.172-7.625c6.007-0.04,7.077,2.319,7.116,7.625C58.796,70.517,56.763,72.398,51.616,71.452z"/>
	<path fill-rule="evenodd" clip-rule="evenodd" fill="#2B5081" d="M107.257,141.354c1.5,7.021-2.701,6.902-7.478,7.196
		c-6.002,0.366-6.058-2.864-6.389-7.395c-0.465-6.448,2.944-6.722,7.853-6.81C106.852,134.25,108.546,136.597,107.257,141.354z"/>
	<path fill-rule="evenodd" clip-rule="evenodd" fill="#6EB96F" d="M23.676,71.452c-5.136,0.935-7.216-0.899-7.182-6.424
		c0.03-5.346,1.186-7.646,7.152-7.653c5.949-0.004,7.15,2.239,7.16,7.618C30.82,70.465,28.861,72.414,23.676,71.452z"/>
	<path fill-rule="evenodd" clip-rule="evenodd" fill="#F27046" d="M240.383,441.991c-30.251,0.008-60.502-0.119-90.75,0.127
		c-5.466,0.048-7.482-1.09-7.403-7.04c0.08-5.648,1.516-7.216,7.251-7.2c60.495,0.215,120.998,0.199,181.496,0.023
		c5.414-0.016,7.522,1.003,7.407,7.009c-0.107,5.641-1.516,7.264-7.256,7.208C300.882,441.832,270.635,441.983,240.383,441.991z"/>
	<path fill-rule="evenodd" clip-rule="evenodd" fill="#A6D0EE" d="M275.24,322.938c-5.636-0.696-7.318,1.785-7.124,7.351
		c0.406,11.596,0.282,23.215,0.067,34.817c-0.175,9.491-4.446,13.724-13.989,13.891c-9.276,0.168-18.561-0.099-27.841-0.179
		c3.396-7.072,8.465-12.446,15.815-15.485c0.692,0.501,1.56,0.871,2.049,1.527c3.401,4.555,6.082,4.093,10.263,0.179
		c4.785-4.482,2.82-6.857-0.72-10.302c-6.412-6.233-12.499-12.797-18.72-19.226c0.537-4.519,4.431-6.61,6.973-9.689
		c4.571-5.533,11.473-9.062,14.042-16.313c6.4-0.02,12.805-0.035,19.209-0.052C275.257,313.951,275.249,318.442,275.24,322.938z"/>
	<path fill-rule="evenodd" clip-rule="evenodd" fill="#6EB96F" d="M341.631,379.092c10.735,0,21.483,0.215,32.212-0.096
		c5.08-0.143,6.516,1.814,6.372,6.607c-0.135,4.503-0.15,7.686-6.316,7.594c-21.473-0.33-42.96-0.35-64.433-0.023
		c-6.122,0.095-6.265-2.936-6.356-7.507c-0.092-4.701,1.138-6.825,6.305-6.671C320.143,379.318,330.891,379.092,341.631,379.092z"/>
	<path fill-rule="evenodd" clip-rule="evenodd" fill="#2B5081" d="M344.952,309.07c-5.562,1.122-6.834-1.516-6.949-6.654
		c-0.132-5.709,1.802-7.407,7.418-7.375c5.343,0.027,6.862,1.773,6.894,6.992C352.351,307.639,350.771,310.287,344.952,309.07z"/>
	<path fill-rule="evenodd" clip-rule="evenodd" fill="#F27046" d="M388.238,428.116c7.264-1.885,5.33,3.58,5.951,7.678
		c1.09,7.208-3.616,5.768-7.872,6.341c-7.196,0.971-5.815-3.612-6.349-7.893C379.098,427.154,383.409,427.703,388.238,428.116z"/>
	<path fill-rule="evenodd" clip-rule="evenodd" fill="#6EB96F" d="M400.049,393.011c-5.975,1.142-5.748-2.829-6.099-7.248
		c-0.517-6.496,3.079-6.527,7.908-6.813c7.001-0.41,5.971,3.981,6.285,8.349C408.617,393.813,404.412,393.209,400.049,393.011z"/>
	<path fill-rule="evenodd" clip-rule="evenodd" fill="#6EB96F" d="M429.218,392.959c-4.964,0.827-7.45-0.569-7.307-6.281
		c0.127-5.14,0.871-7.813,7.017-7.765c5.792,0.044,7.308,1.969,7.26,7.482C436.136,391.686,434.544,394.001,429.218,392.959z"/>
	<path fill-rule="evenodd" clip-rule="evenodd" fill="#F27046" d="M359.797,441.713c-6.153,1.432-7.972-0.7-7.86-6.548
		c0.107-5.354,1.063-7.558,7.041-7.366c5.33,0.175,7.813,1.042,7.3,7.057C365.871,439.66,366.479,444.29,359.797,441.713z"/>
	<path fill-rule="evenodd" clip-rule="evenodd" fill="#A6D0EE" d="M16.933,330.153c-0.083-35.212-0.264-70.424-0.179-105.631
		c0.021-8.389,4.696-13.059,13.077-13.079c35.21-0.083,70.421,0.095,105.633,0.179c-0.398,1.078-0.498,2.454-1.233,3.198
		c-15.112,15.251-30.275,30.454-45.518,45.578c-0.935,0.926-2.609,1.109-3.942,1.635c-13.994-11.795-27.904-23.692-42.054-35.304
		c-3.325-2.729-5.891-9.069-12.11-1.758c-5.792,6.81-0.686,8.72,3.005,11.941c13.568,11.838,27.165,23.647,40.749,35.466
		c-0.219,0.836-0.175,1.914-0.696,2.471c-17.65,18.998-35.729,37.566-55.081,54.854C18.206,330.046,17.49,330.014,16.933,330.153z"
		/>
	<path fill-rule="evenodd" clip-rule="evenodd" fill="#A6D0EE" d="M42.86,378.781c-24.205,1.373-26.226-0.477-26.194-24.2
		c0.006-5.804,0.191-11.607,0.292-17.411c6.826-0.052,9.786-5.788,13.668-9.773c16.354-16.787,34.056-32.26,49.152-50.275
		c3.174,2.51,6.173,5.286,9.555,7.474c5.819,3.768,5.696,6.703,0.608,11.632c-19.813,19.196-39.122,38.91-58.679,58.37
		c-3.268,3.25-6.072,5.505-1.044,10.311c4.678,4.463,7.017,3.568,11.006-0.493c19.527-19.894,39.5-39.356,58.939-59.333
		c5.028-5.167,8.616-6.106,12.709,0.317c-2.263,2.622-4.379,5.391-6.818,7.837c-19.03,19.121-38.139,38.163-57.189,57.269
		C46.453,372.931,43.417,374.979,42.86,378.781z"/>
	<path fill-rule="evenodd" clip-rule="evenodd" fill="#A6D0EE" d="M214.118,211.658c8.731-0.012,17.458-0.028,26.186-0.036
		c-0.506,3.838-3.564,5.875-5.982,8.31c-15.788,15.859-31.648,31.651-47.44,47.511c-2.609,2.622-5.999,4.857-5.672,9.309
		c-4.137,3.839-8.278,7.677-12.415,11.52c-0.617,0.577-1.233,1.157-1.846,1.738l0.012-0.012c-0.597,0.553-1.197,1.109-1.794,1.667
		l-0.048,0.043c-0.581,0.525-1.162,1.047-1.738,1.571l-0.175,0.128c-0.481,0.43-0.963,0.863-1.444,1.293
		c-9.626,8.134-20.056,10.361-31.608,4.271c2.263-2.613,4.375-5.37,6.81-7.813c23.696-23.771,47.455-47.479,71.163-71.242
		C210.538,217.497,213.561,215.453,214.118,211.658z"/>
	<path fill-rule="evenodd" clip-rule="evenodd" fill="#A6D0EE" d="M179.172,211.658c8.728-0.012,17.458-0.028,26.186-0.036
		c-0.505,3.843-3.572,5.887-5.995,8.321c-21.178,21.238-42.431,42.399-63.573,63.669c-3.871,3.898-8.425,7.231-11.027,12.288
		c-5.263-2.932-9.542-7.053-13.708-11.313c0.414-3.882,3.469-5.942,5.895-8.377c18.708-18.764,37.475-37.479,56.179-56.247
		C175.561,217.529,178.607,215.477,179.172,211.658z"/>
	<path fill-rule="evenodd" clip-rule="evenodd" fill="#9FC9EB" d="M181.209,276.751c-0.326-4.451,3.063-6.687,5.672-9.309
		c15.792-15.859,31.652-31.651,47.44-47.511c2.418-2.435,5.477-4.471,5.982-8.31c2.613-0.092,5.227-0.247,7.84-0.263
		c17.733-0.1,20.713,3.051,19.857,20.971c-2.809,0.311-4.599,2.236-6.44,4.082c-18.993,18.99-37.988,37.988-56.982,56.978
		c-2.052,2.049-4.205,4.026-4.483,7.177c-1.316-1.118-2.554-2.34-3.958-3.334c-6.933-4.925-7.411-8.818-0.258-15.012
		c17.355-15.037,33.72-31.211,50.709-46.676c4.018-3.656,4.693-5.884,0.708-10.371c-4.272-4.809-6.532-3.266-10.263,0.215
		C218.545,242.633,199.837,259.65,181.209,276.751z"/>
	<path fill-rule="evenodd" clip-rule="evenodd" fill="#A6D0EE" d="M112.751,378.781c-8.728,0.013-17.459,0.028-26.186,0.036
		c0.505-3.843,3.568-5.883,5.991-8.313c15.191-15.263,30.45-30.454,45.641-45.717c2.427-2.435,5.47-4.483,6.026-8.302
		c11.297-1.858,21.834-5.55,30.025-13.891c3.858-3.927,6.182-2.868,8.441,1.261c-0.442,4.177-3.735,6.381-6.345,8.998
		c-19.181,19.248-38.422,38.434-57.607,57.678C116.327,372.95,113.308,374.995,112.751,378.781z"/>
	<path fill-rule="evenodd" clip-rule="evenodd" fill="#A6D0EE" d="M77.806,378.781c-8.731,0.013-17.458,0.028-26.186,0.036
		c0.283-2.482,1.838-4.2,3.504-5.863c19.36-19.348,38.716-38.696,58.052-58.063c2.101-2.105,4.352-3.867,7.371-4.376
		c4.972,1.882,9.949,3.767,14.925,5.652c-0.35,3.862-3.333,5.946-5.744,8.369c-15.298,15.351-30.649,30.642-45.939,45.999
		C81.378,372.954,78.358,374.995,77.806,378.781z"/>
	<path fill-rule="evenodd" clip-rule="evenodd" fill="#A6D0EE" d="M200.096,300.566c0.278-3.15,2.431-5.128,4.483-7.177
		c18.994-18.989,37.989-37.987,56.982-56.978c1.842-1.846,3.632-3.771,6.44-4.082c-0.008,8.728-0.023,17.455-0.036,26.187
		c-3.814,0.561-5.858,3.607-8.289,6.026c-13.604,13.528-27.141,27.129-40.733,40.673c-2.438,2.431-4.566,5.39-8.433,5.764
		C206.528,308.021,203.055,304.544,200.096,300.566z"/>
	<path fill-rule="evenodd" clip-rule="evenodd" fill="#A6D0EE" d="M147.7,378.781c-8.731,0.013-17.459,0.028-26.186,0.036
		c0.31-2.813,2.235-4.595,4.077-6.437c18.998-18.998,37.992-37.991,56.982-56.985c2.049-2.049,4.026-4.205,7.172-4.483
		c3.986,2.964,7.454,6.437,10.418,10.414c-0.374,3.87-3.337,5.994-5.768,8.437c-13.541,13.593-27.141,27.125-40.669,40.729
		C151.308,372.927,148.261,374.971,147.7,378.781z"/>
	<path fill-rule="evenodd" clip-rule="evenodd" fill="#A6D0EE" d="M144.223,211.658c8.731-0.012,17.459-0.028,26.186-0.036
		c-0.267,2.128-1.416,3.759-2.888,5.234c-19.122,19.114-38.243,38.235-57.348,57.364c-1.894,1.897-3.962,3.413-6.707,3.755
		c-4.527-2.725-8.37-6.253-11.902-10.144c14.169-16.909,30.892-31.333,46.043-47.288
		C140.158,217.859,143.567,215.767,144.223,211.658z"/>
	<path fill-rule="evenodd" clip-rule="evenodd" fill="#A6D0EE" d="M182.645,378.781c-8.731,0.013-17.458,0.028-26.186,0.036
		c0.398-1.082,0.498-2.454,1.237-3.198c15.127-15.267,30.307-30.481,45.57-45.613c0.935-0.927,2.622-1.098,3.954-1.619
		c3.981,2.959,7.454,6.432,10.417,10.414c-0.632,4.809-4.769,7.033-7.562,10.243C201.217,359.219,189.59,366.84,182.645,378.781z"/>
	<path fill-rule="evenodd" clip-rule="evenodd" fill="#A6D0EE" d="M268.001,267.275c0.096,3.488,0.374,6.985,0.238,10.462
		c-0.215,5.47,2.229,12.168-1.062,16.078c-3.15,3.739-9.861,1.241-14.988,1.313c-3.835,0.052-5.203,1.404-4.909,5.12
		c0.231,2.892,0.092,5.815,0.12,8.727c-4.272,8.688-10.796,15.128-19.416,19.476c-3.982-2.959-7.455-6.432-10.418-10.414
		c0.286-3.17,2.462-5.147,4.519-7.208c13.15-13.143,26.298-26.293,39.444-39.439C263.379,269.535,265.173,267.59,268.001,267.275z"
		/>
	<path fill-rule="evenodd" clip-rule="evenodd" fill="#9FC9EB" d="M124.764,295.9c2.602-5.057,7.156-8.39,11.027-12.288
		c21.142-21.27,42.396-42.431,63.573-63.669c2.422-2.435,5.489-4.479,5.995-8.321c2.92,0.008,5.839,0.023,8.759,0.036
		c-0.557,3.795-3.58,5.839-5.991,8.258c-23.708,23.764-47.467,47.471-71.163,71.242c-2.435,2.442-4.547,5.199-6.81,7.813
		C127.882,298.788,126.164,297.622,124.764,295.9z"/>
	<path fill-rule="evenodd" clip-rule="evenodd" fill="#A6D0EE" d="M217.59,378.781c-8.728,0.013-17.455,0.028-26.186,0.036
		c9.188-12.912,20.012-24.173,33.29-32.956c3.982,2.959,7.455,6.432,10.414,10.414c-0.426,4.117-3.854,6.122-6.189,8.922
		C225.137,369.721,219.368,372.596,217.59,378.781z"/>
	<path fill-rule="evenodd" clip-rule="evenodd" fill="#9FC9EB" d="M189.746,310.912c-3.146,0.278-5.124,2.435-7.172,4.483
		c-18.99,18.994-37.984,37.987-56.982,56.985c-1.842,1.842-3.767,3.624-4.077,6.437c-2.924-0.008-5.844-0.023-8.763-0.036
		c0.557-3.786,3.576-5.831,5.986-8.25c19.185-19.244,38.426-38.43,57.607-57.678c2.609-2.617,5.903-4.821,6.345-8.998
		C185.044,306.211,187.395,308.562,189.746,310.912z"/>
	<path fill-rule="evenodd" clip-rule="evenodd" fill="#9FC9EB" d="M120.547,310.515c-3.019,0.509-5.271,2.271-7.371,4.376
		c-19.336,19.367-38.692,38.716-58.052,58.063c-1.667,1.663-3.222,3.381-3.504,5.863c-2.919-0.008-5.839-0.023-8.759-0.036
		c0.557-3.803,3.592-5.851,6.007-8.277c19.05-19.105,38.159-38.147,57.189-57.269c2.438-2.446,4.555-5.215,6.818-7.837
		C115.432,307.102,117.99,308.808,120.547,310.515z"/>
	<path fill-rule="evenodd" clip-rule="evenodd" fill="#9FC9EB" d="M103.467,277.976c2.745-0.342,4.813-1.857,6.707-3.755
		c19.105-19.129,38.227-38.25,57.348-57.364c1.472-1.476,2.621-3.106,2.888-5.234c2.924,0.008,5.844,0.023,8.763,0.036
		c-0.565,3.819-3.612,5.872-6.042,8.306c-18.704,18.767-37.471,37.483-56.179,56.247c-2.426,2.435-5.481,4.495-5.895,8.377
		C108.526,282.383,105.997,280.18,103.467,277.976z"/>
	<path fill-rule="evenodd" clip-rule="evenodd" fill="#9FC9EB" d="M77.806,378.781c0.553-3.786,3.572-5.827,5.983-8.246
		c15.291-15.357,30.641-30.648,45.939-45.999c2.411-2.423,5.394-4.507,5.744-8.369c2.916,0.107,5.835,0.211,8.751,0.318
		c-0.557,3.818-3.6,5.867-6.026,8.302c-15.191,15.263-30.45,30.454-45.641,45.717c-2.423,2.431-5.485,4.471-5.991,8.313
		C83.645,378.81,80.726,378.794,77.806,378.781z"/>
	<path fill-rule="evenodd" clip-rule="evenodd" fill="#9FC9EB" d="M79.779,277.121c-15.096,18.016-32.797,33.488-49.152,50.275
		c-3.882,3.985-6.842,9.722-13.668,9.773c-0.01-2.339-0.018-4.678-0.026-7.017c0.557-0.14,1.273-0.107,1.651-0.45
		c19.352-17.287,37.431-35.855,55.081-54.854c0.521-0.557,0.477-1.635,0.696-2.471C76.167,273.962,77.973,275.537,79.779,277.121z"
		/>
	<path fill-rule="evenodd" clip-rule="evenodd" fill="#9FC9EB" d="M268.001,267.275c-2.828,0.314-4.622,2.26-6.472,4.113
		c-13.146,13.146-26.294,26.297-39.444,39.439c-2.057,2.061-4.232,4.038-4.519,7.208c-2.351-2.351-4.706-4.705-7.057-7.057
		c3.866-0.374,5.995-3.333,8.433-5.764c13.593-13.544,27.129-27.145,40.733-40.673c2.431-2.419,4.475-5.466,8.289-6.026
		C267.978,261.436,267.993,264.355,268.001,267.275z"/>
	<path fill-rule="evenodd" clip-rule="evenodd" fill="#9FC9EB" d="M207.22,328.387c-1.333,0.521-3.02,0.692-3.954,1.619
		c-15.263,15.132-30.442,30.347-45.57,45.613c-0.74,0.744-0.839,2.116-1.237,3.198c-2.919-0.008-5.839-0.023-8.759-0.036
		c0.561-3.811,3.607-5.854,6.026-8.289c13.528-13.604,27.128-27.137,40.669-40.729c2.431-2.442,5.394-4.566,5.768-8.437
		C202.514,323.681,204.869,326.036,207.22,328.387z"/>
	<path fill-rule="evenodd" clip-rule="evenodd" fill="#9FC9EB" d="M144.223,211.658c-0.656,4.109-4.065,6.202-6.615,8.886
		c-15.152,15.955-31.875,30.379-46.043,47.288c-2.263-1.933-4.531-3.866-6.794-5.799c1.333-0.525,3.007-0.709,3.942-1.635
		c15.243-15.124,30.406-30.327,45.518-45.578c0.736-0.744,0.835-2.12,1.233-3.198C138.384,211.63,141.304,211.646,144.223,211.658z"
		/>
	<path fill-rule="evenodd" clip-rule="evenodd" fill="#9FC9EB" d="M224.694,345.861c-13.278,8.783-24.102,20.044-33.29,32.956
		c-2.92-0.008-5.839-0.023-8.759-0.036c6.945-11.941,18.572-19.563,27.431-29.737c2.792-3.21,6.929-5.435,7.562-10.243
		C219.989,341.155,222.344,343.507,224.694,345.861z"/>
	<path fill-rule="evenodd" clip-rule="evenodd" fill="#9FC9EB" d="M227.984,328.45c8.62-4.348,15.144-10.788,19.416-19.476
		c2.884,0.176,5.771,0.354,8.655,0.533c-2.569,7.252-9.471,10.78-14.042,16.313c-2.542,3.079-6.436,5.171-6.973,9.689
		C232.69,333.16,230.335,330.806,227.984,328.45z"/>
	<path fill-rule="evenodd" clip-rule="evenodd" fill="#9FC9EB" d="M217.59,378.781c1.778-6.186,7.546-9.061,11.329-13.584
		c2.335-2.8,5.764-4.805,6.189-8.922c2.351,2.351,4.706,4.705,7.061,7.057c-7.351,3.039-12.419,8.413-15.815,15.485
		C223.43,378.81,220.51,378.794,217.59,378.781z"/>
	<path fill-rule="evenodd" clip-rule="evenodd" fill="#0C6572" d="M426.14,90.796c-2.148,1.957-3.791,3.532-5.518,5.016
		c-19.443,16.667-38.784,33.462-58.442,49.874c-4.447,3.708-4.654,5.692-0.441,9.806c19.992,19.523,39.583,39.456,59.469,59.09
		c3.755,3.708,5.632,6.007,0.819,10.951c-5.235,5.386-7.534,2.112-10.928-1.301c-19.491-19.61-39.161-39.05-58.518-58.796
		c-4.26-4.344-6.81-5.8-12.446-1.054c-19.236,16.194-40.788,16.066-60.169-0.235c-5.286-4.447-7.816-3.508-11.81,0.919
		c-6.038,6.691-12.912,12.63-18.95,19.32c-4.05,4.495-6.13,1.583-8.986-1.105c-3.11-2.928-4.956-5.195-0.724-8.99
		c6.277-5.625,11.763-12.14,18.071-17.721c4.916-4.348,5.62-6.921-0.127-11.639c-19.571-16.054-38.454-32.948-57.925-49.122
		c-4.758-3.954-4.543-6.166-0.919-10.875c4.316-5.609,6.687-2.57,10.064,0.33c25.613,21.997,51.273,43.927,76.935,65.864
		c18.274,15.625,30.928,15.629,49.277-0.051c26.106-22.312,52.149-44.699,78.315-66.943c1.424-1.209,2.848-4.63,5.517-2.096
		C421.374,84.566,423.518,87.657,426.14,90.796z"/>
	<path fill-rule="evenodd" clip-rule="evenodd" fill="#0C6572" d="M242.169,363.332c-2.354-2.352-4.71-4.706-7.061-7.057
		c-2.959-3.982-6.432-7.455-10.414-10.414c-2.351-2.354-4.706-4.706-7.057-7.061c-2.963-3.982-6.436-7.455-10.417-10.414
		c-2.351-2.351-4.706-4.706-7.057-7.061c-2.964-3.978-6.432-7.45-10.418-10.414c-2.351-2.351-4.702-4.701-7.057-7.057
		c-2.259-4.129-4.583-5.188-8.441-1.261c-8.19,8.341-18.728,12.032-30.025,13.891c-2.916-0.107-5.835-0.211-8.751-0.318
		c-4.976-1.886-9.953-3.771-14.925-5.652c-2.558-1.707-5.116-3.413-7.673-5.116c-4.093-6.424-7.681-5.484-12.709-0.317
		c-19.439,19.977-39.412,39.439-58.939,59.333c-3.99,4.062-6.329,4.956-11.006,0.493c-5.028-4.806-2.224-7.061,1.044-10.311
		c19.557-19.46,38.865-39.174,58.679-58.37c5.088-4.929,5.211-7.864-0.608-11.632c-3.381-2.188-6.38-4.964-9.555-7.474
		c-1.806-1.584-3.612-3.159-5.418-4.742c-13.584-11.818-27.18-23.628-40.749-35.466c-3.691-3.222-8.797-5.132-3.005-11.941
		c6.219-7.312,8.785-0.971,12.11,1.758c14.149,11.611,28.06,23.509,42.054,35.304c2.263,1.933,4.531,3.866,6.794,5.799
		c3.532,3.891,7.375,7.419,11.902,10.144c2.53,2.204,5.06,4.407,7.589,6.611c4.165,4.261,8.445,8.382,13.708,11.313
		c1.4,1.722,3.119,2.888,5.39,3.07c11.552,6.09,21.981,3.862,31.608-4.271c0.481-0.43,0.962-0.863,1.444-1.293l0.175-0.128
		c0.577-0.524,1.158-1.046,1.738-1.571l0.048-0.043c0.597-0.558,1.197-1.114,1.794-1.667l-0.012,0.012
		c0.612-0.581,1.229-1.161,1.846-1.738c4.137-3.843,8.278-7.681,12.415-11.52c18.628-17.101,37.336-34.118,55.825-51.362
		c3.73-3.481,5.99-5.024,10.263-0.215c3.985,4.487,3.31,6.714-0.708,10.371c-16.989,15.465-33.354,31.639-50.709,46.676
		c-7.152,6.193-6.675,10.087,0.258,15.012c1.404,0.994,2.642,2.216,3.958,3.334c2.959,3.978,6.432,7.454,10.414,10.413
		c2.351,2.352,4.706,4.706,7.057,7.057c2.963,3.982,6.436,7.455,10.418,10.414c2.351,2.355,4.706,4.71,7.057,7.061
		c6.221,6.429,12.308,12.992,18.72,19.226c3.54,3.444,5.505,5.819,0.72,10.302c-4.181,3.914-6.861,4.376-10.263-0.179
		C243.729,364.203,242.861,363.833,242.169,363.332z"/>
	<path fill-rule="evenodd" clip-rule="evenodd" fill="#9FC9EB" d="M166.96,289.997c-0.597,0.553-1.197,1.109-1.794,1.667
		C165.763,291.106,166.364,290.55,166.96,289.997z"/>
	<path fill-rule="evenodd" clip-rule="evenodd" fill="#9FC9EB" d="M165.119,291.707c-0.581,0.525-1.162,1.047-1.738,1.571
		C163.957,292.754,164.538,292.232,165.119,291.707z"/>
	<path fill-rule="evenodd" clip-rule="evenodd" fill="#9FC9EB" d="M163.206,293.406c-0.481,0.43-0.963,0.863-1.444,1.293
		C162.243,294.27,162.724,293.836,163.206,293.406z"/>
	<path fill-rule="evenodd" clip-rule="evenodd" fill="#9FC9EB" d="M168.794,288.271c-0.617,0.577-1.233,1.157-1.846,1.738
		C167.561,289.428,168.178,288.848,168.794,288.271z"/>
</g>
</svg>
