<?xml version="1.0" encoding="utf-8"?>
<!-- Generator: Adobe Illustrator 16.0.0, SVG Export Plug-In . SVG Version: 6.00 Build 0)  -->
<!DOCTYPE svg PUBLIC "-//W3C//DTD SVG 1.1//EN" "http://www.w3.org/Graphics/SVG/1.1/DTD/svg11.dtd">
<svg version="1.1" id="Layer_1" xmlns="http://www.w3.org/2000/svg" xmlns:xlink="http://www.w3.org/1999/xlink" x="0px" y="0px"
	 width="450px" height="450px" viewBox="0 0 450 450" enable-background="new 0 0 450 450" xml:space="preserve">
<g>
	<path fill="#253876" d="M807.313,281.768c66.384-0.002,132.768,0.229,199.147-0.174c15.241-0.093,22.414,10.568,22.369,22.609
		c-0.295,80.89-0.151,161.78-0.154,242.671c0,14.599-7.528,22.135-22.225,22.146c-35.757,0.021-71.514,0.063-107.269-0.07
		c-3.884-0.016-5.292,0.835-5.147,5.022c0.323,9.487,0.087,9.495,9.719,9.496c9.672,0,19.344-0.027,29.015,0.009
		c11.498,0.045,19.697,7.923,20.079,19.428c0.181,5.416,0.04,10.843,0.039,16.265c0,7.298-0.189,7.495-7.311,7.495
		c-61.692,0.002-123.386,0.002-185.078,0.002c-30.774,0-61.547,0.002-92.321-0.002c-6.512-0.001-6.856-0.362-6.867-7.057
		c-0.008-5.275-0.061-10.553,0.015-15.826c0.176-12.292,8.272-20.283,20.539-20.307c11.575-0.021,23.153-0.075,34.729,0.049
		c2.614,0.026,3.497-0.606,3.533-3.396c0.146-11.103,0.255-11.101-10.827-11.101c-33.705,0-67.41,0.013-101.113-0.007
		c-15.304-0.008-22.666-7.372-22.666-22.577c0-81.185-0.004-162.367,0.004-243.551c0-10.67,5.143-17.955,14.352-20.586
		c2.603-0.742,5.232-0.522,7.853-0.523C674.254,281.764,740.783,281.768,807.313,281.768z M807.28,288.83c0-0.053,0-0.104,0-0.156
		c-66.68,0-133.356-0.004-200.034,0.004c-10.088,0.002-14.703,4.286-14.703,13.707c-0.014,81.918-0.012,163.837,0.009,245.756
		c0.001,1.597,0.037,3.251,0.438,4.778c1.633,6.223,6.259,9.299,14.127,9.239c39.704-0.303,79.409-0.083,119.115-0.278
		c56.262-0.278,112.527-0.394,168.795,0.171c37.361,0.374,74.733,0.003,112.101-0.075c9.979-0.021,14.437-4.563,14.437-14.556
		c0.01-81.187,0.012-162.372,0.006-243.559c-0.001-10.943-4.109-15.025-15.138-15.027C940.049,288.824,873.664,288.83,807.28,288.83
		z M806.748,619.682c0-0.051,0-0.102,0-0.151c39.273,0,78.548,0.008,117.821-0.008c5.859-0.003,11.721-0.142,17.581-0.164
		c1.931-0.009,3.595-0.199,3.523-2.723c-0.138-4.971,0.467-9.962-0.393-14.912c-1.289-7.424-5.281-10.86-12.896-11.03
		c-4.688-0.104-9.377-0.176-14.063-0.176c-74.299-0.011-148.596-0.004-222.895-0.009c-4.835-0.001-9.674-0.186-14.505-0.063
		c-6.81,0.174-11.406,4.014-12.337,10.761c-0.576,4.177-0.357,8.471-0.387,12.714c-0.041,5.746,0.004,5.758,5.783,5.759
		C718.238,619.684,762.494,619.682,806.748,619.682z M807.215,569.577c-24.897,0-49.798,0.102-74.693-0.097
		c-4.321-0.034-5.91,1.313-5.278,5.476c0.108,0.716,0.017,1.462,0.017,2.194c0.009,6.061,0.009,6.07,5.897,6.07
		c48.479,0.003,96.957,0.024,145.436-0.015c9.57-0.008,7.997,1.229,8.434-8.445c0.199-4.455-1.507-5.295-5.555-5.268
		C856.72,569.66,831.967,569.577,807.215,569.577z"/>
	<path fill="#F2EDEC" d="M807.28,288.83c66.384,0,132.769-0.006,199.151,0.004c11.027,0.002,15.137,4.084,15.138,15.027
		c0.006,81.187,0.004,162.372-0.005,243.559c-0.002,9.993-4.457,14.534-14.438,14.556c-37.366,0.078-74.738,0.449-112.101,0.075
		c-56.268-0.563-112.533-0.449-168.795-0.171c-39.706,0.195-79.411-0.024-119.115,0.278c-7.868,0.06-12.494-3.018-14.127-9.239
		c-0.401-1.527-0.438-3.183-0.438-4.778c-0.021-81.919-0.021-163.838-0.009-245.756c0-9.421,4.615-13.705,14.703-13.707
		c66.678-0.008,133.354-0.004,200.034-0.004C807.28,288.727,807.28,288.777,807.28,288.83z M956.05,477.85
		c0.489-0.922,0.899-1.825,1.421-2.66c15.012-24.071,18.65-49.729,10.549-76.938c-0.797-2.675,0.29-3.443,2.281-4.538
		c16.447-9.058,25.328-22.95,26.082-41.782c1.062-26.516-20.852-49.588-47.19-49.838c-20.937-0.197-38.163,11.143-46.364,30.631
		c-0.854,2.025-1.516,2.76-4.057,2.197c-7.002-1.551-14.147-2.09-21.358-2.078c-47.031,0.072-94.063,0.053-141.094,0.018
		c-6.316-0.004-12.549,0.56-18.771,1.652c-47.968,8.432-82.142,55.905-74.701,103.854c7.175,46.235,45.509,79.183,92.425,79.266
		c47.031,0.083,94.063-0.082,141.094,0.083c13.8,0.049,27.095-1.943,39.748-7.495c2.396-1.051,3.127-0.514,3.297,1.862
		c0.238,3.357,0.351,6.746,0.924,10.051c0.607,3.508,3.409,4.453,6.086,2.128c2.316-2.013,4.542-4.178,6.514-6.522
		c1.897-2.258,3.136-2.055,5.138,0.002c8.276,8.504,16.804,16.764,25.093,25.255c2.84,2.909,5.113,3.245,8.028,0.107
		c4.186-4.506,8.559-8.852,13.052-13.051c3.104-2.899,2.832-5.266-0.071-8.088c-6.618-6.433-13.094-13.012-19.607-19.551
		c-2.581-2.592-6.945-5.083-7.181-7.896c-0.266-3.192,4.619-5.383,7.058-8.199c0.19-0.223,0.407-0.423,0.62-0.624
		c1.266-1.193,1.936-2.595,1.312-4.327c-0.699-1.945-2.306-2.411-4.188-2.537C960.185,478.699,958.077,479.137,956.05,477.85z
		 M599.605,336.121c0,3.359,0.022,6.717-0.008,10.074c-0.021,2.379,0.942,4.113,3.426,4.169c2.473,0.054,3.59-1.608,3.594-4.003
		c0.012-6.569-0.013-13.141,0.017-19.711c0.011-2.397-1.04-4.151-3.443-4.184c-2.712-0.035-3.646,1.907-3.599,4.456
		C599.648,329.988,599.605,333.057,599.605,336.121z"/>
	<path fill="#5D92CD" d="M806.748,619.682c-44.254,0-88.51,0.002-132.764-0.002c-5.779-0.001-5.824-0.013-5.783-5.759
		c0.029-4.243-0.189-8.537,0.387-12.714c0.932-6.747,5.527-10.587,12.337-10.761c4.831-0.123,9.67,0.062,14.505,0.063
		c74.299,0.005,148.597-0.002,222.895,0.009c4.688,0,9.377,0.07,14.063,0.176c7.613,0.17,11.605,3.606,12.896,11.03
		c0.858,4.95,0.255,9.941,0.393,14.912c0.07,2.522-1.594,2.714-3.523,2.723c-5.86,0.022-11.722,0.161-17.581,0.163
		c-39.273,0.017-78.547,0.009-117.821,0.009C806.748,619.58,806.748,619.631,806.748,619.682z"/>
	<path fill="#5D92CD" d="M807.215,569.577c24.752,0,49.505,0.083,74.256-0.083c4.048-0.027,5.754,0.813,5.555,5.268
		c-0.437,9.676,1.138,8.438-8.434,8.445c-48.479,0.039-96.957,0.018-145.436,0.015c-5.89,0-5.89-0.011-5.897-6.07
		c0-0.732,0.093-1.479-0.017-2.194c-0.632-4.163,0.957-5.51,5.277-5.476C757.417,569.679,782.316,569.577,807.215,569.577z"/>
	<path fill="#5D92CD" d="M956.05,477.85c2.027,1.287,4.135,0.851,6.131,0.982c1.884,0.126,3.49,0.592,4.189,2.537
		c0.624,1.731-0.046,3.134-1.313,4.327c-0.213,0.2-0.429,0.401-0.62,0.624c-2.438,2.816-7.321,5.007-7.057,8.198
		c0.234,2.813,4.6,5.305,7.18,7.896c6.516,6.539,12.99,13.118,19.608,19.551c2.903,2.822,3.176,5.188,0.071,8.088
		c-4.493,4.199-8.866,8.545-13.053,13.05c-2.914,3.139-5.188,2.803-8.027-0.106c-8.289-8.491-16.815-16.751-25.094-25.255
		c-2.002-2.058-3.238-2.26-5.137-0.002c-1.972,2.346-4.197,4.511-6.514,6.522c-2.677,2.325-5.479,1.38-6.086-2.128
		c-0.573-3.305-0.687-6.692-0.924-10.051c-0.17-2.376-0.899-2.913-3.297-1.862c-12.653,5.552-25.948,7.544-39.748,7.495
		c-47.03-0.165-94.063,0-141.095-0.083c-46.916-0.083-85.25-33.03-92.424-79.266c-7.439-47.949,26.733-95.423,74.701-103.854
		c6.223-1.094,12.455-1.656,18.771-1.652c47.031,0.035,94.063,0.056,141.095-0.018c7.211-0.012,14.355,0.527,21.357,2.078
		c2.541,0.563,3.203-0.172,4.058-2.197c8.2-19.488,25.429-30.828,46.363-30.631c26.34,0.25,48.252,23.322,47.191,49.838
		c-0.754,18.832-9.635,32.726-26.082,41.782c-1.991,1.095-3.078,1.863-2.281,4.538c8.103,27.209,4.462,52.865-10.549,76.938
		C956.949,476.023,956.539,476.928,956.05,477.85z M807.097,510.512c23.732,0,47.476-0.437,71.19,0.164
		c14.397,0.363,26.091-5.37,37.396-13.053c1.657-1.126,2.29-2.455,2.048-4.438c-0.496-4.059-0.824-8.136-1.262-12.199
		c-0.429-3.981,1.013-5.724,5.168-5.612c4.086,0.108,8.163,0.542,12.242,0.862c2.119,0.166,3.507-0.664,4.664-2.521
		c12.795-20.536,17.401-42.625,12.446-66.426c-1.794-8.619,0.024-7.037-9.433-8.396c-12.93-1.857-23.529-7.749-31.683-17.894
		c-7.652-9.521-11.203-20.475-10.412-32.686c0.23-3.555-1.003-5.373-4.437-6.316c-5.273-1.447-10.604-2.072-16.04-2.072
		c-47.902,0.004-95.806-0.027-143.708,0.047c-4.959,0.008-10,0.168-14.861,1.039c-46.793,8.379-77.066,51.146-70.551,96.408
		c6.086,42.283,42.822,73.756,85.156,73.157C759.043,510.234,783.072,510.514,807.097,510.512z M989.373,350.582
		c-0.047-22.949-18.648-41.48-41.604-41.446c-22.905,0.034-41.35,18.606-41.34,41.626c0.011,22.912,18.687,41.562,41.539,41.479
		C970.929,392.158,989.419,373.555,989.373,350.582z M926.827,513.132c1.596-1.403,2.481-2.124,3.301-2.915
		c4.779-4.619,6.071-4.625,10.776,0.071c6.313,6.302,12.615,12.614,18.923,18.921c7.731,7.731,7.66,7.659,15.44-0.174
		c2.105-2.12,2.328-3.419,0.063-5.604c-7.263-7.001-14.317-14.22-21.447-21.357c-6.753-6.763-6.781-6.786-1.219-14.364
		c1.123-1.53,1.071-2.434-0.9-2.592c-8.286-0.668-16.578-1.262-24.869-1.869c-2.06-0.151-2.912,0.766-2.698,2.881
		C925.081,494.822,925.896,503.523,926.827,513.132z"/>
	<path fill="#692C84" d="M599.605,336.121c0-3.064,0.043-6.133-0.015-9.197c-0.048-2.549,0.888-4.49,3.599-4.456
		c2.403,0.031,3.455,1.785,3.443,4.185c-0.027,6.568-0.005,13.141-0.017,19.709c-0.004,2.396-1.121,4.058-3.595,4.004
		c-2.481-0.055-3.444-1.79-3.425-4.168C599.629,342.838,599.605,339.48,599.605,336.121z"/>
	<path fill="#70B2E1" d="M807.097,510.512c-24.023,0.002-48.054-0.276-72.072,0.063c-42.334,0.599-79.07-30.874-85.156-73.157
		c-6.517-45.262,23.758-88.029,70.551-96.408c4.861-0.871,9.902-1.031,14.861-1.039c47.902-0.074,95.806-0.043,143.708-0.047
		c5.438,0,10.767,0.625,16.04,2.072c3.434,0.943,4.667,2.763,4.437,6.316c-0.791,12.211,2.76,23.164,10.412,32.686
		c8.152,10.145,18.753,16.035,31.683,17.894c9.457,1.358,7.639-0.224,9.433,8.396c4.955,23.801,0.349,45.89-12.446,66.426
		c-1.157,1.857-2.545,2.688-4.664,2.521c-4.079-0.32-8.156-0.754-12.242-0.862c-4.155-0.11-5.597,1.631-5.168,5.612
		c0.438,4.063,0.766,8.142,1.262,12.199c0.242,1.983-0.391,3.313-2.048,4.438c-11.306,7.683-22.998,13.416-37.396,13.053
		C854.571,510.075,830.829,510.512,807.097,510.512z M884.818,381.936c-19.969-0.127-37.549,12.42-43.749,31.223
		c-5.896,17.866,0.757,37.564,16.525,48.953c16.068,11.604,38.059,11.623,53.821,0.084c1.824-1.334,3.435-2.768,3.816-5.117
		c0.453-2.798-0.088-5.353-2.555-7.003c-2.976-1.994-6.125-1.948-9.017,0.182c-4.837,3.562-10.21,5.562-16.154,6.302
		c-19.229,2.396-36.776-14.755-34.196-33.498c3.245-23.589,29.753-34.901,49.638-21.187c4.537,3.131,8.625,2.869,11.2-0.715
		c2.493-3.474,1.363-7.817-2.992-10.876C903.268,384.742,894.488,381.91,884.818,381.936z M698.817,427.4
		c0,5.859-0.001,11.722,0,17.583c0.001,5.86-0.034,11.723,0.013,17.582c0.04,5.062,2.496,8.118,6.518,8.271
		c4.146,0.155,7.05-3.104,7.104-8.2c0.073-7.032,0.159-14.068-0.036-21.097c-0.088-3.156,0.682-4.562,4.128-4.285
		c3.64,0.29,7.323,0.134,10.983,0.029c14.76-0.417,26.405-11.58,26.729-25.563c0.344-14.747-10.555-26.511-25.74-27.349
		c-7.157-0.396-14.354-0.19-21.532-0.104c-5.896,0.072-8.133,2.436-8.15,8.404C698.795,404.25,698.82,415.824,698.817,427.4z
		 M770.816,427.293c0,11.85-0.038,23.699,0.019,35.549c0.022,4.889,2.784,8.023,6.782,7.996c4.045-0.025,6.756-3.125,6.804-8.01
		c0.069-7.021,0.175-14.048-0.043-21.063c-0.103-3.321,0.687-4.811,4.325-4.516c3.779,0.306,7.607,0.184,11.404,0.014
		c14.503-0.645,25.741-11.684,26.191-25.613c0.459-14.165-10.189-26.059-24.905-27.173c-7.42-0.564-14.911-0.281-22.368-0.203
		c-5.933,0.062-8.166,2.384-8.195,8.349C770.773,404.18,770.813,415.736,770.816,427.293z"/>
	<path fill="#F8C04E" d="M989.373,350.582c0.046,22.973-18.444,41.576-41.404,41.658c-22.854,0.082-41.527-18.566-41.539-41.479
		c-0.01-23.02,18.435-41.592,41.34-41.626C970.725,309.102,989.326,327.633,989.373,350.582z M950.542,334.768
		c2.171,0.404,3.982,1.241,5.744,2.256c2.178,1.254,4.271,1.348,5.614-1.114c1.451-2.666-0.376-4.058-2.439-5.132
		c-1.545-0.805-3.119-1.648-4.781-2.102c-2.1-0.57-3.873-0.707-4.688-3.553c-0.602-2.094-3.789-2-4.42,0.07
		c-0.792,2.6-2.396,2.787-4.342,3.303c-5.56,1.471-9.011,5.302-9.379,10.229c-0.451,6.047,1.673,10.479,7.652,12.224
		c5.305,1.547,6.441,4.407,5.71,9.125c-0.155,1-0.092,2.051-0.01,3.067c0.166,2.06-0.674,2.767-2.539,1.857
		c-2.353-1.145-4.614-2.473-6.96-3.635c-1.948-0.965-3.711-0.701-4.959,1.229c-1.221,1.896-0.346,3.364,1.158,4.544
		c2.796,2.192,5.976,3.79,9.442,4.35c2.811,0.453,4.198,1.408,3.803,4.432c-0.226,1.723,0.789,2.781,2.557,2.855
		c1.491,0.063,2.914-0.656,2.676-2.188c-0.658-4.225,2.261-4.4,5.075-5.256c5.149-1.564,8.563-5.873,8.735-10.896
		c0.177-5.175-1.994-9.776-6.979-10.965c-7.146-1.703-7.431-6.269-6.813-11.873C950.494,336.741,950.489,335.876,950.542,334.768z"
		/>
	<path fill="#F2EDEC" d="M926.827,513.132c-0.93-9.607-1.746-18.31-2.631-27.003c-0.214-2.115,0.64-3.032,2.698-2.881
		c8.291,0.607,16.584,1.201,24.869,1.869c1.973,0.158,2.023,1.062,0.9,2.592c-5.563,7.578-5.534,7.604,1.219,14.364
		c7.13,7.139,14.186,14.356,21.447,21.357c2.266,2.186,2.043,3.483-0.063,5.604c-7.78,7.833-7.709,7.905-15.44,0.174
		c-6.308-6.307-12.61-12.619-18.923-18.921c-4.705-4.696-5.997-4.69-10.776-0.071C929.31,511.008,928.423,511.728,926.827,513.132z"
		/>
	<path fill="#F2EDEC" d="M884.817,381.936c9.671-0.024,18.449,2.808,26.34,8.348c4.355,3.059,5.485,7.402,2.992,10.876
		c-2.575,3.584-6.663,3.846-11.2,0.715c-19.884-13.716-46.393-2.402-49.637,21.187c-2.58,18.743,14.967,35.894,34.195,33.498
		c5.944-0.74,11.317-2.74,16.154-6.302c2.892-2.13,6.041-2.176,9.017-0.182c2.468,1.65,3.009,4.205,2.555,7.003
		c-0.383,2.351-1.992,3.783-3.816,5.117c-15.764,11.539-37.753,11.52-53.821-0.084c-15.77-11.389-22.421-31.087-16.525-48.953
		C847.271,394.355,864.851,381.809,884.817,381.936z"/>
	<path fill="#F2EDEC" d="M698.818,427.4c0.002-11.576-0.023-23.15,0.014-34.728c0.019-5.97,2.256-8.332,8.15-8.403
		c7.178-0.088,14.375-0.291,21.532,0.104c15.187,0.838,26.084,12.602,25.74,27.349c-0.324,13.981-11.971,25.146-26.729,25.563
		c-3.66,0.104-7.345,0.261-10.983-0.029c-3.446-0.274-4.216,1.129-4.128,4.285c0.195,7.027,0.109,14.064,0.036,21.097
		c-0.054,5.098-2.958,8.355-7.104,8.2c-4.021-0.151-6.478-3.209-6.518-8.271c-0.047-5.859-0.012-11.722-0.013-17.582
		C698.815,439.123,698.817,433.261,698.818,427.4z M712.479,410.01c0,3.944,0.084,7.16-0.027,10.369
		c-0.076,2.172,0.563,3.193,2.953,3.105c4.229-0.156,8.479,0.122,12.703-0.107c5.424-0.294,9.4-2.978,11.397-8.135
		c1.863-4.813,0.849-9.212-2.515-13.019c-3.044-3.444-7.112-4.443-11.519-4.196c-4.175,0.233-9.498-1.825-12.21,0.863
		C710.723,401.412,712.824,406.691,712.479,410.01z"/>
	<path fill="#F2EDEC" d="M770.814,427.293c-0.001-11.557-0.041-23.113,0.016-34.671c0.029-5.965,2.264-8.287,8.195-8.349
		c7.458-0.078,14.948-0.361,22.369,0.203c14.715,1.114,25.363,13.008,24.904,27.173c-0.45,13.931-11.688,24.97-26.191,25.613
		c-3.797,0.17-7.625,0.292-11.404-0.014c-3.639-0.295-4.428,1.193-4.325,4.516c0.218,7.016,0.112,14.042,0.043,21.063
		c-0.048,4.885-2.759,7.982-6.804,8.01c-3.998,0.027-6.76-3.107-6.782-7.996C770.778,450.992,770.816,439.143,770.814,427.293z
		 M793.823,397.848c-0.003,0.054-0.007,0.105-0.011,0.159c-1.9,0-3.818,0.169-5.697-0.04c-2.935-0.322-3.803,0.871-3.725,3.713
		c0.172,6.136,0.075,12.279,0.041,18.42c-0.011,1.884-0.015,3.472,2.659,3.377c4.526-0.155,9.077,0.154,13.59-0.146
		c6.367-0.425,11.276-5.492,11.695-11.607c0.438-6.394-3.781-12.04-10.271-13.3C799.41,397.9,796.588,398.02,793.823,397.848z"/>
	<path fill="#692C84" d="M950.542,334.768c-0.053,1.108-0.048,1.975-0.142,2.828c-0.617,5.604-0.333,10.17,6.813,11.873
		c4.985,1.188,7.156,5.79,6.979,10.965c-0.173,5.023-3.587,9.332-8.735,10.896c-2.814,0.855-5.733,1.031-5.075,5.256
		c0.238,1.531-1.185,2.25-2.676,2.188c-1.769-0.074-2.781-1.133-2.558-2.855c0.396-3.023-0.991-3.979-3.802-4.432
		c-3.468-0.56-6.646-2.156-9.442-4.351c-1.504-1.179-2.379-2.647-1.158-4.543c1.248-1.932,3.011-2.194,4.959-1.229
		c2.346,1.162,4.606,2.49,6.96,3.635c1.865,0.908,2.705,0.201,2.539-1.857c-0.082-1.018-0.146-2.067,0.01-3.067
		c0.731-4.718-0.405-7.578-5.71-9.125c-5.98-1.745-8.104-6.177-7.652-12.224c0.368-4.927,3.819-8.758,9.378-10.229
		c1.945-0.516,3.551-0.703,4.343-3.303c0.631-2.07,3.818-2.164,4.42-0.07c0.813,2.846,2.588,2.982,4.688,3.553
		c1.662,0.452,3.236,1.297,4.781,2.102c2.063,1.074,3.892,2.466,2.439,5.132c-1.344,2.462-3.438,2.368-5.614,1.114
		C954.524,336.009,952.713,335.172,950.542,334.768z M950.021,360.383c1.822,1.251-1.521,4.617,1.825,4.938
		c2.781,0.268,4.749-1.926,4.722-5.09c-0.028-3.215-2.383-5.258-4.885-5.099C949.014,355.303,951.198,358.443,950.021,360.383z
		 M945.191,345.206c0-3.126-0.084-5.872,0.024-8.608c0.093-2.334-1.16-2.367-2.717-1.697c-1.998,0.863-3.441,2.396-3.327,4.662
		C939.339,342.834,941.719,344.172,945.191,345.206z"/>
	<path fill="#70B2E1" d="M712.479,410.01c0.346-3.317-1.757-8.598,0.784-11.118c2.712-2.688,8.035-0.63,12.21-0.863
		c4.405-0.247,8.475,0.752,11.519,4.196c3.362,3.807,4.378,8.205,2.515,13.019c-1.997,5.157-5.975,7.841-11.397,8.135
		c-4.226,0.229-8.474-0.049-12.703,0.107c-2.39,0.088-3.029-0.935-2.953-3.105C712.563,417.17,712.479,413.954,712.479,410.01z"/>
	<path fill="#70B2E1" d="M793.823,397.848c2.765,0.172,5.587,0.054,8.282,0.576c6.489,1.26,10.707,6.906,10.271,13.3
		c-0.419,6.115-5.328,11.184-11.695,11.607c-4.513,0.3-9.063-0.011-13.59,0.146c-2.674,0.095-2.67-1.493-2.659-3.377
		c0.034-6.141,0.131-12.285-0.041-18.42c-0.079-2.842,0.79-4.035,3.725-3.713c1.879,0.209,3.797,0.04,5.696,0.04
		C793.816,397.953,793.82,397.9,793.823,397.848z"/>
	<path fill="#F8C04E" d="M950.021,360.383c1.178-1.938-1.008-5.08,1.662-5.251c2.502-0.159,4.855,1.884,4.885,5.099
		c0.027,3.164-1.939,5.356-4.722,5.09C948.499,365,951.844,361.634,950.021,360.383z"/>
	<path fill="#F8C04E" d="M945.191,345.206c-3.474-1.034-5.854-2.372-6.02-5.644c-0.114-2.269,1.329-3.801,3.327-4.662
		c1.557-0.672,2.81-0.637,2.717,1.695C945.107,339.334,945.191,342.08,945.191,345.206z"/>
</g>
<g>
	<path fill-rule="evenodd" clip-rule="evenodd" fill="#2678B9" d="M346.937,204.781c-19.836,0-39.674,0.201-59.507-0.052
		c-24.017-0.306-41.883-17.485-42.438-40.348c-0.563-23.399,15.617-42.682,39.426-43.287c42.061-1.071,84.188-1.052,126.25-0.035
		c23.208,0.561,41.275,21.493,40.188,43.22c-1.149,22.91-19.21,40.124-42.961,40.444C387.578,205,367.256,204.781,346.937,204.781z"
		/>
	<g>
		<path fill-rule="evenodd" clip-rule="evenodd" fill="#FFFFFF" d="M1.241,103.358c0.256-0.044,0.658-0.001,0.748-0.147
			c9.46-15.504,24.463-15.638,40.277-15.599c108.148,0.274,216.297,0.236,324.447,0.027c13.304-0.027,24.849,2.127,31.964,14.78
			c0.297,0.529,1.342,0.635,2.04,0.938c0,68.66,0,137.32,0,205.98c-0.256,0.045-0.658,0.002-0.747,0.148
			c-9.447,15.498-24.434,15.791-40.245,15.602c-37.403-0.457-74.818,0.023-112.225-0.295c-7.251-0.061-9.427,2.299-9.198,9.357
			c0.592,18.131-1.884,15.512,15.895,15.75c6.754,0.092,13.511-0.053,20.261,0.119c4.066,0.104,7.373,1.92,7.197,6.432
			c-0.153,4.006-3.263,5.643-7.029,5.842c-2.331,0.123-4.672,0.094-7.01,0.094c-44.683,0.004-89.368,0.006-134.051,0
			c-2.078,0-4.16,0.031-6.232-0.092c-3.753-0.223-6.882-1.826-7.029-5.842c-0.166-4.504,3.13-6.363,7.201-6.432
			c9.609-0.158,19.228-0.301,28.833-0.039c5.392,0.145,7.356-1.871,7.258-7.262c-0.387-21.152,2.201-17.625-16.929-17.723
			c-37.148-0.195-74.3-0.285-111.446,0.063c-13.299,0.125-24.831-2.143-31.938-14.785c-0.297-0.527-1.342-0.635-2.04-0.938
			C1.241,240.678,1.241,172.018,1.241,103.358z M200.964,100.236c-56.935,0-113.871-0.016-170.807,0.012
			c-12.475,0.006-16.413,3.89-16.419,16.229c-0.03,59.795-0.027,119.591-0.002,179.386c0.005,12.846,3.802,16.584,16.84,16.586
			c113.612,0.016,227.224,0.016,340.837,0c13.008-0.002,16.804-3.75,16.808-16.616c0.026-59.536,0.024-119.071,0.005-178.607
			c-0.005-13.351-3.695-16.979-17.233-16.984C314.316,100.227,257.64,100.236,200.964,100.236z M201.217,324.967
			c0-0.01,0-0.018,0-0.025c-2.591,0-5.181-0.057-7.769,0.008c-19.818,0.508-17.205-4.039-17.465,18.645
			c-0.054,4.725,1.937,6.432,6.505,6.346c8.802-0.168,17.611,0.135,26.412-0.064c19.325-0.439,16.889,4.355,17.054-19.008
			c0.03-4.334-1.879-6.031-6.094-5.938C213.648,325.07,207.431,324.967,201.217,324.967z"/>
		<path fill-rule="evenodd" clip-rule="evenodd" fill="#FDBC1C" d="M200.964,100.236c56.676,0,113.353-0.009,170.028,0.006
			c13.538,0.005,17.229,3.633,17.233,16.984c0.02,59.536,0.021,119.071-0.005,178.607c-0.004,12.866-3.8,16.614-16.808,16.616
			c-113.613,0.016-227.225,0.016-340.837,0c-13.038-0.002-16.835-3.74-16.84-16.586c-0.024-59.795-0.027-119.591,0.002-179.386
			c0.006-12.339,3.944-16.223,16.419-16.229C87.093,100.22,144.029,100.236,200.964,100.236z M368.986,299.259
			c-17.677-14.626-34.541-28.436-51.199-42.491c-3.185-2.689-4.604-1.345-6.876,0.965c-9.263,9.424-9.335,9.354-18.88-0.197
			c-0.735-0.736-1.386-1.592-2.223-2.184c-4.96-3.52-5.316-7.216-2.822-13.059c25.126-58.881-16.342-125.712-80.088-129.537
			c-59.689-3.584-106.866,48.158-98.248,107.753c9.179,63.474,80.147,99.008,136.541,67.988c6.041-3.323,8.794-2.155,12.891,2.124
			c4.247,4.441,7.698,9.379,15.668,9.774c11.53,0.569,19.789-2.559,26.237-12.13c3.302-4.904,8.19-8.707,11.891-13.383
			c2.921-3.691,4.993-3.074,8.127-0.291c6.6,5.859,14.088,10.805,20.2,17.105C348.115,299.849,357.237,301.387,368.986,299.259z"/>
		<path fill-rule="evenodd" clip-rule="evenodd" fill="#2678B9" d="M368.986,299.259c-11.749,2.128-20.871,0.59-28.781-7.562
			c-6.112-6.301-13.601-11.246-20.2-17.105c-3.134-2.783-5.206-3.4-8.127,0.291c-3.7,4.676-8.589,8.479-11.891,13.383
			c-6.448,9.571-14.707,12.699-26.237,12.13c-7.97-0.396-11.421-5.333-15.668-9.774c-4.097-4.279-6.85-5.447-12.891-2.124
			c-56.394,31.021-127.362-4.514-136.541-67.988c-8.619-59.596,38.559-111.337,98.248-107.753
			c63.747,3.825,105.214,70.656,80.088,129.537c-2.494,5.843-2.138,9.539,2.822,13.059c0.837,0.592,1.487,1.447,2.223,2.184
			c9.545,9.551,9.617,9.621,18.88,0.197c2.271-2.31,3.691-3.654,6.876-0.965C334.445,270.823,351.31,284.633,368.986,299.259z
			 M282.104,206.273c-0.046-44.895-36.277-81.062-81.195-81.048c-44.866,0.014-81.091,36.297-81.052,81.182
			c0.039,44.849,36.285,81.032,81.208,81.065C245.845,287.51,282.15,251.132,282.104,206.273z M292.916,276.838
			c0.06-1.537-14.123-15.832-15.553-15.537c-0.663,0.135-1.325,0.717-1.797,1.262c-4.337,5.002-11.363,9.718-12.011,15.18
			c-0.462,3.883,7.665,8.814,12.029,13.209c0.823,0.826,1.911,1.584,3.012,1.885C279.509,293.084,292.878,277.875,292.916,276.838z"
			/>
		<path fill-rule="evenodd" clip-rule="evenodd" fill="#FDBC1C" d="M282.104,206.273c0.046,44.858-36.26,81.236-81.04,81.199
			c-44.922-0.033-81.169-36.217-81.208-81.065c-0.039-44.884,36.186-81.167,81.052-81.182
			C245.827,125.212,282.059,161.378,282.104,206.273z M185.224,206.353c0,6.495,0.037,12.991-0.018,19.485
			c-0.023,2.586,0.277,4.657,3.649,4.54c6.743-0.233,13.519-0.042,20.228-0.631c4.931-0.433,8.994-3.233,10.457-8.112
			c1.542-5.152,1.409-10.513-3.475-14.131c-2.35-1.742-2.725-2.465-0.841-5.163c5.92-8.48,2.431-17.38-7.726-19.206
			c-6.062-1.09-12.415-0.541-18.634-0.8c-3.359-0.141-3.685,1.934-3.662,4.53C185.259,193.361,185.222,199.858,185.224,206.353z
			 M174.623,230.322c4.415,0.504,5.259-1.221,3.972-4.991c-4.428-12.962-8.876-25.924-12.899-39.015
			c-1.128-3.671-3.165-3.983-6.245-4.087c-3.278-0.113-5.185,0.795-6.262,4.169c-4.166,13.054-8.568,26.034-12.928,39.026
			c-1.189,3.542-0.523,5.09,3.695,5.099c4.046,0.006,5.65-1.783,6.052-5.364c0.632-5.623,4.739-5.218,8.633-4.864
			c3.931,0.357,9.224-2.158,10.176,4.899C169.244,228.36,170.572,231.362,174.623,230.322z M226.395,206.776
			c-0.26,3.529,0.079,7.699,1.276,11.698c2.199,7.333,8.934,12.453,16.882,12.785c7.559,0.313,13.935-2.104,17.236-9.425
			c0.974-2.158,3.9-5.646-0.513-7.057c-2.718-0.869-6.68-1.934-7.748,3.412c-0.808,4.034-4.099,5.606-8.27,5.545
			c-4.317-0.063-6.674-2.481-8.105-6.108c-2.473-6.271-1.981-12.851-1.003-19.224c0.652-4.246,2.099-8.806,7.799-9.343
			c5.074-0.479,8.586,1.372,10.012,6.477c1.338,4.798,5.38,2.822,7.727,2.234c3.222-0.808,1.365-3.794,0.622-5.852
			c-3.036-8.395-13.263-12.691-22.694-9.604C230.207,185.395,226.431,192.196,226.395,206.776z"/>
		<path fill-rule="evenodd" clip-rule="evenodd" fill="#FDBC1C" d="M292.916,276.838c-0.038,1.037-13.407,16.246-14.319,15.998
			c-1.101-0.301-2.188-1.059-3.012-1.885c-4.364-4.395-12.491-9.326-12.029-13.209c0.647-5.462,7.674-10.178,12.011-15.18
			c0.472-0.545,1.134-1.127,1.797-1.262C278.793,261.006,292.976,275.301,292.916,276.838z"/>
		<path fill-rule="evenodd" clip-rule="evenodd" fill="#2678B9" d="M185.222,206.353c0-6.495,0.037-12.991-0.02-19.486
			c-0.022-2.597,0.303-4.671,3.662-4.53c6.219,0.259,12.572-0.29,18.634,0.8c10.157,1.826,13.646,10.725,7.726,19.206
			c-1.883,2.697-1.508,3.421,0.841,5.163c4.884,3.618,5.017,8.979,3.475,14.131c-1.463,4.878-5.526,7.679-10.457,8.112
			c-6.709,0.589-13.485,0.397-20.228,0.631c-3.372,0.117-3.672-1.954-3.649-4.54C185.26,219.344,185.224,212.847,185.222,206.353z
			 M194.702,215.901c-0.675,4.706-0.382,8.253,6.042,7.606c4.921-0.497,9.979-0.571,10.174-6.917
			c0.213-6.914-4.986-7.064-10.282-7.45C195.012,208.73,193.795,211.212,194.702,215.901z M194.518,194.148
			c0.266,4.713-1.25,9.297,4.965,8.489c4.073-0.527,8.939-0.436,9.162-6.199c0.235-6.092-4.45-6.589-9.044-7.159
			C194.32,188.624,194.28,191.83,194.518,194.148z"/>
		<path fill-rule="evenodd" clip-rule="evenodd" fill="#2678B9" d="M174.623,230.322c-4.051,1.04-5.379-1.962-5.806-5.127
			c-0.952-7.057-6.245-4.542-10.176-4.899c-3.894-0.354-8.001-0.759-8.633,4.864c-0.402,3.581-2.006,5.37-6.052,5.364
			c-4.219-0.009-4.885-1.558-3.695-5.099c4.36-12.993,8.762-25.973,12.928-39.026c1.077-3.374,2.983-4.282,6.262-4.169
			c3.081,0.104,5.117,0.416,6.245,4.087c4.023,13.09,8.472,26.052,12.899,39.015C179.882,229.102,179.038,230.826,174.623,230.322z
			 M164.737,211.976c-1.604-5.078-3.162-10.009-5.274-16.692c-2.122,6.699-3.662,11.566-5.245,16.566
			C157.825,212.981,161.092,212.764,164.737,211.976z"/>
		<path fill-rule="evenodd" clip-rule="evenodd" fill="#2678B9" d="M226.395,206.776c0.036-14.58,3.813-21.381,13.221-24.461
			c9.432-3.087,19.658,1.208,22.694,9.604c0.743,2.057,2.6,5.044-0.622,5.852c-2.347,0.588-6.389,2.564-7.727-2.234
			c-1.426-5.105-4.938-6.955-10.012-6.477c-5.7,0.537-7.146,5.097-7.799,9.343c-0.979,6.373-1.47,12.953,1.003,19.224
			c1.432,3.627,3.788,6.045,8.105,6.108c4.171,0.061,7.462-1.512,8.27-5.545c1.068-5.346,5.03-4.281,7.748-3.412
			c4.413,1.411,1.486,4.899,0.513,7.057c-3.302,7.321-9.678,9.739-17.236,9.425c-7.948-0.332-14.683-5.452-16.882-12.785
			C226.474,214.475,226.135,210.305,226.395,206.776z"/>
		<path fill-rule="evenodd" clip-rule="evenodd" fill="#FDBC1C" d="M194.702,215.901c-0.907-4.688,0.31-7.171,5.934-6.761
			c5.295,0.386,10.495,0.537,10.282,7.45c-0.195,6.346-5.253,6.42-10.174,6.917C194.32,224.154,194.027,220.607,194.702,215.901z"/>
		<path fill-rule="evenodd" clip-rule="evenodd" fill="#FDBC1C" d="M194.518,194.148c-0.237-2.318-0.198-5.524,5.083-4.869
			c4.594,0.57,9.279,1.067,9.044,7.159c-0.222,5.764-5.088,5.672-9.162,6.199C193.268,203.445,194.783,198.861,194.518,194.148z"/>
		<path fill-rule="evenodd" clip-rule="evenodd" fill="#FDBC1C" d="M164.737,211.976c-3.645,0.788-6.912,1.006-10.519-0.126
			c1.583-5,3.123-9.867,5.245-16.566C161.575,201.967,163.133,206.898,164.737,211.976z"/>
	</g>
</g>
</svg>
