<?xml version="1.0" encoding="utf-8"?>
<!-- Generator: Adobe Illustrator 16.0.0, SVG Export Plug-In . SVG Version: 6.00 Build 0)  -->
<!DOCTYPE svg PUBLIC "-//W3C//DTD SVG 1.1//EN" "http://www.w3.org/Graphics/SVG/1.1/DTD/svg11.dtd">
<svg version="1.1" id="Layer_1" xmlns="http://www.w3.org/2000/svg" xmlns:xlink="http://www.w3.org/1999/xlink" x="0px" y="0px"
	 width="450px" height="450px" viewBox="0 0 450 450" enable-background="new 0 0 450 450" xml:space="preserve">
<g>
	<path fill-rule="evenodd" clip-rule="evenodd" fill="#F9F9FA" d="M443.87,45.271c4.167,41.407,1.439,82.922,1.777,124.378
		c0.52,64.598,0.113,129.206,0,193.81c-0.049,29.214-10.925,39.947-40.579,39.962c-121.504,0.059-243.012,0.016-364.511,0.084
		c-7.786,0.005-15.307-0.955-22.604-3.639c-2.419-1.826-4.828-3.653-7.247-5.484c-1.841-2.517-3.683-5.034-5.519-7.551
		C2.44,379.51,2,371.909,2.005,364.168C2.068,264.082,2.068,163.997,2,63.902c-0.005-7.311,0.573-14.465,2.909-21.423l0.093-0.225
		c0.519-0.705,1.043-1.41,1.562-2.115c3.795-3.658,7.59-7.316,11.385-10.974c0.984-0.637,1.963-1.269,2.948-1.905l-0.034,0.108
		c13.368-3.663,27.158-1.293,40.673-2.796c4.299-0.029,8.599-0.059,12.898-0.088c12.834,0.029,25.669,0.059,38.508,0.088
		c4.299-0.029,8.599-0.059,12.898-0.088c12.834,0.029,25.669,0.059,38.508,0.088c4.299-0.029,8.599-0.059,12.898-0.088
		c12.83,0.029,25.669,0.059,38.508,0.088c4.299-0.029,8.594-0.059,12.894-0.088c12.834,0.029,25.674,0.059,38.513,0.088
		c4.3-0.029,8.599-0.059,12.894-0.088c12.834,0.029,25.674,0.059,38.513,0.088c4.3-0.029,8.599-0.059,12.894-0.088
		c12.834,0.029,25.674,0.059,38.513,0.088c4.3-0.029,8.594-0.059,12.894-0.088c12.707,0.558,25.414,1.121,38.121,1.68
		c1.729,0.392,3.457,0.783,5.186,1.175C433.519,31.892,439.478,37.803,443.87,45.271z M79.692,101.867
		c-12.795-0.088-25.586-0.088-38.371-0.289c-7.487-0.117-11.777,2.713-9.745,10.714c3.006,11.802,1.058,23.789,1.895,35.659
		c-0.074,5.146-0.147,10.293-0.221,15.439c0.074,11.987,0.147,23.975,0.221,35.967c-0.074,5.146-0.147,10.293-0.221,15.435
		c0.074,11.993,0.147,23.98,0.221,35.972c-0.074,5.146-0.147,10.288-0.221,15.435c0.074,11.992,0.147,23.979,0.216,35.972
		c-0.069,5.146-0.147,10.288-0.216,15.435c0.074,11.992,0.147,23.979,0.216,35.972c0.044,5.278-1.352,10.782,2.365,15.508
		c11.698,4.945,23.994,1.244,35.952,2.468c5.146-0.068,10.288-0.142,15.43-0.215c11.997,0.073,23.984,0.146,35.977,0.215
		c5.146-0.068,10.288-0.142,15.43-0.215c11.997,0.073,23.984,0.146,35.972,0.22c5.151-0.073,10.293-0.146,15.435-0.22
		c11.992,0.073,23.984,0.146,35.972,0.22c5.146-0.073,10.293-0.146,15.435-0.22c11.997,0.073,23.984,0.146,35.977,0.215
		c5.146-0.068,10.288-0.142,15.43-0.215c11.997,0.073,23.984,0.146,35.977,0.215c5.146-0.068,10.288-0.142,15.43-0.215
		c11.997,0.073,23.984,0.146,35.972,0.22c33.661,0.025,33.661,0.025,33.475-33.444c-0.059-12.036-0.117-24.077-0.171-36.109
		c0.054-5.103,0.112-10.2,0.171-15.298c-0.059-12.035-0.117-24.077-0.171-36.108c0.054-5.098,0.112-10.2,0.171-15.298
		c-0.059-12.036-0.117-24.077-0.171-36.108c0.059-5.098,0.112-10.2,0.171-15.297c-0.059-12.037-0.117-24.073-0.171-36.109
		c0.054-5.098,0.112-10.2,0.171-15.298c0.005-5.896-0.382-11.825,0.098-17.682c0.789-9.696-2.864-14.451-12.957-13.148
		c-3.418-0.005-6.835-0.005-10.253-0.01c-3.845-8.755-3.78-20.929-18.03-20.562c-5.093,0.064-10.186,0.118-15.278,0.177
		c-12.046-0.059-24.087-0.113-36.128-0.177c-15.905-4.118-21.928,7.257-28.318,18.069c-4.334-16.066-15.449-19.92-30.776-18.407
		c-11.351,1.117-23.054,1.499-34.326,0.064c-17.344-2.213-28.68,2.904-32.539,20.792c0,0,0.024-0.083,0.024-0.078
		c-4.235,0.112-8.471,0.225-12.707,0.343c-12.898-0.073-25.796-0.142-38.699-0.211c-4.236,0.069-8.472,0.138-12.707,0.211
		c-12.898-0.073-25.796-0.142-38.699-0.211C88.164,101.725,83.923,101.794,79.692,101.867z M145.025,83.367
		c9,0.23,18.246-8.428,18.681-17.486c0.436-9.005-8.016-18.099-17.31-18.627c-10.151-0.578-19.156,7.771-19.195,17.795
		C127.167,74.078,135.985,83.142,145.025,83.367z M97.869,47.415c-9.52-0.206-18.294,8.29-18.255,17.682
		c0.029,9.201,9.137,18.167,18.285,18.005c8.716-0.156,17.261-8.56,17.599-17.315C115.87,56.469,107.378,47.625,97.869,47.415z
		 M50.968,83.382c9.044-0.362,18.069-9.979,17.643-18.804c-0.451-9.431-9.284-17.472-18.917-17.227
		c-10.019,0.259-17.702,8.437-17.295,18.402C32.791,75.214,41.776,83.749,50.968,83.382z"/>
	<path fill-rule="evenodd" clip-rule="evenodd" fill="#E5E7EA" d="M33.472,302.17c-0.074-11.992-0.147-23.979-0.221-35.972
		c1.381-1.004,2.919-1.842,4.113-3.031c50.721-50.628,101.413-101.295,152.114-151.942c2.752-2.752,5.274-5.611,5.729-9.705
		c0,0-0.024,0.083-0.02,0.083c13.711,0.02,27.422,0.029,41.138,0.044c-25.914,26.345-51.852,52.675-77.727,79.059
		c-3.819,3.893-8.555,7.179-9.7,13.084c-23,8.545-39.208,24.225-49.021,46.627c-0.666,1.842-1.332,3.678-2.008,5.523l0.107,0.02
		c-12.129,2.963-17.403,14.265-26.046,21.463C58.646,278.479,49.352,293.968,33.472,302.17z"/>
	<path fill-rule="evenodd" clip-rule="evenodd" fill="#E5E7EA" d="M413.521,199.19c0.054,12.031,0.112,24.072,0.171,36.104
		c-14.945,14.519-30.101,28.832-44.801,43.601c-30.619,30.757-61.004,61.758-91.486,92.661c-11.987-0.073-23.975-0.146-35.972-0.22
		c0.916-5.499,5.112-8.712,8.702-12.301c50.343-50.383,100.717-100.751,151.104-151.105
		C404.828,204.347,408.041,200.155,413.521,199.19z"/>
	<path fill-rule="evenodd" clip-rule="evenodd" fill="#E5E7EA" d="M33.472,250.764c-0.074-11.992-0.147-23.979-0.221-35.972
		c35.786-35.428,71.591-70.827,107.269-106.358c1.675-1.675,2.213-4.49,3.281-6.777c12.903,0.069,25.801,0.138,38.694,0.206
		c-0.891,5-4.583,8.07-7.894,11.385c-43.229,43.244-86.462,86.477-129.706,129.706C41.585,246.264,38.5,249.945,33.472,250.764z"/>
	<path fill-rule="evenodd" clip-rule="evenodd" fill="#E5E7EA" d="M328.811,371.557c-11.987-0.073-23.975-0.146-35.972-0.22
		c0.734-4.53,3.858-7.487,6.895-10.514c34.43-34.429,68.858-68.858,103.288-103.292c3.026-3.027,5.979-6.16,10.499-6.935
		c0.054,12.031,0.112,24.073,0.171,36.104C384.32,313.912,356.066,342.235,328.811,371.557z"/>
	<path fill-rule="evenodd" clip-rule="evenodd" fill="#E5E7EA" d="M33.472,199.357c-0.074-11.992-0.147-23.979-0.221-35.972
		c16.013-15.596,32.104-31.109,47.989-46.828c4.412-4.368,10.058-7.982,11.155-14.901c12.903,0.069,25.801,0.138,38.699,0.206
		c-0.729,3.986-3.296,6.792-6.028,9.524c-27.354,27.333-54.697,54.677-82.031,82.025C40.303,196.149,37.477,198.691,33.472,199.357z
		"/>
	<path fill-rule="evenodd" clip-rule="evenodd" fill="#E5E7EA" d="M400.832,101.656c10.093-1.302,13.746,3.452,12.957,13.148
		c-0.479,5.856-0.093,11.786-0.098,17.682c-14.999,14.568-29.836,29.298-45.061,43.626c-6.747,6.346-11.713,14.896-21.202,18.049
		c-3.78-7.418-7.552-14.837-11.332-22.251c16.826-20.542,37.084-37.745,55.271-56.964C395.133,110.965,400,107.738,400.832,101.656z
		"/>
	<path fill-rule="evenodd" clip-rule="evenodd" fill="#E5E7EA" d="M372.549,81.09c14.25-0.372,14.186,11.802,18.03,20.557
		c-19.588,21.595-40.075,42.279-61.808,61.719c-6.816-4.618-13.628-9.235-20.439-13.853c1.445-5.764,6.215-8.976,10.01-12.883
		C336.371,118.075,354.47,99.595,372.549,81.09z"/>
	<path fill-rule="evenodd" clip-rule="evenodd" fill="#E5E7EA" d="M33.472,353.576c-0.074-11.992-0.147-23.979-0.221-35.972
		c8.325-7.903,16.502-15.969,25.003-23.671c12.879-11.659,23.04-26.232,38.087-35.561c-0.235,11.302,1.606,22.339,4.191,33.288
		c-18.759,15.41-34.502,33.93-52.106,50.534C43.857,346.5,40.317,352.234,33.472,353.576z"/>
	<path fill-rule="evenodd" clip-rule="evenodd" fill="#E5E7EA" d="M413.521,147.784c0.054,12.036,0.112,24.072,0.171,36.109
		c-18.789,18.358-37.559,36.736-56.377,55.059c-3.893,3.795-7.198,8.545-13.344,9.069c2.063-7.728,4.133-15.449,6.195-23.177
		c2.668-4.995,2.59-10.023,0.2-15.092c-0.137-1.753-0.274-3.501-0.416-5.254c16.952-9.818,27.711-26.354,42.195-38.846
		C399.173,159.585,403.883,150.727,413.521,147.784z"/>
	<path fill-rule="evenodd" clip-rule="evenodd" fill="#DBDEE2" d="M343.971,248.021c6.146-0.524,9.451-5.274,13.344-9.069
		c18.818-18.323,37.588-36.701,56.377-55.059c-0.059,5.097-0.112,10.2-0.171,15.297c-5.479,0.965-8.692,5.156-12.281,8.741
		c-50.388,50.354-100.762,100.722-151.104,151.105c-3.59,3.589-7.786,6.802-8.702,12.301c-5.142,0.073-10.288,0.146-15.435,0.22
		c24.2-24.615,48.414-49.217,72.575-73.867c4.123-4.207,9.26-7.796,9.788-14.465C323.522,274.821,335.108,262.795,343.971,248.021z"
		/>
	<path fill-rule="evenodd" clip-rule="evenodd" fill="#E5E7EA" d="M321.143,81.09c12.041,0.059,24.082,0.113,36.128,0.167
		c-11.526,19.332-30.379,31.868-44.884,48.434c-4.427,5.049-10.724,8.697-11.997,16.096c-12.614-2.801-25.453-3.197-38.303-3.486
		C281.772,121.895,301.457,101.495,321.143,81.09z"/>
	<path fill-rule="evenodd" clip-rule="evenodd" fill="#E5E7EA" d="M71.779,371.557c-11.953-1.229-24.249,2.473-35.947-2.473
		c21.673-24.425,45.437-46.779,68.785-69.539c5.382,6.816,10.768,13.633,16.15,20.444C104.44,337.177,88.11,354.369,71.779,371.557z
		"/>
	<path fill-rule="evenodd" clip-rule="evenodd" fill="#E5E7EA" d="M308.361,283.225c-0.528,6.669-5.665,10.258-9.788,14.465
		c-24.161,24.65-48.375,49.252-72.575,73.867c-11.987-0.073-23.979-0.146-35.972-0.22c5.935-13.995,20.057-20.919,28.392-32.843
		c28.626-4.838,50.373-18.721,61.386-46.711c0.598-0.567,0.921-1.258,0.984-2.081C290.4,289.335,299.317,286.016,308.361,283.225z"
		/>
	<path fill-rule="evenodd" clip-rule="evenodd" fill="#E5E7EA" d="M413.521,302.003c0.054,12.032,0.112,24.073,0.171,36.104
		c-12.198,10.111-23.318,21.296-33.475,33.449c-11.987-0.073-23.975-0.146-35.972-0.22c0.906-5.45,5.059-8.647,8.608-12.208
		c15.832-15.89,31.673-31.761,47.582-47.563C404.295,307.732,407.619,303.08,413.521,302.003z"/>
	<path fill-rule="evenodd" clip-rule="evenodd" fill="#DBDEE2" d="M33.472,250.764c5.029-0.818,8.114-4.5,11.424-7.811
		c43.244-43.229,86.477-86.462,129.706-129.706c3.31-3.315,7.002-6.385,7.894-11.385c4.241-0.113,8.477-0.226,12.712-0.343
		c-0.455,4.094-2.977,6.953-5.729,9.705C138.777,161.872,88.085,212.539,37.364,263.167c-1.194,1.189-2.732,2.027-4.113,3.031
		C33.325,261.052,33.398,255.91,33.472,250.764z"/>
	<path fill-rule="evenodd" clip-rule="evenodd" fill="#CDD3DD" d="M236.325,101.646c-13.716-0.015-27.427-0.024-41.138-0.044
		c3.854-17.888,15.19-23.005,32.534-20.792c11.272,1.435,22.976,1.053,34.326-0.064c15.327-1.513,26.442,2.341,30.781,18.407
		c-1.699,0.828-3.398,1.66-5.103,2.492c-13.647,0.064-27.294,0.128-40.946,0.196C243.293,101.774,239.807,101.71,236.325,101.646z"
		/>
	<path fill-rule="evenodd" clip-rule="evenodd" fill="#DBDEE2" d="M413.521,250.597c-4.521,0.774-7.473,3.907-10.499,6.935
		c-34.43,34.434-68.858,68.863-103.288,103.292c-3.036,3.026-6.16,5.983-6.895,10.514c-5.142,0.073-10.283,0.146-15.43,0.22
		c30.478-30.903,60.862-61.904,91.481-92.661c14.7-14.769,29.855-29.082,44.801-43.601
		C413.633,240.396,413.574,245.499,413.521,250.597z"/>
	<path fill-rule="evenodd" clip-rule="evenodd" fill="#E5E7EA" d="M123.186,371.557c-11.987-0.073-23.975-0.146-35.972-0.22
		c3.521-10.602,13.554-15.689,20.106-23.726c6.268-7.697,16.062-12.511,18.843-23.059c8.946,5.289,18.422,9.412,28.264,12.731
		C145.843,350.379,132.19,358.85,123.186,371.557z"/>
	<path fill-rule="evenodd" clip-rule="evenodd" fill="#DBDEE2" d="M33.472,199.357c4.005-0.666,6.831-3.208,9.563-5.945
		c27.333-27.349,54.677-54.692,82.031-82.025c2.732-2.732,5.298-5.539,6.028-9.524c4.235-0.068,8.471-0.137,12.707-0.206
		c-1.067,2.287-1.606,5.103-3.281,6.777c-35.678,35.531-71.483,70.93-107.269,106.358C33.325,209.65,33.398,204.503,33.472,199.357z
		"/>
	<path fill-rule="evenodd" clip-rule="evenodd" fill="#E5E7EA" d="M174.592,371.557c-11.987-0.073-23.975-0.146-35.972-0.22
		c5.935-13.99,20.042-20.925,28.392-32.828c12.839,0,25.679,0,38.513,0C195.217,349.526,184.904,360.539,174.592,371.557z"/>
	<path fill-rule="evenodd" clip-rule="evenodd" fill="#E5E7EA" d="M33.472,147.951c-0.837-11.87,1.111-23.857-1.895-35.659
		c-2.032-8.001,2.257-10.831,9.745-10.714c12.785,0.201,25.576,0.201,38.366,0.284C67.137,120.088,51.834,135.552,33.472,147.951z"
		/>
	<path fill-rule="evenodd" clip-rule="evenodd" fill="#34B8E7" d="M145.025,83.367c-9.04-0.226-17.858-9.289-17.824-18.319
		c0.039-10.024,9.044-18.373,19.195-17.795c9.294,0.529,17.746,9.622,17.31,18.627C163.271,74.939,154.025,83.597,145.025,83.367z"
		/>
	<path fill-rule="evenodd" clip-rule="evenodd" fill="#EC4E46" d="M97.869,47.415c9.509,0.21,18,9.054,17.628,18.373
		c-0.338,8.755-8.883,17.159-17.599,17.315c-9.147,0.162-18.255-8.804-18.285-18.005C79.575,55.705,88.35,47.209,97.869,47.415z"/>
	<path fill-rule="evenodd" clip-rule="evenodd" fill="#DBDEE2" d="M413.521,302.003c-5.901,1.077-9.226,5.729-13.085,9.563
		c-15.909,15.802-31.75,31.673-47.582,47.563c-3.55,3.561-7.702,6.758-8.608,12.208c-5.142,0.073-10.283,0.146-15.43,0.22
		c27.251-29.321,55.505-57.645,84.876-84.855C413.633,291.803,413.574,296.9,413.521,302.003z"/>
	<path fill-rule="evenodd" clip-rule="evenodd" fill="#DBDEE2" d="M104.617,299.545c-23.348,22.76-47.112,45.114-68.785,69.539
		c-3.717-4.726-2.321-10.229-2.365-15.508c6.851-1.342,10.391-7.076,14.959-11.381c17.604-16.604,33.347-35.124,52.106-50.534
		C101.894,294.286,103.255,296.916,104.617,299.545z"/>
	<path fill-rule="evenodd" clip-rule="evenodd" fill="#DBDEE2" d="M300.39,145.781c1.273-7.394,7.57-11.042,11.997-16.091
		c14.505-16.565,33.357-29.102,44.884-48.434c5.093-0.054,10.186-0.108,15.278-0.172c-18.079,18.51-36.178,36.99-54.207,55.544
		c-3.795,3.908-8.564,7.12-10.005,12.883C305.688,148.274,303.044,147.025,300.39,145.781z"/>
	<path fill-rule="evenodd" clip-rule="evenodd" fill="#DBDEE2" d="M328.771,163.366c21.732-19.44,42.22-40.125,61.808-61.719
		c3.418,0.005,6.835,0.005,10.253,0.01c-0.832,6.082-5.699,9.309-9.465,13.29c-18.187,19.22-38.444,36.422-55.271,56.964
		C333.653,169.061,331.21,166.216,328.771,163.366z"/>
	<path fill-rule="evenodd" clip-rule="evenodd" fill="#DBDEE2" d="M413.521,147.784c-9.638,2.943-14.348,11.801-21.375,17.868
		c-14.484,12.492-25.243,29.028-42.195,38.846c-0.843-3.442-1.68-6.895-2.521-10.337c9.489-3.154,14.455-11.704,21.202-18.049
		c15.225-14.328,30.062-29.058,45.061-43.626C413.633,137.584,413.574,142.687,413.521,147.784z"/>
	<path fill-rule="evenodd" clip-rule="evenodd" fill="#DBDEE2" d="M96.341,258.373c-15.048,9.328-25.208,23.901-38.087,35.561
		c-8.5,7.702-16.678,15.768-25.003,23.671c0.069-5.146,0.147-10.288,0.216-15.435c15.885-8.202,25.179-23.691,38.464-34.748
		c8.643-7.198,13.917-18.5,26.046-21.463C97.428,250.098,96.885,254.235,96.341,258.373z"/>
	<path fill-rule="evenodd" clip-rule="evenodd" fill="#DBDEE2" d="M287.727,101.646c1.704-0.832,3.403-1.665,5.103-2.492
		c6.386-10.812,12.408-22.188,28.313-18.069c-19.686,20.41-39.37,40.81-59.056,61.215c-4.289,0-8.579,0-12.868,0
		C262.058,128.75,274.897,115.201,287.727,101.646z"/>
	<path fill-rule="evenodd" clip-rule="evenodd" fill="#FAC813" d="M50.968,83.382c-9.191,0.367-18.177-8.168-18.568-17.628
		c-0.407-9.965,7.276-18.143,17.295-18.402c9.632-0.245,18.466,7.795,18.917,17.227C69.037,73.402,60.012,83.02,50.968,83.382z
		 M58.709,65.288c-0.563-5.034-3.109-9.015-8.486-9.074c-5.303-0.068-8.525,3.663-8.677,8.942c-0.167,5.813,3.643,8.177,9.03,8.045
		C55.473,73.079,58.386,70.562,58.709,65.288z"/>
	<path fill-rule="evenodd" clip-rule="evenodd" fill="#DBDEE2" d="M33.472,147.951c18.363-12.399,33.665-27.863,46.216-46.088
		c4.235-0.068,8.476-0.137,12.707-0.206c-1.097,6.919-6.743,10.533-11.155,14.901c-15.885,15.719-31.976,31.231-47.989,46.828
		C33.325,158.244,33.398,153.097,33.472,147.951z"/>
	<path fill-rule="evenodd" clip-rule="evenodd" fill="#DBDEE2" d="M126.163,324.553c-2.781,10.548-12.575,15.361-18.843,23.059
		c-6.552,8.036-16.585,13.124-20.106,23.726c-5.142,0.073-10.283,0.146-15.43,0.22c16.326-17.188,32.656-34.38,48.982-51.567
		C122.563,321.512,124.36,323.035,126.163,324.553z"/>
	<path fill-rule="evenodd" clip-rule="evenodd" fill="#DBDEE2" d="M380.217,371.557c10.156-12.153,21.276-23.338,33.475-33.449
		C413.878,371.582,413.878,371.582,380.217,371.557z"/>
	<path fill-rule="evenodd" clip-rule="evenodd" fill="#DBDEE2" d="M174.592,371.557c10.313-11.018,20.625-22.03,30.933-33.048
		c4.3-0.005,8.594-0.01,12.894-0.015c-8.334,11.924-22.457,18.848-28.392,32.843C184.885,371.41,179.743,371.483,174.592,371.557z"
		/>
	<path fill-rule="evenodd" clip-rule="evenodd" fill="#DBDEE2" d="M167.012,338.509c-8.349,11.903-22.457,18.838-28.392,32.828
		c-5.142,0.073-10.283,0.146-15.43,0.22c9-12.707,22.652-21.178,31.236-34.272C158.618,337.691,162.815,338.103,167.012,338.509z"/>
	<path fill-rule="evenodd" clip-rule="evenodd" fill="#FAC813" d="M167.012,338.509c-4.197-0.406-8.394-0.817-12.585-1.225
		c-9.842-3.319-19.318-7.442-28.264-12.731c-1.802-1.518-3.599-3.041-5.396-4.563c-5.382-6.812-10.768-13.628-16.15-20.444
		c-1.361-2.629-2.723-5.259-4.084-7.884c-2.585-10.949-4.426-21.986-4.191-33.288c0.543-4.138,1.087-8.275,1.635-12.414l-0.107-0.02
		c1.973-1.371,2.184-3.378,2.008-5.523c9.813-22.402,26.021-38.082,49.026-46.627c5.964-0.866,11.923-1.738,17.888-2.609
		c11.111,0.005,22.231,0.01,33.347,0.015c4.451,0.015,8.902,0.024,13.349,0.039c27.642,0.901,47.626,14.964,63.125,36.735
		c2.297,6.664,4.588,13.329,6.885,19.994c-10.558,2.017-21.14,1.748-31.731,0.338c-7.923-16.229-20.052-25.993-38.915-25.993
		c-9.808,0-19.758,0.353-29.385-1.166c-14.411-2.272-27.285,0.999-38.959,8.741c-26.09,17.3-23.872,61.019,4.98,73.162
		c27.109,11.409,57.435,12.78,83.309-0.661c15.973-8.3,30.565-10.522,47.009-10.602c-11.013,27.99-32.76,41.873-61.386,46.711
		c-4.299,0.005-8.594,0.01-12.894,0.015C192.69,338.509,179.851,338.509,167.012,338.509z"/>
	<path fill-rule="evenodd" clip-rule="evenodd" fill="#DBDEE2" d="M166.791,191.18c-5.964,0.871-11.923,1.743-17.888,2.609
		c1.141-5.905,5.876-9.191,9.695-13.084c25.875-26.384,51.813-52.714,77.727-79.059c3.481,0.064,6.968,0.128,10.45,0.191
		c-6.219,13.623-19.455,21.012-28.509,32.103c-2.659,3.256-8.633,5.293-5.034,11.395
		C191.946,154.737,174.288,167.817,166.791,191.18z"/>
	<path fill-rule="evenodd" clip-rule="evenodd" fill="#DBDEE2" d="M99.877,240.416c0.176,2.146-0.035,4.152-2.008,5.523
		C98.545,244.094,99.211,242.258,99.877,240.416z"/>
	<path fill-rule="evenodd" clip-rule="evenodd" fill="#EC4E46" d="M166.791,191.18c7.497-23.363,25.155-36.442,46.441-45.844
		c11.884-2.365,23.931-2.713,35.986-3.036c4.289,0,8.579,0,12.868,0c12.85,0.289,25.688,0.686,38.303,3.486
		c2.654,1.239,5.299,2.488,7.947,3.727c6.807,4.618,13.618,9.235,20.435,13.853c2.438,2.85,4.882,5.695,7.325,8.545
		c3.78,7.414,7.552,14.833,11.332,22.251c0.842,3.442,1.679,6.895,2.521,10.337c0.142,1.753,0.279,3.501,0.416,5.254
		c-0.068,5.029-0.132,10.063-0.2,15.092c-2.063,7.728-4.133,15.449-6.195,23.177c-8.862,14.773-20.448,26.8-35.609,35.203
		c-9.044,2.791-17.961,6.11-27.573,6.478c-15.714,0.069-31.433,0.128-47.146,0.187c-23.137-1.019-41.314-11.807-56.425-28.632
		c-3.545-6.106-7.09-12.207-10.631-18.309c-0.808-3.306-1.616-6.606-2.424-9.911c10.352-0.094,20.694-0.191,31.045-0.289
		c6.405,15.831,18.804,23.539,35.11,26.154c15.748,2.521,31.383-0.984,47.136-0.534c23.045,0.651,41.016-15.151,43.532-36.525
		c2.645-22.496-10.89-42.567-33.082-48.228c-18.069-4.608-36.491-2.512-54.785-1.675c-14.21,0.651-25.067,7.556-32.985,19.254
		C189.022,191.189,177.902,191.185,166.791,191.18z"/>
	<path fill-rule="evenodd" clip-rule="evenodd" fill="#DBDEE2" d="M350.166,224.845c0.068-5.029,0.132-10.063,0.2-15.092
		C352.756,214.821,352.834,219.85,350.166,224.845z"/>
	<path fill-rule="evenodd" clip-rule="evenodd" fill="#F3AE1E" d="M233.642,289.889c15.714-0.059,31.433-0.117,47.146-0.187
		c-0.063,0.823-0.387,1.514-0.984,2.081c-16.443,0.079-31.036,2.302-47.009,10.602c-25.875,13.441-56.2,12.07-83.309,0.661
		c-28.852-12.144-31.07-55.862-4.98-73.162c11.674-7.742,24.548-11.013,38.959-8.741c9.627,1.518,19.577,1.166,29.385,1.166
		c18.863,0,30.992,9.764,38.915,25.993c-3.501,0.078-7.002,0.156-10.498,0.239c-7.973-13.079-19.857-17.506-34.586-15.659
		c-3.824-0.045-7.654-0.089-11.473-0.133c-10.352,0.098-20.694,0.195-31.045,0.289c-17.208,2.953-25.419,13.936-27.294,30.575
		c0,11.938,3.937,21.835,14.641,28.216c2.845,1.664,5.528,4.353,8.56,4.838c20.566,3.29,41.226,2.952,61.807,0.117
		C226.443,296.151,230.518,293.557,233.642,289.889z"/>
	<path fill-rule="evenodd" clip-rule="evenodd" fill="#E5E7EA" d="M249.219,142.3c-12.056,0.323-24.102,0.671-35.986,3.036
		c-3.6-6.102,2.375-8.139,5.034-11.395c9.054-11.091,22.291-18.48,28.509-32.103c13.657-0.063,27.304-0.127,40.951-0.191
		C274.897,115.201,262.058,128.75,249.219,142.3z"/>
	<path fill-rule="evenodd" clip-rule="evenodd" fill="#FCD55C" d="M58.709,65.288c-0.323,5.274-3.237,7.791-8.133,7.913
		c-5.387,0.132-9.196-2.232-9.03-8.045c0.152-5.279,3.374-9.01,8.677-8.942C55.6,56.273,58.146,60.254,58.709,65.288z"/>
	<path fill-rule="evenodd" clip-rule="evenodd" fill="#CC3533" d="M241.267,248.54c3.496-0.083,6.997-0.161,10.498-0.239
		c10.592,1.41,21.174,1.679,31.731-0.338c22.422-4.001,32.69-24.734,23.039-46.52c-4.779-11.224-13.49-17.228-25.419-18.246
		c-16.551-1.41-33.146-1.439-49.712-0.107c-6.895,0.559-13.354,2.331-17.917,8.144c-4.446-0.015-8.897-0.024-13.349-0.039
		c7.913-11.699,18.77-18.603,32.98-19.254c18.294-0.837,36.716-2.933,54.785,1.675c22.192,5.661,35.727,25.732,33.082,48.228
		c-2.517,21.374-20.487,37.177-43.532,36.525c-15.753-0.45-31.388,3.056-47.136,0.534c-16.307-2.615-28.705-10.323-35.11-26.154
		c3.819,0.044,7.649,0.088,11.473,0.133C214.471,246.356,226.263,250.993,241.267,248.54z"/>
	<path fill-rule="evenodd" clip-rule="evenodd" fill="#DBDEE2" d="M213.487,191.233c4.564-5.813,11.022-7.585,17.917-8.144
		c16.565-1.332,33.161-1.303,49.712,0.107c11.929,1.019,20.64,7.022,25.419,18.246c-9.975,8.843-19.944,17.682-29.924,26.525
		C261.113,206.198,241.129,192.134,213.487,191.233z"/>
	<path fill-rule="evenodd" clip-rule="evenodd" fill="#E5E7EA" d="M276.611,227.969c9.979-8.844,19.949-17.682,29.924-26.525
		c9.651,21.785-0.617,42.519-23.039,46.52C281.199,241.298,278.908,234.633,276.611,227.969z"/>
	<path fill-rule="evenodd" clip-rule="evenodd" fill="#DBDEE2" d="M233.642,289.889c-3.124,3.668-7.198,6.263-11.767,6.895
		c-20.581,2.835-41.241,3.173-61.807-0.117c-3.031-0.485-5.714-3.174-8.56-4.838c7.012-11.503,20.723-17.369,25.708-30.571
		C192.328,278.082,210.505,288.87,233.642,289.889z"/>
	<path fill-rule="evenodd" clip-rule="evenodd" fill="#E5E7EA" d="M177.216,261.257c-4.985,13.202-18.696,19.068-25.708,30.571
		c-10.705-6.381-14.641-16.277-14.641-28.216c5.401-1.209,8.334-5.7,12.129-9.063c5.303-4.706,9.099-11.723,17.589-11.601
		C170.126,249.05,173.671,255.15,177.216,261.257z"/>
	<path fill-rule="evenodd" clip-rule="evenodd" fill="#DBDEE2" d="M166.585,242.948c-8.491-0.122-12.286,6.895-17.589,11.601
		c-3.795,3.363-6.728,7.854-12.129,9.063c1.875-16.64,10.087-27.622,27.294-30.575C164.97,236.342,165.777,239.643,166.585,242.948z
		"/>
	<path fill-rule="evenodd" clip-rule="evenodd" fill="#DBDEE2" d="M241.267,248.54c-15.004,2.453-26.795-2.184-34.586-15.659
		C221.41,231.034,233.294,235.461,241.267,248.54z"/>
</g>
</svg>
