<?xml version="1.0" encoding="utf-8"?>
<!-- Generator: Adobe Illustrator 16.0.0, SVG Export Plug-In . SVG Version: 6.00 Build 0)  -->
<!DOCTYPE svg PUBLIC "-//W3C//DTD SVG 1.1//EN" "http://www.w3.org/Graphics/SVG/1.1/DTD/svg11.dtd">
<svg version="1.1" id="Layer_1" xmlns="http://www.w3.org/2000/svg" xmlns:xlink="http://www.w3.org/1999/xlink" x="0px" y="0px"
	 width="450px" height="450px" viewBox="0 0 450 450" enable-background="new 0 0 450 450" xml:space="preserve">
<g>
	<path fill-rule="evenodd" clip-rule="evenodd" fill="#FFFFFF" d="M224.304,2.223c43.335,0,86.688-0.61,130.014,0.181
		c40.013,0.729,76.495,33.217,83.477,72.589c1.206,6.809,1.745,13.675,1.749,20.567c0.031,57.673-0.088,115.346,0.066,173.014
		c0.063,22.892-5.846,43.68-20.598,61.424c-17.683,21.274-40.455,32.7-68.211,33.283c-18.742,0.394-37.503,0.248-56.25-0.008
		c-4.538-0.058-5.496,1.355-5.452,5.646c0.212,22.463,0.022,44.93,0.15,67.397c0.03,5.253-1.437,9.45-6.296,11.823
		c-5.24,2.563-9.438,0.385-13.441-3.154c-29.664-26.259-59.426-52.411-89.038-78.723c-2.479-2.204-4.878-2.942-8.05-2.929
		c-23.7,0.093-47.409,0.114-71.113,0.03c-51.805-0.186-91.641-39.173-92.008-90.916C8.878,212.66,8.927,152.862,9.293,93.069
		C9.581,46.274,42.387,9.155,88.466,2.625c5.046-0.711,10.242-0.548,15.367-0.557c40.154-0.04,80.312-0.021,120.471-0.021
		C224.304,2.104,224.304,2.166,224.304,2.223z M266.72,413.58c1.626-2.072,1.007-3.896,1.012-5.563
		c0.058-17.691,0.022-35.382,0.044-53.073c0.009-9.53,3.513-12.946,13.189-12.95c20.519-0.004,41.042-0.018,61.561,0.004
		c5.483,0.005,10.927-0.247,16.396-0.9c31.004-3.703,58.287-32.4,58.561-63.717c0.539-62.794,0.592-125.601,0.04-188.395
		c-0.313-35.625-31.856-65.383-67.646-65.392c-83.674-0.018-167.345-0.009-251.019,0.014c-2.47,0-4.962,0.075-7.405,0.393
		c-36.558,4.834-61.057,36.302-60.651,70.862c0.685,58.366,0.181,116.75,0.212,175.125c0.004,4.586-0.172,9.194,0.725,13.75
		c7.012,35.705,34.326,58.194,70.831,58.242c24.765,0.036,49.529,0.182,74.299-0.105c6.097-0.066,10.746,1.661,15.234,5.722
		c16.666,15.058,33.571,29.851,50.404,44.718C250.526,399.402,258.586,406.444,266.72,413.58z"/>
	<path fill-rule="evenodd" clip-rule="evenodd" fill="#243E7F" d="M266.72,413.58c-8.134-7.136-16.193-14.178-24.213-21.266
		c-16.833-14.867-33.738-29.66-50.404-44.718c-4.489-4.061-9.137-5.788-15.234-5.722c-24.77,0.287-49.534,0.142-74.299,0.105
		c-36.504-0.048-63.819-22.537-70.831-58.242c-0.897-4.556-0.72-9.164-0.725-13.75c-0.031-58.375,0.473-116.759-0.212-175.125
		c-0.406-34.56,24.093-66.028,60.651-70.862c2.443-0.318,4.935-0.393,7.405-0.393c83.674-0.022,167.345-0.031,251.019-0.014
		c35.789,0.009,67.332,29.767,67.646,65.392c0.552,62.793,0.499,125.601-0.04,188.395c-0.273,31.316-27.557,60.014-58.561,63.717
		c-5.47,0.653-10.913,0.905-16.396,0.9c-20.519-0.021-41.042-0.008-61.561-0.004c-9.677,0.004-13.181,3.42-13.189,12.95
		c-0.021,17.691,0.014,35.382-0.044,53.073C267.727,409.684,268.346,411.508,266.72,413.58z M303.321,164.73
		c-3.005,0-6.018,0.08-9.018-0.018c-5.147-0.159-8.917,1.714-10.622,6.844c-1.732,5.196,0.508,8.881,4.556,11.846
		c4.979,3.649,9.901,7.396,15.031,10.838c2.615,1.754,3.375,3.34,2.183,6.504c-2.293,6.044-3.889,12.349-5.987,18.473
		c-1.586,4.617-0.504,8.439,3.15,11.369c3.933,3.146,8.227,2.951,12.226,0.021c5.063-3.698,10.043-7.524,14.938-11.439
		c2.466-1.961,4.568-2.518,7.33-0.349c4.855,3.813,10.017,7.229,14.947,10.953c4.206,3.173,8.501,4.365,13.096,1.056
		c4.6-3.305,4.856-7.82,3.217-12.773c-1.988-6.018-3.835-12.084-5.974-18.041c-0.87-2.425-0.367-3.799,1.714-5.235
		c5.382-3.707,10.543-7.728,15.911-11.439c4.36-3.018,5.965-7.162,4.414-11.965c-1.498-4.652-5.24-6.795-10.282-6.685
		c-6.181,0.132-12.389-0.23-18.552,0.142c-3.787,0.229-5.147-1.251-6.089-4.662c-1.688-6.097-3.897-12.049-5.912-18.058
		c-1.498-4.48-4.479-7.047-9.345-7.148c-5.165-0.11-8.191,2.744-9.875,7.277c-1.157,3.132-2.103,6.349-3.137,9.526
		C317.022,164.717,317.022,164.717,303.321,164.73z M82.762,164.717c-2.828,0-5.66,0.119-8.483-0.026
		c-5.289-0.27-9.406,1.343-11.306,6.676c-1.75,4.913-0.212,8.567,5.222,12.566c4.984,3.663,9.919,7.383,15.031,10.852
		c2.156,1.467,2.572,2.96,1.75,5.311c-1.979,5.651-3.809,11.351-5.664,17.037c-2.112,6.464-1.202,10.927,2.929,13.754
		c4.882,3.345,9.266,1.896,13.569-1.418c4.613-3.557,9.508-6.747,14.077-10.356c2.421-1.913,4.198-2.183,6.756-0.137
		c4.82,3.853,10.012,7.237,14.925,10.98c4.281,3.261,8.646,4.034,13.096,0.676c4.264-3.212,4.653-7.613,3.084-12.38
		c-1.926-5.85-3.769-11.731-5.863-17.519c-1.052-2.916-0.57-4.635,2.191-6.419c5.329-3.451,10.277-7.48,15.464-11.152
		c4.352-3.08,5.7-7.304,4.029-12.066c-1.533-4.375-5.072-6.518-9.923-6.407c-5.833,0.133-11.682-0.229-17.497,0.115
		c-4.303,0.256-6.619-0.813-7.697-5.426c-1.387-5.969-3.729-11.727-5.704-17.563c-1.454-4.303-4.418-6.689-9.018-6.839
		c-4.843-0.155-8.068,2.213-9.751,6.627c-1.255,3.287-2.271,6.663-3.371,10.003C96.304,164.673,96.304,164.673,82.762,164.717z
		 M193.26,164.726c-3.004,0-6.014,0.11-9.014-0.022c-5.373-0.234-9.296,1.674-11.001,7.061c-1.652,5.236,0.795,8.859,4.794,11.788
		c4.555,3.336,9.026,6.831,13.79,9.853c3.517,2.231,4.684,4.418,2.952,8.585c-2.289,5.51-3.663,11.391-5.66,17.028
		c-1.71,4.842-0.49,8.797,3.402,11.757c4.007,3.053,8.227,2.59,12.234-0.331c5.284-3.845,10.706-7.521,15.809-11.59
		c2.426-1.935,4.061-1.709,6.341,0.075c4.727,3.694,9.645,7.149,14.522,10.648c5.382,3.866,9.518,4.242,13.547,1.153
		c4.484-3.442,4.613-7.971,2.969-12.88c-1.952-5.845-3.817-11.713-5.832-17.532c-0.848-2.439-0.618-4.065,1.79-5.668
		c5.58-3.721,10.908-7.812,16.343-11.744c4.136-2.991,5.303-7.188,3.747-11.713c-1.502-4.383-5.032-6.57-9.87-6.5
		c-6.544,0.093-13.097-0.181-19.627,0.11c-3.11,0.137-4.334-1.074-5.165-3.809c-1.992-6.566-4.118-13.096-6.385-19.573
		c-1.493-4.282-4.674-6.464-9.287-6.464c-4.639,0-7.679,2.364-9.292,6.526c-1.334,3.441-2.395,6.994-3.543,10.507
		C206.657,164.712,206.666,164.712,193.26,164.726z"/>
	<path fill-rule="evenodd" clip-rule="evenodd" fill="#FBCF43" d="M303.321,164.73c13.701-0.013,13.701-0.013,17.921-12.963
		c1.034-3.177,1.979-6.394,3.137-9.526c1.684-4.533,4.71-7.387,9.875-7.277c4.865,0.102,7.847,2.668,9.345,7.148
		c2.015,6.009,4.225,11.961,5.912,18.058c0.941,3.411,2.302,4.891,6.089,4.662c6.163-0.372,12.371-0.009,18.552-0.142
		c5.042-0.11,8.784,2.032,10.282,6.685c1.551,4.803-0.054,8.947-4.414,11.965c-5.368,3.712-10.529,7.732-15.911,11.439
		c-2.081,1.436-2.584,2.81-1.714,5.235c2.139,5.956,3.985,12.022,5.974,18.041c1.64,4.953,1.383,9.468-3.217,12.773
		c-4.595,3.31-8.89,2.117-13.096-1.056c-4.931-3.725-10.092-7.14-14.947-10.953c-2.762-2.169-4.864-1.612-7.33,0.349
		c-4.896,3.915-9.875,7.741-14.938,11.439c-3.999,2.93-8.293,3.124-12.226-0.021c-3.654-2.93-4.736-6.752-3.15-11.369
		c2.099-6.124,3.694-12.429,5.987-18.473c1.192-3.164,0.433-4.75-2.183-6.504c-5.13-3.442-10.052-7.188-15.031-10.838
		c-4.048-2.965-6.288-6.65-4.556-11.846c1.705-5.13,5.475-7.003,10.622-6.844C297.304,164.81,300.316,164.73,303.321,164.73z"/>
	<path fill-rule="evenodd" clip-rule="evenodd" fill="#FBCF43" d="M82.762,164.721c13.542-0.048,13.542-0.048,17.846-13.118
		c1.1-3.341,2.116-6.716,3.371-10.003c1.684-4.414,4.909-6.782,9.751-6.627c4.6,0.15,7.564,2.536,9.018,6.839
		c1.975,5.836,4.317,11.594,5.704,17.563c1.078,4.613,3.394,5.682,7.697,5.426c5.815-0.345,11.665,0.018,17.497-0.115
		c4.851-0.11,8.39,2.033,9.923,6.407c1.67,4.763,0.323,8.986-4.029,12.066c-5.188,3.671-10.136,7.701-15.464,11.152
		c-2.762,1.785-3.243,3.503-2.191,6.419c2.094,5.788,3.937,11.669,5.863,17.519c1.569,4.767,1.18,9.168-3.084,12.38
		c-4.449,3.358-8.814,2.585-13.096-0.676c-4.913-3.743-10.105-7.127-14.925-10.98c-2.558-2.045-4.334-1.776-6.756,0.137
		c-4.568,3.609-9.464,6.8-14.077,10.356c-4.303,3.313-8.687,4.763-13.569,1.418c-4.131-2.827-5.041-7.29-2.929-13.754
		c1.855-5.687,3.685-11.386,5.664-17.037c0.822-2.351,0.407-3.844-1.75-5.311c-5.112-3.468-10.047-7.189-15.031-10.852
		c-5.435-3.999-6.972-7.653-5.222-12.566c1.9-5.333,6.018-6.945,11.306-6.676C77.102,164.836,79.934,164.717,82.762,164.721z"/>
	<path fill-rule="evenodd" clip-rule="evenodd" fill="#FBCF43" d="M193.26,164.721c13.405-0.009,13.396-0.009,17.563-12.729
		c1.148-3.513,2.209-7.065,3.543-10.507c1.613-4.162,4.652-6.526,9.292-6.526c4.613,0,7.794,2.183,9.287,6.464
		c2.267,6.477,4.393,13.007,6.385,19.573c0.831,2.735,2.055,3.946,5.165,3.809c6.53-0.292,13.083-0.018,19.627-0.11
		c4.838-0.071,8.368,2.116,9.87,6.5c1.556,4.524,0.389,8.722-3.747,11.713c-5.435,3.933-10.763,8.023-16.343,11.744
		c-2.408,1.604-2.638,3.229-1.79,5.668c2.015,5.819,3.88,11.687,5.832,17.532c1.645,4.909,1.516,9.438-2.969,12.88
		c-4.029,3.089-8.165,2.713-13.547-1.153c-4.878-3.499-9.796-6.954-14.522-10.648c-2.28-1.785-3.915-2.01-6.341-0.075
		c-5.103,4.069-10.524,7.745-15.809,11.59c-4.007,2.921-8.227,3.384-12.234,0.331c-3.893-2.96-5.112-6.915-3.402-11.757
		c1.997-5.638,3.371-11.519,5.66-17.028c1.732-4.167,0.565-6.354-2.952-8.585c-4.763-3.022-9.234-6.517-13.79-9.853
		c-3.999-2.929-6.446-6.552-4.794-11.788c1.706-5.386,5.629-7.294,11.001-7.061C187.247,164.836,190.256,164.726,193.26,164.721z"/>
</g>
</svg>
