<?xml version="1.0" encoding="utf-8"?>
<!-- Generator: Adobe Illustrator 16.0.0, SVG Export Plug-In . SVG Version: 6.00 Build 0)  -->
<!DOCTYPE svg PUBLIC "-//W3C//DTD SVG 1.1//EN" "http://www.w3.org/Graphics/SVG/1.1/DTD/svg11.dtd">
<svg version="1.1" id="Layer_1" xmlns="http://www.w3.org/2000/svg" xmlns:xlink="http://www.w3.org/1999/xlink" x="0px" y="0px"
	 width="450px" height="450px" viewBox="0 0 450 450" enable-background="new 0 0 450 450" xml:space="preserve">
<g>
	<path fill-rule="evenodd" clip-rule="evenodd" fill="#84C88D" d="M134.04,442.209c-13.323-35.147-26.663-70.29-39.97-105.445
		C74.489,285.03,54.962,233.277,35.312,181.568c-1.993-5.243-2.66-10.075-0.704-15.639c4.495-12.79,6.934-26.242,12.11-38.842
		c1.12,4.675,2.239,9.347,3.358,14.02c0.135,2.971-0.346,6.038,1.35,8.769c0.491,7.505,1.37,14.949,3.596,22.174
		c0.227,2.23,0.454,4.459,0.682,6.69c0.479,7.684,6.643,11.083,11.605,15.387c1.263,2.159,2.909,3.925,5.189,5.036
		c3.711,4.986,8.269,9.076,13.352,12.608c1.084,1.042,2.165,2.087,3.246,3.131c4.688,4.531,9.377,9.06,14.065,13.589
		c0.529,1.224,1.059,2.446,1.587,3.669c-4.043-1.936-7.476-2.347-9.273,3.02c-1.427,4.27-7.415,7.847-0.277,12.872
		c4.685,3.299,2.249,11.941-3.489,12.604c-5.741,0.664-6.24,3.764-5.918,8.133c0.309,4.198-1.605,8.977,5.484,10.29
		c6.546,1.213,8.498,9.06,3.452,13.163c-3.92,3.188-3.848,5.892-1.133,9.24c2.545,3.138,2.707,9.105,9.718,6.863
		c7.437-2.376,12.581,3.001,9.824,10.296c-2.583,6.837,3.416,6.719,6.279,8.892c2.693,2.046,6.108,5.325,9.109,0.07
		c2.088-3.652,4.956-3.979,8.722-2.797c3.283,1.029,5.748,2.189,5.49,6.237c-0.321,5.044,3.198,5.619,6.811,4.971
		c3.811-0.688,9.163,3.027,10.833-4.473c1.845-8.264,8.154-9.528,14.58-3.483c1.467,1.383,2.339,2.668,4.949,1.796
		c7.756-2.592,10.356-6.592,8.749-14.384c-0.215-1.041,0.23-2.22,0.371-3.332c0.478,0.063,0.956,0.108,1.437,0.137
		c1.731,1.645,3.466,3.292,5.197,4.938c3.886,4.851,8.066,9.389,13.432,12.668c1.131,1.081,2.264,2.161,3.395,3.24
		c4.003,3.899,8.008,7.796,12.012,11.695c1.774,1.682,3.551,3.36,5.326,5.041c3.529,4.493,7.478,8.554,12.181,11.837
		c0.886,1.902,2.39,3.136,4.277,3.956c4.094,4.016,8.188,8.032,12.281,12.047c5.935,5.171,11.208,3.574,16.174-1.549
		c11.164-11.516,22.347-23.016,33.521-34.522c2.444,6.353,4.914,12.694,7.323,19.059c4.401,11.624,2.693,15.287-9.233,19.825
		c-26.987,10.267-53.971,20.544-80.972,30.771c-23.027,8.722-46.112,17.284-69.039,26.256
		C156.342,437.536,136.345,448.291,134.04,442.209z M160.48,341.805c-3.61,4.114-12.313,1.501-10.15,10.55
		c0.642,2.693-1.723,3.997-3.997,4.679c-8.775,2.63-10.711,7.57-5.589,15.027c1.302,1.896,1.556,3.593,0.673,5.525
		c-4.227,9.271-2.793,12.534,6.62,14.966c2.367,0.613,3.91,1.901,4.427,4.518c1.571,7.913,7.549,9.969,14.622,5.116
		c1.779-1.222,3.693-1.552,5.646-0.712c9.963,4.288,12.501,3.137,14.909-6.867c0.52-2.162,2.02-3.241,4.079-3.864
		c8.688-2.628,10.583-7.737,5.447-15.003c-1.541-2.179-1.577-4.123-0.297-6.271c4.466-7.482,2.154-12.622-6.59-14.404
		c-2.86-0.584-5.126-1.987-4.591-5.001c0.795-4.481-2.747-4.565-5.029-6.473C173.826,337.875,166.525,353.78,160.48,341.805z"/>
	<path fill-rule="evenodd" clip-rule="evenodd" fill="#8193AB" d="M394.259,233.132c-4.341,6.338-9.39,12.039-14.75,17.559
		c-31.641,32.595-63.479,65.013-94.452,98.235c-8.871,9.518-18.616,18.308-26.489,28.769c5.935,5.173,11.208,3.576,16.174-1.547
		c11.164-11.516,22.347-23.016,33.521-34.522c29.276-30.867,58.545-61.741,87.864-92.568
		C396.127,249.057,402.518,243.764,394.259,233.132"/>
	<path fill-rule="evenodd" clip-rule="evenodd" fill="#C2C7D1" d="M31.188,19.992c-3.26-1.121-3.369-7.019-8.359-5.517
		c0-10.266,0-10.266,13.688-10.266c0.127,4.062,0.127,4.062,6.831,11.992C38.936,16.319,34.62,16.739,31.188,19.992z"/>
	<path fill-rule="evenodd" clip-rule="evenodd" fill="#8597B0" d="M85.849,211.772c-5.081-3.534-9.639-7.624-13.35-12.61
		c1.26-1.53,2.403-3.181,3.8-4.58c43.923-43.965,87.868-87.91,131.833-131.833c1.396-1.394,3.058-2.528,4.595-3.783
		c4.58,3.352,8.538,7.345,12.11,11.741c-7.655,9.752-17.216,17.666-25.684,26.633c-2.486,2.635-5.594,4.875-5.21,9.131
		c-15.911,3.201-26.591,15.605-27.328,32.426c-0.357,8.224,0.094,16.484,0.234,24.729c0.11,6.366-2.075,11.719-7.001,15.79
		c-5.016,4.147-11.786,2.043-13.422-4.102c-1.134-4.257,1.569-7.153,4.104-9.724c3.437-3.487,2.615-5.743-0.431-9.185
		c-5.258-5.943-9.162-5.33-12.978,1.078c-2.172,3.646-4.308,7.313-6.459,10.969c-1.3,0.501-2.951,0.652-3.85,1.554
		C113.056,183.827,98.434,196.803,85.849,211.772z"/>
	<path fill-rule="evenodd" clip-rule="evenodd" fill="#8597B0" d="M242.009,361.693c-4.703-3.283-8.651-7.344-12.181-11.837
		c2.256-2.546,4.389-5.218,6.787-7.62c41.688-41.737,83.402-83.45,125.136-125.141c2.608-2.604,5.44-4.987,8.169-7.474
		c4.616,3.377,8.684,7.327,12.246,11.796c-1.852,2.148-3.572,4.428-5.571,6.43c-42.711,42.76-85.448,85.495-128.206,128.21
		C246.387,358.059,244.141,359.82,242.009,361.693z"/>
	<path fill-rule="evenodd" clip-rule="evenodd" fill="#8597B0" d="M67.31,194.126c-4.962-4.304-11.126-7.703-11.605-15.387
		c3.739-0.54,5.701-3.557,8.067-5.923c41.587-41.532,83.144-83.089,124.676-124.676c1.99-1.992,3.686-4.277,5.519-6.426
		c5.483,3.029,9.497,7.686,13.57,12.272c-1.27,1.526-2.429,3.163-3.826,4.563c-43.915,43.953-87.849,87.888-131.806,131.799
		C70.509,191.744,68.847,192.873,67.31,194.126z"/>
	<path fill-rule="evenodd" clip-rule="evenodd" fill="#8597B0" d="M224.502,344.815c-4.003-3.899-8.008-7.796-12.01-11.695
		c2.431-2.771,4.717-5.685,7.315-8.287c41.637-41.699,83.325-83.352,124.963-125.053c2.395-2.397,4.46-5.123,6.679-7.696
		c5.229,4.07,10.036,8.583,14.318,13.646c-3.528,1.532-5.784,4.581-8.386,7.18c-41.752,41.707-83.467,83.451-125.224,125.152
		C229.754,340.462,227.061,342.57,224.502,344.815z"/>
	<path fill-rule="evenodd" clip-rule="evenodd" fill="#8597B0" d="M209.095,329.88c-5.365-3.279-9.545-7.817-13.432-12.668
		c0.237-3.49,2.914-5.373,5.076-7.551c9.18-9.236,18.409-18.422,27.608-27.637c2.383-2.388,5.202-4.538,4.906-8.481
		c9.559,0.506,16.682-3.958,22.921-10.747c11.289-12.287,22.81-24.362,34.217-36.544c4.924-5.259,8.687-11.146,9.761-18.448
		c8.956-3.895,13.688-12.568,20.891-18.442c4.992-4.074,8.049-10.478,14.867-12.344c3.988,2.8,7.385,6.212,10.374,10.045
		c-0.461,4.455-4.065,6.707-6.82,9.465c-41.211,41.283-82.478,82.511-123.7,123.782C212.993,323.083,209.521,325.44,209.095,329.88z
		"/>
	<path fill-rule="evenodd" clip-rule="evenodd" fill="#8597B0" d="M55.022,172.05c-2.226-7.225-3.104-14.668-3.594-22.174
		c1.569-1.203,3.297-2.246,4.682-3.629c34.348-34.288,68.66-68.61,102.979-102.929c1.803-1.805,3.766-3.512,4.05-6.296
		c1.182,0.109,2.361,0.217,3.542,0.328c1.255,0.297,2.509,0.595,3.766,0.896c5.026,0.174,10.139-0.417,14.931,1.752
		c-0.308,4.179-3.643,6.291-6.199,8.854c-39,39.061-78.031,78.088-117.092,117.091C59.89,168.137,57.385,170.021,55.022,172.05z"/>
	<path fill-rule="evenodd" clip-rule="evenodd" fill="#8597B0" d="M394.259,233.132c-4.341,6.338-9.39,12.039-14.75,17.559
		c-31.641,32.595-63.479,65.013-94.452,98.235c-8.871,9.518-18.616,18.308-26.489,28.769c-4.094-4.013-8.188-8.029-12.277-12.047
		c2.787-2.421,5.728-4.682,8.33-7.281c41.745-41.678,83.438-83.406,125.178-125.089c2.401-2.399,5.102-4.501,7.661-6.743
		C390.202,228.245,392.491,230.417,394.259,233.132z"/>
	<path fill-rule="evenodd" clip-rule="evenodd" fill="#8597B0" d="M300.101,142.748c4.505,3.392,8.519,7.29,12.052,11.683
		c-9.188,9.819-18.374,19.639-27.561,29.458c-9.629-3.683-18.74-2.851-26.04,4.69c-14.047,14.51-27.808,29.303-41.401,44.237
		c-6.426,7.063-8.037,15.49-4.613,24.63c-15.26,10.511-26.966,24.694-39.417,38.108c-2.102-1.518-4.202-3.034-6.303-4.552
		c-2.339-2.696-4.675-5.394-7.014-8.092c10.263-10.52,20.51-21.056,30.799-31.552c2.588-2.64,5.454-5.071,5.032-9.312
		c3.247-2.904,6.491-5.81,9.736-8.714c4.322,0.101,6.456-3.272,9.022-5.827c17.376-17.3,34.597-34.757,52.07-51.958
		C277.623,164.563,288.011,152.78,300.101,142.748z"/>
	<path fill-rule="evenodd" clip-rule="evenodd" fill="#8597B0" d="M50.077,141.107c-1.12-4.673-2.239-9.345-3.358-14.02
		c-0.057-2.727-0.112-5.456-0.167-8.184c11.408-5.44,17.783-16.471,26.997-24.351c1.865-1.594,2.373-3.818,2.301-6.195
		c15.885-0.866,22.063-6.71,23.828-22.536c13.076-8.535,23.609-19.643,32.665-32.249c2.463-0.333,4.889-0.374,7.148,0.904
		c0.602,0.124,1.2,0.25,1.801,0.377c4.513,0.174,9.126-0.541,13.432,1.494c-0.319,3.778-3.139,5.908-5.525,8.292
		c-30.282,30.308-60.574,60.605-90.89,90.88C55.936,137.886,53.906,140.847,50.077,141.107z"/>
	<path fill-rule="evenodd" clip-rule="evenodd" fill="#8597B0" d="M248.504,93.233c3.988,2.854,7.5,6.199,10.48,10.099
		c-0.22,3.139-2.412,5.042-4.428,7.058c-22.367,22.367-44.734,44.738-67.107,67.099c-2.206,2.206-4.246,4.749-7.883,4.404
		c5.674-11.609,3.852-23.957,3.643-36.164c-0.114-6.583-0.169-13.227,4.929-18.444c3.354-3.432,6.939-6.436,11.838-2.777
		c5.008,3.739,4.819,8.341,0.714,12.393c-3.963,3.911-1.74,5.895,1.153,8.89c4.999,5.178,8.568,5.106,12.536-1.178
		c4.931-7.81,6.882-15.564,2.174-24.09c7.067-2.538,10.459-9.343,15.94-13.721C237.963,102.434,241.237,95.477,248.504,93.233z"/>
	<path fill-rule="evenodd" clip-rule="evenodd" fill="#8193AB" d="M179.566,181.893c3.638,0.344,5.678-2.199,7.883-4.404
		c22.373-22.361,44.74-44.732,67.107-67.099c2.016-2.015,4.208-3.918,4.428-7.058c2.834,1.791,5.191,4.077,7.073,6.854
		c-3.751,0.288-5.788,3.155-8.192,5.457c-7.679,7.358-15.345,14.73-23.018,22.097c-2.703,2.495-5.561,4.842-8.084,7.509
		c-20.756,21.937-41.451,43.933-62.165,65.91c-15.121,10.729-27.078,24.71-39.372,38.344c-2.099-0.852-3.681-2.275-4.747-4.273
		c13.369-13.624,26.762-27.225,40.089-40.889c2.518-2.583,5.986-4.653,5.776-9.022C171.289,191.37,175.749,186.948,179.566,181.893z
		"/>
	<path fill-rule="evenodd" clip-rule="evenodd" fill="#8193AB" d="M67.31,194.126c1.537-1.253,3.2-2.383,4.595-3.778
		c43.957-43.911,87.891-87.846,131.806-131.799c1.397-1.4,2.557-3.038,3.826-4.563c1.729,1.659,3.459,3.32,5.19,4.981
		c-1.537,1.255-3.198,2.389-4.595,3.783c-43.965,43.923-87.91,87.868-131.833,131.833c-1.397,1.398-2.54,3.049-3.8,4.58
		C70.219,198.051,68.573,196.285,67.31,194.126z"/>
	<path fill-rule="evenodd" clip-rule="evenodd" fill="#8193AB" d="M387.459,226.534c-2.56,2.242-5.26,4.344-7.661,6.743
		c-41.739,41.683-83.433,83.411-125.178,125.089c-2.603,2.6-5.543,4.86-8.33,7.281c-1.892-0.818-3.396-2.052-4.281-3.954
		c2.132-1.873,4.378-3.635,6.38-5.636c42.758-42.715,85.495-85.45,128.206-128.21c1.999-2.002,3.72-4.281,5.571-6.43
		C383.93,223.124,385.694,224.83,387.459,226.534z"/>
	<path fill-rule="evenodd" clip-rule="evenodd" fill="#8193AB" d="M224.502,344.815c2.559-2.245,5.252-4.354,7.656-6.753
		c41.757-41.701,83.472-83.445,125.224-125.152c2.602-2.599,4.857-5.647,8.386-7.18c1.384,1.298,2.769,2.595,4.152,3.891
		c-2.729,2.486-5.561,4.869-8.169,7.474c-41.733,41.691-83.448,83.404-125.136,125.141c-2.398,2.402-4.531,5.074-6.787,7.62
		C228.053,348.176,226.276,346.497,224.502,344.815z"/>
	<path fill-rule="evenodd" clip-rule="evenodd" fill="#8193AB" d="M209.095,329.88c0.426-4.439,3.898-6.797,6.668-9.57
		c41.223-41.271,82.489-82.499,123.7-123.782c2.755-2.759,6.359-5.011,6.82-9.465c2.221,1.161,3.927,2.851,5.165,5.022
		c-2.219,2.573-4.284,5.298-6.679,7.696c-41.639,41.701-83.326,83.354-124.963,125.053c-2.598,2.603-4.884,5.517-7.315,8.287
		C211.359,332.041,210.227,330.961,209.095,329.88z"/>
	<path fill-rule="evenodd" clip-rule="evenodd" fill="#8193AB" d="M55.022,172.05c2.362-2.029,4.867-3.913,7.064-6.107
		c39.061-39.002,78.092-78.03,117.092-117.091c2.557-2.563,5.892-4.675,6.199-8.854c2.959,0.089,6.125-0.855,8.588,1.716
		c-1.833,2.148-3.529,4.434-5.519,6.426c-41.532,41.587-83.089,83.145-124.676,124.676c-2.366,2.366-4.328,5.384-8.067,5.923
		C55.477,176.509,55.25,174.28,55.022,172.05z"/>
	<path fill-rule="evenodd" clip-rule="evenodd" fill="#8597B0" d="M63.891,38.693c1.517-1.233,3.354-2.222,4.495-3.736
		c4.767-6.324,10.682-8.364,18.603-7.041c12.805,2.137,25.751,3.438,38.636,5.093c-8.609,9.293-16.115,19.761-27.621,25.975
		c-5.343-8.035-12.453-12.78-22.488-11.911c-2.994,0.259-5.415-1.126-7.916-2.368C66.364,42.7,65.127,40.697,63.891,38.693z"/>
	<path fill-rule="evenodd" clip-rule="evenodd" fill="#8193AB" d="M50.077,141.107c3.83-0.261,5.859-3.222,8.23-5.587
		c30.316-30.275,60.608-60.573,90.89-90.88c2.386-2.384,5.207-4.514,5.525-8.292c2.806,0.226,5.612,0.451,8.416,0.675
		c-0.284,2.784-2.247,4.491-4.05,6.296C124.77,77.637,90.458,111.959,56.11,146.247c-1.385,1.383-3.113,2.426-4.682,3.629
		C49.731,147.146,50.212,144.078,50.077,141.107z"/>
	<path fill-rule="evenodd" clip-rule="evenodd" fill="#8193AB" d="M300.101,142.748c-12.09,10.032-22.478,21.814-33.637,32.8
		c-17.474,17.201-34.694,34.658-52.07,51.958c-2.566,2.555-4.7,5.928-9.021,5.827c0.471-1.965-0.947-3.253-1.712-4.775
		c17.305-14.79,32.491-31.742,48.603-47.749c0.906-0.898,1.058-2.56,1.563-3.864c6.604-0.333,8.766-5.888,11.983-10.201
		c4.724-4.444,9.29-9.073,14.212-13.29c5.494-4.708,9.016-11.748,16.524-14.075C297.731,140.502,298.916,141.625,300.101,142.748z"
		/>
	<path fill-rule="evenodd" clip-rule="evenodd" fill="#8597B0" d="M296.545,139.38c-7.509,2.327-11.03,9.367-16.524,14.075
		c-4.922,4.217-9.488,8.845-14.212,13.29c-4.021-3.912-8.044-7.825-12.063-11.736c2.025-2.371,3.996-4.791,6.089-7.101
		c7.058-7.796,15.632-14.162,21.637-22.952C287.031,129.203,292.116,133.948,296.545,139.38z"/>
	<path fill-rule="evenodd" clip-rule="evenodd" fill="#8597B0" d="M234.848,137.739c7.673-7.367,15.339-14.738,23.018-22.097
		c2.404-2.302,4.441-5.169,8.192-5.457c4.546,3.47,8.67,7.378,12.259,11.84c-2.35,1.958-4.771,3.836-7.037,5.891
		c-7.858,7.125-14.34,15.706-23.115,21.863C243.725,145.766,239.285,141.752,234.848,137.739z"/>
	<path fill-rule="evenodd" clip-rule="evenodd" fill="#8597B0" d="M230.196,75.901c3.866,3.631,7.732,7.26,11.597,10.891
		c-7.861,11.293-17.264,21.029-28.823,28.593c-4.07-2.844-8.137-5.688-12.205-8.531C208.288,94.362,219.69,85.557,230.196,75.901z"
		/>
	<path fill-rule="evenodd" clip-rule="evenodd" fill="#8597B0" d="M317.614,159.66c4.268,3.081,8.099,6.624,11.402,10.725
		c-7.633,12.301-18.804,21.211-29.409,30.662c-2.809-6.026-7.147-10.851-12-15.271c3.771-0.367,5.85-3.255,8.347-5.554
		C303.278,173.475,309.387,165.453,317.614,159.66z"/>
	<path fill-rule="evenodd" clip-rule="evenodd" fill="#8193AB" d="M230.196,75.901c-10.506,9.656-21.908,18.461-29.432,30.952
		c-2.274-0.127-4.548-0.254-6.822-0.381c-0.384-4.256,2.724-6.496,5.21-9.131c8.468-8.967,18.028-16.88,25.684-26.633
		C227.119,71.926,228.901,73.664,230.196,75.901z"/>
	<path fill-rule="evenodd" clip-rule="evenodd" fill="#8193AB" d="M299.607,201.047c10.605-9.45,21.776-18.361,29.409-30.662
		c2.8,1.689,5.063,3.937,6.894,6.632c-6.818,1.866-9.875,8.271-14.867,12.344c-7.203,5.875-11.935,14.548-20.891,18.442
		C299.971,205.552,299.79,203.299,299.607,201.047z"/>
	<path fill-rule="evenodd" clip-rule="evenodd" fill="#8193AB" d="M212.97,115.385c11.559-7.564,20.962-17.3,28.823-28.593
		c2.238,2.147,4.474,4.294,6.712,6.441c-7.268,2.244-10.542,9.201-16.013,13.569c-5.48,4.377-8.873,11.183-15.941,13.721
		C215.356,118.81,214.163,117.099,212.97,115.385z"/>
	<path fill-rule="evenodd" clip-rule="evenodd" fill="#8193AB" d="M98.004,58.984c11.505-6.214,19.011-16.682,27.621-25.975
		c2.239,0.189,4.478,0.376,6.717,0.563c-9.056,12.606-19.589,23.714-32.665,32.249C99.119,63.542,98.563,61.263,98.004,58.984z"/>
	<path fill-rule="evenodd" clip-rule="evenodd" fill="#8193AB" d="M248.164,149.779c8.775-6.157,15.257-14.738,23.115-21.863
		c2.266-2.055,4.688-3.933,7.037-5.891c1.053,0.976,2.102,1.953,3.154,2.931c-6.005,8.79-14.579,15.156-21.637,22.952
		c-2.093,2.311-4.063,4.73-6.089,7.101C251.303,153.886,249.588,151.988,248.164,149.779z"/>
	<path fill-rule="evenodd" clip-rule="evenodd" fill="#8193AB" d="M317.614,159.66c-8.228,5.793-14.336,13.814-21.66,20.562
		c-2.497,2.299-4.575,5.187-8.345,5.554c-1.006-0.628-2.012-1.256-3.018-1.886c9.187-9.819,18.373-19.639,27.561-29.458
		C313.974,156.175,315.793,157.917,317.614,159.66z"/>
	<path fill-rule="evenodd" clip-rule="evenodd" fill="#C2C7D1" d="M39.908,29.972c-1.831-2.249-3.662-4.496-5.492-6.744
		c3.296-2.192,7.714-2.095,10.571-5.183c2.396,2.759,4.792,5.516,7.188,8.272C47.748,26.403,43.483,27.034,39.908,29.972z"/>
	<path fill-rule="evenodd" clip-rule="evenodd" fill="#C2C7D1" d="M63.891,38.693c1.236,2.003,2.473,4.007,3.708,6.013
		c-3.16,2.364-6.897,3.19-10.642,3.995c-0.504,0.027-1.009,0.003-1.51-0.07c-1.751-2.262-3.502-4.521-5.253-6.784
		c4.408-0.177,8.757-0.541,12.194-3.817C62.987,38.028,63.488,38.249,63.891,38.693z"/>
	<path fill-rule="evenodd" clip-rule="evenodd" fill="#C2C7D1" d="M48.613,39.917c-1.814-2.179-3.625-4.359-5.44-6.538
		c3.352-2.104,7.903-1.854,10.533-5.369c2.349,1.755,4.085,3.987,5.21,6.692C56.266,37.988,51.199,36.504,48.613,39.917z"/>
	<path fill-rule="evenodd" clip-rule="evenodd" fill="#F5F5F6" d="M53.706,28.01c-2.63,3.514-7.181,3.265-10.533,5.369
		c-1.544-0.698-2.713-1.759-3.265-3.407c3.576-2.938,7.84-3.569,12.268-3.654C52.687,26.88,53.196,27.445,53.706,28.01z"/>
	<path fill-rule="evenodd" clip-rule="evenodd" fill="#F5F5F6" d="M44.987,18.045c-2.857,3.088-7.275,2.991-10.571,5.183
		c-1.656-0.501-2.729-1.584-3.228-3.238c3.432-3.251,7.748-3.671,12.159-3.79C43.893,16.815,44.439,17.43,44.987,18.045z"/>
	<path fill-rule="evenodd" clip-rule="evenodd" fill="#F5F5F6" d="M48.613,39.917c2.586-3.412,7.653-1.928,10.303-5.215
		c1.677,0.57,2.904,1.606,3.472,3.329c-3.437,3.276-7.786,3.641-12.194,3.817C49.666,41.203,49.139,40.56,48.613,39.917z"/>
	<path fill-rule="evenodd" clip-rule="evenodd" fill="#8193AB" d="M170.447,38.246c-1.257-0.301-2.511-0.598-3.766-0.896
		C167.936,37.647,169.19,37.945,170.447,38.246z"/>
	<path fill-rule="evenodd" clip-rule="evenodd" fill="#8193AB" d="M141.291,34.854c-0.602-0.127-1.2-0.254-1.801-0.377
		C140.091,34.602,140.689,34.727,141.291,34.854z"/>
	<path fill-rule="evenodd" clip-rule="evenodd" fill="#8597B0" d="M45.254,111.988c-1.931-7.288-3.233-14.673-3.458-22.227
		c7.672-2.194,10.526-10.441,17.296-13.768c3.081,4.678,6.764,8.73,11.793,11.389C63.33,96.611,55.811,105.883,45.254,111.988z"/>
	<path fill-rule="evenodd" clip-rule="evenodd" fill="#8597B0" d="M55.447,48.631c0.501,0.074,1.006,0.097,1.51,0.07
		c0.635,1.106,1.27,2.212,1.903,3.322c0.598,1.783,1.196,3.565,1.794,5.35c-2.657,4.187-2.13,8.976-2.563,13.583
		c-3.952-0.311-6.023,2.6-8.54,4.859c-2.896,2.6-4.916,6.393-9.28,7.078C33.038,66.028,46.965,58.536,55.447,48.631z"/>
	<path fill-rule="evenodd" clip-rule="evenodd" fill="#8193AB" d="M45.254,111.988c10.557-6.105,18.075-15.376,25.631-24.603
		c1.654,0.324,3.308,0.648,4.964,0.973c0.072,2.377-0.436,4.602-2.301,6.195c-9.214,7.88-15.589,18.911-26.997,24.351
		C44.884,116.83,44.957,114.429,45.254,111.988z"/>
	<path fill-rule="evenodd" clip-rule="evenodd" fill="#8193AB" d="M40.272,82.894c4.364-0.685,6.384-4.478,9.28-7.078
		c2.517-2.259,4.588-5.169,8.54-4.859c0.334,1.679,0.667,3.358,1,5.036c-6.77,3.327-9.624,11.574-17.296,13.768
		C41.288,87.472,40.78,85.183,40.272,82.894z"/>
	<path fill-rule="evenodd" clip-rule="evenodd" fill="#F5F5F6" d="M120.48,245.228c1.066,1.998,2.648,3.422,4.747,4.273
		c1.681,2.028,3.358,4.059,5.036,6.089c-6.954,12.621-5.932,23.686,3.012,32.602c8.835,8.807,20.515,9.784,33.542,2.812
		c2.101,1.518,4.201,3.034,6.303,4.55c1.079,1.067,2.155,2.136,3.233,3.205c4.226,4.459,8.453,8.92,12.677,13.38
		c-0.141,1.112-0.586,2.291-0.371,3.332c1.607,7.792-0.992,11.792-8.749,14.384c-2.61,0.872-3.482-0.413-4.949-1.796
		c-6.426-6.045-12.735-4.78-14.58,3.483c-1.671,7.5-7.022,3.784-10.833,4.473c-3.612,0.648-7.131,0.073-6.811-4.971
		c0.257-4.048-2.207-5.208-5.49-6.237c-3.766-1.183-6.633-0.855-8.722,2.797c-3.001,5.255-6.416,1.976-9.109-0.07
		c-2.864-2.173-8.862-2.055-6.279-8.892c2.757-7.295-2.388-12.672-9.824-10.296c-7.011,2.242-7.173-3.726-9.718-6.863
		c-2.715-3.349-2.787-6.052,1.133-9.24c5.046-4.104,3.094-11.95-3.452-13.163c-7.089-1.313-5.175-6.092-5.484-10.29
		c-0.322-4.369,0.177-7.469,5.918-8.133c5.738-0.663,8.174-9.306,3.489-12.604c-7.138-5.025-1.149-8.603,0.277-12.872
		c1.798-5.366,5.23-4.955,9.275-3.02c1.201,0.47,2.403,0.938,3.604,1.407C112.397,237.453,116.439,241.339,120.48,245.228z"/>
	<path fill-rule="evenodd" clip-rule="evenodd" fill="#F5F5F6" d="M160.48,341.805c6.045,11.976,13.345-3.93,20.179,1.785
		c2.282,1.907,5.825,1.991,5.029,6.473c-0.535,3.014,1.731,4.417,4.591,5.001c8.744,1.782,11.056,6.922,6.59,14.404
		c-1.28,2.148-1.243,4.093,0.297,6.271c5.136,7.266,3.242,12.375-5.447,15.003c-2.059,0.623-3.559,1.702-4.079,3.864
		c-2.408,10.004-4.946,11.155-14.909,6.867c-1.953-0.84-3.867-0.51-5.646,0.712c-7.072,4.853-13.051,2.797-14.622-5.116
		c-0.518-2.616-2.06-3.904-4.427-4.518c-9.414-2.432-10.847-5.694-6.62-14.966c0.882-1.933,0.628-3.629-0.673-5.525
		c-5.123-7.457-3.187-12.397,5.589-15.027c2.274-0.682,4.638-1.985,3.997-4.679C148.168,343.306,156.87,345.919,160.48,341.805z
		 M154.861,373.132c-0.454,7.781,5.474,14.214,13.407,14.541c7.961,0.327,14.414-5.377,14.874-13.149
		c0.451-7.636-5.654-14.249-13.428-14.55C161.759,359.665,155.316,365.372,154.861,373.132z"/>
	<path fill-rule="evenodd" clip-rule="evenodd" fill="#8597B0" d="M189.03,312.138c-4.224-4.46-8.451-8.921-12.675-13.38
		c13.581-11.727,26.042-24.575,38.075-37.856c3.901,4.698,8.722,8.313,13.767,11.657c-2.189,2.547-4.267,5.205-6.592,7.621
		c-10.341,10.735-20.752,21.401-31.138,32.095C189.986,312.246,189.508,312.201,189.03,312.138z"/>
	<path fill-rule="evenodd" clip-rule="evenodd" fill="#8597B0" d="M103.163,228.49c-4.688-4.529-9.377-9.058-14.063-13.589
		c10.204-7.846,18.224-17.968,27.706-26.553c4.358-3.946,7.337-9.589,13.531-11.355c1.422,4.919,4.486,8.912,7.32,13.039
		c-0.277,4.147-3.445,6.386-5.988,9.019C122.177,208.876,112.666,218.679,103.163,228.49z"/>
	<path fill-rule="evenodd" clip-rule="evenodd" fill="#8193AB" d="M130.335,176.994c-6.194,1.766-9.173,7.409-13.531,11.355
		c-9.482,8.585-17.502,18.707-27.706,26.553c-1.083-1.044-2.164-2.088-3.248-3.131c12.583-14.967,27.205-27.943,40.96-41.764
		c0.899-0.902,2.55-1.053,3.85-1.554C130.553,171.299,130.444,174.146,130.335,176.994z"/>
	<path fill-rule="evenodd" clip-rule="evenodd" fill="#8193AB" d="M190.467,312.274c10.386-10.693,20.797-21.359,31.138-32.095
		c2.326-2.416,4.403-5.074,6.592-7.621c1.687,0.329,3.371,0.657,5.057,0.984c0.296,3.943-2.523,6.094-4.906,8.481
		c-9.199,9.215-18.429,18.4-27.608,27.637c-2.162,2.178-4.839,4.061-5.076,7.551C193.933,315.566,192.198,313.919,190.467,312.274z"
		/>
	<path fill-rule="evenodd" clip-rule="evenodd" fill="#8193AB" d="M103.163,228.49c9.503-9.811,19.014-19.614,28.504-29.438
		c2.543-2.633,5.711-4.872,5.988-9.017c1.661,1.33,3.322,2.658,4.984,3.988c-6.08,11.751-17.503,18.655-25.772,28.419
		c-3.018,3.564-7.746,5.833-8.511,11.125c-1.201-0.47-2.403-0.938-3.604-1.407C104.222,230.937,103.692,229.714,103.163,228.49z"/>
	<path fill-rule="evenodd" clip-rule="evenodd" fill="#F5F5F6" d="M142.639,194.023c-1.662-1.33-3.323-2.659-4.984-3.988
		c-2.834-4.129-5.898-8.122-7.32-13.041c0.108-2.847,0.217-5.694,0.326-8.542c2.152-3.656,4.287-7.323,6.459-10.969
		c3.816-6.408,7.719-7.021,12.978-1.078c3.046,3.442,3.868,5.698,0.431,9.185c-2.535,2.571-5.238,5.467-4.104,9.724
		c1.636,6.146,8.406,8.249,13.422,4.102c4.926-4.07,7.111-9.424,7.001-15.79c-0.14-8.244-0.591-16.504-0.234-24.729
		c0.737-16.82,11.417-29.225,27.328-32.426c2.274,0.127,4.548,0.254,6.822,0.381c4.068,2.844,8.135,5.688,12.205,8.531
		c1.193,1.714,2.386,3.425,3.581,5.138c4.71,8.526,2.758,16.281-2.172,24.09c-3.968,6.284-7.537,6.356-12.536,1.178
		c-2.893-2.996-5.116-4.979-1.153-8.89c4.105-4.052,4.294-8.653-0.714-12.393c-4.898-3.659-8.484-0.655-11.838,2.777
		c-5.098,5.218-5.042,11.861-4.929,18.444c0.209,12.207,2.032,24.555-3.643,36.164c-3.818,5.056-8.277,9.477-13.221,13.423
		C158.22,198.958,150.307,198.765,142.639,194.023z"/>
	<path fill-rule="evenodd" clip-rule="evenodd" fill="#F5F5F6" d="M233.254,273.543c-1.686-0.327-3.37-0.655-5.057-0.984
		c-5.045-3.345-9.866-6.959-13.767-11.657c-0.631-1.151-1.261-2.304-1.893-3.455c-3.423-9.14-1.813-17.567,4.613-24.63
		c13.594-14.934,27.354-29.728,41.401-44.237c7.3-7.541,16.411-8.373,26.04-4.69c1.006,0.63,2.012,1.258,3.018,1.886
		c4.851,4.421,9.189,9.245,11.998,15.271c0.183,2.252,0.363,4.505,0.545,6.757c-1.074,7.302-4.837,13.189-9.761,18.448
		c-11.407,12.182-22.928,24.257-34.217,36.544C249.936,269.585,242.813,274.049,233.254,273.543z M235.57,257.359
		c2.729-0.206,4.8-1.723,6.559-3.601c12.814-13.664,25.614-27.342,38.34-41.088c3.746-4.045,4.832-8.439,0.203-12.643
		c-4.729-4.299-8.882-2.266-12.574,1.619c-6.646,6.996-13.213,14.066-19.779,21.138c-6.373,6.862-12.792,13.684-19.004,20.69
		c-2.336,2.635-3.753,5.793-1.381,9.302C229.766,255.484,232.023,257.494,235.57,257.359z"/>
	<path fill-rule="evenodd" clip-rule="evenodd" fill="#F5F5F6" d="M248.164,149.779c1.424,2.209,3.139,4.107,5.581,5.23
		c4.02,3.911,8.042,7.824,12.063,11.736c-3.218,4.313-5.379,9.868-11.983,10.201c-2.743-2.853-5.412-5.785-8.245-8.545
		c-9.455-9.213-9.479-9.189-18.414,0.242c-10.31,10.884-10.407,10.984,0.758,22.102c3.117,3.104,4.137,5.069,0.771,9.022
		c-4.648,5.462-8.32,5.865-12.765,0.234c-1.397-1.771-3.354-3.094-4.812-4.824c-3.169-3.758-5.841-3.342-9.007,0.212
		c-19.694,22.095-19.596,13.587,0.81,32.748c0.201,0.189,0.491,0.282,0.739,0.421c0.765,1.522,2.184,2.811,1.712,4.775
		c-3.247,2.904-6.491,5.81-9.738,8.714c-1.074-0.74-2.147-1.482-3.221-2.224c-4.622-4.42-9.243-8.839-13.863-13.26
		c-0.575-0.552-1.146-1.104-1.719-1.654c-3.216-5.35-10.264-7.293-12.232-13.753c20.713-21.977,41.408-43.973,62.165-65.91
		c2.523-2.667,5.381-5.014,8.084-7.509C239.285,141.752,243.725,145.766,248.164,149.779z"/>
	<path fill-rule="evenodd" clip-rule="evenodd" fill="#84C88D" d="M166.818,291.003c-13.027,6.973-24.707,5.995-33.542-2.812
		c-8.944-8.916-9.966-19.98-3.011-32.602c2.294,1.817,4.588,3.636,6.882,5.45c1.781,1.703,3.562,3.405,5.341,5.106
		c3.589,4.409,7.527,8.456,12.172,11.771c1.24,2.155,2.867,3.908,5.143,4.994C162.143,285.609,164.479,288.307,166.818,291.003z"/>
	<path fill-rule="evenodd" clip-rule="evenodd" fill="#8193AB" d="M159.804,282.911c-2.275-1.086-3.903-2.839-5.143-4.994
		c13.203-12.083,26.168-24.402,37.752-38.093c1.074,0.741,2.147,1.483,3.221,2.224c0.421,4.24-2.444,6.672-5.032,9.312
		C180.313,261.855,170.066,272.392,159.804,282.911z"/>
	<path fill-rule="evenodd" clip-rule="evenodd" fill="#8193AB" d="M212.537,257.446c0.632,1.151,1.262,2.304,1.893,3.455
		c-12.033,13.281-24.495,26.13-38.075,37.856c-1.079-1.069-2.155-2.138-3.234-3.205
		C185.571,282.141,197.277,267.957,212.537,257.446z"/>
	<path fill-rule="evenodd" clip-rule="evenodd" fill="#F5F5F6" d="M59.092,75.993c-0.334-1.678-0.667-3.357-1-5.036
		c0.433-4.608-0.094-9.396,2.561-13.583c2.744,0.414,5.601,1.507,8.196,1.061c2.711-0.466,7.525-0.254,7.233-4.055
		c-0.308-3.987-4.54-4.284-8.124-3.756c-3.034,0.448-6.065,0.931-9.098,1.4c-0.633-1.109-1.268-2.216-1.903-3.322
		c3.745-0.805,7.482-1.631,10.642-3.995c2.503,1.24,4.924,2.625,7.918,2.366c10.035-0.869,17.145,3.876,22.488,11.911
		c0.558,2.279,1.115,4.558,1.673,6.837c-1.765,15.826-7.943,21.67-23.828,22.536c-1.656-0.324-3.31-0.648-4.964-0.973
		C65.856,84.723,62.173,80.671,59.092,75.993z M82.334,72.757c3.418-3.275,8.017-7.417,1.681-10.899
		c-4.842-2.658-11.365-2.82-14.804,4.003c0.089,4.945,1.587,9.099,6.971,10.259C78.852,76.695,82.18,77.315,82.334,72.757z"/>
	<path fill-rule="evenodd" clip-rule="evenodd" fill="#8597B0" d="M142.639,194.023c7.667,4.742,15.581,4.936,23.706,1.293
		c0.21,4.369-3.258,6.439-5.776,9.022c-13.327,13.664-26.72,27.265-40.089,40.889c-4.042-3.889-8.083-7.774-12.125-11.661
		c0.765-5.291,5.494-7.561,8.511-11.125C125.136,212.678,136.559,205.774,142.639,194.023z"/>
	<path fill-rule="evenodd" clip-rule="evenodd" fill="#8597B0" d="M137.147,261.042c-2.294-1.816-4.588-3.635-6.882-5.452
		c-1.679-2.03-3.357-4.061-5.038-6.089c12.294-13.634,24.25-27.615,39.372-38.344c1.968,6.459,9.016,8.403,12.232,13.753
		c-3.79,0.301-5.736,3.31-8.156,5.594C158.029,240.542,148.559,251.794,137.147,261.042z"/>
	<path fill-rule="evenodd" clip-rule="evenodd" fill="#8597B0" d="M203.66,228.559c-0.248-0.139-0.538-0.231-0.739-0.421
		c-20.406-19.161-20.504-10.653-0.81-32.748c3.166-3.554,5.838-3.97,9.007-0.212c1.458,1.729,3.415,3.053,4.812,4.824
		c4.444,5.631,8.117,5.228,12.765-0.234c3.365-3.953,2.346-5.918-0.771-9.022c-11.165-11.118-11.067-11.218-0.758-22.102
		c8.936-9.432,8.959-9.455,18.414-0.242c2.833,2.76,5.502,5.692,8.245,8.545c-0.505,1.305-0.656,2.966-1.563,3.864
		C236.151,196.816,220.965,213.769,203.66,228.559z"/>
	<path fill-rule="evenodd" clip-rule="evenodd" fill="#C2C7D1" d="M58.86,52.023c3.032-0.47,6.063-0.953,9.098-1.4
		c3.584-0.528,7.816-0.23,8.124,3.756c0.292,3.801-4.521,3.589-7.233,4.055c-2.595,0.446-5.452-0.647-8.196-1.061
		C60.057,55.589,59.458,53.806,58.86,52.023z"/>
	<path fill-rule="evenodd" clip-rule="evenodd" fill="#84C88D" d="M154.861,373.132c0.455-7.76,6.897-13.467,14.853-13.158
		c7.774,0.301,13.879,6.914,13.428,14.55c-0.459,7.772-6.912,13.477-14.874,13.149C160.335,387.346,154.407,380.913,154.861,373.132
		z"/>
	<path fill-rule="evenodd" clip-rule="evenodd" fill="#8597B0" d="M235.566,257.361c-3.543,0.133-5.801-1.877-7.633-4.585
		c-2.372-3.509-0.955-6.667,1.381-9.302c6.212-7.006,12.631-13.828,19.004-20.69c6.566-7.071,13.133-14.142,19.779-21.138
		c3.692-3.885,7.845-5.918,12.574-1.619c4.629,4.204,3.543,8.598-0.203,12.643c-12.726,13.746-25.525,27.424-38.34,41.088
		C240.37,255.637,238.3,257.153,235.566,257.361z"/>
	<path fill-rule="evenodd" clip-rule="evenodd" fill="#8597B0" d="M192.414,239.824c-11.584,13.69-24.55,26.01-37.752,38.093
		c-4.645-3.314-8.583-7.361-12.17-11.771c9.572-9.878,19.194-19.71,28.688-29.663c2.844-2.98,6.814-5.208,7.372-9.919
		C183.17,230.985,187.792,235.404,192.414,239.824z"/>
	<path fill-rule="evenodd" clip-rule="evenodd" fill="#8193AB" d="M178.551,226.564c-0.558,4.711-4.528,6.938-7.372,9.919
		c-9.494,9.953-19.116,19.785-28.688,29.663c-1.781-1.701-3.563-3.403-5.343-5.106c11.412-9.246,20.882-20.498,31.528-30.536
		c2.419-2.284,4.366-5.293,8.156-5.594C177.404,225.461,177.976,226.013,178.551,226.564z"/>
	<path fill-rule="evenodd" clip-rule="evenodd" fill="#C2C7D1" d="M69.211,65.861c3.438-6.824,9.961-6.662,14.804-4.003
		c6.336,3.482,1.738,7.624-1.681,10.899C75.953,74.275,74.453,66.508,69.211,65.861z"/>
	<path fill-rule="evenodd" clip-rule="evenodd" fill="#84C88D" d="M69.211,65.861c5.242,0.646,6.742,8.414,13.123,6.896
		c-0.154,4.558-3.482,3.938-6.152,3.363C70.798,74.96,69.3,70.807,69.211,65.861z"/>
</g>
</svg>
