<?xml version="1.0" encoding="utf-8"?>
<!-- Generator: Adobe Illustrator 16.0.0, SVG Export Plug-In . SVG Version: 6.00 Build 0)  -->
<!DOCTYPE svg PUBLIC "-//W3C//DTD SVG 1.1//EN" "http://www.w3.org/Graphics/SVG/1.1/DTD/svg11.dtd">
<svg version="1.1" id="Layer_1" xmlns="http://www.w3.org/2000/svg" xmlns:xlink="http://www.w3.org/1999/xlink" x="0px" y="0px"
	 width="450px" height="450px" viewBox="0 0 450 450" enable-background="new 0 0 450 450" xml:space="preserve">
<ellipse fill-rule="evenodd" clip-rule="evenodd" fill="#FFFFFF" cx="193.969" cy="110.907" rx="21.937" ry="25.338"/>
<g display="none">
	<path display="inline" fill-rule="evenodd" clip-rule="evenodd" fill="#333333" d="M344.337,443.607
		c-44.428-44.629-78.772-97.494-118.972-145.572c-3.39-4.053-3.405-6.922,1.05-9.811c6.508-4.221,6.712-8.348,1.482-14.574
		c-16.207-19.291-10.194-16.84-30.749-7.615c-75.686,33.988-167.081-5.568-190.519-90.045c0,0-7.361-38.162-0.846-69.477
		C17.071,52.233,54.519,19.32,107.626,4.366c0,0,33.569-6.422,64.689-0.132C231.715,16.236,266.528,57.828,277.326,117
		c7.389,40.49-2.96,77.953-29.324,110.205c-9.801,11.99-10.103,11.756-0.463,24.285c1.757,2.289,3.807,4.367,5.419,6.748
		c2.917,4.309,5.999,4.971,9.819,1.131c5.367-5.391,9.528-4.182,14.097,1.67c33.204,42.52,66.166,85.25,100.249,127.061
		c12.954,15.893,17.021,46.846-3.56,58.561C357.732,455.666,344.337,443.607,344.337,443.607z M254.384,140.397
		c2.677-55.82-42.271-115.34-114.074-115.422C77.542,24.901,26.316,72.94,26.176,140.012
		c-0.139,66.902,55.822,112.629,112.862,113.668C200.858,254.805,256.306,201.341,254.384,140.397z"/>
	<path display="inline" fill-rule="evenodd" clip-rule="evenodd" fill="#02599B" d="M444.818,296.354
		c-12.228-8.127-24.651-15.984-36.584-24.523c-4.815-3.445-6.928-2.516-9.92,2.033c-12.076,18.352-26.069,35.174-41.429,50.904
		c-3.791,3.883-5.822,4.803-9.597-0.182c-12.355-16.314-25.063-32.377-37.992-48.244c-3.219-3.945-2.293-6.082,0.717-9.287
		c9.69-10.328,18.162-21.58,25.231-33.918c3.594-6.272,3.673-10.095-3.737-14.01c-13.646-7.214-26.619-15.701-41.139-24.418
		c52.47-18.437,103.455-36.354,154.449-54.27C444.818,192.41,444.818,244.383,444.818,296.354z"/>
	<path display="inline" fill-rule="evenodd" clip-rule="evenodd" fill="#02599B" d="M22.572,440.316
		c-5.043-0.676-10.024-1.779-15.033-4.254c10.642-2.393,21.365-4.453,31.904-7.236c64.82-17.123,123.361-47.568,178.661-84.783
		c14.858-10.002,14.826-10.102,25.748,3.754c10.175,12.9,20.293,25.842,30.91,39.371c-19.597,11.791-39.926,20.865-60.842,28.672
		c-32.496,12.125-66.138,18.898-100.415,24.459C113.505,440.299,79.624,447.996,22.572,440.316z"/>
	<path display="inline" fill-rule="evenodd" clip-rule="evenodd" fill="#FFFFFF" d="M254.384,140.397
		c1.922,60.944-53.525,114.407-115.346,113.282c-57.04-1.039-113.001-46.766-112.862-113.668
		C26.316,72.94,77.542,24.901,140.31,24.975C212.113,25.057,257.061,84.578,254.384,140.397z M164.094,141.029
		c-0.064,19.923,10.926,32.103,29.065,32.218c17.574,0.111,29.403-12.358,29.554-31.153c0.157-19.11-11.052-31.257-28.966-31.392
		C175.214,110.563,164.156,121.873,164.094,141.029z M110.008,141.752c0,8.068,0.089,16.138-0.04,24.205
		c-0.057,3.711,0.697,5.961,5.179,5.882c11.812-0.203,23.63-0.15,35.445-0.012c3.626,0.041,5.07-1.113,5.063-4.938
		c-0.011-4.074-2.085-4.771-5.393-4.73c-5.763,0.07-11.524-0.016-17.288,0c-6.002,0.017-11.771,1.356-11.688-8.638
		c0.079-9.566,5.536-8.093,11.181-8.064c4.608,0.023,9.223-0.101,13.833,0.062c3.668,0.129,5.898-0.542,5.923-5.078
		c0.024-4.349-1.738-5.394-5.644-5.264c-6.332,0.21-12.693-0.244-19.014,0.13c-5.498,0.322-6.006-2.674-5.981-6.931
		c0.025-4.194,0.383-7.316,5.938-7.031c6.895,0.351,13.83,0.009,20.741,0.106c3.483,0.048,6.143-0.155,6.078-4.882
		c-0.063-4.291-1.956-5.404-5.826-5.356c-10.951,0.134-21.906,0.214-32.854-0.026c-4.837-0.107-5.785,2.258-5.705,6.361
		C110.105,125.612,109.999,133.684,110.008,141.752z M72.358,110.807c1.034,0-0.12-0.056-1.271,0.009
		c-10.61,0.588-17.308,5.843-18.597,14.562c-1.226,8.311,3.556,14.903,13.566,18.324c4.336,1.482,8.837,2.481,13.224,3.844
		c3.963,1.233,7.948,2.709,7.121,8.086c-0.736,4.757-4.254,6.633-8.547,7.158c-6.494,0.795-12.292-0.486-14.955-7.297
		c-2.476-6.332-7.682-3.661-10.868-2.534c-4.287,1.516-0.738,5.439,0.211,7.78c3.841,9.469,15.212,14.178,27.873,12.059
		c11.686-1.957,17.964-7.77,18.488-17.12c0.566-10.217-3.856-15.778-15.661-19.545c-4.644-1.483-9.38-2.694-13.996-4.263
		c-2.796-0.95-5.52-2.496-5.053-6.063c0.45-3.464,3.421-4.284,6.306-4.941c5.466-1.245,10.629-0.785,13.625,4.524
		c3.282,5.81,8.701,4.07,11.784,2.047c3.159-2.08-0.077-6.319-1.966-8.996C89.014,111.872,82.053,110.468,72.358,110.807z"/>
	<path display="inline" fill-rule="evenodd" clip-rule="evenodd" fill="#F5802E" d="M164.094,141.029
		c0.062-19.156,11.12-30.466,29.653-30.327c17.914,0.135,29.123,12.281,28.966,31.392c-0.15,18.795-11.979,31.264-29.554,31.153
		C175.021,173.132,164.03,160.952,164.094,141.029z M176.335,141.587c0.015,13.164,6.745,21.431,17.32,21.264
		c10.059-0.157,16.861-8.463,16.673-21.063c-0.058-3.927-0.787-8.105-2.308-11.703c-4.698-11.112-20.436-12.798-27.693-3.153
		C177.084,131.24,176.084,136.269,176.335,141.587z"/>
	<path display="inline" fill-rule="evenodd" clip-rule="evenodd" fill="#F5802E" d="M110.005,141.752
		c-0.007-8.068,0.1-16.14-0.05-24.206c-0.08-4.103,0.868-6.468,5.705-6.361c10.947,0.24,21.902,0.161,32.854,0.026
		c3.87-0.048,5.763,1.065,5.826,5.356c0.065,4.727-2.594,4.931-6.078,4.882c-6.912-0.097-13.846,0.245-20.741-0.106
		c-5.555-0.285-5.913,2.837-5.938,7.031c-0.024,4.257,0.484,7.253,5.981,6.931c6.321-0.374,12.683,0.08,19.014-0.13
		c3.906-0.129,5.668,0.915,5.644,5.264c-0.025,4.536-2.255,5.207-5.923,5.078c-4.609-0.163-9.225-0.039-13.833-0.062
		c-5.645-0.029-11.102-1.502-11.181,8.064c-0.082,9.994,5.687,8.655,11.688,8.638c5.764-0.016,11.525,0.07,17.288,0
		c3.307-0.042,5.381,0.656,5.393,4.73c0.007,3.826-1.437,4.979-5.063,4.938c-11.814-0.138-23.633-0.19-35.445,0.012
		c-4.482,0.079-5.235-2.171-5.179-5.882C110.098,157.89,110.008,149.82,110.005,141.752z"/>
	<path display="inline" fill-rule="evenodd" clip-rule="evenodd" fill="#02599B" d="M72.358,110.807
		c9.695-0.338,16.655,1.065,21.284,7.635c1.889,2.677,5.125,6.916,1.966,8.996c-3.083,2.022-8.501,3.763-11.784-2.047
		c-2.996-5.309-8.159-5.77-13.625-4.524c-2.884,0.658-5.855,1.478-6.306,4.941c-0.467,3.567,2.257,5.113,5.053,6.063
		c4.616,1.568,9.353,2.78,13.996,4.263c11.804,3.767,16.227,9.328,15.661,19.545c-0.524,9.351-6.802,15.163-18.488,17.12
		c-12.661,2.12-24.031-2.589-27.873-12.059c-0.949-2.34-4.498-6.264-0.211-7.78c3.186-1.127,8.393-3.798,10.868,2.534
		c2.663,6.812,8.46,8.093,14.955,7.297c4.293-0.525,7.811-2.401,8.547-7.158c0.828-5.377-3.157-6.853-7.121-8.086
		c-4.387-1.363-8.887-2.362-13.224-3.844c-10.011-3.421-14.792-10.013-13.566-18.324c1.289-8.719,7.987-13.974,18.597-14.562
		C72.238,110.751,73.393,110.807,72.358,110.807z"/>
</g>
<g display="none">
	<path display="inline" fill-rule="evenodd" clip-rule="evenodd" fill="#555B6D" d="M311.719,148.564
		c0.092,1.725,1.204,2.873,2.219,4.12c14.426,17.776,22.799,37.986,25.159,60.835c2.903,28.138-4.132,53.597-19.623,76.967
		c-0.421,0.64-1.113,1.102-1.679,1.647c-1.538-0.136-2.65,0.771-3.934,1.423c-6.782,3.448-13.26,7.617-20.871,9.186
		c-0.321-0.343-0.645-0.685-0.969-1.028c-0.734-5.94-3.113-11.311-5.748-16.586c-21.773-43.628-83.885-50.625-113.942-12.842
		c-0.227,0.01-0.448-0.016-0.663-0.076c-1.097-0.897-2.394-1.636-3.265-2.72c-20.202-25.104-30.169-53.315-26.952-85.907
		c1.689-17.138,6.898-32.901,15.351-47.732c0.654-1.146,1.232-2.211,1.162-3.545c11.223-9.052,24.091-14.812,37.96-18.208
		c37.555-9.199,71.561-1.731,101.847,22.38c1.139,0.908,2.232,1.805,3.762,1.894C304.113,142.581,307.521,145.967,311.719,148.564z
		 M211.58,151.625c-12.359,5.803-19.196,18.736-17.194,32.526c1.816,12.519,13.142,23.843,25.601,25.593
		c13.889,1.951,26.694-4.818,32.529-17.201c5.634-12.373,3.462-25.684-5.69-34.913C237.446,148.174,224.04,145.889,211.58,151.625z"
		/>
	<path display="inline" fill-rule="evenodd" clip-rule="evenodd" fill="#4B80C2" d="M20.898,21.001
		c19.386-20.533,52.479-23.94,76.813-7.91c24.55,16.173,34.321,47.801,22.894,74.116c-1.324,0.871-2.707,1.664-3.961,2.623
		c-14.56,11.107-30.847,14.964-48.846,11.687c1.086-2.203,1.266-4.547,1.252-6.967c-0.049-8.777,0.185-17.56-0.109-26.325
		c-0.135-3.912,0.863-5.291,4.944-5.105c5.375,0.244,9.135-3.277,9.074-7.68c-0.059-4.58-3.51-7.326-9.197-7.55
		c-1.43-0.057-3.559,0.992-4.16-1.064c-0.494-1.708,0.598-3.396,1.852-4.707c1.607-1.682,3.648-2.434,5.935-2.758
		c5.477-0.779,8.477-4.295,7.664-8.853c-0.787-4.418-5.105-7.029-10.281-6.219c-11.054,1.734-18.316,8.876-20.503,20.292
		c-0.387,2.011-0.728,3.357-3.427,3.458c-4.971,0.188-7.725,3.014-7.869,7.189c-0.15,4.355,2.621,7.388,7.793,7.91
		c2.171,0.217,3.109,0.682,3.072,3.018c-0.16,10.204-0.184,20.411-0.257,30.618c-22.966-11.455-34.737-29.981-35.585-55.66
		C17.768,34.163,19.98,27.71,20.898,21.001z"/>
	<path display="inline" fill-rule="evenodd" clip-rule="evenodd" fill="#E82736" d="M348.442,337.345
		c11.815-8.209,24.729-12.938,39.306-12.592c42.183,0.996,71.576,46.33,54.607,84.268c-0.496,0.277-0.766,0.638-0.434,1.212
		c0,0-0.104,0.361-0.109,0.357c-1.711-1.039-2.59,0.393-3.667,1.23c-5.813,4.523-12.168,8.058-19.304,9.921
		c-9.656,2.521-19.385,4.541-29.23,0.753c2.148-2.427,2.626-5.339,2.609-8.461c-0.047-8.141,0.157-16.285-0.084-24.417
		c-0.104-3.509,0.816-5.984,3.609-8.224c5.85-4.685,11.464-9.67,17.131-14.58c4.163-3.611,4.812-8.194,1.753-11.729
		c-3.023-3.494-7.601-3.482-11.845,0.123c-4.982,4.238-10.014,8.43-14.821,12.861c-2.402,2.213-3.981,2.796-6.469-0.08
		c-3.75-4.336-8.006-8.237-12.105-12.262c-3.972-3.898-8.528-4.256-11.812-1.031c-3.352,3.293-3.1,7.791,0.84,11.812
		c5.134,5.247,10.305,10.463,15.604,15.543c1.893,1.814,2.596,3.729,2.563,6.319c-0.125,9.734-0.054,19.472-0.054,29.208
		c-1.624,1.771-3.001,0.18-4.215-0.507c-20.641-11.682-31.313-29.425-32.498-53.107c-0.366-7.303,1.904-14.107,2.865-21.154
		C344.604,340.987,346.521,339.164,348.442,337.345z"/>
	<path display="inline" fill-rule="evenodd" clip-rule="evenodd" fill="#70C175" d="M20.896,342.816
		c19.649-20.494,51.992-23.944,76.495-8.159c1.328,0.855,2.64,1.731,3.957,2.596c4.199,3.467,8.015,7.313,11.501,11.491
		c12.771,18.263,16.066,37.899,8.549,59.092c-0.262,0.738-0.682,1.417-1.028,2.125c-1.33-0.049-2.437,0.36-3.456,1.283
		c-5.771,5.226-12.66,8.468-20.039,10.542c-6.948,1.955-13.99,4.086-21.331,1.705c2.854-2.412,4.76-5.201,3.371-9.146
		c-1.113-3.162-3.443-4.854-6.74-5.289c-2.625-0.349-6.32,1.273-7.634-0.796c-1.311-2.065-0.432-5.528-0.49-8.38
		c-0.028-1.274-0.004-2.551-0.004-3.828c0.008-9.894,0.008-9.892,9.683-9.999c0.795-0.009,1.602,0.054,2.389-0.044
		c4.107-0.505,7.115-3.802,7.072-7.7c-0.037-3.908-3.084-6.998-7.224-7.586c-3.939-0.557-9.377,2.101-11.474-1.307
		c-1.856-3.016-0.424-8.053-0.446-12.198c-0.001-0.479,0.022-0.957-0.003-1.435c-0.264-4.8-3.42-8.077-7.732-8.038
		c-4.307,0.039-7.429,3.32-7.57,8.17c-0.113,3.826-0.095,7.656,0.004,11.482c0.056,2.154-0.106,3.386-2.951,3.429
		c-5.421,0.082-8.57,3.168-8.56,7.59c0.01,4.401,3.145,7.36,8.613,7.557c2.328,0.08,2.962,0.692,2.917,2.979
		c-0.173,8.923-0.152,17.849-0.201,26.776c-19.444-11.149-28.823-28.384-30.504-50.313C17.467,357.678,19.64,350.309,20.896,342.816
		z"/>
	<path display="inline" fill-rule="evenodd" clip-rule="evenodd" fill="#44394A" d="M112.849,348.744
		c-3.486-4.179-7.302-8.024-11.501-11.491c12.222-10.964,23.278-23.111,35.09-34.491c1.893-1.821,0.749-3.057-0.353-4.447
		c-3.854-4.861-7.424-9.915-10.582-15.265c-12.359-20.942-17.271-43.753-15.292-67.73c1.883-22.784,9.937-43.553,24.612-61.39
		c2.689-3.269,2.986-5.347-0.391-8.546c-9.828-9.316-19.255-19.056-28.813-28.655c-1.221-1.226-2.736-2.234-3.303-4.007
		c3.402-3.406,6.809-6.811,10.211-10.215c6.283,4.684,11.226,10.764,16.827,16.152c5.621,5.408,11.246,10.837,16.496,16.599
		c2.601,2.857,4.517,2.483,7.087,0.374c1.543-1.268,2.609-3.352,5.027-3.326c0.071,1.335-0.507,2.4-1.162,3.546
		c-8.453,14.831-13.662,30.594-15.351,47.732c-3.217,32.592,6.75,60.803,26.952,85.907c0.871,1.084,2.168,1.822,3.265,2.72
		c-10.025,13.289-16.222,27.919-15.698,44.897c-6.758-5.288-6.82-5.346-13.005,0.987
		C132.962,328.346,122.335,337.986,112.849,348.744z"/>
	<path display="inline" fill-rule="evenodd" clip-rule="evenodd" fill="#F7CD5B" d="M342.719,21.031
		c19.798-20.681,52.473-23.981,76.997-7.773c24.366,16.105,34.038,47.64,22.679,73.968c-1.336,0.85-2.749,1.594-3.992,2.56
		c-20.562,15.963-48.09,17.199-70.021,3.113c1.736-2.422,2.226-5.103,2.204-8.08c-0.102-13.831-0.034-27.665-0.055-41.496
		c-0.008-6.265-2.97-9.878-7.884-9.724c-4.744,0.15-7.408,3.603-7.439,9.697c-0.064,12.716-0.113,25.433-0.168,38.148
		c-9.711-11.148-14.645-24.112-15.212-38.891C339.539,35.163,341.588,28.181,342.719,21.031z M404.764,56.653
		c-0.332,0.107-0.664,0.217-0.997,0.324c-3.437-5.973-6.937-11.912-10.292-17.935c-2.143-3.846-5.003-6.441-9.608-5.143
		c-4.53,1.277-5.76,4.852-5.721,9.313c0.12,14.021,0.031,28.045,0.055,42.066c0.01,6.05,2.799,9.541,7.561,9.599
		c4.798,0.057,7.717-3.455,7.759-9.41c0.029-4.619,0.005-9.238,0.005-13.855c4.485,6.141,8.054,12.341,11.612,18.548
		c2.026,3.543,4.977,5.557,9.079,4.435c4.039-1.102,5.82-4.215,5.82-8.32c0.016-14.661,0.066-29.322-0.023-43.982
		c-0.035-5.228-3.171-8.616-7.578-8.689c-4.489-0.078-7.554,3.227-7.651,8.459C404.691,46.924,404.764,51.789,404.764,56.653z"/>
	<path display="inline" fill-rule="evenodd" clip-rule="evenodd" fill="#D6E4ED" d="M155.971,317.107
		c-0.523-16.979,5.673-31.608,15.698-44.897c0.215,0.061,0.436,0.086,0.663,0.076c0.025,1.84,1.486,2.742,2.578,3.852
		c8.568,8.697,18.493,15.573,29.37,20.972c24.976,12.396,51.197,15.206,78.31,9.09c3.264-0.738,7.368-0.773,9.433-4.485
		c0.324,0.344,0.647,0.686,0.969,1.028c0.275,4.789,1.371,9.522,0.938,14.356C251.624,348.105,198.836,348.107,155.971,317.107z"/>
	<path display="inline" fill-rule="evenodd" clip-rule="evenodd" fill="#BF2328" d="M342.684,342.809
		c-0.961,7.047-3.231,13.852-2.865,21.154c1.185,23.683,11.857,41.426,32.498,53.107c1.214,0.687,2.591,2.277,4.215,0.505
		c2.909,7.031,6.784,8.486,13.08,4.919c9.846,3.788,19.574,1.769,29.23-0.753c7.136-1.863,13.491-5.397,19.304-9.921
		c1.077-0.838,1.956-2.27,3.667-1.23c-8.34,19.48-23.272,31.57-43.656,35.546c-33.521,6.534-63.643-12.995-71.946-45.8
		c-4.266-16.856-1.207-32.772,8.044-47.492c1.008-1.605,1.991-3.223,2.987-4.837C339.055,346.271,340.869,344.539,342.684,342.809z"
		/>
	<path display="inline" fill-rule="evenodd" clip-rule="evenodd" fill="#02599B" d="M112.527,102.506
		c-3.402,3.404-6.809,6.809-10.211,10.215c-8.697,5.563-17.646,10.241-28.088,12.046c-30.384,5.248-59.513-13.421-68.638-41.665
		c-7.029-21.757-0.655-48.113,15.308-62.101c-0.918,6.709-3.13,13.162-2.902,20.114c0.848,25.679,12.619,44.206,35.585,55.66
		c2.724,8.162,7.335,9.701,14.218,4.742c17.999,3.277,34.286-0.58,48.846-11.687c1.254-0.959,2.637-1.752,3.961-2.623
		C119.283,93.03,115.222,97.407,112.527,102.506z"/>
	<path display="inline" fill-rule="evenodd" clip-rule="evenodd" fill="#3BA065" d="M20.896,342.816
		c-1.256,7.492-3.429,14.861-2.838,22.6c1.682,21.93,11.06,39.164,30.504,50.313c0.193,4.213,1.943,7.989,6.25,8.324
		c6.869,0.537,13.869,1.164,20.731-0.563c7.341,2.381,14.383,0.25,21.331-1.705c7.379-2.074,14.268-5.316,20.039-10.542
		c1.019-0.923,2.126-1.332,3.456-1.283c-8.488,21.774-31.344,36.887-54.806,37.51c-28.933,0.77-55.166-19.716-61.188-47.199
		C-0.447,378.264,4.668,358.884,20.896,342.816z"/>
	<path display="inline" fill-rule="evenodd" clip-rule="evenodd" fill="#EEAF4C" d="M368.381,92.899
		c21.932,14.085,49.46,12.85,70.021-3.113c1.243-0.966,2.656-1.71,3.992-2.56c-7.328,19.056-21.385,30.886-40.645,36.248
		c-18.479,5.143-35.827,1.647-51.629-9.292c-0.771-0.535-1.623-0.951-2.441-1.424c-3.445-3.447-6.892-6.898-10.34-10.346
		c-6.047-9.011-11.011-18.517-12.278-29.475c-2.313-20.054,2.899-37.622,17.657-51.906c-1.131,7.15-3.18,14.132-2.892,21.523
		c0.567,14.778,5.501,27.743,15.212,38.891c0.055,1.266,0.141,2.529,0.156,3.795C355.308,94.021,360.563,97.077,368.381,92.899z"/>
	<path display="inline" fill-rule="evenodd" clip-rule="evenodd" fill="#44394A" d="M342.684,342.809
		c-1.814,1.73-3.629,3.463-5.442,5.198c-10.094-9.969-20.199-19.923-30.274-29.912c-6.275-6.226-6.254-6.249-13.039-0.996
		c0.434-4.834-0.662-9.567-0.938-14.356c7.611-1.568,14.089-5.737,20.871-9.186c1.283-0.652,2.396-1.559,3.934-1.423
		c-0.087,2.898-2.831,4.071-4.13,6.206c-1.146,1.891-1.643,3.044,0.186,4.834c11.592,11.33,23.076,22.767,34.592,34.171
		C346.521,339.164,344.604,340.987,342.684,342.809z"/>
	<path display="inline" fill-rule="evenodd" clip-rule="evenodd" fill="#44394A" d="M337.34,102.412
		c3.448,3.447,6.895,6.898,10.34,10.346c-11.518,12.405-23.327,24.517-35.957,35.807c-4.201-2.597-7.609-5.984-10.189-10.193
		c2.711-4.369,6.773-7.498,10.359-11.033C320.349,119.005,328.271,110.121,337.34,102.412z"/>
	<path display="inline" fill-rule="evenodd" clip-rule="evenodd" fill="#BF2328" d="M441.922,410.232
		c-0.332-0.574-0.063-0.935,0.434-1.212C442.211,409.426,442.066,409.828,441.922,410.232z"/>
	<path display="inline" fill-rule="evenodd" clip-rule="evenodd" fill="#F5FAFC" d="M292.021,301.714
		c-2.064,3.712-6.169,3.747-9.433,4.485c-27.112,6.116-53.334,3.306-78.31-9.09c-10.877-5.398-20.802-12.274-29.37-20.972
		c-1.092-1.109-2.553-2.012-2.578-3.852c30.057-37.783,92.168-30.786,113.942,12.842
		C288.908,290.403,291.287,295.773,292.021,301.714z"/>
	<path display="inline" fill-rule="evenodd" clip-rule="evenodd" fill="#F5FAFC" d="M211.58,151.625
		c12.46-5.736,25.867-3.451,35.245,6.006c9.152,9.229,11.324,22.54,5.69,34.913c-0.93,0.184-1.868,0.328-2.784,0.557
		c-19.484,4.83-35.213-4.549-39.672-23.667C208.639,163.334,210.248,157.49,211.58,151.625z"/>
	<path display="inline" fill-rule="evenodd" clip-rule="evenodd" fill="#D6E4ED" d="M211.58,151.625
		c-1.332,5.865-2.941,11.709-1.521,17.808c4.459,19.118,20.188,28.497,39.672,23.667c0.916-0.229,1.854-0.373,2.784-0.557
		c-5.835,12.383-18.64,19.152-32.529,17.201c-12.458-1.75-23.785-13.074-25.601-25.593
		C192.383,170.361,199.221,157.428,211.58,151.625z"/>
	<path display="inline" fill-rule="evenodd" clip-rule="evenodd" fill="#FFFFFF" d="M67.798,101.518
		c-6.882,4.959-11.494,3.419-14.218-4.742c0.074-10.207,0.097-20.414,0.257-30.618c0.037-2.336-0.9-2.801-3.072-3.018
		c-5.172-0.522-7.943-3.555-7.793-7.91c0.145-4.175,2.898-7.001,7.869-7.189c2.699-0.102,3.041-1.447,3.427-3.458
		c2.188-11.416,9.449-18.559,20.503-20.292c5.176-0.811,9.494,1.801,10.281,6.219c0.813,4.558-2.188,8.074-7.664,8.853
		c-2.287,0.324-4.328,1.076-5.935,2.758c-1.254,1.31-2.346,2.998-1.852,4.707c0.601,2.057,2.73,1.008,4.16,1.064
		c5.687,0.225,9.138,2.971,9.197,7.55c0.061,4.402-3.699,7.924-9.074,7.68c-4.082-0.186-5.08,1.193-4.944,5.105
		c0.294,8.766,0.06,17.548,0.109,26.325C69.064,96.971,68.884,99.315,67.798,101.518z"/>
	<path display="inline" fill-rule="evenodd" clip-rule="evenodd" fill="#FFFFFF" d="M389.611,422.494
		c-6.296,3.567-10.171,2.112-13.08-4.919c0-9.734-0.071-19.472,0.054-29.206c0.033-2.59-0.67-4.505-2.563-6.319
		c-5.3-5.08-10.471-10.296-15.604-15.543c-3.939-4.021-4.191-8.519-0.84-11.812c3.283-3.225,7.84-2.867,11.812,1.031
		c4.1,4.024,8.355,7.926,12.105,12.262c2.487,2.876,4.066,2.293,6.469,0.08c4.808-4.432,9.839-8.623,14.821-12.861
		c4.244-3.605,8.821-3.617,11.845-0.123c3.059,3.534,2.41,8.117-1.753,11.729c-5.667,4.91-11.281,9.896-17.131,14.58
		c-2.793,2.239-3.713,4.715-3.609,8.224c0.241,8.132,0.037,16.276,0.084,24.417C392.237,417.155,391.76,420.067,389.611,422.494z"/>
	<path display="inline" fill-rule="evenodd" clip-rule="evenodd" fill="#FFFFFF" d="M75.544,423.491
		c-6.863,1.727-13.862,1.1-20.731,0.563c-4.307-0.335-6.057-4.111-6.25-8.324c0.049-8.928,0.028-17.854,0.201-26.776
		c0.045-2.287-0.59-2.899-2.917-2.979c-5.468-0.196-8.603-3.155-8.613-7.557c-0.01-4.422,3.139-7.508,8.56-7.59
		c2.845-0.043,3.007-1.274,2.951-3.429c-0.1-3.826-0.117-7.656-0.004-11.482c0.141-4.85,3.264-8.131,7.57-8.17
		c4.312-0.039,7.469,3.238,7.732,8.038c0.025,0.478,0.002,0.956,0.003,1.435c0.022,4.146-1.41,9.183,0.446,12.198
		c2.097,3.407,7.535,0.75,11.474,1.307c4.14,0.588,7.187,3.678,7.224,7.586c0.043,3.898-2.965,7.195-7.072,7.7
		c-0.787,0.098-1.593,0.035-2.389,0.044c-9.675,0.107-9.675,0.105-9.683,9.999c0,1.277-0.023,2.554,0.004,3.828
		c0.058,2.852-0.82,6.314,0.49,8.38c1.314,2.069,5.009,0.447,7.634,0.796c3.296,0.436,5.627,2.127,6.74,5.289
		C80.304,418.29,78.398,421.079,75.544,423.491z"/>
	<path display="inline" fill-rule="evenodd" clip-rule="evenodd" fill="#FFFFFF" d="M404.764,56.653
		c0-4.864-0.072-9.729,0.02-14.589c0.098-5.232,3.162-8.537,7.651-8.459c4.407,0.073,7.543,3.461,7.578,8.689
		c0.09,14.66,0.039,29.321,0.023,43.982c0,4.105-1.781,7.219-5.82,8.32c-4.103,1.122-7.053-0.892-9.079-4.435
		c-3.559-6.207-7.127-12.408-11.612-18.548c0,4.617,0.024,9.236-0.005,13.855c-0.042,5.955-2.961,9.466-7.759,9.41
		c-4.762-0.058-7.551-3.549-7.561-9.599c-0.023-14.021,0.065-28.045-0.055-42.066c-0.039-4.461,1.19-8.035,5.721-9.313
		c4.605-1.298,7.466,1.297,9.608,5.143c3.355,6.023,6.855,11.962,10.292,17.935C404.1,56.87,404.432,56.76,404.764,56.653z"/>
	<path display="inline" fill-rule="evenodd" clip-rule="evenodd" fill="#FFFFFF" d="M368.381,92.899
		c-7.817,4.178-13.073,1.122-13.186-7.66c-0.016-1.266-0.102-2.529-0.156-3.795c0.055-12.716,0.104-25.433,0.168-38.148
		c0.031-6.094,2.695-9.547,7.439-9.697c4.914-0.154,7.876,3.458,7.884,9.724c0.021,13.832-0.047,27.665,0.055,41.496
		C370.606,87.796,370.117,90.477,368.381,92.899z"/>
</g>
<g display="none">
	<path display="inline" fill-rule="evenodd" clip-rule="evenodd" fill="#253876" d="M807.313,281.767
		c66.383-0.001,132.767,0.229,199.147-0.173c15.241-0.093,22.414,10.568,22.369,22.609c-0.295,80.89-0.151,161.78-0.154,242.671
		c0,14.599-7.528,22.135-22.225,22.145c-35.757,0.022-71.513,0.063-107.268-0.07c-3.884-0.015-5.292,0.835-5.148,5.023
		c0.324,9.487,0.087,9.495,9.719,9.496c9.672,0,19.344-0.028,29.015,0.009c11.498,0.044,19.697,7.922,20.079,19.427
		c0.18,5.416,0.04,10.843,0.039,16.265c0,7.298-0.19,7.495-7.311,7.495c-61.692,0.002-123.385,0.002-185.078,0.002
		c-30.774,0-61.547,0.002-92.321-0.002c-6.512-0.001-6.857-0.362-6.867-7.057c-0.008-5.275-0.061-10.552,0.014-15.826
		c0.176-12.292,8.273-20.283,20.539-20.306c11.576-0.021,23.154-0.076,34.729,0.048c2.614,0.027,3.497-0.606,3.533-3.395
		c0.146-11.103,0.255-11.101-10.827-11.101c-33.705,0-67.41,0.013-101.113-0.006c-15.304-0.008-22.666-7.372-22.666-22.578
		c0-81.184-0.004-162.367,0.004-243.551c0-10.669,5.142-17.955,14.351-20.585c2.603-0.743,5.232-0.523,7.853-0.524
		C674.254,281.763,740.783,281.768,807.313,281.767z M807.28,288.83c0-0.053,0-0.104,0-0.156c-66.679,0-133.356-0.004-200.034,0.004
		c-10.088,0.002-14.703,4.286-14.703,13.707c-0.014,81.918-0.012,163.837,0.009,245.756c0.001,1.596,0.037,3.251,0.438,4.778
		c1.633,6.223,6.259,9.299,14.127,9.239c39.704-0.303,79.409-0.083,119.115-0.278c56.262-0.278,112.528-0.394,168.795,0.171
		c37.362,0.374,74.734,0.003,112.101-0.075c9.979-0.021,14.436-4.563,14.437-14.556c0.009-81.187,0.011-162.372,0.005-243.559
		c-0.001-10.943-4.109-15.025-15.137-15.027C940.049,288.824,873.664,288.83,807.28,288.83z M806.748,619.682
		c0-0.051,0-0.102,0-0.152c39.274,0,78.548,0.008,117.821-0.008c5.86-0.002,11.721-0.141,17.581-0.164
		c1.931-0.008,3.595-0.199,3.524-2.722c-0.138-4.971,0.467-9.962-0.393-14.912c-1.289-7.424-5.281-10.861-12.895-11.031
		c-4.688-0.104-9.377-0.175-14.064-0.175c-74.298-0.011-148.595-0.004-222.894-0.009c-4.835-0.001-9.674-0.186-14.505-0.063
		c-6.81,0.174-11.406,4.014-12.337,10.761c-0.576,4.177-0.357,8.471-0.387,12.714c-0.041,5.746,0.004,5.758,5.783,5.759
		C718.238,619.684,762.494,619.682,806.748,619.682z M807.215,569.577c-24.898,0-49.798,0.102-74.694-0.097
		c-4.321-0.034-5.91,1.313-5.278,5.476c0.109,0.716,0.017,1.462,0.017,2.194c0.009,6.061,0.009,6.071,5.897,6.071
		c48.479,0.003,96.957,0.024,145.436-0.015c9.57-0.008,7.997,1.229,8.433-8.445c0.2-4.455-1.506-5.295-5.554-5.268
		C856.72,569.66,831.967,569.577,807.215,569.577z"/>
	<path display="inline" fill-rule="evenodd" clip-rule="evenodd" fill="#F2EDEC" d="M807.28,288.83
		c66.384,0,132.769-0.006,199.152,0.004c11.027,0.002,15.136,4.084,15.137,15.027c0.006,81.187,0.004,162.372-0.005,243.559
		c-0.001,9.993-4.457,14.534-14.437,14.556c-37.366,0.078-74.738,0.449-112.101,0.075c-56.267-0.564-112.533-0.449-168.795-0.171
		c-39.706,0.195-79.411-0.024-119.115,0.278c-7.868,0.06-12.494-3.017-14.127-9.239c-0.401-1.527-0.438-3.183-0.438-4.778
		c-0.021-81.919-0.022-163.838-0.009-245.756c0-9.421,4.615-13.705,14.703-13.707c66.678-0.008,133.355-0.004,200.034-0.004
		C807.28,288.726,807.28,288.777,807.28,288.83z M956.05,477.85c0.489-0.922,0.899-1.826,1.421-2.661
		c15.011-24.071,18.65-49.728,10.549-76.937c-0.797-2.675,0.29-3.443,2.281-4.538c16.447-9.058,25.328-22.95,26.082-41.782
		c1.061-26.516-20.852-49.588-47.191-49.838c-20.936-0.197-38.163,11.142-46.364,30.631c-0.854,2.025-1.516,2.76-4.057,2.197
		c-7.002-1.551-14.147-2.09-21.358-2.078c-47.031,0.072-94.063,0.053-141.094,0.018c-6.316-0.004-12.549,0.559-18.771,1.652
		c-47.968,8.432-82.142,55.905-74.701,103.854c7.174,46.235,45.508,79.183,92.424,79.266c47.032,0.083,94.063-0.082,141.094,0.083
		c13.8,0.049,27.095-1.944,39.748-7.495c2.397-1.051,3.127-0.514,3.297,1.862c0.238,3.357,0.351,6.746,0.924,10.051
		c0.607,3.508,3.409,4.453,6.086,2.128c2.316-2.013,4.542-4.178,6.514-6.523c1.897-2.258,3.135-2.055,5.137,0.002
		c8.277,8.504,16.804,16.764,25.093,25.255c2.84,2.909,5.113,3.245,8.028,0.107c4.186-4.505,8.559-8.851,13.052-13.05
		c3.104-2.9,2.832-5.266-0.071-8.088c-6.618-6.433-13.094-13.012-19.608-19.551c-2.581-2.592-6.945-5.083-7.18-7.896
		c-0.266-3.192,4.619-5.382,7.057-8.199c0.191-0.222,0.407-0.423,0.62-0.624c1.266-1.193,1.936-2.595,1.312-4.327
		c-0.699-1.945-2.306-2.411-4.189-2.537C960.185,478.699,958.077,479.137,956.05,477.85z M599.605,336.121
		c0,3.359,0.023,6.717-0.007,10.075c-0.021,2.378,0.942,4.113,3.425,4.168c2.473,0.054,3.59-1.608,3.594-4.003
		c0.012-6.569-0.012-13.141,0.017-19.71c0.011-2.398-1.04-4.152-3.444-4.184c-2.711-0.035-3.646,1.907-3.598,4.456
		C599.648,329.988,599.605,333.056,599.605,336.121z"/>
	<path display="inline" fill-rule="evenodd" clip-rule="evenodd" fill="#5D92CD" d="M806.748,619.682
		c-44.254,0-88.51,0.002-132.764-0.002c-5.779-0.001-5.824-0.013-5.783-5.759c0.029-4.243-0.189-8.537,0.387-12.714
		c0.931-6.747,5.527-10.587,12.337-10.761c4.831-0.123,9.67,0.062,14.505,0.063c74.299,0.005,148.596-0.002,222.894,0.009
		c4.688,0,9.377,0.07,14.064,0.175c7.613,0.17,11.605,3.607,12.895,11.031c0.859,4.95,0.255,9.941,0.393,14.912
		c0.07,2.522-1.594,2.714-3.524,2.722c-5.86,0.023-11.721,0.162-17.581,0.164c-39.273,0.016-78.547,0.008-117.821,0.008
		C806.748,619.58,806.748,619.631,806.748,619.682z"/>
	<path display="inline" fill-rule="evenodd" clip-rule="evenodd" fill="#5D92CD" d="M807.215,569.577
		c24.752,0,49.505,0.083,74.256-0.083c4.048-0.027,5.754,0.813,5.554,5.268c-0.436,9.675,1.138,8.438-8.433,8.445
		c-48.479,0.039-96.957,0.018-145.436,0.015c-5.889,0-5.889-0.011-5.897-6.071c0-0.732,0.093-1.479-0.017-2.194
		c-0.632-4.163,0.957-5.51,5.278-5.476C757.417,569.679,782.316,569.577,807.215,569.577z"/>
	<path display="inline" fill-rule="evenodd" clip-rule="evenodd" fill="#5D92CD" d="M956.05,477.85
		c2.027,1.287,4.135,0.85,6.131,0.982c1.884,0.126,3.49,0.592,4.189,2.537c0.624,1.732-0.046,3.134-1.312,4.327
		c-0.213,0.201-0.429,0.402-0.62,0.624c-2.438,2.817-7.322,5.007-7.057,8.199c0.234,2.813,4.599,5.304,7.18,7.896
		c6.515,6.539,12.99,13.118,19.608,19.551c2.903,2.822,3.176,5.188,0.071,8.088c-4.493,4.199-8.866,8.545-13.052,13.05
		c-2.915,3.138-5.188,2.802-8.028-0.107c-8.289-8.491-16.815-16.751-25.093-25.255c-2.002-2.057-3.239-2.26-5.137-0.002
		c-1.972,2.346-4.197,4.511-6.514,6.523c-2.677,2.325-5.479,1.38-6.086-2.128c-0.573-3.305-0.686-6.693-0.924-10.051
		c-0.17-2.376-0.899-2.913-3.297-1.862c-12.653,5.551-25.948,7.544-39.748,7.495c-47.03-0.165-94.062,0-141.094-0.083
		c-46.916-0.083-85.25-33.03-92.424-79.266c-7.44-47.949,26.733-95.423,74.701-103.854c6.223-1.094,12.455-1.656,18.771-1.652
		c47.031,0.035,94.063,0.055,141.094-0.018c7.211-0.012,14.356,0.527,21.358,2.078c2.541,0.563,3.203-0.172,4.057-2.197
		c8.201-19.489,25.429-30.828,46.364-30.631c26.34,0.25,48.252,23.322,47.191,49.838c-0.754,18.832-9.635,32.725-26.082,41.782
		c-1.991,1.095-3.078,1.863-2.281,4.538c8.102,27.209,4.462,52.865-10.549,76.937C956.949,476.023,956.539,476.928,956.05,477.85z
		 M807.097,510.512c23.732,0,47.475-0.437,71.19,0.164c14.398,0.363,26.091-5.37,37.396-13.053c1.657-1.126,2.29-2.455,2.047-4.438
		c-0.496-4.059-0.824-8.136-1.261-12.2c-0.429-3.981,1.012-5.723,5.168-5.612c4.086,0.108,8.163,0.542,12.242,0.862
		c2.119,0.166,3.507-0.664,4.664-2.521c12.795-20.536,17.401-42.625,12.446-66.426c-1.794-8.619,0.025-7.037-9.432-8.396
		c-12.93-1.858-23.53-7.749-31.683-17.894c-7.652-9.521-11.203-20.474-10.412-32.686c0.23-3.554-1.003-5.373-4.437-6.316
		c-5.273-1.447-10.603-2.072-16.04-2.072c-47.902,0.004-95.805-0.027-143.708,0.047c-4.959,0.008-10,0.168-14.861,1.039
		c-46.793,8.379-77.066,51.146-70.551,96.408c6.086,42.283,42.822,73.756,85.156,73.157
		C759.043,510.234,783.072,510.514,807.097,510.512z M989.373,350.582c-0.047-22.949-18.648-41.48-41.604-41.446
		c-22.906,0.034-41.35,18.606-41.34,41.626c0.011,22.912,18.686,41.561,41.539,41.479
		C970.929,392.158,989.419,373.555,989.373,350.582z M926.827,513.132c1.596-1.404,2.482-2.124,3.301-2.915
		c4.779-4.619,6.071-4.625,10.776,0.071c6.313,6.302,12.615,12.614,18.923,18.921c7.732,7.731,7.66,7.659,15.44-0.174
		c2.106-2.12,2.329-3.419,0.063-5.604c-7.263-7.001-14.317-14.22-21.447-21.358c-6.753-6.762-6.781-6.786-1.219-14.364
		c1.123-1.53,1.071-2.434-0.9-2.592c-8.286-0.668-16.578-1.262-24.869-1.869c-2.06-0.151-2.913,0.766-2.699,2.881
		C925.081,494.822,925.897,503.523,926.827,513.132z"/>
	<path display="inline" fill-rule="evenodd" clip-rule="evenodd" fill="#692C84" d="M599.605,336.121
		c0-3.065,0.043-6.133-0.014-9.197c-0.048-2.549,0.887-4.491,3.598-4.456c2.404,0.031,3.455,1.785,3.444,4.184
		c-0.028,6.569-0.005,13.141-0.017,19.71c-0.004,2.395-1.121,4.057-3.594,4.003c-2.482-0.055-3.445-1.79-3.425-4.168
		C599.629,342.838,599.605,339.48,599.605,336.121z"/>
	<path display="inline" fill-rule="evenodd" clip-rule="evenodd" fill="#70B2E1" d="M807.097,510.512
		c-24.024,0.002-48.054-0.277-72.073,0.063c-42.334,0.599-79.07-30.874-85.156-73.157c-6.516-45.262,23.758-88.029,70.551-96.408
		c4.861-0.871,9.902-1.031,14.861-1.039c47.903-0.074,95.806-0.043,143.708-0.047c5.438,0,10.767,0.625,16.04,2.072
		c3.434,0.943,4.667,2.763,4.437,6.316c-0.791,12.212,2.76,23.165,10.412,32.686c8.152,10.145,18.753,16.035,31.683,17.894
		c9.457,1.358,7.638-0.224,9.432,8.396c4.955,23.801,0.349,45.89-12.446,66.426c-1.157,1.857-2.545,2.688-4.664,2.521
		c-4.079-0.32-8.156-0.754-12.242-0.862c-4.156-0.11-5.597,1.631-5.168,5.612c0.437,4.064,0.765,8.142,1.261,12.2
		c0.243,1.983-0.39,3.313-2.047,4.438c-11.306,7.683-22.998,13.416-37.396,13.053C854.571,510.075,830.829,510.512,807.097,510.512z
		 M884.818,381.935c-19.968-0.126-37.548,12.421-43.749,31.223c-5.895,17.866,0.757,37.565,16.526,48.953
		c16.068,11.604,38.058,11.623,53.821,0.084c1.824-1.334,3.435-2.767,3.816-5.117c0.454-2.798-0.087-5.352-2.554-7.003
		c-2.976-1.994-6.125-1.948-9.017,0.182c-4.837,3.561-10.21,5.561-16.154,6.302c-19.229,2.395-36.776-14.755-34.196-33.498
		c3.245-23.589,29.753-34.902,49.637-21.187c4.537,3.131,8.625,2.869,11.2-0.715c2.494-3.473,1.364-7.817-2.992-10.876
		C903.268,384.742,894.488,381.91,884.818,381.935z M698.817,427.4c0,5.86-0.001,11.722,0,17.583s-0.034,11.723,0.013,17.582
		c0.04,5.062,2.496,8.119,6.518,8.271c4.145,0.155,7.049-3.104,7.103-8.2c0.073-7.032,0.159-14.069-0.036-21.097
		c-0.088-3.156,0.682-4.561,4.128-4.285c3.64,0.29,7.323,0.134,10.983,0.029c14.76-0.417,26.406-11.58,26.73-25.562
		c0.344-14.747-10.555-26.511-25.74-27.349c-7.158-0.395-14.355-0.191-21.533-0.104c-5.895,0.072-8.132,2.435-8.15,8.404
		C698.795,404.25,698.82,415.824,698.817,427.4z M770.816,427.293c0,11.85-0.038,23.699,0.019,35.549
		c0.022,4.888,2.784,8.023,6.782,7.996c4.045-0.026,6.756-3.125,6.804-8.01c0.069-7.021,0.175-14.048-0.043-21.063
		c-0.103-3.322,0.687-4.811,4.325-4.516c3.779,0.306,7.608,0.184,11.404,0.014c14.503-0.645,25.742-11.684,26.192-25.614
		c0.459-14.165-10.19-26.058-24.905-27.173c-7.42-0.564-14.911-0.281-22.369-0.203c-5.932,0.062-8.166,2.384-8.195,8.349
		C770.773,404.18,770.813,415.736,770.816,427.293z"/>
	<path display="inline" fill-rule="evenodd" clip-rule="evenodd" fill="#F8C04E" d="M989.373,350.582
		c0.046,22.973-18.444,41.576-41.404,41.658c-22.854,0.082-41.528-18.566-41.539-41.479c-0.01-23.02,18.434-41.592,41.34-41.626
		C970.725,309.102,989.326,327.633,989.373,350.582z M950.542,334.768c2.171,0.404,3.982,1.241,5.744,2.256
		c2.178,1.254,4.271,1.347,5.614-1.115c1.452-2.666-0.376-4.057-2.439-5.131c-1.545-0.805-3.119-1.649-4.781-2.102
		c-2.1-0.57-3.873-0.707-4.688-3.553c-0.601-2.094-3.789-2-4.42,0.07c-0.792,2.6-2.396,2.788-4.342,3.303
		c-5.559,1.471-9.01,5.302-9.378,10.228c-0.452,6.047,1.672,10.479,7.652,12.224c5.305,1.547,6.441,4.408,5.71,9.125
		c-0.155,1-0.092,2.051-0.01,3.067c0.166,2.06-0.674,2.767-2.539,1.858c-2.353-1.145-4.614-2.473-6.96-3.635
		c-1.948-0.964-3.711-0.701-4.959,1.23c-1.221,1.895-0.346,3.364,1.158,4.543c2.796,2.193,5.976,3.791,9.443,4.35
		c2.81,0.454,4.198,1.408,3.802,4.432c-0.225,1.723,0.789,2.781,2.557,2.856c1.491,0.062,2.914-0.657,2.676-2.188
		c-0.658-4.225,2.261-4.4,5.075-5.256c5.149-1.564,8.563-5.873,8.735-10.896c0.177-5.175-1.994-9.777-6.979-10.965
		c-7.146-1.703-7.431-6.269-6.813-11.873C950.494,336.741,950.489,335.876,950.542,334.768z"/>
	<path display="inline" fill-rule="evenodd" clip-rule="evenodd" fill="#F2EDEC" d="M926.827,513.132
		c-0.93-9.608-1.746-18.31-2.631-27.003c-0.214-2.115,0.64-3.032,2.699-2.881c8.291,0.607,16.583,1.201,24.869,1.869
		c1.972,0.158,2.023,1.062,0.9,2.592c-5.563,7.578-5.534,7.603,1.219,14.364c7.13,7.139,14.185,14.357,21.447,21.358
		c2.266,2.185,2.043,3.483-0.063,5.604c-7.78,7.833-7.708,7.905-15.44,0.174c-6.308-6.307-12.61-12.619-18.923-18.921
		c-4.705-4.696-5.997-4.69-10.776-0.071C929.31,511.008,928.423,511.728,926.827,513.132z"/>
	<path display="inline" fill-rule="evenodd" clip-rule="evenodd" fill="#F2EDEC" d="M884.817,381.936
		c9.671-0.025,18.45,2.807,26.34,8.347c4.356,3.059,5.486,7.403,2.992,10.876c-2.575,3.584-6.663,3.846-11.2,0.715
		c-19.884-13.716-46.392-2.402-49.637,21.187c-2.58,18.743,14.967,35.893,34.196,33.498c5.944-0.741,11.317-2.741,16.154-6.302
		c2.892-2.13,6.041-2.176,9.017-0.182c2.467,1.651,3.008,4.205,2.554,7.003c-0.382,2.351-1.992,3.783-3.816,5.117
		c-15.764,11.539-37.753,11.52-53.821-0.084c-15.77-11.388-22.421-31.087-16.526-48.953
		C847.271,394.355,864.851,381.809,884.817,381.936z"/>
	<path display="inline" fill-rule="evenodd" clip-rule="evenodd" fill="#F2EDEC" d="M698.818,427.4
		c0.002-11.576-0.023-23.15,0.014-34.727c0.019-5.97,2.256-8.332,8.15-8.404c7.178-0.088,14.375-0.291,21.533,0.104
		c15.186,0.838,26.084,12.602,25.74,27.349c-0.324,13.981-11.971,25.145-26.73,25.562c-3.66,0.104-7.344,0.261-10.983-0.029
		c-3.446-0.275-4.216,1.129-4.128,4.285c0.195,7.027,0.109,14.064,0.036,21.097c-0.054,5.097-2.958,8.355-7.103,8.2
		c-4.021-0.151-6.478-3.209-6.518-8.271c-0.047-5.859-0.012-11.721-0.013-17.582S698.817,433.261,698.818,427.4z M712.479,410.01
		c0,3.944,0.083,7.16-0.028,10.369c-0.076,2.172,0.564,3.193,2.953,3.105c4.23-0.156,8.479,0.122,12.703-0.107
		c5.424-0.294,9.401-2.978,11.398-8.135c1.863-4.813,0.848-9.212-2.515-13.018c-3.044-3.445-7.112-4.444-11.518-4.197
		c-4.175,0.234-9.498-1.825-12.21,0.864C710.723,401.412,712.824,406.691,712.479,410.01z"/>
	<path display="inline" fill-rule="evenodd" clip-rule="evenodd" fill="#F2EDEC" d="M770.814,427.293
		c-0.001-11.557-0.041-23.113,0.016-34.671c0.029-5.965,2.264-8.287,8.195-8.349c7.458-0.078,14.949-0.361,22.369,0.203
		c14.715,1.115,25.364,13.008,24.905,27.173c-0.45,13.931-11.689,24.97-26.192,25.614c-3.796,0.17-7.625,0.292-11.404-0.014
		c-3.639-0.295-4.428,1.193-4.325,4.516c0.218,7.015,0.112,14.042,0.043,21.063c-0.048,4.885-2.759,7.983-6.804,8.01
		c-3.998,0.027-6.76-3.108-6.782-7.996C770.778,450.992,770.816,439.143,770.814,427.293z M793.823,397.848
		c-0.003,0.053-0.007,0.105-0.011,0.159c-1.9,0-3.818,0.169-5.697-0.04c-2.934-0.322-3.803,0.871-3.724,3.713
		c0.172,6.135,0.075,12.279,0.041,18.42c-0.011,1.883-0.015,3.471,2.659,3.377c4.526-0.156,9.077,0.154,13.59-0.146
		c6.367-0.425,11.276-5.492,11.695-11.607c0.437-6.394-3.781-12.04-10.271-13.3C799.41,397.9,796.588,398.02,793.823,397.848z"/>
	<path display="inline" fill-rule="evenodd" clip-rule="evenodd" fill="#692C84" d="M950.542,334.768
		c-0.053,1.108-0.048,1.974-0.142,2.828c-0.617,5.604-0.333,10.17,6.813,11.873c4.985,1.188,7.156,5.79,6.979,10.965
		c-0.172,5.023-3.586,9.332-8.735,10.896c-2.814,0.855-5.733,1.031-5.075,5.256c0.238,1.531-1.185,2.25-2.676,2.188
		c-1.768-0.075-2.781-1.134-2.557-2.856c0.396-3.023-0.992-3.978-3.802-4.432c-3.468-0.559-6.647-2.156-9.443-4.35
		c-1.504-1.179-2.379-2.648-1.158-4.543c1.248-1.932,3.011-2.194,4.959-1.23c2.346,1.162,4.607,2.49,6.96,3.635
		c1.865,0.908,2.705,0.201,2.539-1.858c-0.082-1.017-0.146-2.067,0.01-3.067c0.731-4.717-0.405-7.578-5.71-9.125
		c-5.98-1.745-8.104-6.177-7.652-12.224c0.368-4.926,3.819-8.757,9.378-10.228c1.945-0.515,3.55-0.703,4.342-3.303
		c0.631-2.07,3.819-2.164,4.42-0.07c0.814,2.846,2.588,2.982,4.688,3.553c1.662,0.452,3.236,1.297,4.781,2.102
		c2.063,1.074,3.892,2.465,2.439,5.131c-1.343,2.462-3.437,2.369-5.614,1.115C954.524,336.009,952.713,335.172,950.542,334.768z
		 M950.021,360.383c1.823,1.251-1.521,4.617,1.826,4.938c2.781,0.267,4.749-1.926,4.721-5.09c-0.028-3.215-2.382-5.258-4.884-5.099
		C949.014,355.303,951.198,358.444,950.021,360.383z M945.191,345.206c0-3.126-0.084-5.872,0.025-8.609
		c0.093-2.333-1.16-2.367-2.717-1.696c-1.998,0.862-3.441,2.395-3.327,4.662C939.339,342.834,941.719,344.172,945.191,345.206z"/>
	<path display="inline" fill-rule="evenodd" clip-rule="evenodd" fill="#70B2E1" d="M712.479,410.01
		c0.345-3.318-1.757-8.598,0.784-11.118c2.712-2.689,8.035-0.63,12.21-0.864c4.405-0.247,8.474,0.752,11.518,4.197
		c3.362,3.806,4.378,8.205,2.515,13.018c-1.997,5.157-5.975,7.841-11.398,8.135c-4.225,0.229-8.473-0.049-12.703,0.107
		c-2.389,0.088-3.029-0.934-2.953-3.105C712.563,417.17,712.479,413.954,712.479,410.01z"/>
	<path display="inline" fill-rule="evenodd" clip-rule="evenodd" fill="#70B2E1" d="M793.823,397.848
		c2.765,0.172,5.587,0.053,8.282,0.576c6.49,1.26,10.708,6.906,10.271,13.3c-0.419,6.115-5.328,11.183-11.695,11.607
		c-4.513,0.3-9.063-0.011-13.59,0.146c-2.674,0.094-2.67-1.494-2.659-3.377c0.034-6.141,0.131-12.285-0.041-18.42
		c-0.079-2.842,0.79-4.035,3.724-3.713c1.879,0.209,3.797,0.04,5.697,0.04C793.816,397.953,793.82,397.9,793.823,397.848z"/>
	<path display="inline" fill-rule="evenodd" clip-rule="evenodd" fill="#F8C04E" d="M950.021,360.383
		c1.178-1.938-1.007-5.08,1.663-5.251c2.502-0.159,4.855,1.884,4.884,5.099c0.028,3.164-1.939,5.356-4.721,5.09
		C948.499,365,951.844,361.634,950.021,360.383z"/>
	<path display="inline" fill-rule="evenodd" clip-rule="evenodd" fill="#F8C04E" d="M945.191,345.206
		c-3.473-1.034-5.853-2.372-6.019-5.644c-0.114-2.268,1.329-3.8,3.327-4.662c1.557-0.671,2.81-0.637,2.717,1.696
		C945.107,339.334,945.191,342.08,945.191,345.206z"/>
</g>
<path fill-rule="evenodd" clip-rule="evenodd" fill="#F5834A" d="M224.609,53.001c67.224-0.001,134.45,0.231,201.672-0.176
	c15.435-0.093,22.698,10.703,22.652,22.896c-0.299,81.915-0.153,163.832-0.156,245.749c0,14.784-7.624,22.415-22.507,22.426
	c-36.209,0.022-72.419,0.063-108.627-0.071c-3.934-0.016-5.359,0.845-5.214,5.087c0.328,9.606,0.088,9.615,9.842,9.615
	c9.794,0,19.589-0.027,29.383,0.009c11.644,0.045,19.947,8.022,20.333,19.673c0.183,5.485,0.041,10.981,0.04,16.472
	c0,7.391-0.193,7.591-7.403,7.591c-62.475,0.002-124.949,0.002-187.425,0.002c-31.164,0-62.328,0.002-93.491-0.002
	c-6.595-0.002-6.946-0.367-6.956-7.146c-0.007-5.343-0.061-10.688,0.015-16.028c0.178-12.448,8.378-20.541,20.799-20.563
	c11.724-0.021,23.448-0.076,35.17,0.049c2.647,0.028,3.541-0.614,3.578-3.437c0.147-11.243,0.257-11.241-10.965-11.241
	c-34.132,0-68.264,0.012-102.396-0.007c-15.497-0.008-22.953-7.465-22.953-22.865c0-82.211-0.003-164.425,0.003-246.638
	c0.001-10.804,5.208-18.183,14.533-20.846c2.636-0.752,5.299-0.53,7.952-0.532C89.863,52.997,157.235,53.002,224.609,53.001z
	 M224.576,60.153c0-0.052,0-0.104,0-0.157c-67.524,0-135.047-0.004-202.571,0.004c-10.216,0.001-14.889,4.34-14.89,13.88
	c-0.014,82.957-0.01,165.916,0.01,248.874c0,1.615,0.038,3.292,0.444,4.838c1.653,6.301,6.338,9.418,14.306,9.356
	c40.208-0.306,80.417-0.083,120.625-0.281c56.975-0.282,113.956-0.398,170.936,0.172c37.836,0.379,75.682,0.004,113.521-0.076
	c10.106-0.021,14.618-4.619,14.619-14.739c0.009-82.216,0.012-164.431,0.006-246.647c-0.001-11.082-4.162-15.216-15.329-15.217
	C359.027,60.149,291.802,60.153,224.576,60.153z M224.037,395.2c0-0.05,0-0.103,0-0.153c39.772,0,79.543,0.008,119.315-0.008
	c5.935-0.002,11.869-0.143,17.805-0.166c1.954-0.009,3.64-0.201,3.568-2.756c-0.139-5.035,0.473-10.089-0.397-15.102
	c-1.305-7.518-5.348-10.999-13.058-11.172c-4.747-0.105-9.496-0.177-14.243-0.177c-75.239-0.011-150.479-0.004-225.719-0.009
	c-4.896,0-9.796-0.188-14.689-0.063c-6.896,0.175-11.551,4.063-12.493,10.896c-0.583,4.23-0.362,8.578-0.392,12.875
	c-0.041,5.819,0.004,5.831,5.857,5.831C134.405,395.202,179.221,395.2,224.037,395.2z M224.51,344.461
	c-25.214,0-50.429,0.104-75.642-0.097c-4.376-0.035-5.985,1.328-5.345,5.544c0.11,0.726,0.016,1.48,0.017,2.223
	c0.008,6.138,0.008,6.147,5.971,6.147c49.093,0.004,98.187,0.024,147.28-0.016c9.692-0.007,8.099,1.246,8.54-8.551
	c0.202-4.512-1.525-5.361-5.624-5.334C274.642,344.545,249.575,344.461,224.51,344.461z"/>
<path fill-rule="evenodd" clip-rule="evenodd" fill="#F2EDEC" d="M224.576,60.153c67.226,0,134.452-0.004,201.677,0.005
	c11.167,0.001,15.328,4.136,15.329,15.217c0.006,82.216,0.003,164.432-0.006,246.647c-0.001,10.12-4.513,14.718-14.619,14.739
	c-37.84,0.08-75.686,0.455-113.521,0.076c-56.98-0.57-113.961-0.454-170.936-0.172c-40.209,0.198-80.417-0.024-120.625,0.281
	c-7.968,0.062-12.653-3.056-14.306-9.356c-0.406-1.546-0.444-3.223-0.444-4.838c-0.02-82.958-0.023-165.917-0.01-248.874
	c0.001-9.54,4.674-13.878,14.89-13.88c67.523-0.009,135.047-0.004,202.571-0.004C224.576,60.049,224.576,60.101,224.576,60.153z
	 M375.231,251.571c0.496-0.934,0.91-1.851,1.438-2.695c15.201-24.376,18.888-50.358,10.683-77.912
	c-0.807-2.709,0.294-3.487,2.311-4.597c16.656-9.172,25.649-23.241,26.413-42.312c1.073-26.851-21.116-50.217-47.79-50.469
	c-21.201-0.2-38.647,11.283-46.952,31.019c-0.864,2.05-1.535,2.795-4.108,2.224c-7.09-1.57-14.327-2.116-21.629-2.104
	c-47.628,0.074-95.255,0.054-142.882,0.019c-6.397-0.005-12.708,0.565-19.01,1.673c-48.576,8.538-83.183,56.614-75.649,105.171
	c7.266,46.82,46.085,80.186,93.598,80.271c47.627,0.083,95.255-0.084,142.881,0.083c13.975,0.049,27.438-1.969,40.252-7.59
	c2.428-1.064,3.167-0.521,3.339,1.886c0.241,3.399,0.355,6.831,0.936,10.179c0.615,3.552,3.453,4.508,6.163,2.155
	c2.347-2.038,4.601-4.231,6.597-6.607c1.922-2.287,3.175-2.08,5.202,0.002c8.382,8.612,17.016,16.976,25.411,25.575
	c2.875,2.946,5.177,3.287,8.129,0.108c4.239-4.562,8.667-8.962,13.218-13.214c3.145-2.938,2.868-5.332-0.072-8.191
	c-6.702-6.515-13.26-13.178-19.857-19.798c-2.614-2.625-7.033-5.148-7.271-7.997c-0.269-3.232,4.679-5.45,7.146-8.303
	c0.193-0.224,0.412-0.428,0.628-0.631c1.281-1.209,1.961-2.628,1.328-4.383c-0.708-1.971-2.335-2.441-4.242-2.568
	C379.419,252.431,377.284,252.874,375.231,251.571z M14.268,108.045c0,3.401,0.023,6.802-0.007,10.203
	c-0.021,2.408,0.954,4.166,3.468,4.221c2.505,0.055,3.636-1.628,3.64-4.053c0.011-6.654-0.012-13.308,0.017-19.961
	c0.01-2.429-1.054-4.205-3.489-4.237c-2.745-0.036-3.691,1.933-3.643,4.512C14.312,101.835,14.267,104.941,14.268,108.045z"/>
<path fill-rule="evenodd" clip-rule="evenodd" fill="#3B9B99" d="M224.037,395.2c-44.815,0-89.631,0.002-134.447-0.002
	c-5.853,0-5.898-0.012-5.857-5.831c0.03-4.297-0.191-8.645,0.392-12.875c0.942-6.833,5.597-10.722,12.493-10.896
	c4.893-0.126,9.793,0.063,14.689,0.063c75.24,0.005,150.48-0.002,225.719,0.009c4.747,0,9.496,0.071,14.243,0.177
	c7.71,0.173,11.753,3.654,13.058,11.172c0.87,5.013,0.259,10.066,0.397,15.102c0.071,2.555-1.614,2.747-3.568,2.756
	c-5.936,0.023-11.87,0.164-17.805,0.166c-39.771,0.016-79.543,0.008-119.315,0.008C224.037,395.098,224.037,395.15,224.037,395.2z"
	/>
<path fill-rule="evenodd" clip-rule="evenodd" fill="#3B9B99" d="M224.51,344.461c25.065,0,50.132,0.084,75.197-0.083
	c4.099-0.027,5.826,0.822,5.624,5.334c-0.441,9.797,1.152,8.544-8.54,8.551c-49.093,0.04-98.187,0.02-147.28,0.016
	c-5.963,0-5.963-0.01-5.971-6.147c-0.001-0.742,0.093-1.497-0.017-2.223c-0.64-4.216,0.969-5.579,5.345-5.544
	C174.081,344.564,199.296,344.461,224.51,344.461z"/>
<path fill-rule="evenodd" clip-rule="evenodd" fill="#108282" d="M375.231,251.571c2.053,1.303,4.188,0.859,6.209,0.995
	c1.907,0.127,3.534,0.598,4.242,2.568c0.633,1.755-0.047,3.174-1.328,4.383c-0.216,0.203-0.435,0.407-0.628,0.631
	c-2.468,2.853-7.415,5.07-7.146,8.303c0.237,2.849,4.656,5.372,7.271,7.997c6.598,6.62,13.155,13.283,19.857,19.798
	c2.94,2.859,3.217,5.254,0.072,8.191c-4.551,4.252-8.979,8.652-13.218,13.214c-2.952,3.179-5.254,2.838-8.129-0.108
	c-8.396-8.6-17.029-16.963-25.411-25.575c-2.027-2.082-3.28-2.289-5.202-0.002c-1.996,2.376-4.25,4.569-6.597,6.607
	c-2.71,2.353-5.548,1.396-6.163-2.155c-0.58-3.348-0.694-6.779-0.936-10.179c-0.172-2.407-0.911-2.95-3.339-1.886
	c-12.813,5.621-26.277,7.639-40.252,7.59c-47.626-0.167-95.254,0-142.881-0.083c-47.512-0.086-86.332-33.451-93.598-80.271
	c-7.534-48.558,27.073-96.634,75.649-105.171c6.302-1.108,12.613-1.678,19.01-1.673c47.627,0.035,95.254,0.055,142.882-0.019
	c7.302-0.012,14.539,0.534,21.629,2.104c2.573,0.571,3.244-0.174,4.108-2.224c8.305-19.736,25.751-31.219,46.952-31.019
	c26.674,0.252,48.863,23.618,47.79,50.469c-0.764,19.071-9.757,33.14-26.413,42.312c-2.017,1.11-3.117,1.887-2.311,4.597
	c8.205,27.554,4.519,53.536-10.683,77.912C376.142,249.721,375.728,250.638,375.231,251.571z M224.39,284.647
	c24.033,0,48.076-0.443,72.094,0.165c14.581,0.369,26.421-5.438,37.87-13.219c1.678-1.139,2.319-2.485,2.073-4.494
	c-0.503-4.109-0.835-8.238-1.277-12.354c-0.435-4.031,1.024-5.795,5.233-5.684c4.138,0.11,8.268,0.548,12.397,0.873
	c2.146,0.169,3.552-0.673,4.724-2.553c12.957-20.797,17.621-43.166,12.604-67.268c-1.817-8.729,0.025-7.127-9.553-8.502
	c-13.093-1.882-23.827-7.847-32.084-18.12c-7.749-9.642-11.345-20.734-10.543-33.1c0.232-3.599-1.016-5.442-4.493-6.396
	c-5.341-1.466-10.737-2.099-16.244-2.099c-48.51,0.003-97.02-0.028-145.529,0.048c-5.022,0.008-10.126,0.169-15.051,1.051
	c-47.387,8.487-78.044,51.795-71.445,97.632c6.164,42.819,43.366,74.69,86.237,74.083
	C175.727,284.366,200.06,284.649,224.39,284.647z M408.977,122.689c-0.047-23.24-18.884-42.007-42.13-41.972
	c-23.196,0.035-41.875,18.842-41.864,42.154c0.01,23.202,18.922,42.087,42.065,42.004
	C390.3,164.792,409.023,145.954,408.977,122.689z M345.639,287.3c1.615-1.423,2.513-2.151,3.342-2.951
	c4.841-4.679,6.148-4.684,10.913,0.071c6.393,6.383,12.775,12.773,19.163,19.162c7.83,7.829,7.758,7.756,15.637-0.176
	c2.133-2.148,2.358-3.463,0.063-5.675c-7.354-7.091-14.498-14.4-21.719-21.63c-6.839-6.847-6.867-6.873-1.234-14.546
	c1.138-1.55,1.084-2.464-0.912-2.626c-8.391-0.677-16.788-1.276-25.185-1.893c-2.085-0.152-2.95,0.776-2.732,2.919
	C343.87,268.759,344.697,277.569,345.639,287.3z"/>
<path fill-rule="evenodd" clip-rule="evenodd" fill="#3A58A7" d="M14.268,108.045c0-3.104,0.044-6.21-0.014-9.315
	c-0.048-2.58,0.898-4.548,3.643-4.512c2.435,0.032,3.499,1.808,3.489,4.237c-0.028,6.653-0.005,13.307-0.017,19.961
	c-0.004,2.424-1.135,4.107-3.64,4.053c-2.514-0.055-3.489-1.813-3.468-4.221C14.291,114.847,14.268,111.446,14.268,108.045z"/>
<path fill-rule="evenodd" clip-rule="evenodd" fill="#3B9B99" d="M224.39,284.647c-24.33,0.002-48.663-0.281-72.987,0.063
	c-42.871,0.607-80.073-31.264-86.237-74.083c-6.599-45.836,24.059-89.145,71.445-97.632c4.924-0.882,10.029-1.043,15.051-1.051
	c48.509-0.076,97.02-0.044,145.529-0.048c5.507,0,10.903,0.633,16.244,2.099c3.478,0.955,4.726,2.797,4.493,6.396
	c-0.802,12.366,2.794,23.458,10.543,33.1c8.257,10.273,18.991,16.238,32.084,18.12c9.578,1.375,7.735-0.226,9.553,8.502
	c5.017,24.103,0.353,46.471-12.604,67.268c-1.172,1.88-2.577,2.722-4.724,2.553c-4.13-0.325-8.26-0.763-12.397-0.873
	c-4.209-0.111-5.668,1.652-5.233,5.684c0.442,4.116,0.774,8.245,1.277,12.354c0.246,2.009-0.396,3.355-2.073,4.494
	c-11.449,7.781-23.289,13.588-37.87,13.219C272.466,284.204,248.423,284.647,224.39,284.647z M303.097,154.439
	c-20.222-0.127-38.023,12.579-44.304,31.619c-5.969,18.092,0.767,38.042,16.735,49.574c16.272,11.75,38.541,11.771,54.504,0.086
	c1.848-1.352,3.479-2.802,3.865-5.183c0.46-2.834-0.088-5.42-2.586-7.093c-3.014-2.02-6.202-1.973-9.131,0.185
	c-4.898,3.604-10.339,5.631-16.359,6.382c-19.474,2.425-37.242-14.942-34.63-33.923c3.287-23.888,30.13-35.345,50.267-21.456
	c4.595,3.17,8.733,2.906,11.342-0.724c2.525-3.516,1.382-7.916-3.03-11.013C321.779,157.283,312.89,154.415,303.097,154.439z
	 M114.737,200.481c0,5.935,0,11.87,0,17.806c0,5.937-0.034,11.872,0.013,17.806c0.041,5.126,2.527,8.222,6.6,8.374
	c4.196,0.158,7.138-3.143,7.192-8.303c0.075-7.122,0.162-14.248-0.036-21.365c-0.089-3.195,0.69-4.617,4.18-4.339
	c3.685,0.294,7.416,0.136,11.123,0.03c14.947-0.423,26.74-11.728,27.07-25.886c0.347-14.935-10.689-26.847-26.067-27.695
	c-7.25-0.4-14.538-0.193-21.807-0.104c-5.968,0.072-8.234,2.465-8.254,8.511C114.714,177.037,114.741,188.759,114.737,200.481z
	 M187.649,200.373c0,12-0.039,24,0.019,36c0.024,4.949,2.82,8.125,6.869,8.098c4.096-0.028,6.841-3.165,6.89-8.111
	c0.07-7.11,0.176-14.227-0.043-21.331c-0.104-3.363,0.696-4.87,4.381-4.572c3.826,0.31,7.704,0.186,11.548,0.015
	c14.686-0.653,26.069-11.832,26.524-25.939c0.465-14.344-10.319-26.388-25.22-27.518c-7.514-0.571-15.102-0.285-22.653-0.206
	c-6.008,0.063-8.27,2.414-8.3,8.455C187.606,176.966,187.646,188.67,187.649,200.373z"/>
<path fill-rule="evenodd" clip-rule="evenodd" fill="#F8C04E" d="M408.977,122.689c0.047,23.265-18.677,42.103-41.929,42.186
	c-23.144,0.083-42.056-18.802-42.065-42.004c-0.011-23.312,18.668-42.119,41.864-42.154
	C390.093,80.682,408.93,99.45,408.977,122.689z M369.653,106.674c2.199,0.409,4.033,1.257,5.817,2.285
	c2.205,1.27,4.325,1.362,5.686-1.13c1.471-2.699-0.381-4.109-2.471-5.196c-1.564-0.814-3.158-1.669-4.842-2.127
	c-2.126-0.578-3.922-0.717-4.747-3.599c-0.607-2.121-3.837-2.025-4.476,0.071c-0.802,2.633-2.427,2.823-4.397,3.345
	c-5.629,1.489-9.123,5.369-9.496,10.356c-0.458,6.124,1.692,10.612,7.749,12.379c5.372,1.567,6.522,4.463,5.783,9.241
	c-0.158,1.013-0.094,2.076-0.011,3.106c0.168,2.085-0.682,2.802-2.571,1.882c-2.382-1.159-4.673-2.504-7.048-3.68
	c-1.973-0.977-3.758-0.711-5.021,1.246c-1.236,1.917-0.351,3.406,1.172,4.6c2.831,2.221,6.052,3.839,9.563,4.405
	c2.846,0.459,4.251,1.425,3.851,4.488c-0.228,1.743,0.798,2.816,2.589,2.892c1.51,0.063,2.951-0.666,2.709-2.216
	c-0.667-4.279,2.29-4.458,5.141-5.323c5.215-1.584,8.672-5.948,8.846-11.035c0.178-5.24-2.02-9.902-7.067-11.104
	c-7.237-1.726-7.525-6.348-6.901-12.024C369.605,108.673,369.601,107.797,369.653,106.674z"/>
<path fill-rule="evenodd" clip-rule="evenodd" fill="#F2EDEC" d="M345.639,287.3c-0.941-9.73-1.769-18.541-2.664-27.344
	c-0.218-2.143,0.647-3.071,2.732-2.919c8.396,0.616,16.794,1.216,25.185,1.893c1.996,0.162,2.05,1.076,0.912,2.626
	c-5.633,7.673-5.604,7.699,1.234,14.546c7.221,7.229,14.364,14.539,21.719,21.63c2.295,2.212,2.069,3.526-0.063,5.675
	c-7.879,7.932-7.807,8.005-15.637,0.176c-6.388-6.389-12.771-12.779-19.163-19.162c-4.765-4.755-6.072-4.75-10.913-0.071
	C348.151,285.148,347.254,285.877,345.639,287.3z"/>
<path fill-rule="evenodd" clip-rule="evenodd" fill="#F2EDEC" d="M303.096,154.441c9.794-0.026,18.684,2.842,26.674,8.452
	c4.412,3.097,5.556,7.497,3.03,11.013c-2.608,3.63-6.747,3.895-11.342,0.724c-20.137-13.89-46.979-2.432-50.267,21.456
	c-2.612,18.98,15.156,36.348,34.63,33.923c6.021-0.751,11.461-2.777,16.359-6.382c2.929-2.157,6.117-2.204,9.131-0.185
	c2.498,1.673,3.046,4.259,2.586,7.093c-0.387,2.381-2.018,3.831-3.865,5.183c-15.963,11.685-38.231,11.664-54.504-0.086
	c-15.969-11.532-22.704-31.481-16.735-49.574C265.073,167.018,282.875,154.312,303.096,154.441z"/>
<path fill-rule="evenodd" clip-rule="evenodd" fill="#F2EDEC" d="M114.739,200.481c0.001-11.723-0.025-23.444,0.012-35.167
	c0.02-6.045,2.286-8.438,8.254-8.511c7.269-0.088,14.558-0.295,21.807,0.104c15.377,0.849,26.414,12.761,26.067,27.695
	c-0.33,14.158-12.123,25.463-27.07,25.886c-3.707,0.105-7.438,0.264-11.123-0.03c-3.49-0.278-4.269,1.144-4.18,4.339
	c0.198,7.117,0.111,14.243,0.036,21.365c-0.054,5.16-2.996,8.461-7.192,8.303c-4.073-0.152-6.56-3.248-6.6-8.374
	c-0.047-5.934-0.013-11.869-0.013-17.806C114.737,212.352,114.737,206.417,114.739,200.481z M128.573,182.871
	c0,3.994,0.083,7.25-0.029,10.5c-0.077,2.2,0.572,3.234,2.99,3.145c4.284-0.158,8.587,0.124,12.864-0.108
	c5.492-0.298,9.521-3.016,11.543-8.238c1.888-4.873,0.859-9.329-2.546-13.184c-3.082-3.488-7.201-4.5-11.664-4.25
	c-4.228,0.237-9.618-1.849-12.364,0.875C126.793,174.164,128.922,179.51,128.573,182.871z"/>
<path fill-rule="evenodd" clip-rule="evenodd" fill="#F2EDEC" d="M187.647,200.373c-0.001-11.703-0.041-23.407,0.015-35.11
	c0.03-6.041,2.292-8.392,8.3-8.455c7.552-0.079,15.139-0.365,22.653,0.206c14.901,1.13,25.685,13.174,25.22,27.518
	c-0.455,14.108-11.838,25.286-26.524,25.939c-3.844,0.171-7.722,0.295-11.548-0.015c-3.685-0.298-4.486,1.209-4.381,4.572
	c0.22,7.104,0.114,14.221,0.043,21.331c-0.049,4.946-2.794,8.083-6.89,8.111c-4.049,0.027-6.845-3.148-6.869-8.098
	C187.61,224.373,187.649,212.373,187.647,200.373z M210.948,170.554c-0.003,0.054-0.007,0.108-0.01,0.162
	c-1.924,0-3.868,0.17-5.77-0.04c-2.972-0.327-3.852,0.881-3.771,3.759c0.174,6.213,0.075,12.436,0.042,18.653
	c-0.01,1.908-0.017,3.515,2.69,3.42c4.585-0.158,9.194,0.157,13.764-0.147c6.449-0.43,11.42-5.562,11.843-11.755
	c0.442-6.475-3.829-12.193-10.401-13.469C216.605,170.607,213.748,170.729,210.948,170.554z"/>
<path fill-rule="evenodd" clip-rule="evenodd" fill="#3A58A7" d="M369.653,106.674c-0.053,1.123-0.048,1.999-0.144,2.863
	c-0.624,5.676-0.336,10.299,6.901,12.024c5.048,1.202,7.245,5.863,7.067,11.104c-0.174,5.087-3.631,9.45-8.846,11.035
	c-2.851,0.866-5.808,1.044-5.141,5.323c0.242,1.55-1.199,2.278-2.709,2.216c-1.791-0.076-2.816-1.149-2.589-2.892
	c0.4-3.063-1.005-4.029-3.851-4.488c-3.512-0.566-6.732-2.185-9.563-4.405c-1.522-1.194-2.408-2.683-1.172-4.6
	c1.264-1.958,3.049-2.223,5.021-1.246c2.375,1.176,4.666,2.521,7.048,3.68c1.89,0.92,2.739,0.203,2.571-1.882
	c-0.083-1.03-0.147-2.093,0.011-3.106c0.739-4.778-0.411-7.674-5.783-9.241c-6.057-1.767-8.207-6.255-7.749-12.379
	c0.373-4.988,3.867-8.868,9.496-10.356c1.971-0.522,3.596-0.712,4.397-3.345c0.639-2.097,3.868-2.192,4.476-0.071
	c0.825,2.882,2.621,3.021,4.747,3.599c1.684,0.458,3.277,1.313,4.842,2.127c2.09,1.087,3.941,2.497,2.471,5.196
	c-1.36,2.493-3.48,2.4-5.686,1.13C373.687,107.932,371.853,107.083,369.653,106.674z M369.125,132.615
	c1.847,1.266-1.54,4.676,1.85,5c2.817,0.27,4.81-1.95,4.781-5.155c-0.028-3.255-2.412-5.325-4.946-5.163
	C368.106,127.471,370.318,130.651,369.125,132.615z M364.235,117.245c0-3.165-0.085-5.946,0.025-8.718
	c0.095-2.364-1.175-2.398-2.751-1.718c-2.023,0.873-3.485,2.424-3.369,4.722C358.309,114.844,360.719,116.198,364.235,117.245z"/>
<path fill-rule="evenodd" clip-rule="evenodd" fill="#3B9B99" d="M128.573,182.871c0.35-3.361-1.78-8.707,0.794-11.26
	c2.746-2.724,8.137-0.638,12.364-0.875c4.462-0.25,8.582,0.762,11.664,4.25c3.405,3.855,4.434,8.311,2.546,13.184
	c-2.022,5.223-6.051,7.94-11.543,8.238c-4.277,0.232-8.58-0.05-12.864,0.108c-2.418,0.089-3.067-0.944-2.99-3.145
	C128.656,190.122,128.573,186.865,128.573,182.871z"/>
<path fill-rule="evenodd" clip-rule="evenodd" fill="#3B9B99" d="M210.948,170.554c2.8,0.175,5.658,0.053,8.388,0.583
	c6.572,1.276,10.843,6.994,10.401,13.469c-0.423,6.193-5.395,11.325-11.843,11.755c-4.57,0.304-9.178-0.011-13.764,0.147
	c-2.708,0.094-2.701-1.513-2.69-3.42c0.033-6.218,0.132-12.44-0.042-18.653c-0.081-2.877,0.798-4.086,3.771-3.759
	c1.902,0.21,3.845,0.04,5.77,0.04C210.941,170.662,210.944,170.608,210.948,170.554z"/>
<path fill-rule="evenodd" clip-rule="evenodd" fill="#F8C04E" d="M369.125,132.615c1.193-1.963-1.019-5.144,1.685-5.318
	c2.534-0.162,4.918,1.908,4.946,5.163c0.028,3.205-1.964,5.424-4.781,5.155C367.585,137.291,370.972,133.881,369.125,132.615z"/>
<path fill-rule="evenodd" clip-rule="evenodd" fill="#F8C04E" d="M364.235,117.245c-3.517-1.047-5.927-2.401-6.095-5.714
	c-0.116-2.297,1.346-3.849,3.369-4.722c1.576-0.68,2.846-0.646,2.751,1.718C364.15,111.299,364.235,114.08,364.235,117.245z"/>
</svg>
