<?xml version="1.0" encoding="utf-8"?>
<!-- Generator: Adobe Illustrator 16.0.0, SVG Export Plug-In . SVG Version: 6.00 Build 0)  -->
<!DOCTYPE svg PUBLIC "-//W3C//DTD SVG 1.1//EN" "http://www.w3.org/Graphics/SVG/1.1/DTD/svg11.dtd">
<svg version="1.1" id="Layer_1" xmlns="http://www.w3.org/2000/svg" xmlns:xlink="http://www.w3.org/1999/xlink" x="0px" y="0px"
	 width="450px" height="450px" viewBox="0 0 450 450" enable-background="new 0 0 450 450" xml:space="preserve">
<g>
	<path fill-rule="evenodd" clip-rule="evenodd" fill="#EFEFEE" d="M245.049,320.905c2.07,5.313,4.139,10.624,6.209,15.941
		c-23.91,0.045-47.813,0.111-71.716,0.122c-34.859,0.017-69.722,0.077-104.583-0.077c-6.051-0.028-9.935,0.453-9.935,8.316
		c-0.003,8.454,4.938,7.74,10.43,7.74c61.753-0.027,123.504,0,185.26,0.012c9.113,11.764,19.467,22.254,32.025,30.41
		c-1.32,2.308-3.164,1.438-4.596,1.438c-82.944,0.05-165.881,0.039-248.821,0.022c-1.984,0-3.964-0.205-5.945-0.315
		c-0.011-84.891-0.022-169.787-0.036-254.678c36.907-0.188,73.813-0.376,110.72-0.559c22.899,15.155,47.276,20.96,74.153,12.123
		c8.543-2.811,15.688-8.145,23.583-12.112c47.459,0.061,94.91,0.122,142.361,0.183c0.111,15.493,0.232,30.98,0.332,46.474
		c0.012,2.899,0.631,6.552-4.314,5.058c-19.887-5.987-39.686-3.901-59.471,0.459c-0.023-3.989-0.443-8.028,0.021-11.957
		c0.797-6.629-1.838-8.267-8.277-8.25c-79.76,0.21-159.526,0.227-239.288-0.022c-6.933-0.027-8.181,2.424-8.026,8.561
		c0.376,14.95,0.739,29.945-0.108,44.852c-0.512,8.997,2.302,10.856,10.942,10.807c61.479-0.359,122.967-0.133,184.448-0.089
		c-3.072,5.334-6.143,10.674-9.213,16.008c-29.227-0.056-58.451-0.133-87.675-0.16c-29.891-0.028-59.784,0.133-89.671-0.116
		c-6.355-0.05-8.671,1.809-8.792,8.449c-0.158,8.576,5.168,7.625,10.535,7.625c56.458,0,112.919,0.016,169.377,0.033
		c-0.951,5.272-1.896,10.54-2.85,15.808c-30.587,0.039-61.177,0.078-91.765,0.105c-25.605,0.017-51.207,0.116-76.807-0.072
		c-5.693-0.044-8.297,1.328-8.502,7.725c-0.249,7.847,3.749,8.399,9.869,8.383c55.197-0.116,110.391-0.038,165.584-0.022
		c0.166,4.543,0.338,9.08,0.51,13.623c-3.17,3.597-7.432,2.219-11.238,2.23c-51.423,0.082-102.843,0.066-154.263,0.033
		c-5.428,0-10.38-0.797-10.511,7.674c-0.135,8.881,4.903,8.361,10.859,8.35C132.26,320.938,188.654,320.938,245.049,320.905z"/>
	<path fill-rule="evenodd" clip-rule="evenodd" fill="#F16352" d="M260.416,225.363c-61.481-0.044-122.969-0.271-184.448,0.089
		c-8.64,0.05-11.454-1.81-10.942-10.807c0.847-14.906,0.484-29.901,0.108-44.852c-0.155-6.137,1.093-8.588,8.026-8.561
		c79.761,0.249,159.528,0.232,239.288,0.022c6.439-0.017,9.074,1.621,8.277,8.25c-0.465,3.929-0.045,7.968-0.021,11.957
		C296.445,190.377,276.389,205.073,260.416,225.363z"/>
	<path fill-rule="evenodd" clip-rule="evenodd" fill="#D1D2D2" d="M33.343,129.838c0.011,84.891,0.022,169.787,0.033,254.678
		c-10.259-0.044-23.306,3.696-29.965-1.218c-6.327-4.67-1.912-18.586-1.917-28.401C1.438,279.755,1.626,204.62,1.74,129.484
		c10.516-0.138,21.032-0.282,31.547-0.42L33.343,129.838z"/>
	<path fill-rule="evenodd" clip-rule="evenodd" fill="#F6B21B" d="M189.044,2.181c37.579-1.66,67.979,27.024,67.747,63.931
		c-0.221,36.408-30.549,64.578-67.747,62.935c-2.078-5.909-8.156-6.247-12.563-8.682c-39.679-21.939-42.334-80.646-5.063-106.525
		C177.217,9.806,185.337,9.264,189.044,2.181z M174.381,39.32c-1.543,4.067-9.962,3.856-5.403,11.243
		c2.747,4.46,1.021,8.04-3.674,8.688c-4.459,0.62-4.31,2.977-4.324,6.075c-0.014,3.414-0.326,6.192,4.736,6.745
		c4.059,0.442,6.092,4.681,3.434,8.012c-3.207,4.011-0.985,5.788,1.48,8.139c2.139,2.042,3.671,4.427,7.359,1.5
		c4.075-3.237,7.938-1.167,8.587,3.536c0.617,4.46,2.977,4.305,6.076,4.321c3.417,0.017,6.189,0.315,6.742-4.742
		c0.442-4.05,4.698-6.092,8.018-3.453c4,3.176,5.783,1.029,8.15-1.455c2.053-2.152,4.361-3.691,1.461-7.359
		c-3.209-4.072-1.129-7.945,3.569-8.593c4.46-0.62,4.504-2.994,4.255-6.081c-0.21-2.656,1.262-5.91-3.696-6.541
		c-5.434-0.697-7.304-4.476-3.84-9.042c2.972-3.923-0.21-5.339-2.108-7.259c-1.688-1.709-3.093-4.665-6.485-2.12
		c-5.207,3.907-7.829,1.71-9.821-3.89c-2.219-6.252-10.583-3.801-10.947-2.374C185.777,43.127,182.286,45.274,174.381,39.32z"/>
	<path fill-rule="evenodd" clip-rule="evenodd" fill="#66C6EE" d="M384.156,129.473c-47.451-0.061-94.902-0.122-142.361-0.183
		c17.9-15.664,29.416-34.754,30.748-58.951c0.289-5.223,3.094-4.742,6.453-4.742c33.186,0.022,66.373,0.11,99.561-0.089
		c4.926-0.033,6.098,1.599,6.021,6.242C384.246,90.989,384.268,110.229,384.156,129.473z"/>
	<path fill-rule="evenodd" clip-rule="evenodd" fill="#505151" d="M346.73,193.691c57.113-2.186,102.973,42.346,101.557,98.624
		c-0.963,38.162-27.766,74.571-63.887,86.811c-15.482,5.246-15.482,5.246-16.123,21.796c-5.246,0.083-10.502,0.165-15.76,0.249
		l0.111-0.764c-0.154-15.875-0.088-16.091-14.795-20.794c-18.027-5.761-32.006-17.098-44.367-30.903
		c-2.199-2.462-3.111-5.019-2.166-8.194c1.924,1.792,3.85,3.585,5.775,5.39c16.189,15.216,35.633,23.505,57.6,22.642
		c50.197-1.981,84.504-46.042,75.639-95.73c-7.07-39.567-48.703-68.285-88.465-62.177c-20.385,3.132-36.33,13.069-50.549,27.002
		c-1.156-3.646,0.477-6.236,2.842-8.908c13.025-14.702,28.176-26.139,47.465-31.246C343.986,196.851,346.145,196.497,346.73,193.691
		z"/>
	<path fill-rule="evenodd" clip-rule="evenodd" fill="#66C6EE" d="M144.06,129.279c-36.907,0.183-73.813,0.371-110.72,0.559
		c0.003,0-0.053-0.774-0.053-0.774c0.036-5.251,0.072-10.502,0.105-15.753c1.964,0.061,3.926,0.11,5.887,0.188
		c5.636,0.216,10.389,1.051,10.386-7.979s-4.739-8.211-10.383-7.984c-1.962,0.077-3.926,0.127-5.888,0.193
		c-0.008-10.596-0.014-21.192-0.022-31.782c24.523-0.111,49.043-0.205,73.567-0.343c3.408-0.022,6.109-0.387,6.399,4.786
		C114.681,94.553,126.201,113.62,144.06,129.279z M81.011,105.891c1.438-6.496-0.927-8.887-7.702-8.538
		c-5.34,0.276-8.781,0.454-8.225,7.348c0.426,5.306-0.221,9.689,7.581,8.992C78.187,113.2,82.906,113.487,81.011,105.891z
		 M112.943,105.785c1.514-6.646-1.211-8.676-7.805-8.433c-5.494,0.199-8.607,0.691-8.145,7.448c0.374,5.461,0.083,9.495,7.697,8.914
		C110.384,113.283,114.781,113.211,112.943,105.785z"/>
	<path fill-rule="evenodd" clip-rule="evenodd" fill="#3D3D3E" d="M346.73,193.691c-0.586,2.806-2.744,3.159-5.123,3.796
		c-19.289,5.107-34.439,16.544-47.465,31.246c-2.365,2.672-3.998,5.262-2.842,8.908l-0.07,0.045
		c-4.639-0.504-4.439,2.678-4.383,5.748c-0.066,0.687-0.338,1.284-0.82,1.782c-0.441,0.608-0.891,1.218-1.338,1.831
		c-15.256,28.016-15.305,56.035,0.012,84.05c0.447,0.62,0.896,1.234,1.344,1.849c0.492,0.48,0.764,1.063,0.818,1.748
		c-0.072,3.082-0.293,6.274,4.367,5.782l0.07,0.039c-0.945,3.176-0.033,5.732,2.166,8.194c12.361,13.806,26.34,25.143,44.367,30.903
		c14.707,4.703,14.641,4.919,14.795,20.794c-5.279,0.199-10.557,0.393-15.836,0.592c-0.465-15.863-0.586-15.537-15.35-20.998
		c-68.549-25.359-86.016-109.447-37.008-157.803C301.922,204.946,321.996,194.521,346.73,193.691z"/>
	<path fill-rule="evenodd" clip-rule="evenodd" fill="#D1D2D2" d="M260.713,352.96c-61.755-0.012-123.506-0.039-185.26-0.012
		c-5.492,0-10.433,0.714-10.43-7.74c0-7.863,3.884-8.345,9.935-8.316c34.862,0.154,69.724,0.094,104.583,0.077
		c23.903-0.011,47.806-0.077,71.716-0.122C254.406,342.22,257.561,347.587,260.713,352.96z"/>
	<path fill-rule="evenodd" clip-rule="evenodd" fill="#D1D2D2" d="M244.977,257.202c-56.458-0.018-112.918-0.033-169.377-0.033
		c-5.367,0-10.693,0.951-10.535-7.625c0.122-6.641,2.438-8.499,8.792-8.449c29.888,0.249,59.781,0.088,89.671,0.116
		c29.224,0.027,58.448,0.104,87.675,0.16C249.842,246.927,247.926,252.271,244.977,257.202z"/>
	<path fill-rule="evenodd" clip-rule="evenodd" fill="#D1D2D2" d="M245.049,320.905c-56.395,0.033-112.789,0.033-169.186,0.133
		c-5.957,0.012-10.995,0.531-10.859-8.35c0.13-8.471,5.083-7.674,10.511-7.674c51.42,0.033,102.84,0.049,154.263-0.033
		c3.807-0.012,8.068,1.366,11.238-2.23C243.141,308.628,244.744,314.626,245.049,320.905z"/>
	<path fill-rule="evenodd" clip-rule="evenodd" fill="#D1D2D2" d="M240.506,289.128c-55.193-0.016-110.387-0.094-165.584,0.022
		c-6.12,0.017-10.117-0.536-9.869-8.383c0.205-6.396,2.809-7.769,8.502-7.725c25.6,0.188,51.202,0.089,76.807,0.072
		c30.588-0.027,61.178-0.066,91.765-0.105C241.592,278.383,241.049,283.756,240.506,289.128z"/>
	<path fill-rule="evenodd" clip-rule="evenodd" fill="#D69428" d="M189.044,2.181c-3.707,7.083-11.827,7.625-17.626,11.659
		c-37.271,25.879-34.616,84.586,5.063,106.525c4.407,2.435,10.485,2.772,12.563,8.682c-27.705,0.675-55.728-24.606-59.803-53.966
		C124.414,40.3,148.445,7.643,183.116,1.993C185.03,1.684,187.064,2.104,189.044,2.181z"/>
	<path fill-rule="evenodd" clip-rule="evenodd" fill="#45A9D1" d="M33.373,65.946c0.008,10.59,0.014,21.187,0.022,31.782
		c0,5.19-0.002,10.386-0.002,15.582c-0.033,5.251-0.069,10.502-0.105,15.753c-10.516,0.139-21.032,0.282-31.547,0.42
		c-0.113-19.267-0.091-38.528-0.432-57.789c-0.083-4.781,1.38-6.402,6.175-6.17C16.098,65.946,24.741,65.835,33.373,65.946z"/>
	<path fill-rule="evenodd" clip-rule="evenodd" fill="#3D3D3E" d="M358.561,446.747c-11.842,4.189-21.203-1.471-21.879-13.484
		c-0.299-5.538,0.057-11.11,0.111-16.666c5.279,0.194,10.557,0.388,15.836,0.582C352.795,427.397,350.482,438.116,358.561,446.747z"
		/>
	<path fill-rule="evenodd" clip-rule="evenodd" fill="#515050" d="M358.561,446.747c-8.078-8.631-5.766-19.35-5.932-29.568
		l-0.111-0.764c5.246,0.077,10.502,0.16,15.76,0.243c-0.133,7.724,1.77,15.598-2.014,23.052
		C364.547,443.102,362.113,445.48,358.561,446.747z"/>
	<path fill-rule="evenodd" clip-rule="evenodd" fill="#DA9628" d="M352.629,417.179c-5.279-0.194-10.557-0.388-15.836-0.582
		c0-5.201,0-10.402,0-15.598c5.279-0.199,10.557-0.393,15.836-0.592l-0.111,0.764c0,5.079,0,10.164,0,15.244L352.629,417.179z"/>
	<path fill-rule="evenodd" clip-rule="evenodd" fill="#F6B21B" d="M352.518,416.415c0-5.08,0-10.165,0-15.244
		c5.258-0.084,10.514-0.166,15.76-0.249c0,5.239,0,10.485,0,15.73C363.02,416.575,357.764,416.492,352.518,416.415z"/>
	<path fill-rule="evenodd" clip-rule="evenodd" fill="#F0EEEA" d="M174.381,39.32c7.904,5.954,11.396,3.807,13.568-4.648
		c0.365-1.428,8.729-3.879,10.947,2.374c1.992,5.6,4.615,7.796,9.821,3.89c3.392-2.545,4.797,0.41,6.485,2.12
		c1.898,1.92,5.08,3.336,2.108,7.259c-3.464,4.565-1.594,8.344,3.84,9.042c4.958,0.631,3.486,3.884,3.696,6.541
		c0.249,3.087,0.205,5.461-4.255,6.081c-4.698,0.647-6.778,4.521-3.569,8.593c2.9,3.668,0.592,5.207-1.461,7.359
		c-2.367,2.484-4.149,4.631-8.15,1.455c-3.32-2.64-7.575-0.598-8.018,3.453c-0.553,5.057-3.326,4.758-6.742,4.742
		c-3.099-0.017-5.458,0.139-6.076-4.321c-0.65-4.703-4.512-6.772-8.587-3.536c-3.688,2.927-5.221,0.542-7.359-1.5
		c-2.465-2.352-4.687-4.128-1.48-8.139c2.659-3.331,0.625-7.57-3.434-8.012c-5.063-0.553-4.75-3.331-4.736-6.745
		c0.014-3.099-0.135-5.456,4.324-6.075c4.695-0.647,6.421-4.228,3.674-8.688C164.419,43.177,172.838,43.387,174.381,39.32z
		 M194.016,53.064c-8.059-0.127-13.564,4.919-13.589,12.079c-0.022,7.769,3.961,12.373,11.797,12.986
		c7.586,0.598,13.435-4.969,13.247-12.538C205.265,57.74,200.916,53.662,194.016,53.064z"/>
	<path fill-rule="evenodd" clip-rule="evenodd" fill="#65C6ED" d="M284.701,331.098c-15.316-28.015-15.268-56.034-0.012-84.05
		c0.447-0.613,0.896-1.223,1.338-1.831c0.482-0.498,0.754-1.096,0.82-1.782c2.379-1.211,3.84-3.131,4.383-5.748l0.07-0.045
		c14.219-13.933,30.164-23.87,50.549-27.002c39.762-6.108,81.395,22.609,88.465,62.177c8.865,49.688-25.441,93.749-75.639,95.73
		c-21.967,0.863-41.41-7.426-57.6-22.642c-1.926-1.805-3.852-3.598-5.775-5.39l-0.07-0.039c-0.549-2.606-2.016-4.531-4.367-5.782
		c-0.055-0.686-0.326-1.268-0.818-1.748C285.598,332.332,285.148,331.718,284.701,331.098z M392.445,289.189
		c0-8.644-0.221-17.286,0.078-25.918c0.211-5.959-3.287-6.202-7.67-6.169c-4.559,0.033-8.553-0.261-8.443,6.43
		c0.299,16.947,0.311,33.901,0,50.844c-0.109,6.469,3.465,6.618,8.223,6.718c5.08,0.1,8.234-0.769,7.936-6.983
		C392.158,305.822,392.469,297.5,392.445,289.189z M312.668,296.443c0,5.981,0.299,11.985-0.088,17.944
		c-0.422,6.49,3.418,6.629,8.189,6.712c5.045,0.083,8.188-0.736,7.955-6.967c-0.387-10.624-0.266-21.28-0.033-31.91
		c0.123-5.583-0.176-9.312-7.68-9.367c-7.658-0.056-8.92,3.314-8.432,9.628C312.934,287.114,312.646,291.79,312.668,296.443z
		 M360.541,305.015c0-1.328,0.111-2.673-0.021-3.99c-0.531-5.284,2.789-12.15-7.736-12.229c-10.08-0.082-8.123,6.093-8.199,11.792
		c-0.057,4.315,0.342,8.676-0.066,12.953c-0.643,6.596,2.744,7.652,8.332,7.603c5.225-0.05,8.367-1.123,7.748-7.166
		C360.299,311.023,360.553,308.002,360.541,305.015z"/>
	<path fill-rule="evenodd" clip-rule="evenodd" fill="#515050" d="M33.393,113.311c0-5.196,0.002-10.392,0.002-15.582
		c1.962-0.066,3.926-0.116,5.888-0.193c5.644-0.227,10.38-1.046,10.383,7.984s-4.75,8.195-10.386,7.979
		C37.318,113.421,35.357,113.371,33.393,113.311z"/>
	<path fill-rule="evenodd" clip-rule="evenodd" fill="#515050" d="M81.011,105.891c1.895,7.597-2.825,7.309-8.347,7.802
		c-7.802,0.697-7.155-3.686-7.581-8.992c-0.556-6.894,2.885-7.072,8.225-7.348C80.084,97.004,82.45,99.395,81.011,105.891z"/>
	<path fill-rule="evenodd" clip-rule="evenodd" fill="#515050" d="M112.943,105.785c1.837,7.426-2.559,7.498-8.252,7.929
		c-7.614,0.581-7.323-3.453-7.697-8.914c-0.462-6.756,2.65-7.249,8.145-7.448C111.732,97.109,114.457,99.14,112.943,105.785z"/>
	<path fill-rule="evenodd" clip-rule="evenodd" fill="#505151" d="M291.23,237.687c-0.543,2.617-2.004,4.537-4.383,5.748
		C286.791,240.364,286.592,237.183,291.23,237.687z"/>
	<path fill-rule="evenodd" clip-rule="evenodd" fill="#505151" d="M286.863,334.694c2.352,1.251,3.818,3.176,4.367,5.782
		C286.57,340.969,286.791,337.776,286.863,334.694z"/>
	<path fill-rule="evenodd" clip-rule="evenodd" fill="#505151" d="M286.027,245.217c-0.441,0.608-0.891,1.218-1.338,1.831
		C285.137,246.435,285.586,245.825,286.027,245.217z"/>
	<path fill-rule="evenodd" clip-rule="evenodd" fill="#505151" d="M284.701,331.098c0.447,0.62,0.896,1.234,1.344,1.849
		C285.598,332.332,285.148,331.718,284.701,331.098z"/>
	<path fill-rule="evenodd" clip-rule="evenodd" fill="#F7B41D" d="M194.016,53.064c6.9,0.598,11.249,4.676,11.454,12.527
		c0.188,7.569-5.661,13.136-13.247,12.538c-7.835-0.614-11.819-5.218-11.797-12.986C180.452,57.983,185.957,52.938,194.016,53.064z"
		/>
	<path fill-rule="evenodd" clip-rule="evenodd" fill="#EFEFEE" d="M392.457,289.189c0.012,8.311-0.299,16.633,0.111,24.921
		c0.299,6.215-2.855,7.083-7.936,6.983c-4.758-0.1-8.332-0.249-8.223-6.718c0.311-16.942,0.299-33.896,0-50.844
		c-0.109-6.69,3.885-6.396,8.443-6.43c4.383-0.033,7.881,0.21,7.67,6.169C392.225,271.903,392.445,280.546,392.457,289.189z"/>
	<path fill-rule="evenodd" clip-rule="evenodd" fill="#EFEFEE" d="M312.656,296.443c-0.01-4.653,0.277-9.329-0.076-13.96
		c-0.488-6.313,0.773-9.684,8.432-9.628c7.504,0.056,7.803,3.784,7.68,9.367c-0.232,10.63-0.354,21.286,0.033,31.91
		c0.232,6.23-2.91,7.05-7.955,6.967c-4.771-0.083-8.611-0.222-8.189-6.712C312.967,308.429,312.668,302.425,312.656,296.443z"/>
	<path fill-rule="evenodd" clip-rule="evenodd" fill="#EFEFEE" d="M360.541,305.015c0.012,2.987-0.242,6.009,0.057,8.963
		c0.619,6.043-2.523,7.116-7.748,7.166c-5.588,0.05-8.975-1.007-8.332-7.603c0.408-4.277,0.01-8.638,0.066-12.953
		c0.076-5.699-1.881-11.874,8.199-11.792c10.525,0.078,7.205,6.944,7.736,12.229C360.652,302.342,360.541,303.687,360.541,305.015z"
		/>
</g>
</svg>
