<?xml version="1.0" encoding="utf-8"?>
<!-- Generator: Adobe Illustrator 16.0.0, SVG Export Plug-In . SVG Version: 6.00 Build 0)  -->
<!DOCTYPE svg PUBLIC "-//W3C//DTD SVG 1.1//EN" "http://www.w3.org/Graphics/SVG/1.1/DTD/svg11.dtd">
<svg version="1.1" id="Layer_1" xmlns="http://www.w3.org/2000/svg" xmlns:xlink="http://www.w3.org/1999/xlink" x="0px" y="0px"
	 width="450px" height="450px" viewBox="0 0 450 450" enable-background="new 0 0 450 450" xml:space="preserve">
<ellipse fill-rule="evenodd" clip-rule="evenodd" fill="#FFFFFF" cx="192.92" cy="142.013" rx="20.555" ry="23.742"/>
<g>
	<path fill-rule="evenodd" clip-rule="evenodd" fill="#333333" d="M344.337,443.607c-44.428-44.629-78.772-97.494-118.972-145.572
		c-3.39-4.053-3.405-6.922,1.05-9.811c6.508-4.221,6.712-8.348,1.482-14.574c-16.207-19.291-10.194-16.84-30.749-7.615
		c-75.686,33.988-167.081-5.568-190.519-90.045c0,0-7.361-38.162-0.846-69.477C17.071,52.233,54.519,19.32,107.626,4.366
		c0,0,33.569-6.422,64.689-0.132C231.715,16.236,266.528,57.828,277.326,117c7.389,40.49-2.96,77.953-29.324,110.205
		c-9.801,11.99-10.103,11.756-0.463,24.285c1.757,2.289,3.807,4.367,5.419,6.748c2.917,4.309,5.999,4.971,9.819,1.131
		c5.367-5.391,9.528-4.182,14.097,1.67c33.204,42.52,66.166,85.25,100.249,127.061c12.954,15.893,17.021,46.846-3.56,58.561
		C357.732,455.666,344.337,443.607,344.337,443.607z M254.384,140.397c2.677-55.82-42.271-115.34-114.074-115.422
		C77.542,24.901,26.316,72.94,26.176,140.012c-0.139,66.902,55.822,112.629,112.862,113.668
		C200.858,254.805,256.306,201.341,254.384,140.397z"/>
	<path fill-rule="evenodd" clip-rule="evenodd" fill="#02599B" d="M444.818,296.354c-12.228-8.127-24.651-15.984-36.584-24.523
		c-4.815-3.445-6.928-2.516-9.92,2.033c-12.076,18.352-26.069,35.174-41.429,50.904c-3.791,3.883-5.822,4.803-9.597-0.182
		c-12.355-16.314-25.063-32.377-37.992-48.244c-3.219-3.945-2.293-6.082,0.717-9.287c9.69-10.328,18.162-21.58,25.231-33.918
		c3.594-6.272,3.673-10.095-3.737-14.01c-13.646-7.214-26.619-15.701-41.139-24.418c52.47-18.437,103.455-36.354,154.449-54.27
		C444.818,192.41,444.818,244.383,444.818,296.354z"/>
	<path fill-rule="evenodd" clip-rule="evenodd" fill="#02599B" d="M22.572,440.316c-5.043-0.676-10.024-1.779-15.033-4.254
		c10.642-2.393,21.365-4.453,31.904-7.236c64.82-17.123,123.361-47.568,178.661-84.783c14.858-10.002,14.826-10.102,25.748,3.754
		c10.175,12.9,20.293,25.842,30.91,39.371c-19.597,11.791-39.926,20.865-60.842,28.672c-32.496,12.125-66.138,18.898-100.415,24.459
		C113.505,440.299,79.624,447.996,22.572,440.316z"/>
	<path fill-rule="evenodd" clip-rule="evenodd" fill="#FFFFFF" d="M254.384,140.397c1.922,60.944-53.525,114.407-115.346,113.282
		c-57.04-1.039-113.001-46.766-112.862-113.668C26.316,72.94,77.542,24.901,140.31,24.975
		C212.113,25.057,257.061,84.578,254.384,140.397z M164.094,141.029c-0.064,19.923,10.926,32.103,29.065,32.218
		c17.574,0.111,29.403-12.358,29.554-31.153c0.157-19.11-11.052-31.257-28.966-31.392
		C175.214,110.563,164.156,121.873,164.094,141.029z M110.008,141.752c0,8.068,0.089,16.138-0.04,24.205
		c-0.057,3.711,0.697,5.961,5.179,5.882c11.812-0.203,23.63-0.15,35.445-0.012c3.626,0.041,5.07-1.113,5.063-4.938
		c-0.011-4.074-2.085-4.771-5.393-4.73c-5.763,0.07-11.524-0.016-17.288,0c-6.002,0.017-11.771,1.356-11.688-8.638
		c0.079-9.566,5.536-8.093,11.181-8.064c4.608,0.023,9.223-0.101,13.833,0.062c3.668,0.129,5.898-0.542,5.923-5.078
		c0.024-4.349-1.738-5.394-5.644-5.264c-6.332,0.21-12.693-0.244-19.014,0.13c-5.498,0.322-6.006-2.674-5.981-6.931
		c0.025-4.194,0.383-7.316,5.938-7.031c6.895,0.351,13.83,0.009,20.741,0.106c3.483,0.048,6.143-0.155,6.078-4.882
		c-0.063-4.291-1.956-5.404-5.826-5.356c-10.951,0.134-21.906,0.214-32.854-0.026c-4.837-0.107-5.785,2.258-5.705,6.361
		C110.105,125.612,109.999,133.684,110.008,141.752z M72.358,110.807c1.034,0-0.12-0.056-1.271,0.009
		c-10.61,0.588-17.308,5.843-18.597,14.562c-1.226,8.311,3.556,14.903,13.566,18.324c4.336,1.482,8.837,2.481,13.224,3.844
		c3.963,1.233,7.948,2.709,7.121,8.086c-0.736,4.757-4.254,6.633-8.547,7.158c-6.494,0.795-12.292-0.486-14.955-7.297
		c-2.476-6.332-7.682-3.661-10.868-2.534c-4.287,1.516-0.738,5.439,0.211,7.78c3.841,9.469,15.212,14.178,27.873,12.059
		c11.686-1.957,17.964-7.77,18.488-17.12c0.566-10.217-3.856-15.778-15.661-19.545c-4.644-1.483-9.38-2.694-13.996-4.263
		c-2.796-0.95-5.52-2.496-5.053-6.063c0.45-3.464,3.421-4.284,6.306-4.941c5.466-1.245,10.629-0.785,13.625,4.524
		c3.282,5.81,8.701,4.07,11.784,2.047c3.159-2.08-0.077-6.319-1.966-8.996C89.014,111.872,82.053,110.468,72.358,110.807z"/>
	<path fill-rule="evenodd" clip-rule="evenodd" fill="#F5802E" d="M164.094,141.029c0.062-19.156,11.12-30.466,29.653-30.327
		c17.914,0.135,29.123,12.281,28.966,31.392c-0.15,18.795-11.979,31.264-29.554,31.153
		C175.021,173.132,164.03,160.952,164.094,141.029z M176.335,141.587c0.015,13.164,6.745,21.431,17.32,21.264
		c10.059-0.157,16.861-8.463,16.673-21.063c-0.058-3.927-0.787-8.105-2.308-11.703c-4.698-11.112-20.436-12.798-27.693-3.153
		C177.084,131.24,176.084,136.269,176.335,141.587z"/>
	<path fill-rule="evenodd" clip-rule="evenodd" fill="#F5802E" d="M110.005,141.752c-0.007-8.068,0.1-16.14-0.05-24.206
		c-0.08-4.103,0.868-6.468,5.705-6.361c10.947,0.24,21.902,0.161,32.854,0.026c3.87-0.048,5.763,1.065,5.826,5.356
		c0.065,4.727-2.594,4.931-6.078,4.882c-6.912-0.097-13.846,0.245-20.741-0.106c-5.555-0.285-5.913,2.837-5.938,7.031
		c-0.024,4.257,0.484,7.253,5.981,6.931c6.321-0.374,12.683,0.08,19.014-0.13c3.906-0.129,5.668,0.915,5.644,5.264
		c-0.025,4.536-2.255,5.207-5.923,5.078c-4.609-0.163-9.225-0.039-13.833-0.062c-5.645-0.029-11.102-1.502-11.181,8.064
		c-0.082,9.994,5.687,8.655,11.688,8.638c5.764-0.016,11.525,0.07,17.288,0c3.307-0.042,5.381,0.656,5.393,4.73
		c0.007,3.826-1.437,4.979-5.063,4.938c-11.814-0.138-23.633-0.19-35.445,0.012c-4.482,0.079-5.235-2.171-5.179-5.882
		C110.098,157.89,110.008,149.82,110.005,141.752z"/>
	<path fill-rule="evenodd" clip-rule="evenodd" fill="#02599B" d="M72.358,110.807c9.695-0.338,16.655,1.065,21.284,7.635
		c1.889,2.677,5.125,6.916,1.966,8.996c-3.083,2.022-8.501,3.763-11.784-2.047c-2.996-5.309-8.159-5.77-13.625-4.524
		c-2.884,0.658-5.855,1.478-6.306,4.941c-0.467,3.567,2.257,5.113,5.053,6.063c4.616,1.568,9.353,2.78,13.996,4.263
		c11.804,3.767,16.227,9.328,15.661,19.545c-0.524,9.351-6.802,15.163-18.488,17.12c-12.661,2.12-24.031-2.589-27.873-12.059
		c-0.949-2.34-4.498-6.264-0.211-7.78c3.186-1.127,8.393-3.798,10.868,2.534c2.663,6.812,8.46,8.093,14.955,7.297
		c4.293-0.525,7.811-2.401,8.547-7.158c0.828-5.377-3.157-6.853-7.121-8.086c-4.387-1.363-8.887-2.362-13.224-3.844
		c-10.011-3.421-14.792-10.013-13.566-18.324c1.289-8.719,7.987-13.974,18.597-14.562C72.238,110.751,73.393,110.807,72.358,110.807
		z"/>
</g>
</svg>
