<?xml version="1.0" encoding="utf-8"?>
<!-- Generator: Adobe Illustrator 16.0.0, SVG Export Plug-In . SVG Version: 6.00 Build 0)  -->
<!DOCTYPE svg PUBLIC "-//W3C//DTD SVG 1.1//EN" "http://www.w3.org/Graphics/SVG/1.1/DTD/svg11.dtd">
<svg version="1.1" id="Layer_1" xmlns="http://www.w3.org/2000/svg" xmlns:xlink="http://www.w3.org/1999/xlink" x="0px" y="0px"
	 width="450px" height="450px" viewBox="0 0 450 450" enable-background="new 0 0 450 450" xml:space="preserve">
<ellipse fill-rule="evenodd" clip-rule="evenodd" fill="#FFFFFF" cx="193.969" cy="127.907" rx="21.937" ry="25.338"/>
<g display="none">
	<path display="inline" fill-rule="evenodd" clip-rule="evenodd" fill="#333333" d="M344.337,443.607
		c-44.428-44.629-78.772-97.494-118.972-145.572c-3.39-4.053-3.405-6.922,1.05-9.811c6.508-4.221,6.712-8.348,1.482-14.574
		c-16.207-19.291-10.194-16.84-30.749-7.615c-75.686,33.988-167.081-5.568-190.519-90.045c0,0-7.361-38.162-0.846-69.477
		C17.071,52.233,54.519,19.32,107.626,4.366c0,0,33.569-6.422,64.689-0.132C231.715,16.236,266.528,57.828,277.326,117
		c7.389,40.49-2.96,77.953-29.324,110.205c-9.801,11.99-10.103,11.756-0.463,24.285c1.757,2.289,3.807,4.367,5.419,6.748
		c2.917,4.309,5.999,4.971,9.819,1.131c5.367-5.391,9.528-4.182,14.097,1.67c33.204,42.52,66.166,85.25,100.249,127.061
		c12.954,15.893,17.021,46.846-3.56,58.561C357.732,455.666,344.337,443.607,344.337,443.607z M254.384,140.397
		c2.677-55.82-42.271-115.34-114.074-115.422C77.542,24.901,26.316,72.94,26.176,140.012
		c-0.139,66.902,55.822,112.629,112.862,113.668C200.858,254.805,256.306,201.341,254.384,140.397z"/>
	<path display="inline" fill-rule="evenodd" clip-rule="evenodd" fill="#02599B" d="M444.818,296.354
		c-12.228-8.127-24.651-15.984-36.584-24.523c-4.815-3.445-6.928-2.516-9.92,2.033c-12.076,18.352-26.069,35.174-41.429,50.904
		c-3.791,3.883-5.822,4.803-9.597-0.182c-12.355-16.314-25.063-32.377-37.992-48.244c-3.219-3.945-2.293-6.082,0.717-9.287
		c9.69-10.328,18.162-21.58,25.231-33.918c3.594-6.272,3.673-10.095-3.737-14.01c-13.646-7.214-26.619-15.701-41.139-24.418
		c52.47-18.437,103.455-36.354,154.449-54.27C444.818,192.41,444.818,244.383,444.818,296.354z"/>
	<path display="inline" fill-rule="evenodd" clip-rule="evenodd" fill="#02599B" d="M22.572,440.316
		c-5.043-0.676-10.024-1.779-15.033-4.254c10.642-2.393,21.365-4.453,31.904-7.236c64.82-17.123,123.361-47.568,178.661-84.783
		c14.858-10.002,14.826-10.102,25.748,3.754c10.175,12.9,20.293,25.842,30.91,39.371c-19.597,11.791-39.926,20.865-60.842,28.672
		c-32.496,12.125-66.138,18.898-100.415,24.459C113.505,440.299,79.624,447.996,22.572,440.316z"/>
	<path display="inline" fill-rule="evenodd" clip-rule="evenodd" fill="#FFFFFF" d="M254.384,140.397
		c1.922,60.944-53.525,114.407-115.346,113.282c-57.04-1.039-113.001-46.766-112.862-113.668
		C26.316,72.94,77.542,24.901,140.31,24.975C212.113,25.057,257.061,84.578,254.384,140.397z M164.094,141.029
		c-0.064,19.923,10.926,32.103,29.065,32.218c17.574,0.111,29.403-12.358,29.554-31.153c0.157-19.11-11.052-31.257-28.966-31.392
		C175.214,110.563,164.156,121.873,164.094,141.029z M110.008,141.752c0,8.068,0.089,16.138-0.04,24.205
		c-0.057,3.711,0.697,5.961,5.179,5.882c11.812-0.203,23.63-0.15,35.445-0.012c3.626,0.041,5.07-1.113,5.063-4.938
		c-0.011-4.074-2.085-4.771-5.393-4.73c-5.763,0.07-11.524-0.016-17.288,0c-6.002,0.017-11.771,1.356-11.688-8.638
		c0.079-9.566,5.536-8.093,11.181-8.064c4.608,0.023,9.223-0.101,13.833,0.062c3.668,0.129,5.898-0.542,5.923-5.078
		c0.024-4.349-1.738-5.394-5.644-5.264c-6.332,0.21-12.693-0.244-19.014,0.13c-5.498,0.322-6.006-2.674-5.981-6.931
		c0.025-4.194,0.383-7.316,5.938-7.031c6.895,0.351,13.83,0.009,20.741,0.106c3.483,0.048,6.143-0.155,6.078-4.882
		c-0.063-4.291-1.956-5.404-5.826-5.356c-10.951,0.134-21.906,0.214-32.854-0.026c-4.837-0.107-5.785,2.258-5.705,6.361
		C110.105,125.612,109.999,133.684,110.008,141.752z M72.358,110.807c1.034,0-0.12-0.056-1.271,0.009
		c-10.61,0.588-17.308,5.843-18.597,14.562c-1.226,8.311,3.556,14.903,13.566,18.324c4.336,1.482,8.837,2.481,13.224,3.844
		c3.963,1.233,7.948,2.709,7.121,8.086c-0.736,4.757-4.254,6.633-8.547,7.158c-6.494,0.795-12.292-0.486-14.955-7.297
		c-2.476-6.332-7.682-3.661-10.868-2.534c-4.287,1.516-0.738,5.439,0.211,7.78c3.841,9.469,15.212,14.178,27.873,12.059
		c11.686-1.957,17.964-7.77,18.488-17.12c0.566-10.217-3.856-15.778-15.661-19.545c-4.644-1.483-9.38-2.694-13.996-4.263
		c-2.796-0.95-5.52-2.496-5.053-6.063c0.45-3.464,3.421-4.284,6.306-4.941c5.466-1.245,10.629-0.785,13.625,4.524
		c3.282,5.81,8.701,4.07,11.784,2.047c3.159-2.08-0.077-6.319-1.966-8.996C89.014,111.872,82.053,110.468,72.358,110.807z"/>
	<path display="inline" fill-rule="evenodd" clip-rule="evenodd" fill="#F5802E" d="M164.094,141.029
		c0.062-19.156,11.12-30.466,29.653-30.327c17.914,0.135,29.123,12.281,28.966,31.392c-0.15,18.795-11.979,31.264-29.554,31.153
		C175.021,173.132,164.03,160.952,164.094,141.029z M176.335,141.587c0.015,13.164,6.745,21.431,17.32,21.264
		c10.059-0.157,16.861-8.463,16.673-21.063c-0.058-3.927-0.787-8.105-2.308-11.703c-4.698-11.112-20.436-12.798-27.693-3.153
		C177.084,131.24,176.084,136.269,176.335,141.587z"/>
	<path display="inline" fill-rule="evenodd" clip-rule="evenodd" fill="#F5802E" d="M110.005,141.752
		c-0.007-8.068,0.1-16.14-0.05-24.206c-0.08-4.103,0.868-6.468,5.705-6.361c10.947,0.24,21.902,0.161,32.854,0.026
		c3.87-0.048,5.763,1.065,5.826,5.356c0.065,4.727-2.594,4.931-6.078,4.882c-6.912-0.097-13.846,0.245-20.741-0.106
		c-5.555-0.285-5.913,2.837-5.938,7.031c-0.024,4.257,0.484,7.253,5.981,6.931c6.321-0.374,12.683,0.08,19.014-0.13
		c3.906-0.129,5.668,0.915,5.644,5.264c-0.025,4.536-2.255,5.207-5.923,5.078c-4.609-0.163-9.225-0.039-13.833-0.062
		c-5.645-0.029-11.102-1.502-11.181,8.064c-0.082,9.994,5.687,8.655,11.688,8.638c5.764-0.016,11.525,0.07,17.288,0
		c3.307-0.042,5.381,0.656,5.393,4.73c0.007,3.826-1.437,4.979-5.063,4.938c-11.814-0.138-23.633-0.19-35.445,0.012
		c-4.482,0.079-5.235-2.171-5.179-5.882C110.098,157.89,110.008,149.82,110.005,141.752z"/>
	<path display="inline" fill-rule="evenodd" clip-rule="evenodd" fill="#02599B" d="M72.358,110.807
		c9.695-0.338,16.655,1.065,21.284,7.635c1.889,2.677,5.125,6.916,1.966,8.996c-3.083,2.022-8.501,3.763-11.784-2.047
		c-2.996-5.309-8.159-5.77-13.625-4.524c-2.884,0.658-5.855,1.478-6.306,4.941c-0.467,3.567,2.257,5.113,5.053,6.063
		c4.616,1.568,9.353,2.78,13.996,4.263c11.804,3.767,16.227,9.328,15.661,19.545c-0.524,9.351-6.802,15.163-18.488,17.12
		c-12.661,2.12-24.031-2.589-27.873-12.059c-0.949-2.34-4.498-6.264-0.211-7.78c3.186-1.127,8.393-3.798,10.868,2.534
		c2.663,6.812,8.46,8.093,14.955,7.297c4.293-0.525,7.811-2.401,8.547-7.158c0.828-5.377-3.157-6.853-7.121-8.086
		c-4.387-1.363-8.887-2.362-13.224-3.844c-10.011-3.421-14.792-10.013-13.566-18.324c1.289-8.719,7.987-13.974,18.597-14.562
		C72.238,110.751,73.393,110.807,72.358,110.807z"/>
</g>
<g>
	<path fill-rule="evenodd" clip-rule="evenodd" fill="#555B6D" d="M311.719,148.564c0.092,1.725,1.204,2.873,2.219,4.12
		c14.426,17.776,22.799,37.986,25.159,60.835c2.903,28.138-4.132,53.597-19.623,76.967c-0.421,0.64-1.113,1.102-1.679,1.647
		c-1.538-0.136-2.65,0.771-3.934,1.423c-6.782,3.448-13.26,7.617-20.871,9.186c-0.321-0.343-0.645-0.685-0.969-1.028
		c-0.734-5.94-3.113-11.311-5.748-16.586c-21.773-43.628-83.885-50.625-113.942-12.842c-0.227,0.01-0.448-0.016-0.663-0.076
		c-1.097-0.897-2.394-1.636-3.265-2.72c-20.202-25.104-30.169-53.315-26.952-85.907c1.689-17.138,6.898-32.901,15.351-47.732
		c0.654-1.146,1.232-2.211,1.162-3.545c11.223-9.052,24.091-14.812,37.96-18.208c37.555-9.199,71.561-1.731,101.847,22.38
		c1.139,0.908,2.232,1.805,3.762,1.894C304.113,142.581,307.521,145.967,311.719,148.564z M211.58,151.625
		c-12.359,5.803-19.196,18.736-17.194,32.526c1.816,12.519,13.142,23.843,25.601,25.593c13.889,1.951,26.694-4.818,32.529-17.201
		c5.634-12.373,3.462-25.684-5.69-34.913C237.446,148.174,224.04,145.889,211.58,151.625z"/>
	<path fill-rule="evenodd" clip-rule="evenodd" fill="#4B80C2" d="M20.898,21.001c19.386-20.533,52.479-23.94,76.813-7.91
		c24.55,16.173,34.321,47.801,22.894,74.116c-1.324,0.871-2.707,1.664-3.961,2.623c-14.56,11.107-30.847,14.964-48.846,11.687
		c1.086-2.203,1.266-4.547,1.252-6.967c-0.049-8.777,0.185-17.56-0.109-26.325c-0.135-3.912,0.863-5.291,4.944-5.105
		c5.375,0.244,9.135-3.277,9.074-7.68c-0.059-4.58-3.51-7.326-9.197-7.55c-1.43-0.057-3.559,0.992-4.16-1.064
		c-0.494-1.708,0.598-3.396,1.852-4.707c1.607-1.682,3.648-2.434,5.935-2.758c5.477-0.779,8.477-4.295,7.664-8.853
		c-0.787-4.418-5.105-7.029-10.281-6.219c-11.054,1.734-18.316,8.876-20.503,20.292c-0.387,2.011-0.728,3.357-3.427,3.458
		c-4.971,0.188-7.725,3.014-7.869,7.189c-0.15,4.355,2.621,7.388,7.793,7.91c2.171,0.217,3.109,0.682,3.072,3.018
		c-0.16,10.204-0.184,20.411-0.257,30.618c-22.966-11.455-34.737-29.981-35.585-55.66C17.768,34.163,19.98,27.71,20.898,21.001z"/>
	<path fill-rule="evenodd" clip-rule="evenodd" fill="#E82736" d="M348.442,337.345c11.815-8.209,24.729-12.938,39.306-12.592
		c42.183,0.996,71.576,46.33,54.607,84.268c-0.496,0.277-0.766,0.638-0.434,1.212c0,0-0.104,0.361-0.109,0.357
		c-1.711-1.039-2.59,0.393-3.667,1.23c-5.813,4.523-12.168,8.058-19.304,9.921c-9.656,2.521-19.385,4.541-29.23,0.753
		c2.148-2.427,2.626-5.339,2.609-8.461c-0.047-8.141,0.157-16.285-0.084-24.417c-0.104-3.509,0.816-5.984,3.609-8.224
		c5.85-4.685,11.464-9.67,17.131-14.58c4.163-3.611,4.812-8.194,1.753-11.729c-3.023-3.494-7.601-3.482-11.845,0.123
		c-4.982,4.238-10.014,8.43-14.821,12.861c-2.402,2.213-3.981,2.796-6.469-0.08c-3.75-4.336-8.006-8.237-12.105-12.262
		c-3.972-3.898-8.528-4.256-11.812-1.031c-3.352,3.293-3.1,7.791,0.84,11.812c5.134,5.247,10.305,10.463,15.604,15.543
		c1.893,1.814,2.596,3.729,2.563,6.319c-0.125,9.734-0.054,19.472-0.054,29.208c-1.624,1.771-3.001,0.18-4.215-0.507
		c-20.641-11.682-31.313-29.425-32.498-53.107c-0.366-7.303,1.904-14.107,2.865-21.154
		C344.604,340.987,346.521,339.164,348.442,337.345z"/>
	<path fill-rule="evenodd" clip-rule="evenodd" fill="#70C175" d="M20.896,342.816c19.649-20.494,51.992-23.944,76.495-8.159
		c1.328,0.855,2.64,1.731,3.957,2.596c4.199,3.467,8.015,7.313,11.501,11.491c12.771,18.263,16.066,37.899,8.549,59.092
		c-0.262,0.738-0.682,1.417-1.028,2.125c-1.33-0.049-2.437,0.36-3.456,1.283c-5.771,5.226-12.66,8.468-20.039,10.542
		c-6.948,1.955-13.99,4.086-21.331,1.705c2.854-2.412,4.76-5.201,3.371-9.146c-1.113-3.162-3.443-4.854-6.74-5.289
		c-2.625-0.349-6.32,1.273-7.634-0.796c-1.311-2.065-0.432-5.528-0.49-8.38c-0.028-1.274-0.004-2.551-0.004-3.828
		c0.008-9.894,0.008-9.892,9.683-9.999c0.795-0.009,1.602,0.054,2.389-0.044c4.107-0.505,7.115-3.802,7.072-7.7
		c-0.037-3.908-3.084-6.998-7.224-7.586c-3.939-0.557-9.377,2.101-11.474-1.307c-1.856-3.016-0.424-8.053-0.446-12.198
		c-0.001-0.479,0.022-0.957-0.003-1.435c-0.264-4.8-3.42-8.077-7.732-8.038c-4.307,0.039-7.429,3.32-7.57,8.17
		c-0.113,3.826-0.095,7.656,0.004,11.482c0.056,2.154-0.106,3.386-2.951,3.429c-5.421,0.082-8.57,3.168-8.56,7.59
		c0.01,4.401,3.145,7.36,8.613,7.557c2.328,0.08,2.962,0.692,2.917,2.979c-0.173,8.923-0.152,17.849-0.201,26.776
		c-19.444-11.149-28.823-28.384-30.504-50.313C17.467,357.678,19.64,350.309,20.896,342.816z"/>
	<path fill-rule="evenodd" clip-rule="evenodd" fill="#44394A" d="M112.849,348.744c-3.486-4.179-7.302-8.024-11.501-11.491
		c12.222-10.964,23.278-23.111,35.09-34.491c1.893-1.821,0.749-3.057-0.353-4.447c-3.854-4.861-7.424-9.915-10.582-15.265
		c-12.359-20.942-17.271-43.753-15.292-67.73c1.883-22.784,9.937-43.553,24.612-61.39c2.689-3.269,2.986-5.347-0.391-8.546
		c-9.828-9.316-19.255-19.056-28.813-28.655c-1.221-1.226-2.736-2.234-3.303-4.007c3.402-3.406,6.809-6.811,10.211-10.215
		c6.283,4.684,11.226,10.764,16.827,16.152c5.621,5.408,11.246,10.837,16.496,16.599c2.601,2.857,4.517,2.483,7.087,0.374
		c1.543-1.268,2.609-3.352,5.027-3.326c0.071,1.335-0.507,2.4-1.162,3.546c-8.453,14.831-13.662,30.594-15.351,47.732
		c-3.217,32.592,6.75,60.803,26.952,85.907c0.871,1.084,2.168,1.822,3.265,2.72c-10.025,13.289-16.222,27.919-15.698,44.897
		c-6.758-5.288-6.82-5.346-13.005,0.987C132.962,328.346,122.335,337.986,112.849,348.744z"/>
	<path fill-rule="evenodd" clip-rule="evenodd" fill="#F7CD5B" d="M342.719,21.031c19.798-20.681,52.473-23.981,76.997-7.773
		c24.366,16.105,34.038,47.64,22.679,73.968c-1.336,0.85-2.749,1.594-3.992,2.56c-20.562,15.963-48.09,17.199-70.021,3.113
		c1.736-2.422,2.226-5.103,2.204-8.08c-0.102-13.831-0.034-27.665-0.055-41.496c-0.008-6.265-2.97-9.878-7.884-9.724
		c-4.744,0.15-7.408,3.603-7.439,9.697c-0.064,12.716-0.113,25.433-0.168,38.148c-9.711-11.148-14.645-24.112-15.212-38.891
		C339.539,35.163,341.588,28.181,342.719,21.031z M404.764,56.653c-0.332,0.107-0.664,0.217-0.997,0.324
		c-3.437-5.973-6.937-11.912-10.292-17.935c-2.143-3.846-5.003-6.441-9.608-5.143c-4.53,1.277-5.76,4.852-5.721,9.313
		c0.12,14.021,0.031,28.045,0.055,42.066c0.01,6.05,2.799,9.541,7.561,9.599c4.798,0.057,7.717-3.455,7.759-9.41
		c0.029-4.619,0.005-9.238,0.005-13.855c4.485,6.141,8.054,12.341,11.612,18.548c2.026,3.543,4.977,5.557,9.079,4.435
		c4.039-1.102,5.82-4.215,5.82-8.32c0.016-14.661,0.066-29.322-0.023-43.982c-0.035-5.228-3.171-8.616-7.578-8.689
		c-4.489-0.078-7.554,3.227-7.651,8.459C404.691,46.924,404.764,51.789,404.764,56.653z"/>
	<path fill-rule="evenodd" clip-rule="evenodd" fill="#D6E4ED" d="M155.971,317.107c-0.523-16.979,5.673-31.608,15.698-44.897
		c0.215,0.061,0.436,0.086,0.663,0.076c0.025,1.84,1.486,2.742,2.578,3.852c8.568,8.697,18.493,15.573,29.37,20.972
		c24.976,12.396,51.197,15.206,78.31,9.09c3.264-0.738,7.368-0.773,9.433-4.485c0.324,0.344,0.647,0.686,0.969,1.028
		c0.275,4.789,1.371,9.522,0.938,14.356C251.624,348.105,198.836,348.107,155.971,317.107z"/>
	<path fill-rule="evenodd" clip-rule="evenodd" fill="#BF2328" d="M342.684,342.809c-0.961,7.047-3.231,13.852-2.865,21.154
		c1.185,23.683,11.857,41.426,32.498,53.107c1.214,0.687,2.591,2.277,4.215,0.505c2.909,7.031,6.784,8.486,13.08,4.919
		c9.846,3.788,19.574,1.769,29.23-0.753c7.136-1.863,13.491-5.397,19.304-9.921c1.077-0.838,1.956-2.27,3.667-1.23
		c-8.34,19.48-23.272,31.57-43.656,35.546c-33.521,6.534-63.643-12.995-71.946-45.8c-4.266-16.856-1.207-32.772,8.044-47.492
		c1.008-1.605,1.991-3.223,2.987-4.837C339.055,346.271,340.869,344.539,342.684,342.809z"/>
	<path fill-rule="evenodd" clip-rule="evenodd" fill="#02599B" d="M112.527,102.506c-3.402,3.404-6.809,6.809-10.211,10.215
		c-8.697,5.563-17.646,10.241-28.088,12.046c-30.384,5.248-59.513-13.421-68.638-41.665c-7.029-21.757-0.655-48.113,15.308-62.101
		c-0.918,6.709-3.13,13.162-2.902,20.114c0.848,25.679,12.619,44.206,35.585,55.66c2.724,8.162,7.335,9.701,14.218,4.742
		c17.999,3.277,34.286-0.58,48.846-11.687c1.254-0.959,2.637-1.752,3.961-2.623C119.283,93.03,115.222,97.407,112.527,102.506z"/>
	<path fill-rule="evenodd" clip-rule="evenodd" fill="#3BA065" d="M20.896,342.816c-1.256,7.492-3.429,14.861-2.838,22.6
		c1.682,21.93,11.06,39.164,30.504,50.313c0.193,4.213,1.943,7.989,6.25,8.324c6.869,0.537,13.869,1.164,20.731-0.563
		c7.341,2.381,14.383,0.25,21.331-1.705c7.379-2.074,14.268-5.316,20.039-10.542c1.019-0.923,2.126-1.332,3.456-1.283
		c-8.488,21.774-31.344,36.887-54.806,37.51c-28.933,0.77-55.166-19.716-61.188-47.199C-0.447,378.264,4.668,358.884,20.896,342.816
		z"/>
	<path fill-rule="evenodd" clip-rule="evenodd" fill="#EEAF4C" d="M368.381,92.899c21.932,14.085,49.46,12.85,70.021-3.113
		c1.243-0.966,2.656-1.71,3.992-2.56c-7.328,19.056-21.385,30.886-40.645,36.248c-18.479,5.143-35.827,1.647-51.629-9.292
		c-0.771-0.535-1.623-0.951-2.441-1.424c-3.445-3.447-6.892-6.898-10.34-10.346c-6.047-9.011-11.011-18.517-12.278-29.475
		c-2.313-20.054,2.899-37.622,17.657-51.906c-1.131,7.15-3.18,14.132-2.892,21.523c0.567,14.778,5.501,27.743,15.212,38.891
		c0.055,1.266,0.141,2.529,0.156,3.795C355.308,94.021,360.563,97.077,368.381,92.899z"/>
	<path fill-rule="evenodd" clip-rule="evenodd" fill="#44394A" d="M342.684,342.809c-1.814,1.73-3.629,3.463-5.442,5.198
		c-10.094-9.969-20.199-19.923-30.274-29.912c-6.275-6.226-6.254-6.249-13.039-0.996c0.434-4.834-0.662-9.567-0.938-14.356
		c7.611-1.568,14.089-5.737,20.871-9.186c1.283-0.652,2.396-1.559,3.934-1.423c-0.087,2.898-2.831,4.071-4.13,6.206
		c-1.146,1.891-1.643,3.044,0.186,4.834c11.592,11.33,23.076,22.767,34.592,34.171C346.521,339.164,344.604,340.987,342.684,342.809
		z"/>
	<path fill-rule="evenodd" clip-rule="evenodd" fill="#44394A" d="M337.34,102.412c3.448,3.447,6.895,6.898,10.34,10.346
		c-11.518,12.405-23.327,24.517-35.957,35.807c-4.201-2.597-7.609-5.984-10.189-10.193c2.711-4.369,6.773-7.498,10.359-11.033
		C320.349,119.005,328.271,110.121,337.34,102.412z"/>
	<path fill-rule="evenodd" clip-rule="evenodd" fill="#BF2328" d="M441.922,410.232c-0.332-0.574-0.063-0.935,0.434-1.212
		C442.211,409.426,442.066,409.828,441.922,410.232z"/>
	<path fill-rule="evenodd" clip-rule="evenodd" fill="#F5FAFC" d="M292.021,301.714c-2.064,3.712-6.169,3.747-9.433,4.485
		c-27.112,6.116-53.334,3.306-78.31-9.09c-10.877-5.398-20.802-12.274-29.37-20.972c-1.092-1.109-2.553-2.012-2.578-3.852
		c30.057-37.783,92.168-30.786,113.942,12.842C288.908,290.403,291.287,295.773,292.021,301.714z"/>
	<path fill-rule="evenodd" clip-rule="evenodd" fill="#F5FAFC" d="M211.58,151.625c12.46-5.736,25.867-3.451,35.245,6.006
		c9.152,9.229,11.324,22.54,5.69,34.913c-0.93,0.184-1.868,0.328-2.784,0.557c-19.484,4.83-35.213-4.549-39.672-23.667
		C208.639,163.334,210.248,157.49,211.58,151.625z"/>
	<path fill-rule="evenodd" clip-rule="evenodd" fill="#D6E4ED" d="M211.58,151.625c-1.332,5.865-2.941,11.709-1.521,17.808
		c4.459,19.118,20.188,28.497,39.672,23.667c0.916-0.229,1.854-0.373,2.784-0.557c-5.835,12.383-18.64,19.152-32.529,17.201
		c-12.458-1.75-23.785-13.074-25.601-25.593C192.383,170.361,199.221,157.428,211.58,151.625z"/>
	<path fill-rule="evenodd" clip-rule="evenodd" fill="#FFFFFF" d="M67.798,101.518c-6.882,4.959-11.494,3.419-14.218-4.742
		c0.074-10.207,0.097-20.414,0.257-30.618c0.037-2.336-0.9-2.801-3.072-3.018c-5.172-0.522-7.943-3.555-7.793-7.91
		c0.145-4.175,2.898-7.001,7.869-7.189c2.699-0.102,3.041-1.447,3.427-3.458c2.188-11.416,9.449-18.559,20.503-20.292
		c5.176-0.811,9.494,1.801,10.281,6.219c0.813,4.558-2.188,8.074-7.664,8.853c-2.287,0.324-4.328,1.076-5.935,2.758
		c-1.254,1.31-2.346,2.998-1.852,4.707c0.601,2.057,2.73,1.008,4.16,1.064c5.687,0.225,9.138,2.971,9.197,7.55
		c0.061,4.402-3.699,7.924-9.074,7.68c-4.082-0.186-5.08,1.193-4.944,5.105c0.294,8.766,0.06,17.548,0.109,26.325
		C69.064,96.971,68.884,99.315,67.798,101.518z"/>
	<path fill-rule="evenodd" clip-rule="evenodd" fill="#FFFFFF" d="M389.611,422.494c-6.296,3.567-10.171,2.112-13.08-4.919
		c0-9.734-0.071-19.472,0.054-29.206c0.033-2.59-0.67-4.505-2.563-6.319c-5.3-5.08-10.471-10.296-15.604-15.543
		c-3.939-4.021-4.191-8.519-0.84-11.812c3.283-3.225,7.84-2.867,11.812,1.031c4.1,4.024,8.355,7.926,12.105,12.262
		c2.487,2.876,4.066,2.293,6.469,0.08c4.808-4.432,9.839-8.623,14.821-12.861c4.244-3.605,8.821-3.617,11.845-0.123
		c3.059,3.534,2.41,8.117-1.753,11.729c-5.667,4.91-11.281,9.896-17.131,14.58c-2.793,2.239-3.713,4.715-3.609,8.224
		c0.241,8.132,0.037,16.276,0.084,24.417C392.237,417.155,391.76,420.067,389.611,422.494z"/>
	<path fill-rule="evenodd" clip-rule="evenodd" fill="#FFFFFF" d="M75.544,423.491c-6.863,1.727-13.862,1.1-20.731,0.563
		c-4.307-0.335-6.057-4.111-6.25-8.324c0.049-8.928,0.028-17.854,0.201-26.776c0.045-2.287-0.59-2.899-2.917-2.979
		c-5.468-0.196-8.603-3.155-8.613-7.557c-0.01-4.422,3.139-7.508,8.56-7.59c2.845-0.043,3.007-1.274,2.951-3.429
		c-0.1-3.826-0.117-7.656-0.004-11.482c0.141-4.85,3.264-8.131,7.57-8.17c4.312-0.039,7.469,3.238,7.732,8.038
		c0.025,0.478,0.002,0.956,0.003,1.435c0.022,4.146-1.41,9.183,0.446,12.198c2.097,3.407,7.535,0.75,11.474,1.307
		c4.14,0.588,7.187,3.678,7.224,7.586c0.043,3.898-2.965,7.195-7.072,7.7c-0.787,0.098-1.593,0.035-2.389,0.044
		c-9.675,0.107-9.675,0.105-9.683,9.999c0,1.277-0.023,2.554,0.004,3.828c0.058,2.852-0.82,6.314,0.49,8.38
		c1.314,2.069,5.009,0.447,7.634,0.796c3.296,0.436,5.627,2.127,6.74,5.289C80.304,418.29,78.398,421.079,75.544,423.491z"/>
	<path fill-rule="evenodd" clip-rule="evenodd" fill="#FFFFFF" d="M404.764,56.653c0-4.864-0.072-9.729,0.02-14.589
		c0.098-5.232,3.162-8.537,7.651-8.459c4.407,0.073,7.543,3.461,7.578,8.689c0.09,14.66,0.039,29.321,0.023,43.982
		c0,4.105-1.781,7.219-5.82,8.32c-4.103,1.122-7.053-0.892-9.079-4.435c-3.559-6.207-7.127-12.408-11.612-18.548
		c0,4.617,0.024,9.236-0.005,13.855c-0.042,5.955-2.961,9.466-7.759,9.41c-4.762-0.058-7.551-3.549-7.561-9.599
		c-0.023-14.021,0.065-28.045-0.055-42.066c-0.039-4.461,1.19-8.035,5.721-9.313c4.605-1.298,7.466,1.297,9.608,5.143
		c3.355,6.023,6.855,11.962,10.292,17.935C404.1,56.87,404.432,56.76,404.764,56.653z"/>
	<path fill-rule="evenodd" clip-rule="evenodd" fill="#FFFFFF" d="M368.381,92.899c-7.817,4.178-13.073,1.122-13.186-7.66
		c-0.016-1.266-0.102-2.529-0.156-3.795c0.055-12.716,0.104-25.433,0.168-38.148c0.031-6.094,2.695-9.547,7.439-9.697
		c4.914-0.154,7.876,3.458,7.884,9.724c0.021,13.832-0.047,27.665,0.055,41.496C370.606,87.796,370.117,90.477,368.381,92.899z"/>
</g>
</svg>
