<svg width="48" height="48" viewBox="0 0 48 48" fill="none" xmlns="http://www.w3.org/2000/svg">
<rect width="48" height="48" rx="10" fill="#E0EAFF"/>
<g clip-path="url(#clip0_498_1237)">
<path d="M35.9765 24.0078C35.9765 26.3765 35.2741 28.6921 33.9581 30.6616C32.6421 32.6312 30.7717 34.1662 28.5832 35.0727C26.3948 35.9792 23.9867 36.2163 21.6635 35.7542C19.3403 35.2921 17.2062 34.1515 15.5313 32.4765C13.8563 30.8016 12.7157 28.6675 12.2536 26.3443C11.7915 24.0211 12.0286 21.613 12.9351 19.4246C13.8416 17.2361 15.3766 15.3657 17.3462 14.0497C19.3157 12.7337 21.6313 12.0313 24 12.0312C25.5728 12.0312 27.1302 12.341 28.5832 12.9429C30.0363 13.5448 31.3566 14.427 32.4687 15.5391C33.5808 16.6512 34.463 17.9715 35.0649 19.4246C35.6668 20.8776 35.9765 22.435 35.9765 24.0078ZM27.9392 25.9699C27.9494 25.4972 27.8532 25.0283 27.6579 24.5978C27.4795 24.2164 27.2192 23.8791 26.8954 23.6099C26.5587 23.3367 26.1702 23.1345 25.7533 23.0154C25.2983 22.8824 24.8265 22.8161 24.3525 22.8188C24.1864 22.8195 24.0203 22.8265 23.8548 22.8399C23.6871 22.8514 23.5206 22.8767 23.3571 22.9156L23.4418 21.3469H27.4355V19.3303H21.3527L21.1136 25.0032C21.5074 24.8624 21.9129 24.7571 22.3254 24.6885C22.7256 24.6142 23.1315 24.5742 23.5386 24.569C23.7829 24.5695 24.0265 24.5934 24.2662 24.6401C24.496 24.6823 24.7163 24.7653 24.9167 24.8852C25.1082 25.0019 25.269 25.1627 25.3857 25.3542C25.5138 25.5753 25.5772 25.8279 25.5687 26.0833C25.5831 26.2848 25.5508 26.4869 25.4745 26.674C25.3981 26.861 25.2798 27.028 25.1285 27.1619C24.8362 27.393 24.4756 27.521 24.103 27.5259C23.7303 27.5309 23.3665 27.4125 23.0681 27.1891C22.7887 26.9731 22.5852 26.6738 22.4872 26.3344L20.3436 26.994C20.4508 27.3763 20.6289 27.735 20.8686 28.0514C21.1052 28.3629 21.3945 28.6306 21.7233 28.8426C22.0655 29.0631 22.4388 29.2314 22.8306 29.3418C23.7151 29.5881 24.6519 29.5728 25.5279 29.2979C25.9734 29.1596 26.389 28.9389 26.7532 28.6474C27.1194 28.3501 27.4141 27.9742 27.6155 27.5477C27.8414 27.0531 27.9516 26.5134 27.9377 25.9699H27.9392Z" fill="#0D6EFD"/>
</g>
<defs>
<clipPath id="clip0_498_1237">
<rect width="24" height="24" fill="white" transform="translate(12 12)"/>
</clipPath>
</defs>
</svg>
