<svg width="48" height="48" viewBox="0 0 48 48" fill="none" xmlns="http://www.w3.org/2000/svg">
<rect width="48" height="48" rx="10" fill="#E0EAFF"/>
<g clip-path="url(#clip0_498_1204)">
<path d="M35.9765 24.0078C35.9765 26.3765 35.2741 28.6921 33.9581 30.6616C32.6421 32.6312 30.7717 34.1662 28.5832 35.0727C26.3948 35.9792 23.9867 36.2163 21.6635 35.7542C19.3403 35.2921 17.2062 34.1515 15.5313 32.4765C13.8563 30.8016 12.7157 28.6675 12.2536 26.3443C11.7915 24.0211 12.0286 21.613 12.9351 19.4246C13.8416 17.2361 15.3766 15.3657 17.3462 14.0497C19.3157 12.7337 21.6313 12.0313 24 12.0312C25.5728 12.0312 27.1302 12.341 28.5832 12.9429C30.0363 13.5448 31.3566 14.427 32.4687 15.5391C33.5808 16.6512 34.463 17.9715 35.0649 19.4246C35.6668 20.8776 35.9765 22.435 35.9765 24.0078ZM25.7639 19.3303H23.6188L20.3542 21.7235L21.5735 23.3921L23.4221 21.9625V29.248H25.7624L25.7639 19.3303Z" fill="#0D6EFD"/>
</g>
<defs>
<clipPath id="clip0_498_1204">
<rect width="24" height="24" fill="white" transform="translate(12 12)"/>
</clipPath>
</defs>
</svg>
