<svg width="370" height="112" viewBox="0 0 370 112" fill="none" xmlns="http://www.w3.org/2000/svg">
<g clip-path="url(#clip0_531_1652)">
<path d="M0 11.2C0 5.01441 6.71573 0 15 0H355C363.284 0 370 5.01441 370 11.2V112H0V11.2Z" fill="#F7E6FF"/>
<path fill-rule="evenodd" clip-rule="evenodd" d="M0 112L32.7507 95.3087C41.9806 90.6013 53.0091 88.4314 64.0192 89.1061L110.617 91.978C122.354 92.6761 133.998 90.2202 143.496 84.9377L183.155 62.9661C194.805 56.4756 209.682 54.2696 223.714 56.8636L271.091 65.6226L289.031 56.7145L218.8 43.7049C206.131 41.351 192.716 42.9171 181.632 48.0716L142.771 66.0727C131.627 71.2328 118.271 72.7933 105.602 70.4395L61.7023 62.3204C49.0335 59.9666 35.6775 61.5272 24.534 66.6872L0 78.037V112ZM0 77.015V42.409L37.5029 25.0515C48.6463 19.8915 62.0023 18.3309 74.6711 20.6848L118.571 28.8038C131.24 31.1577 144.596 29.5971 155.739 24.4371L194.601 6.43596C205.685 1.28144 219.1 -0.284623 231.769 2.06925L302 15.0789L284.06 23.9869L236.683 15.228C222.65 12.634 207.781 14.8851 196.124 21.3304L156.465 43.3022C146.967 48.5845 135.323 51.0405 123.586 50.3421L76.988 47.4702C65.9779 46.796 54.9494 48.9657 45.7195 53.673L0 77.015Z" fill="url(#paint0_linear_531_1652)"/>
</g>
<defs>
<linearGradient id="paint0_linear_531_1652" x1="5.00263e-07" y1="61.2115" x2="243.095" y2="9.64946" gradientUnits="userSpaceOnUse">
<stop stop-color="#F0CDFF"/>
<stop offset="1" stop-color="#F7E6FF"/>
</linearGradient>
<clipPath id="clip0_531_1652">
<rect width="370" height="112" fill="white"/>
</clipPath>
</defs>
</svg>
