<svg width="48" height="48" viewBox="0 0 48 48" fill="none" xmlns="http://www.w3.org/2000/svg">
<rect width="48" height="48" rx="10" fill="#E0EAFF"/>
<g clip-path="url(#clip0_498_1220)">
<path d="M35.9765 24.0078C35.9765 26.3765 35.2741 28.6921 33.9581 30.6616C32.6421 32.6312 30.7717 34.1662 28.5832 35.0727C26.3948 35.9792 23.9867 36.2163 21.6635 35.7542C19.3403 35.2921 17.2062 34.1515 15.5313 32.4765C13.8563 30.8016 12.7157 28.6675 12.2536 26.3443C11.7915 24.0211 12.0286 21.613 12.9351 19.4246C13.8416 17.2361 15.3766 15.3657 17.3462 14.0497C19.3157 12.7337 21.6313 12.0313 24 12.0312C25.5728 12.0312 27.1302 12.341 28.5832 12.9429C30.0363 13.5448 31.3566 14.427 32.4687 15.5391C33.5808 16.6512 34.463 17.9715 35.0649 19.4246C35.6668 20.8776 35.9765 22.435 35.9765 24.0078ZM27.673 26.3677C27.675 26.0977 27.6279 25.8296 27.5338 25.5765C27.4414 25.3321 27.3084 25.1051 27.1405 24.9049C26.9687 24.7013 26.7655 24.5267 26.5384 24.3875C26.3002 24.2411 26.0396 24.1348 25.7669 24.0729V24.0305C26.2378 23.9097 26.6579 23.6421 26.9665 23.2665C27.2845 22.872 27.4509 22.3768 27.4355 21.8703C27.4458 21.4368 27.3415 21.0084 27.1329 20.6283C26.936 20.2818 26.6661 19.9824 26.3418 19.7509C26.0046 19.5128 25.6275 19.337 25.2284 19.232C24.8105 19.1199 24.3797 19.0635 23.947 19.0641C23.5398 19.0634 23.1343 19.1173 22.7414 19.2244C22.3575 19.328 21.9914 19.4887 21.6552 19.701C21.3242 19.9104 21.0324 20.1761 20.7929 20.4861C20.543 20.8146 20.3582 21.1879 20.2483 21.5859L22.4328 22.0896C22.4959 21.7733 22.667 21.4888 22.9169 21.2848C23.1639 21.0836 23.4742 20.9764 23.7927 20.9823C24.1055 20.9781 24.4108 21.0776 24.6611 21.2652C24.7862 21.3599 24.8862 21.4839 24.9521 21.6264C25.0181 21.7688 25.048 21.9253 25.0393 22.0821C25.0531 22.2764 25.0093 22.4706 24.9132 22.6401C24.8171 22.8097 24.6731 22.9471 24.4992 23.0351C24.3269 23.1267 24.1401 23.1881 23.947 23.2166C23.7339 23.2502 23.5184 23.2669 23.3026 23.2665H22.6158V24.976H23.2466C23.4906 24.9763 23.734 24.9975 23.9743 25.0395C24.2005 25.0762 24.4199 25.1471 24.6248 25.2498C24.81 25.3422 24.9691 25.4795 25.0877 25.6492C25.2102 25.8361 25.2715 26.0566 25.2632 26.28C25.2696 26.4838 25.2238 26.6859 25.13 26.8669C25.0478 27.0186 24.9331 27.1503 24.7942 27.2527C24.6545 27.353 24.4976 27.4268 24.3313 27.4705C24.1647 27.5162 23.9927 27.5396 23.82 27.5401C23.4182 27.5557 23.0247 27.4233 22.7141 27.168C22.4406 26.9452 22.2403 26.6453 22.1393 26.3072L19.9534 26.8821C20.1715 27.7243 20.7129 28.4467 21.4601 28.8925C21.8217 29.1072 22.214 29.2654 22.6234 29.3615C23.0519 29.4647 23.4912 29.5165 23.9319 29.5158C24.3893 29.5157 24.8445 29.452 25.2843 29.3267C25.7144 29.2071 26.12 29.0125 26.4824 28.7518C26.839 28.4937 27.1336 28.1593 27.3447 27.7731C27.5728 27.3399 27.6858 26.857 27.673 26.3677Z" fill="#0D6EFD"/>
</g>
<defs>
<clipPath id="clip0_498_1220">
<rect width="24" height="24" fill="white" transform="translate(12 12)"/>
</clipPath>
</defs>
</svg>
