<svg width="48" height="48" viewBox="0 0 48 48" fill="none" xmlns="http://www.w3.org/2000/svg">
<rect width="48" height="48" rx="10" fill="#E0EAFF"/>
<path d="M33 14.5H15C14.7239 14.5 14.5 14.7239 14.5 15V26H33.5V15C33.5 14.7239 33.2761 14.5 33 14.5Z" stroke="#4883FF"/>
<path d="M35.5 26.1176C35.7761 26.1176 36 25.8938 36 25.6176V14.5C35.9983 13.12 34.88 12.0017 33.5 12H14.5C13.12 12.0017 12.0017 13.12 12 14.5V28.5C12.0017 29.88 13.12 30.9983 14.5 31H20V33.2325L18.7225 34.0825C18.583 34.1756 18.4995 34.3323 18.5 34.5V35C18.5 35.5523 18.9477 36 19.5 36H28.5C29.0523 36 29.5 35.5523 29.5 35V34.5C29.5 34.3329 29.4165 34.1768 29.2775 34.084L28 33.2325V31.0882C28 30.8121 27.7761 30.5882 27.5 30.5882C27.2239 30.5882 27 30.8121 27 31.0882V33.5C27 33.6671 27.0835 33.8232 27.2225 33.916L28.5 34.7675V35H19.5V34.7675L20.7775 33.9175C20.917 33.8244 21.0005 33.6677 21 33.5V31H33.5C34.88 30.9983 35.9983 29.88 36 28.5V26C36 25.7239 35.7761 25.5 35.5 25.5H12.8824C12.6062 25.5 12.3824 25.7239 12.3824 26C12.3824 26.2761 12.6062 26.5 12.8824 26.5H35V28.5C35 29.3284 34.3284 30 33.5 30H14.5C13.6716 30 13 29.3284 13 28.5V14.5C13 13.6716 13.6716 13 14.5 13H33.5C34.3284 13 35 13.6716 35 14.5V25.6176C35 25.8938 35.2239 26.1176 35.5 26.1176Z" fill="#4883FF" stroke="#4883FF" stroke-width="0.4"/>
<path d="M21.8535 16.3524C21.6583 16.1572 21.3418 16.1572 21.1465 16.3524L18.1465 19.3524C17.9513 19.5476 17.9513 19.8641 18.1465 20.0594L21.1465 23.0594C21.3427 23.2489 21.6546 23.2462 21.8474 23.0533C22.0403 22.8604 22.043 22.5486 21.8535 22.3524L19.207 19.7059L21.8535 17.0594C22.0487 16.8641 22.0487 16.5476 21.8535 16.3524Z" fill="#4883FF"/>
<path d="M26.1466 23.0594C26.3418 23.2546 26.6583 23.2546 26.8536 23.0594L29.8536 20.0594C30.0487 19.8641 30.0487 19.5476 29.8536 19.3524L26.8536 16.3524C26.728 16.2224 26.5421 16.1703 26.3673 16.216C26.1925 16.2618 26.056 16.3983 26.0102 16.5731C25.9644 16.7479 26.0166 16.9338 26.1466 17.0594L28.7931 19.7059L26.1466 22.3524C25.9514 22.5476 25.9514 22.8641 26.1466 23.0594Z" fill="#4883FF"/>
</svg>
