<svg width="48" height="48" viewBox="0 0 48 48" fill="none" xmlns="http://www.w3.org/2000/svg">
<rect width="48" height="48" rx="10" fill="#E0EAFF"/>
<g clip-path="url(#clip0_498_1245)">
<path d="M35.9765 24.0078C35.9765 26.3765 35.2741 28.6921 33.9581 30.6616C32.6421 32.6312 30.7717 34.1662 28.5832 35.0727C26.3948 35.9792 23.9867 36.2163 21.6635 35.7542C19.3403 35.2921 17.2062 34.1515 15.5313 32.4765C13.8563 30.8016 12.7157 28.6675 12.2536 26.3443C11.7915 24.0211 12.0286 21.613 12.9351 19.4246C13.8416 17.2361 15.3766 15.3657 17.3462 14.0497C19.3157 12.7337 21.6313 12.0313 24 12.0312C25.5728 12.0312 27.1302 12.341 28.5832 12.9429C30.0363 13.5448 31.3566 14.427 32.4687 15.5391C33.5808 16.6512 34.463 17.9715 35.0649 19.4246C35.6668 20.8776 35.9765 22.435 35.9765 24.0078ZM28.0073 25.9139C28.0136 25.4589 27.9233 25.0078 27.7426 24.5902C27.5742 24.2072 27.3339 23.86 27.0346 23.5676C26.7375 23.2808 26.3855 23.057 25.9999 22.9095C25.6055 22.7558 25.1857 22.6773 24.7624 22.6781C24.6409 22.6791 24.5196 22.6887 24.3994 22.7068C24.2845 22.7212 24.1718 22.7491 24.0635 22.79L24.1059 22.7204L26.5445 19.3303H23.7035L21.3088 22.902C20.9999 23.3653 20.7331 23.8554 20.5116 24.3663C20.301 24.8744 20.196 25.4199 20.203 25.9699C20.196 26.4773 20.3013 26.9799 20.5116 27.4418C20.709 27.8698 20.9946 28.2512 21.3496 28.5612C21.713 28.8754 22.1337 29.1163 22.5886 29.2707C23.5712 29.5973 24.633 29.5973 25.6156 29.2707C26.0726 29.1176 26.4954 28.8771 26.8606 28.5627C27.219 28.2495 27.5054 27.8625 27.7002 27.4282C27.911 26.9521 28.0158 26.436 28.0073 25.9154V25.9139ZM25.245 24.858C25.3856 25.0061 25.4954 25.1806 25.5682 25.3715C25.6409 25.5623 25.675 25.7657 25.6686 25.9699C25.6784 26.1806 25.6453 26.3911 25.5715 26.5887C25.4976 26.7863 25.3845 26.9669 25.2389 27.1196C25.0897 27.2659 24.912 27.3799 24.7168 27.4546C24.5216 27.5293 24.3132 27.5631 24.1044 27.5537C23.8923 27.5636 23.6807 27.5273 23.484 27.4473C23.2873 27.3674 23.1104 27.2458 22.9653 27.0908C22.6863 26.7909 22.5344 26.3945 22.5417 25.985C22.5334 25.7759 22.5681 25.5674 22.6435 25.3723C22.719 25.1771 22.8336 24.9995 22.9804 24.8504C23.131 24.7047 23.3096 24.5911 23.5054 24.5164C23.7012 24.4418 23.9101 24.4077 24.1195 24.4162C24.3276 24.4068 24.5354 24.4412 24.7293 24.5173C24.9232 24.5934 25.0989 24.7095 25.245 24.858Z" fill="#0D6EFD"/>
</g>
<defs>
<clipPath id="clip0_498_1245">
<rect width="24" height="24" fill="white" transform="translate(12 12)"/>
</clipPath>
</defs>
</svg>
