<svg width="64" height="64" viewBox="0 0 64 64" fill="none" xmlns="http://www.w3.org/2000/svg">
<rect width="64" height="64" rx="10" fill="#E0EAFF"/>
<g clip-path="url(#clip0_498_1414)">
<path d="M28.2474 45.335C28.2464 44.3268 28.5779 43.3464 29.1907 42.5457C29.8034 41.7451 30.6631 41.1689 31.6366 40.9065C32.6101 40.6441 33.6429 40.7101 34.5751 41.0943C35.5072 41.4786 36.2866 42.1595 36.7924 43.0317C40.2757 41.495 41.5807 39.0833 41.5807 34.5V29.5C41.5807 22.8467 37.8291 18.25 31.9974 18.25C26.1657 18.25 22.4141 22.8483 22.4141 29.5V35.3333C22.4136 35.6647 22.2818 35.9824 22.0475 36.2167C21.8131 36.4511 21.4954 36.5829 21.1641 36.5833H19.4974C18.2825 36.582 17.1177 36.0989 16.2585 35.24C15.3993 34.3811 14.9158 33.2165 14.9141 32.0017V30.335C14.9154 29.1197 15.3986 27.9545 16.2578 27.095C17.1171 26.2354 18.2821 25.7518 19.4974 25.75H20.2941C21.5557 19.7983 25.8741 15.75 31.9974 15.75C38.1207 15.75 42.4374 19.7983 43.6991 25.75H44.4957C45.7108 25.7518 46.8755 26.2352 47.7347 27.0944C48.5938 27.9535 49.0773 29.1183 49.0791 30.3333V32C49.0777 33.2152 48.5944 34.3802 47.7352 35.2394C46.8759 36.0987 45.7109 36.582 44.4957 36.5833H43.9807C43.9164 38.5573 43.2541 40.4653 42.0815 42.0546C40.9089 43.6438 39.2812 44.8395 37.4141 45.4833C37.3944 46.6989 36.8926 47.8569 36.0192 48.7025C35.1457 49.5481 33.9721 50.0122 32.7566 49.9925C31.541 49.9728 30.383 49.4711 29.5374 48.5976C28.6917 47.7242 28.2277 46.5506 28.2474 45.335ZM30.7474 45.335C30.7474 45.747 30.8696 46.1498 31.0985 46.4924C31.3274 46.835 31.6528 47.1021 32.0335 47.2597C32.4142 47.4174 32.833 47.4587 33.2372 47.3783C33.6413 47.2979 34.0125 47.0995 34.3039 46.8081C34.5952 46.5168 34.7936 46.1456 34.874 45.7414C34.9544 45.3373 34.9132 44.9184 34.7555 44.5377C34.5978 44.1571 34.3308 43.8317 33.9882 43.6028C33.6456 43.3739 33.2428 43.2517 32.8307 43.2517C32.2783 43.2521 31.7487 43.4717 31.3581 43.8623C30.9675 44.253 30.7478 44.7826 30.7474 45.335ZM44.0807 34.085H44.4957C45.0484 34.085 45.5785 33.8656 45.9695 33.4749C46.3604 33.0843 46.5803 32.5544 46.5807 32.0017V30.335C46.5807 29.7823 46.3613 29.2522 45.9706 28.8613C45.58 28.4703 45.0501 28.2504 44.4974 28.25H44.0807V34.085ZM17.4141 30.335V32.0017C17.4149 32.5538 17.6348 33.083 18.0253 33.4732C18.4159 33.8635 18.9453 34.0829 19.4974 34.0833H19.9141V28.25H19.4974C18.9447 28.2504 18.4148 28.4703 18.0242 28.8613C17.6335 29.2522 17.4141 29.7823 17.4141 30.335Z" fill="#0D6EFD"/>
</g>
<defs>
<clipPath id="clip0_498_1414">
<rect width="40" height="40" fill="white" transform="translate(12 12)"/>
</clipPath>
</defs>
</svg>
