<svg width="26" height="26" viewBox="0 0 26 26" fill="none" xmlns="http://www.w3.org/2000/svg">
<path d="M22 3.50002H4C3.72386 3.50002 3.5 3.72387 3.5 4.00002V15H22.5V4.00002C22.5 3.72387 22.2761 3.50002 22 3.50002Z" stroke="#F17F65"/>
<path d="M24.5 15.1176C24.7761 15.1176 25 14.8938 25 14.6176V3.5C24.9983 2.11997 23.88 1.00165 22.5 1H3.5C2.11997 1.00165 1.00165 2.11997 1 3.5V17.5C1.00165 18.88 2.11997 19.9983 3.5 20H9V22.2325L7.7225 23.0825C7.58302 23.1756 7.49947 23.3323 7.5 23.5V24C7.5 24.5523 7.94772 25 8.5 25H17.5C18.0523 25 18.5 24.5523 18.5 24V23.5C18.5 23.3329 18.4165 23.1768 18.2775 23.084L17 22.2325V20.0882C17 19.8121 16.7761 19.5882 16.5 19.5882C16.2239 19.5882 16 19.8121 16 20.0882V22.5C16 22.6671 16.0835 22.8232 16.2225 22.916L17.5 23.7675V24H8.5V23.7675L9.7775 22.9175C9.91698 22.8244 10.0005 22.6677 10 22.5V20H22.5C23.88 19.9983 24.9983 18.88 25 17.5V15C25 14.7239 24.7761 14.5 24.5 14.5H1.88235C1.60621 14.5 1.38235 14.7239 1.38235 15C1.38235 15.2761 1.60621 15.5 1.88235 15.5H24V17.5C24 18.3284 23.3284 19 22.5 19H3.5C2.67157 19 2 18.3284 2 17.5V3.5C2 2.67157 2.67157 2 3.5 2H22.5C23.3284 2 24 2.67157 24 3.5V14.6176C24 14.8938 24.2239 15.1176 24.5 15.1176Z" fill="#F17F65" stroke="#F17F65" stroke-width="0.4"/>
<path d="M10.8535 5.35238C10.6583 5.15719 10.3418 5.15719 10.1465 5.35238L7.14652 8.35238C6.95132 8.54763 6.95132 8.86413 7.14652 9.05938L10.1465 12.0594C10.3427 12.2489 10.6546 12.2462 10.8474 12.0533C11.0403 11.8604 11.043 11.5486 10.8535 11.3524L8.20702 8.70588L10.8535 6.05938C11.0487 5.86413 11.0487 5.54763 10.8535 5.35238Z" fill="#F17F65"/>
<path d="M15.1466 12.0594C15.3418 12.2546 15.6583 12.2546 15.8536 12.0594L18.8536 9.05936C19.0487 8.86411 19.0487 8.54761 18.8536 8.35236L15.8536 5.35236C15.728 5.22239 15.5421 5.17026 15.3673 5.21601C15.1925 5.26177 15.056 5.3983 15.0102 5.57311C14.9644 5.74792 15.0166 5.93383 15.1466 6.05936L17.7931 8.70586L15.1466 11.3524C14.9514 11.5476 14.9514 11.8641 15.1466 12.0594Z" fill="#F17F65"/>
</svg>
