<svg width="48" height="48" viewBox="0 0 48 48" fill="none" xmlns="http://www.w3.org/2000/svg">
<rect width="48" height="48" rx="10" fill="#E0EAFF"/>
<g clip-path="url(#clip0_498_1212)">
<path fill-rule="evenodd" clip-rule="evenodd" d="M35.9755 23.9995C35.9755 30.6136 30.6136 35.9755 23.9995 35.9755C17.3853 35.9755 12.0234 30.6136 12.0234 23.9995C12.0234 17.3853 17.3853 12.0234 23.9995 12.0234C30.6136 12.0234 35.9755 17.3853 35.9755 23.9995ZM20.595 29.9875H28.7654V28.08H23.6404L26.3503 25.2228C27.0925 24.4095 27.6165 23.6973 27.9221 23.0861C28.2277 22.4748 28.3806 21.8745 28.3806 21.285C28.3806 20.2098 28.0395 19.3775 27.3572 18.788C26.6804 18.1986 25.7281 17.9039 24.5001 17.9039C23.6977 17.9039 22.9801 18.0758 22.3469 18.4196C21.7139 18.758 21.2226 19.2274 20.8733 19.8277C20.5295 20.4281 20.3575 21.0912 20.3575 21.8171H22.7317C22.7317 21.2168 22.8845 20.7337 23.1901 20.3681C23.5013 19.9969 23.9243 19.8114 24.4591 19.8114C24.9558 19.8114 25.3378 19.9642 25.6052 20.2698C25.8727 20.57 26.0064 20.9848 26.0064 21.5142C26.0064 21.9018 25.8782 22.3111 25.6216 22.7422C25.3706 23.1734 24.9803 23.6783 24.451 24.2567L20.595 28.3666V29.9875Z" fill="#0D6EFD"/>
</g>
<defs>
<clipPath id="clip0_498_1212">
<rect width="24" height="24" fill="white" transform="translate(12 12)"/>
</clipPath>
</defs>
</svg>
