<svg xmlns="http://www.w3.org/2000/svg" width="1000" height="1000" viewBox="0 0 1000 1000" fill="none"><g clip-path="url(#clip0_827_14)"><rect width="1000" height="1000" rx="500" fill="white"></rect><path d="M408.555 597.64C408.555 597.64 516.556 539.331 594.273 617.917L561.547 718.872L431.195 676.465L408.555 597.64Z" fill="#0D6EFD"></path><path d="M643.334 257.811C637.23 265.879 632.426 278.695 628.05 288.002C625.542 293.334 621.805 301.768 616.573 304.175C612.145 306.212 607.17 306.658 601.454 303.984C596.607 301.716 596.592 314.186 598.132 319.46C599.672 324.734 605.283 328.387 610.525 327.454C616.409 326.407 620.342 320.732 623.329 315.375C632.47 298.944 638.961 281.173 642.562 262.717L643.334 257.811ZM521.965 257.791C517.489 230.369 513.014 202.948 508.539 175.526L507.003 177.977C509.089 200.878 510.082 223.849 509.981 246.889C509.95 253.779 509.714 261.061 506.171 266.892C501.815 274.061 492.714 278.756 492.272 287.214C491.85 295.288 501.042 301.366 508.615 299.416C516.189 297.466 521.369 289.787 522.967 281.873C524.564 273.96 523.266 265.763 521.965 257.791ZM585.938 172.84C581.7 196.751 578.892 223.931 574.653 247.842C573.848 252.384 572.992 257.066 570.606 260.906C567.28 266.26 561.548 269.135 556.87 273.138C552.191 277.142 548.257 283.875 550.643 289.785C552.742 294.986 559.126 296.923 564.112 295.141C569.098 293.359 572.807 288.796 575.557 283.961C584.302 268.584 585.478 249.725 586.421 231.706C587.381 213.369 588.341 195.032 589.3 176.696L585.938 172.84Z" fill="#F2C4C0"></path><path d="M562.548 521.056C560.286 538.068 571.384 610.084 575.006 620.775C575.225 621.42 575.497 622.189 575.808 623.056C576.599 625.272 577.64 628.126 578.631 631.198C581 638.548 583.105 647.131 580.943 651.083C575.716 660.626 561.653 665.326 546.396 667.937C538.788 669.239 530.877 670.023 523.619 670.629C492.275 673.248 451.615 636.52 435.854 619.554C435.854 619.554 433.036 604.535 427.406 582.888C417.129 543.352 397.49 481.716 368.554 449.132C323.773 398.702 326.027 401.025 325.086 388.844C324.146 376.663 323.205 307.96 325.086 305.034C326.968 302.112 356.596 307.96 366.945 351.325C377.291 394.689 413.036 399.074 437.49 390.791C461.945 382.507 477.467 344.504 467.118 315.756C456.772 287.008 420.09 267.515 393.281 292.853C366.473 318.191 336.642 307.173 333.531 304.846C330.42 302.519 399.026 226.474 431.649 227.696C464.272 228.917 487.855 256.198 501.219 275.745C514.583 295.292 518.65 280.894 518.105 265.668C517.563 250.445 500.144 135.411 500.144 115.676C500.144 95.9405 517.771 70.2262 526.799 72.0964C535.824 73.9666 548.462 187.312 549.906 200.779C551.35 214.243 556.768 276.716 560.378 278.586C563.988 280.457 575.904 277.089 577.709 261.006C579.514 244.919 585.651 162.623 587.456 151.774C589.157 141.551 597.913 117.711 619.161 118.122C619.7 118.143 620.23 118.272 620.719 118.499C621.209 118.727 621.648 119.049 622.012 119.448C622.376 119.847 622.657 120.313 622.839 120.821C623.022 121.329 623.102 121.868 623.074 122.408C622.579 137.277 620.724 190.165 618.869 207.139C616.703 226.962 604.387 315.649 608.761 317.116C611.699 318.103 617.133 318.609 634.357 275.779C651.58 232.949 672.905 236.163 676.127 243.659C679.188 250.772 638.5 332.477 629.188 350.733C622.252 364.335 564.814 504.047 562.548 521.056Z" fill="#FBD9D4"></path><path d="M635.039 1040.13C577.477 1037.23 520.1 1028.25 469.125 1016.84C432.078 1008.55 397.393 996.305 365.25 980.572C391.667 876.198 407.331 770.629 409.386 668.629C409.866 644.75 409.588 621.088 408.553 597.642C414.093 602.558 419.977 607.073 426.16 611.152C475.692 643.913 542.032 648.536 583.311 625.241C587.147 623.085 590.813 620.636 594.275 617.918C597.147 636.966 599.811 656.054 602.266 675.184C611.602 747.703 618.161 820.744 623.265 893.859C625.354 923.636 632.22 999.884 635.039 1040.13Z" fill="#0D6EFD"></path><path d="M578.631 631.198L546.396 667.938C538.789 669.239 530.878 670.023 523.62 670.63C492.276 673.249 451.615 636.521 435.855 619.554C435.855 619.554 433.036 604.535 427.406 582.888C440.978 600.587 464.726 612.795 489.86 618.748C516.972 625.161 545.736 625.054 573.777 623.183C574.449 623.137 575.129 623.095 575.809 623.057C576.6 625.272 577.64 628.126 578.631 631.198Z" fill="#F2C4C0"></path><path d="M602.266 675.182C586.512 689.049 564.922 694.635 543.962 696.784C497.637 701.532 449.976 691.388 409.386 668.629C409.867 644.748 409.59 621.085 408.555 597.64C414.094 602.557 419.978 607.072 426.161 611.15C475.691 643.911 542.033 648.535 583.312 625.242C587.149 623.086 590.815 620.637 594.276 617.917C597.149 636.966 599.812 656.054 602.266 675.182Z" fill="#0D6EFD"></path></g><defs><clipPath id="clip0_827_14"><rect width="1000" height="1000" rx="500" fill="white"></rect></clipPath></defs></svg>