<svg xmlns="http://www.w3.org/2000/svg" data-name="&lt;Layer&gt;" viewBox="0 0 2742 1828"><g data-name="Ñëîé 3"><path fill="#fff" fill-rule="evenodd" d="M1218.41,1351.05l-61.26-216.23-9.17-16.88-59.38-5.64s29.66-97.87,59.26-174.85c18.49-48.09,38.48-84.59,46.51-94.55,5.32-6.59,24.89-22.15,54-36.67,48.13-24,114.59-49.82,128.67-61.49C1454.34,680.68,1524.9,621,1626.84,621.3c4.7,0,16.84,5.89,29.2,20.06,13.12,15,26.48,38.45,31.46,38.45,8.94,0,13.37,5.72,25.61,10.32,20.45,7.68,50.43,16,69.87,16.88,39.27,1.78,88.08,10,129.13,16.77,48,8,90.38,16.77,134.39,63.43,15.43,16.36,36.22,48,58.69,91.14,21.37,41,44.1,92.52,70.94,141.44,41.25,75.22,93.53,152.1,122.32,191.45,46,62.79,63.87,124.77,63.87,169,0,14.59-9.66,46.44-19.72,67.18-15.42,31.81-36.94,51.36-66.49,50.66-30.17-.71-67-15-101.19-31.24-25.38-12-57.23-22.44-79.35-36.33-48.61-30.54-77.13-63.22-77.13-63.22l-1.47,51.37,15.22,134.51-631.67-52.59s-9.15-38.28-29-92.72-50.55-125-50.55-125l-18.08-65.48-7.3-26.44S1283.31,1202,1264,1242,1218.41,1351.05,1218.41,1351.05Z"/><path fill="#e7b890" fill-rule="evenodd" d="M1269.25,340.39c20-33.31,32-58.69,59.56-69.95,16.14-6.91,37.49-20.42,89.07-31.54,42.83-9.08,95.4-3.35,111.57,6.71,18.13,9.82,35.67-2.24,65.51,22.16s36.56,30.58,62.89,67.38c14.27,19.26,23.19,27.18,27,50.68,2.8,23.62-16.27,47.84-16.27,47.84s2.15,9.73-6.6,53.68a564.52,564.52,0,0,1-21.62,78.42l-332.13-23.42s-36.33-28.62-52.52-55.64S1242,447.42,1242,447.42l-33.45,4a73.69,73.69,0,0,0,25.73-27C1249,396.69,1260.93,354.35,1269.25,340.39Z"/><path fill="#ffe4ce" fill-rule="evenodd" d="M1451.13,770.88s-25.87,9.06-51.2-10.88c-23.12-18.21-55.42-63.28-74.79-91.92s-18.68-81.61-21.29-95.27c-7.87-41-18.54-63.67-17.7-81.73.52-4.06-1.63-13.78,6.39-38.69,9-25,17.15-32,25.54-37,34.32-22,72.53-19.6,83.54-10.92,9.79,6.82,31.3,28.21,51.16,35.84a176.06,176.06,0,0,0,47.14,10.37s28.16,18.6,51.75,40.76c11.12,9.65,31,59.18,31,59.18l21.85-34.53s16.15-6.9,27.84-9.29c25.47-4,32,17.16,34.13,26.88,9.9,49.73-39.41,71.55-39.41,71.55s-35.77,66.43-79.75,107.83S1451.13,770.88,1451.13,770.88Z"/><path fill="#ffe4ce" fill-rule="evenodd" d="M1429.39,772.63c.73,2.74,5.93-17.21,7.95-22.45,6.13-15.81,13-32.74,22.86-46.52,8.88-12.44,18.82-24.22,28.15-36.32,5.49-7.12,11.52-13.75,17.55-20.4,6.21-6.86,12.67-13.08,19.18-19.59,15.59-15.59,34.46-25.35,55.5-30.61,12.43-3.11,22.34-9.08,33.06,1.63,10.06,10.06,5.94,20.57,10.61,32.24,3.3,8.25,10.93,13,13.87,20.41,3.84,9.59-14.76,34.41-18.77,42.44-25.33,50.65-67.9,80.19-111,114.68-13.15,10.51-22.39,30.65-35.91,38.76-7.49,4.49-8.82-8.62-11.84-12.65-10.36-13.82-21.85-24.74-27.34-41.22C1431.44,787.57,1429,771.08,1429.39,772.63Z"/><path fill="#ffe4ce" fill-rule="evenodd" d="M1768.33,1128.56c-45.24-5.77-82.25-40.16-128.64-38.38-14.48.55-38.5,5.42-43-13.45-1.3-5.44-2.73-12-.27-17.47,1.39-3.09,7.08-6.49,5.16-10.53-3.17-6.68-8.36-11.1-9.48-19.11-1-6.85,4.36-14.2,3.26-18.81-2.86-11.87-9.43-21.88-7.32-35.08,1.25-7.79,8.71-12,9.65-17.86,1.38-8.6-16.55-39.53-3-46,29.44-14,67.7-16.51,100.25-17.76,10-.39,34.59,6.45,42.45-2,8.07-8.72,4-25.29,5.77-36,5.09-31.76-8.14-96.32,36.82-107.12,13.36-3.21,15.88,12,15.15,22.07a474.58,474.58,0,0,0,8.61,131.21c8.52,41.26,45.79,77.41,68.28,111.82,7.17,11,27.78,30.4,25.55,44.33-4.56,28.44-9.26,50.15-27,78.76-5.95,9.62-22.51,23.61-32.7,28.61-2.21,1.09-24.13-18.92-43-30C1783.24,1128.87,1773.17,1129.17,1768.33,1128.56Z"/><path fill="#dbdbdb" fill-rule="evenodd" d="M580.63,1095.64l564.79,21.93a8.52,8.52,0,0,1,8.52,8.53L1264.8,1512l319.28,22.76-33.22,23.3c-13.31,4.16-269.75,32.52-274.45,32.52l-546.51-45.7a8.51,8.51,0,0,1-8.52-8.52L572.11,1104.16A8.52,8.52,0,0,1,580.63,1095.64Z"/><path fill="#fff" fill-rule="evenodd" d="M887,1355.24c-8.06-24.25,2.94-49.74,24.58-57s45.74,6.62,53.8,30.87-2.93,49.74-24.57,56.95S895.11,1379.49,887,1355.24Z"/></g><g data-name="Ñëîé 2"><path fill="#571519" d="M1430.31,779.33c-.76,0-1.46,0-2.14-.05-20.86-.81-51.25-22.53-77.33-55.34-18.83-24.06-35.91-56.53-43.55-82.73-4.46-14.53-6.43-31.13-8.52-48.71-1-8.39-2-17.07-3.35-25.45-1.38-11.55-5.48-25.66-9.1-38.11-1.55-5.33-3-10.34-4.11-14.68-1.82-7.33-16.18-72.29,33.91-108.61a5.71,5.71,0,1,1,6.7,9.24c-35.76,25.94-35.39,72.91-29.53,96.58,1.07,4.19,2.49,9.08,4,14.28,3.74,12.88,8,27.47,9.44,39.73,1.33,8.39,2.38,17.18,3.38,25.68,2,17.05,3.94,33.15,8.13,46.77,7.28,25,23.59,56,41.57,78.94,23.32,29.35,51.67,50.33,68.9,51,14.17.78,54.81-9,107.63-51.88,28.64-23.39,46.73-60.32,46.91-60.69a5.71,5.71,0,0,1,10.29,5c-.78,1.6-19.33,39.54-50,64.58C1490.33,768,1448.42,779.33,1430.31,779.33Z"/><path fill="#571519" d="M1399.31,626.06a5.69,5.69,0,0,1-1.93-.34c-2.48-.89-24.24-9.17-26.23-26-.88-7.47,2.7-12.36,5.87-16.68,3.4-4.63,6.61-9,6-17.95-.61-5.05-3.85-13.86-9.87-26.66a5.71,5.71,0,0,1,10.34-4.86c6.64,14.12,10.11,23.8,10.9,30.46.92,13.39-4.33,20.54-8.16,25.76-2.76,3.77-4.08,5.72-3.73,8.59,1,8.32,14.2,14.92,18.76,16.57a5.72,5.72,0,0,1-2,11.09Z"/><path fill="#571519" fill-rule="evenodd" d="M1331.33,559.15c-1.29-10.82,2.46-21.25,10.34-22.19,6.88-.81,14.71,6.24,16.11,18,1.29,10.82-2.46,21.25-10.33,22.18C1340.55,578,1332.62,570,1331.33,559.15Z"/><path fill="#571519" d="M1302,495.9a5.71,5.71,0,0,1-3.8-10c.84-.75,20.9-18.22,51.79-7.62a5.71,5.71,0,1,1-3.7,10.8c-24.66-8.45-40.33,5.2-40.48,5.34A5.71,5.71,0,0,1,1302,495.9Z"/><path fill="#571519" d="M1313.83,553.38a5.71,5.71,0,0,1-4-9.78c10.24-10.1,25.4-12.15,45.07-6.07a5.72,5.72,0,1,1-3.38,10.92c-15.33-4.74-26.65-3.64-33.67,3.28A5.68,5.68,0,0,1,1313.83,553.38Z"/><path fill="#571519" fill-rule="evenodd" d="M1479.82,540.52c-1.29-10.83-8.25-19-16.24-19-7.87.93-13.83,9.62-12.42,21.43,1.28,10.83,8.24,19,16.23,19C1474.28,561.13,1480.12,551.46,1479.82,540.52Z"/><path fill="#571519" d="M1421.85,479.67a5.72,5.72,0,0,1-3.72-10.06c24-20.46,69.27-4.51,71.18-3.82a5.71,5.71,0,0,1-3.86,10.75c-.41-.14-41-14.4-59.9,1.77A5.72,5.72,0,0,1,1421.85,479.67Z"/><path fill="#571519" d="M1437.83,538.65a5.71,5.71,0,0,1-4.15-9.64c12.36-13.06,39.41-11.61,51.62-4.25a5.71,5.71,0,0,1-5.9,9.78c-7.48-4.51-28.91-6.67-37.42,2.33A5.7,5.7,0,0,1,1437.83,538.65Z"/><path fill="#571519" d="M1619.43,613.89a5.71,5.71,0,0,1-1.85-11.12c26.13-8.93,37.43-32.8,39.29-52.16,1.57-15.63-3.14-28.38-12.62-34.12-9.63-5.83-23.28-3.82-37.48,5.52a5.71,5.71,0,1,1-6.27-9.55c18-11.85,36.12-14,49.67-5.74,13.34,8.08,20.1,24.91,18.07,45-2.2,22.88-15.7,51.16-47,61.85A5.75,5.75,0,0,1,1619.43,613.89Z"/><path fill="#571519" d="M1623.3,562.52A5.59,5.59,0,0,1,1621,562a5.69,5.69,0,0,1-2.87-7.53c.59-1.3,6-12.81,15.56-16.45a5.71,5.71,0,0,1,4.06,10.68c-4.38,1.66-8.2,8.28-9.2,10.46A5.73,5.73,0,0,1,1623.3,562.52Z"/><path fill="#571519" d="M1407.26,683.34c-10.65,0-20.79-1.94-29-5.65a5.71,5.71,0,1,1,4.69-10.42c17.61,7.91,54.2,7.05,74.28-15.21a5.71,5.71,0,1,1,8.48,7.65C1451.1,675.87,1428.18,683.34,1407.26,683.34Z"/><path fill="#571519" d="M1220.25,459.83a56.2,56.2,0,0,1-19.85-3.44,5.71,5.71,0,0,1,1.49-10.95c1-.14,25.27-4.13,39.82-49.29,15.58-47.1,33.73-95.18,68.94-120.6,42.95-31.19,139.76-57.49,191.5-43.72,16.66,4.44,27.78,12.63,33,24.35a5.71,5.71,0,0,1-10.42,4.68c-3.79-8.43-12.39-14.48-25.57-18-48.07-12.8-141.73,12.79-181.86,41.94-32.46,23.43-49.8,69.6-64.78,114.89-8.65,26.84-21,41.1-31.12,48.66a43.2,43.2,0,0,0,17.41-4,5.71,5.71,0,0,1,4.87,10.34A54.89,54.89,0,0,1,1220.25,459.83Z"/><path fill="#571519" d="M1492.06,455.6a98,98,0,0,1-20.61-2.05c-31.62-6.53-50.24-25-68.07-45-1.94-1.92-4.15-4.27-6.38-6.65-8.49-9-18.1-19.29-25.63-18.22-5.62.78-10.53,8.18-13.67,14.25a5.71,5.71,0,1,1-10.15-5.24c6.45-12.49,13.73-19.14,22.24-20.33,13.43-1.87,25.16,10.67,35.54,21.72,2.15,2.29,4.26,4.55,6.35,6.63,16.72,18.72,33.88,35.79,62.12,41.62,14.2,3.06,29.73,1.79,43-.72a106.52,106.52,0,0,1-62.14-37.35,5.71,5.71,0,1,1,8.82-7.25c34.73,42.28,86.41,35,86.94,34.93a5.71,5.71,0,0,1,3.08,10.91C1552,443.52,1522.93,455.6,1492.06,455.6Z"/><path fill="#571519" d="M1296.29,548.48A5.71,5.71,0,0,1,1291,545c-4-9.46-11.93-17.55-20.27-26.12-18.83-19.32-40.17-41.23-29-87.42a5.71,5.71,0,0,1,11.1,2.68c-9.67,40.06,8.51,58.72,26.09,76.77,9.11,9.35,17.71,18.18,22.6,29.59a5.72,5.72,0,0,1-5.25,8Z"/><path fill="#571519" d="M1582.65,497.5a5.67,5.67,0,0,1-3.81-1.46c-9.82-8.8-19.61-11.07-30.94-13.7-15.16-3.53-32.35-7.52-52.93-27.4a5.71,5.71,0,0,1,7.94-8.22c18.3,17.69,33.18,21.15,47.58,24.49,11.78,2.73,24,5.57,36,16.32a5.71,5.71,0,0,1-3.81,10Z"/><path fill="#571519" d="M1578,558.93a5.7,5.7,0,0,1-5.71-5.52c0-.33-1.35-33-19.2-52.79a5.71,5.71,0,0,1,8.48-7.65c13.88,15.37,19.08,36.48,21,49.16,5.62-6,12.25-16.93,11.26-34.05a5.71,5.71,0,1,1,11.4-.66c2.08,35.91-23.42,50.22-24.51,50.82A5.73,5.73,0,0,1,1578,558.93Z"/><path fill="#571519" d="M1494.29,386.74c-31.48,0-56-19.4-76.57-35.69-13.15-10.4-24.51-19.4-34.28-20.64-25.2-2.79-38,34.92-38.1,35.3a5.71,5.71,0,0,1-10.86-3.55c.63-1.92,15.74-47,50.31-43.09,13,1.65,25.53,11.56,40,23,25.3,20,54,42.69,93.36,29a5.71,5.71,0,0,1,3.75,10.79A83.38,83.38,0,0,1,1494.29,386.74Z"/><path fill="#571519" d="M1308.66,375.35a5.71,5.71,0,0,1-5-3c-6.45-12.07-7.45-24.14-3-35.87,10.81-28.34,49-43.08,53.32-44.66a5.71,5.71,0,1,1,3.94,10.72c-13.86,5.09-39.27,18.83-46.58,38-3.29,8.62-2.51,17.26,2.37,26.42a5.71,5.71,0,0,1-2.34,7.73A5.79,5.79,0,0,1,1308.66,375.35Z"/><path fill="#571519" d="M1653.94,518a5.71,5.71,0,0,1-5.26-7.94c8.55-20.18,16.24-58.52,13.74-79.62a5.71,5.71,0,0,1,11.34-1.35c2.79,23.51-5.43,63.89-14.56,85.43A5.7,5.7,0,0,1,1653.94,518Z"/><path fill="#571519" d="M1659,451.5a5.8,5.8,0,0,1-2.84-.75,5.71,5.71,0,0,1-2.71-6.3c.1-.42,9.7-41.66-11.09-65.28a5.71,5.71,0,0,1,8.57-7.55c14.38,16.34,16.81,38.53,16.22,54.64,8.86-14.12,17.22-36.15,4.25-58.51C1633.22,300,1598.37,265,1564.85,261a5.71,5.71,0,1,1,1.37-11.34c37.39,4.55,75,41.33,115.11,112.46,25.75,44.37-17.9,87.39-18.34,87.81A5.7,5.7,0,0,1,1659,451.5Z"/><path fill="#571519" d="M1463.94,829.47a5.71,5.71,0,0,1-5.42-3.91c-5.91-17.74-15.48-40.45-23-46.07a5.71,5.71,0,0,1,6.85-9.14c11.74,8.8,22.76,39,26.95,51.6a5.73,5.73,0,0,1-5.41,7.52Z"/><path fill="#571519" d="M1633.75,651a5.73,5.73,0,0,1-5-2.94c-4.72-8.48-11.53-24.52-14.31-35.63a5.72,5.72,0,0,1,11.09-2.77c2.47,9.88,8.82,25,13.21,32.85a5.72,5.72,0,0,1-5,8.49Z"/><path fill="#571519" d="M1470,852.62a5.72,5.72,0,0,1-5.12-3.16c-2.38-4.76-6.44-9.94-11.15-15.93-10.31-13.15-23.16-29.52-28.56-54.23a5.72,5.72,0,0,1,11.17-2.44c4.83,22.16,16.78,37.38,26.38,49.62,5.09,6.47,9.48,12.07,12.38,17.87a5.72,5.72,0,0,1-5.1,8.27Z"/><path fill="#571519" d="M1478.28,849.4a5.57,5.57,0,0,1-1.39-.17,5.72,5.72,0,0,1-4.16-6.93c1.82-7.28,8.23-13.19,13.38-17.93,1.19-1.1,2.32-2.14,3.31-3.13,12.25-12.25,25.43-24.13,42.71-38.53,39.94-33.29,67.34-64.19,83.73-94.48.9-1.65,2-3.54,3.14-5.6,8-14.19,22.93-40.58,13.88-52.65a5.71,5.71,0,0,1,9.14-6.86c13.53,18-3.12,47.52-13.08,65.13-1.13,2-2.16,3.82-3,5.43-17.1,31.57-45.39,63.57-86.47,97.81-17,14.17-29.94,25.83-42,37.83-1.08,1.09-2.33,2.24-3.64,3.45-4,3.71-9,8.33-10,12.3A5.71,5.71,0,0,1,1478.28,849.4Z"/><path fill="#571519" d="M1576.47,908c-4.64,0-10-6.27-20.75-19.73-1-1.27-1.77-2.21-2.07-2.56a243.67,243.67,0,0,0-48.56-40.45c-7.56-4.85-12.22-6.08-15.6-4a5.71,5.71,0,1,1-5.87-9.8c10.9-6.52,22.63,1,27.65,4.24A254.37,254.37,0,0,1,1562.08,878c.32.36,1.26,1.51,2.55,3.12q7,8.7,10.65,12.7c.89-2.23,1.86-5,2.51-6.82a54.55,54.55,0,0,1,3.69-9c3.15-5.25,6.35-10.45,9.55-15.64,8.7-14.15,17.7-28.77,25.21-43.79,6.34-12.68,13.27-25,20-36.93,11.16-19.86,22.7-40.41,31.36-62.43,1-2.62,2.52-5.79,4.1-9.13,4-8.44,10-21.2,8.92-27.87-.4-1.16-3.66-4.25-5.42-5.91a39.7,39.7,0,0,1-5.66-6.11l-2.93-4.45c-8-12.21-26.73-40.79-36.65-35.86a5.71,5.71,0,1,1-5.1-10.22c19-9.48,38.43,20.19,51.3,39.81l2.88,4.38a35.76,35.76,0,0,0,4,4.15c4,3.74,8,7.61,8.83,12.33,1.69,10.21-4.71,23.75-9.86,34.63-1.5,3.17-2.91,6.16-3.8,8.43-8.94,22.75-20.68,43.64-32,63.84-6.64,11.81-13.5,24-19.71,36.45-7.74,15.47-16.87,30.31-25.7,44.67-3.18,5.16-6.36,10.32-9.48,15.52a56.31,56.31,0,0,0-2.72,6.92c-2.94,8.36-5,13.61-8.67,16.05A6,6,0,0,1,1576.47,908Z"/><path fill="#571519" d="M1386.76,906.09a5.44,5.44,0,0,1-4.08-1.8c-3-3-1.75-6.87.13-12.77.27-.86.51-1.6.61-2,.93-5.6,1.66-11.54,2.36-17.29.41-3.33.81-6.66,1.27-10a207.8,207.8,0,0,0,1.79-27.76l0-5.19c-.21-27.62.26-54.55,5.18-64.38A5.71,5.71,0,0,1,1404.2,770c-4.37,8.73-4.08,45.39-4,59.18l0,5.28a219.18,219.18,0,0,1-1.89,29.3c-.45,3.27-.85,6.55-1.25,9.83-.55,4.5-1.11,9.11-1.8,13.72A125.71,125.71,0,0,0,1406,873.78c1.09-1.51,2.18-3,3.28-4.51,1.45-2,3.26-5,5.17-8.13,6.9-11.45,15.48-25.69,27.46-27.69,4.65-.77,9.15-.1,13.49.55a50.91,50.91,0,0,0,7.23.75,5.72,5.72,0,1,1,0,11.43,60.31,60.31,0,0,1-8.91-.88c-3.64-.55-7.06-1.06-9.93-.58-6.79,1.13-14.47,13.88-19.56,22.31-2,3.41-4,6.63-5.77,9-1.07,1.44-2.12,2.91-3.19,4.39-5.24,7.28-10.66,14.83-18.13,20.64C1392.3,904.85,1389.05,906.09,1386.76,906.09Z"/><path fill="#571519" d="M1087.65,1118a5.61,5.61,0,0,1-2-.34,5.72,5.72,0,0,1-3.42-7.32c8.32-22.91,16-46.56,23.47-69.43,12.61-38.73,25.66-78.77,42.23-117,2.44-5.64,4.8-11.36,7.16-17.08,11.37-27.58,23.13-56.1,45.64-78.05,18.92-18.45,71.55-40.94,113.84-59,24.13-10.31,51.48-22,54.9-26.07a5.6,5.6,0,0,1,7.77-1.86,5.8,5.8,0,0,1,1.9,7.93c-3.58,6-18.46,12.72-60.08,30.5-41.42,17.7-93,39.72-110.35,56.68-20.82,20.31-32.13,47.71-43.06,74.22-2.38,5.79-4.77,11.57-7.24,17.27-16.36,37.73-29.31,77.52-41.85,116-7.47,23-15.21,46.7-23.59,69.79A5.71,5.71,0,0,1,1087.65,1118Z"/><path fill="#571519" d="M1399.84,1505.18a5.71,5.71,0,0,1-5.67-5.09c-2.26-20.37-17.94-62.54-27.31-87.73-2-5.48-3.85-10.35-5.27-14.31-6.18-17.16-13.43-34.32-20.44-50.91-5.49-13-11.16-26.38-16.31-39.78-16.73-43.51-28.28-89.29-39.45-133.57-5-19.58-10.06-39.84-15.53-59.55l-1.61-5.8c-8.78-31.7-17.08-61.65-29.47-91.39-8.79-21.1-16.29-27.34-20-29.19a5.71,5.71,0,0,1,5.11-10.22c9.08,4.54,17.63,16.32,25.43,35,12.66,30.4,21.44,62.08,29.93,92.73l1.61,5.8c5.51,19.83,10.64,40.16,15.6,59.81,11.08,44,22.55,89.39,39,132.26,5.09,13.22,10.72,26.54,16.17,39.43,7.07,16.73,14.39,34,20.67,51.49,1.41,3.93,3.21,8.76,5.24,14.2,10.17,27.35,25.54,68.68,28,90.45a5.72,5.72,0,0,1-5,6.31A4.68,4.68,0,0,1,1399.84,1505.18Z"/><path fill="#571519" d="M2268.31,1502.23q-3.36,0-6.82-.2c-24.21-1.34-48.18-11.69-69.32-20.82l-12.44-5.34c-27.05-11.56-55-23.5-80.57-38.84-52.72-31.63-179.47-156.15-193.26-172.69-4.26-5.11-5.7-12.06-7.09-18.78a60.37,60.37,0,0,0-2.43-9.38,5.71,5.71,0,1,1,10.6-4.24,67.39,67.39,0,0,1,3,11.3c1.12,5.34,2.26,10.87,4.69,13.79,16.69,20,140.56,140.33,190.36,170.2,24.88,14.94,52.48,26.73,79.18,38.13l12.47,5.36c21.27,9.18,43.26,18.67,65.44,19.91,67.26,3.66,86.68-53,91.06-101.29,7.56-83.12-49-162.83-99-233.14-15.83-22.3-30.78-43.36-43.47-64-25.76-41.85-47.89-86.58-69.29-129.85-24.19-48.89-49.19-99.44-79.38-145.6-50.24-76.84-136.4-87-219.73-96.86-26.75-3.16-54.4-6.42-80.42-11.85l-.83-.17c-26.28-5.47-56.07-11.68-79.23-25.57a5.71,5.71,0,1,1,5.88-9.8c21.5,12.9,50.28,18.9,75.68,24.18l.83.18c25.53,5.32,52.93,8.55,79.43,11.68,85.93,10.15,174.79,20.65,228,101.95,30.56,46.74,55.72,97.61,80.06,146.8,21.29,43,43.3,87.52,68.78,128.92,12.49,20.29,27.34,41.2,43.05,63.34,51.08,71.94,109,153.46,101,240.79C2358,1462.77,2323.9,1502.22,2268.31,1502.23Z"/><path fill="#571519" d="M1900.29,1237.1a5.72,5.72,0,0,1-3.35-10.35c43.15-31.07,57.35-99.13,49.06-150.3a5.72,5.72,0,0,1,11.29-1.82c8.83,54.63-6.76,127.61-53.67,161.4A5.66,5.66,0,0,1,1900.29,1237.1Z"/><path fill="#571519" d="M2249,1234.67a5.69,5.69,0,0,1-4.9-2.77c-13.51-22.48-40.41-29.38-66.43-36.06-10.87-2.79-22.11-5.68-32.1-9.67-38.48-15.37-68-38.25-99.16-62.49-10.64-8.26-21.64-16.81-33-25-3.36-2.43-7.71-6.28-12.74-10.74-10.46-9.29-28-24.8-36.36-24.8h-.13c-3.66.06-5.76,1.72-9.44,4.89a41.79,41.79,0,0,1-8,5.75,5.71,5.71,0,0,1-5.29-10.13,31.62,31.62,0,0,0,5.81-4.29c3.9-3.34,8.74-7.5,16.68-7.64,11.78-.07,26.46,11.85,44.28,27.67,4.8,4.25,8.94,7.93,11.85,10,11.53,8.32,22.62,16.93,33.34,25.26,30.55,23.72,59.4,46.13,96.39,60.9,9.3,3.72,19.69,6.39,30.7,9.21,28.25,7.25,57.46,14.75,73.38,41.25a5.71,5.71,0,0,1-4.89,8.65Z"/><path fill="#571519" d="M1897.92,1237.48a5.69,5.69,0,0,1-3.74-1.4c-4.17-3.62-8.33-7.31-12.5-11-12.37-11-25.17-22.37-38.44-31.94a93.15,93.15,0,0,1-8.54-7.25,82.58,82.58,0,0,0-7.36-6.3,29.24,29.24,0,0,0-2.87-1.51c-4-1.93-8-3.93-8.42-8.35a6.71,6.71,0,0,1,3-6.11c3-2.2,6.79-2.21,10.46-2.15,2.16,0,5.17,0,6.25-.67,28.09-18.36,49.2-52.27,55.1-88.51,2.44-15,1.83-29.46-1.62-38.69-.25-.37-2.27-2.9-13.13-9.77-3.74-2.37-4.85-5.13-3.31-8.21a11.48,11.48,0,0,1,8.1-6c6.49-1.29,13.81,2.25,16.88,4.79,5.79,4.79,10.29,11.17,14.63,17.34,3.56,5,6.92,9.8,10.79,13.54,3.16,3,6.9,6.06,10.87,9.25,7,5.62,14.24,11.45,19.12,18.22a5.72,5.72,0,1,1-9.28,6.68c-4-5.52-10.6-10.85-17-16-4-3.21-8.11-6.52-11.64-9.92-4.65-4.49-8.49-9.93-12.19-15.18l-1-1.46c3.14,14.39,1.21,30.37.08,37.28-6.39,39.3-29.43,76.18-60.12,96.23a14.85,14.85,0,0,1-5.23,2.06c2,1.63,3.87,3.37,5.71,5.07a84.13,84.13,0,0,0,7.48,6.39c13.74,9.91,26.76,21.48,39.35,32.66,4.14,3.68,8.27,7.35,12.4,10.94a5.71,5.71,0,0,1-3.75,10Z"/><path fill="#571519" d="M1222.32,1352.67a5.65,5.65,0,0,1-1.8-.29,5.71,5.71,0,0,1-3.62-7.23c11-33,58.35-149.43,73.69-160.94a5.71,5.71,0,1,1,6.85,9.14c-10.25,7.69-55.32,112.26-69.7,155.42A5.72,5.72,0,0,1,1222.32,1352.67Z"/><path fill="#571519" d="M1895.32,1055.24a5.7,5.7,0,0,1-5.08-3.09c-10.43-20.16-26.94-43.79-42.91-66.64-14.36-20.54-27.92-40-37.68-57.38-10.25-18.31-13.79-47.53-16.13-66.86-.71-5.85-1.32-10.89-2-14.43-5.71-26.13-4.58-49.11-3.76-65.9,1-19.94.59-25.78-3.92-26-15.74-.95-28,23.71-32.9,47-2.53,12.06-2,22.07-1.43,33.66.75,14.57,1.6,31.08-4,54.47a5.71,5.71,0,1,1-11.11-2.66c5.22-21.79,4.46-36.75,3.72-51.23-.62-11.86-1.19-23.07,1.65-36.59,5.66-26.72,20.58-57.4,44.74-56,16.5,1,15.65,18.13,14.68,38-.79,16.15-1.88,38.26,3.54,63.11.74,4.06,1.37,9.26,2.1,15.28,2.24,18.45,5.62,46.32,14.77,62.66,9.47,16.93,22.87,36.11,37.06,56.42,16.19,23.15,32.92,47.09,43.7,67.93a5.71,5.71,0,0,1-2.45,7.7A5.63,5.63,0,0,1,1895.32,1055.24Z"/><path fill="#571519" d="M1597.3,962.36a5.72,5.72,0,0,1-5.2-3.35c-1.3-2.86-12.56-28.37-7.37-44,6.13-21.76,116.43-33.56,176.69-23.42a5.71,5.71,0,1,1-1.89,11.26c-65.29-11-158.12,4.42-163.93,15.64-3.24,9.79,3.88,29.15,6.9,35.79a5.72,5.72,0,0,1-5.2,8.08Z"/><path fill="#571519" d="M1594.64,1018.5a5.71,5.71,0,0,1-5-2.92c-9-16.14-14.47-38.49-2.64-52.79,20-24.29,93.25-41.5,96.36-42.22A5.71,5.71,0,0,1,1686,931.7c-20.13,4.67-75.56,20.67-90.13,38.36-8.17,9.87-3.06,27.69,3.8,39.94a5.71,5.71,0,0,1-2.19,7.77A5.65,5.65,0,0,1,1594.64,1018.5Z"/><path fill="#571519" d="M1601.72,1057.28a5.7,5.7,0,0,1-4-1.59c-1-.93-23.32-22.8-9.69-41.9,11.61-16.31,81.62-41.38,89.57-44.18a5.71,5.71,0,0,1,3.8,10.77c-28.69,10.14-76.89,30-84.07,40-7.91,11.09,8.16,26.88,8.32,27a5.71,5.71,0,0,1-4,9.82Z"/><path fill="#571519" d="M1775.47,1134.45a5.11,5.11,0,0,1-.78,0c-28.75-4-81.36-26.14-97.27-33.77-11.8-4.92-30.34-4.91-45.09-4.88-9.09,0-16.2,0-20.71-1.12-9.63-2.4-17.64-14.58-19.81-25-1.77-8.41.2-15.3,5.53-19.41,20.19-15.24,76.72-28.4,79.12-29a5.71,5.71,0,0,1,2.57,11.13c-.57.13-56.56,13.16-74.76,26.9-2.29,1.77-1.66,6.17-1.28,8,1.64,7.82,7.57,15.26,11.39,16.22,3.16.79,10.31.77,17.93.77,15.76,0,35.59,0,49.78,5.89,15.76,7.54,66.76,29.11,94.15,32.87a5.71,5.71,0,0,1-.77,11.37Z"/><path fill="#571519" d="M1832.43,1169.3a5.73,5.73,0,0,1-4-1.67c-9.58-9.6-41-31.18-49.76-32.28a5.71,5.71,0,1,1,1.42-11.34c13.3,1.67,47.26,26.37,56.42,35.54a5.71,5.71,0,0,1-4,9.75Z"/><path fill="#571519" d="M1581.32,1520.82a5.72,5.72,0,0,1-5.53-4.27c-34.94-134-108.56-614.4-108.44-668.71a5.71,5.71,0,0,1,5.71-5.7h0a5.72,5.72,0,0,1,5.7,5.73c-.11,54,73.26,532.28,108.08,665.8a5.73,5.73,0,0,1-4.09,7A5.52,5.52,0,0,1,1581.32,1520.82Z"/><path fill="#571519" d="M1930.78,1059.76a5.69,5.69,0,0,1-5.11-3.16c-25.25-50.5-31.72-112.67-16.47-158.39a5.71,5.71,0,1,1,10.83,3.61c-14.33,43-8.1,101.75,15.86,149.68a5.71,5.71,0,0,1-5.11,8.26Z"/><path fill="#571519" d="M2031.25,1551.43a5.7,5.7,0,0,1-5.69-5.43c-1-19.75-4.11-44.88-7.43-71.48-5.31-42.58-10.8-86.6-7.44-111.27a5.71,5.71,0,1,1,11.32,1.54c-3.16,23.19,2.24,66.47,7.45,108.31,3.35,26.83,6.51,52.16,7.5,72.34a5.7,5.7,0,0,1-5.42,6Z"/><path fill="#571519" d="M1276.41,1596.25h-.48l-546.3-45.68a14.27,14.27,0,0,1-13.93-13.16L566.71,1106a5.64,5.64,0,0,1-.32-1.86,14.26,14.26,0,0,1,14.24-14.24h.23l564.78,21.94h0a14.2,14.2,0,0,1,14,13.33l130.79,455.25a5.56,5.56,0,0,1,.22,1.57A14.24,14.24,0,0,1,1276.41,1596.25Zm-698.5-492.79,148.87,431a5.91,5.91,0,0,1,.31,1.87,2.8,2.8,0,0,0,2.81,2.8l.48,0,546.2,45.68a2.84,2.84,0,0,0,2.58-2.22l-130.71-454.94a6,6,0,0,1-.22-1.57,2.81,2.81,0,0,0-2.81-2.81l-564.87-21.94A2.8,2.8,0,0,0,577.91,1103.46Z"/><path fill="#571519" d="M1278.82,1599.92a5.71,5.71,0,0,1-.62-11.39c1.87-.21,187.61-20.85,262.9-33.82,9.82-1.7,18.3-6.31,24.7-10.93L1286.54,1581a5.78,5.78,0,0,1-6.42-4.91,5.71,5.71,0,0,1,4.91-6.42l297.3-39.65a5.72,5.72,0,0,1,5.21,9.25c-.73.9-18.08,22.12-44.5,26.67-75.63,13-261.71,33.72-263.58,33.93Z"/><path fill="#571519" d="M1581.88,1540.59h-.41l-316.11-22.73a5.71,5.71,0,1,1,.82-11.4l316.11,22.73a5.71,5.71,0,0,1-.41,11.41Z"/><path fill="#571519" d="M2329.81,1583l-.47,0-1064.85-87a5.71,5.71,0,0,1,.93-11.39l1064.85,87a5.71,5.71,0,0,1-.46,11.41Z"/><path fill="#571519" d="M683.74,1448.48h-.48l-301.32-24.63a5.71,5.71,0,1,1,.93-11.39l301.33,24.63a5.71,5.71,0,0,1-.46,11.4Z"/><path fill="#571519" d="M1779.28,723.83a5.71,5.71,0,0,1-5.71-5.64l-.86-70.32a5.71,5.71,0,0,1,5.64-5.78h.07a5.71,5.71,0,0,1,5.71,5.64L1785,718a5.72,5.72,0,0,1-5.64,5.79Z"/><path fill="#571519" d="M1644.81,813a5.71,5.71,0,0,1,0-11.42l43.58-.36h.05a5.71,5.71,0,0,1,0,11.42l-43.58.36Z"/><path fill="#571519" d="M1865,811.15a5.72,5.72,0,0,1,0-11.43l48.53-.4h0a5.71,5.71,0,0,1,0,11.42l-48.53.41Z"/><path fill="#571519" d="M1730,739.2a5.73,5.73,0,0,1-4.7-2.45l-24.52-35.33a5.72,5.72,0,0,1,9.39-6.52l24.52,35.33a5.71,5.71,0,0,1-4.69,9Z"/><path fill="#571519" d="M1850.39,912.71a5.71,5.71,0,0,1-4.7-2.46L1826.05,882a5.72,5.72,0,1,1,9.39-6.52l19.64,28.3a5.72,5.72,0,0,1-4.69,9Z"/><path fill="#571519" d="M1698.12,768.34a5.74,5.74,0,0,1-2.67-.67l-57.71-30.54a5.71,5.71,0,1,1,5.34-10.09l57.72,30.53a5.72,5.72,0,0,1-2.68,10.77Z"/><path fill="#571519" d="M1920.33,885.88a5.67,5.67,0,0,1-2.67-.66l-63.76-33.73a5.71,5.71,0,0,1,5.35-10.09L1923,875.12a5.71,5.71,0,0,1-2.67,10.76Z"/><path fill="#571519" d="M1856.21,766a5.71,5.71,0,0,1-3-10.6l59.68-36.07a5.71,5.71,0,0,1,5.9,9.78l-59.67,36.07A5.65,5.65,0,0,1,1856.21,766Z"/><path fill="#571519" d="M1650.69,889.75a5.71,5.71,0,0,1-3-10.6l56.07-33.9a5.71,5.71,0,1,1,5.91,9.78l-56.07,33.89A5.69,5.69,0,0,1,1650.69,889.75Z"/><path fill="#571519" d="M1826.35,736.8a5.71,5.71,0,0,1-4.87-8.7l20.13-32.88a5.72,5.72,0,0,1,9.75,6l-20.14,32.88A5.7,5.7,0,0,1,1826.35,736.8Z"/></g></svg>