<?xml version="1.0" standalone="no"?><!DOCTYPE svg PUBLIC "-//W3C//DTD SVG 1.1//EN" "http://www.w3.org/Graphics/SVG/1.1/DTD/svg11.dtd"><svg class="icon" height="512" viewBox="0 0 1024 1024" version="1.1" xmlns="http://www.w3.org/2000/svg"><path d="M802.99963 929.027975 118.319779 929.027975 118.319779 184.809099l418.252873 0 60.194964-57.993832-1.545192-1.545192-476.901621 0c-32.878828 0-59.539025 26.659173-59.539025 59.539025l0 744.218876c0 32.879851 26.66122 59.534931 59.539025 59.534931l684.679851 0c32.879851 0 59.539025-26.65508 59.539025-59.534931L862.539678 493.051439l-59.539025 56.838519L803.000654 929.027975 802.99963 929.027975zM1012.573763 167.375032c-0.551562-32.546254-16.398482-63.901379-46.895053-93.125981-26.857694-25.76071-56.511062-38.811957-88.141456-38.811957-49.506531 0-85.61696 31.979342-95.441723 41.758056-13.922081 13.754259-408.550906 407.795707-408.550906 407.795707-3.097548 3.15383-5.361101 7.004531-6.505158 11.293207-10.689457 39.508829-64.264653 214.875882-64.790632 216.623689-2.75781 8.983605-0.286526 18.776645 6.323009 25.317619 4.756327 4.771677 11.094686 7.296173 17.58961 7.296173 2.560312 0 5.131881-0.37453 7.66047-1.160429 1.815345-0.613984 182.798303-59.134819 212.58163-68.028373 3.923356-1.160429 7.498788-3.28379 10.43363-6.161327C575.633273 651.623991 938.352341 294.53106 967.714066 264.207427 998.064304 232.900398 1013.155001 200.342888 1012.573763 167.375032L1012.573763 167.375032zM924.951123 222.799342C908.382772 239.894695 778.664386 368.065843 539.398 603.77317l-18.313088 18.053168c-27.430746 8.487302-93.116771 29.596062-142.768611 45.613874 15.987113-52.794413 35.174104-116.570949 43.718711-146.732899 51.140751-51.067073 389.217582-388.640438 402.067238-401.313062 2.503007-2.49789 25.323758-24.422226 53.435003-24.422226 15.956414 0 31.339776 7.28594 46.947242 22.257933 18.666128 17.907858 28.288277 35.117822 28.548196 51.192939C953.324334 184.964642 943.879218 203.247031 924.951123 222.799342L924.951123 222.799342zM924.951123 222.799342" /></svg>